<svg version="1.1" xmlns="http://www.w3.org/2000/svg" viewBox="0 0 999.0179078994694 730.478513099458" width="999.0179078994694" height="730.478513099458">
  <!-- svg-source:excalidraw -->
  
  <defs>
    <style class="style-fonts">
      @font-face {
        font-family: "Virgil";
        src: url("https://unpkg.com/@excalidraw/excalidraw@0.14.1/dist/excalidraw-assets/Virgil.woff2");
      }
      @font-face {
        font-family: "Cascadia";
        src: url("https://unpkg.com/@excalidraw/excalidraw@0.14.1/dist/excalidraw-assets/Cascadia.woff2");
      }
    </style>
  </defs>
  <g stroke-linecap="round" transform="translate(267.6596719595901 289.3458670673586) rotate(0 170 117.49999999999997)"><path d="M32 0 M32 0 C87.52 2.05, 145.05 0.2, 308 0 M32 0 C138.08 0.29, 244.43 -0.02, 308 0 M308 0 C329 -1.19, 338.75 11.35, 340 32 M308 0 C331.28 0.03, 338.42 11.79, 340 32 M340 32 C341.35 94.01, 340.71 157.12, 340 203 M340 32 C340.41 89.05, 340.94 148.76, 340 203 M340 203 C339.35 224.22, 329.23 236.1, 308 235 M340 203 C339.2 222.26, 331.2 234.9, 308 235 M308 235 C231.36 234.11, 152.96 233.9, 32 235 M308 235 C228.09 236.98, 149.25 236.19, 32 235 M32 235 C11.52 233.65, -0.26 223.79, 0 203 M32 235 C8.9 235.11, -0.03 225.37, 0 203 M0 203 C-3.51 161.23, -3.5 118.48, 0 32 M0 203 C-1.09 157.13, -0.15 109.81, 0 32 M0 32 C-0.9 11.87, 12.53 -0.29, 32 0 M0 32 C-1.83 11.3, 10.18 -1.59, 32 0" stroke="#000000" stroke-width="2" fill="none"></path></g><g stroke-opacity="0.4" fill-opacity="0.4" stroke-linecap="round" transform="translate(270.47210575219924 528.6186083164687) rotate(0 173 44.9237647547223)"><path d="M5.32 5.95 C5.32 5.95, 5.32 5.95, 5.32 5.95 M5.32 5.95 C5.32 5.95, 5.32 5.95, 5.32 5.95 M3.49 20.26 C6.48 14.41, 9.13 12.92, 16.61 5.16 M3.49 20.26 C8.43 14.67, 12.85 9.78, 16.61 5.16 M3.62 32.3 C11.17 24.53, 19.28 16.24, 27.9 4.37 M3.62 32.3 C9.67 26.11, 14.3 20.94, 27.9 4.37 M3.75 44.34 C15.76 30.01, 30.38 16.04, 38.53 4.34 M3.75 44.34 C14.68 31.77, 26.07 17.67, 38.53 4.34 M3.89 56.38 C17.84 41.52, 31.31 25.12, 49.16 4.3 M3.89 56.38 C19.17 39.56, 34.18 22.3, 49.16 4.3 M3.36 69.18 C21.13 47.27, 39.74 25.16, 59.79 4.27 M3.36 69.18 C23.59 46.84, 42.03 24.67, 59.79 4.27 M3.5 81.22 C22.35 60.68, 38.99 40.81, 70.42 4.24 M3.5 81.22 C29.94 50.14, 56.89 21.57, 70.42 4.24 M9.54 86.46 C29.07 67.25, 46.82 43.04, 81.05 4.2 M9.54 86.46 C37.04 55.85, 63.11 24.8, 81.05 4.2 M16.23 90.96 C38.75 63.27, 65.13 35.13, 91.02 4.92 M16.23 90.96 C32.76 71.38, 50.47 50.08, 91.02 4.92 M25.55 92.43 C51.18 60.64, 81.44 27.4, 101.65 4.89 M25.55 92.43 C49.53 65.61, 72.7 37.01, 101.65 4.89 M36.18 92.4 C56.62 69.43, 73.2 48.48, 112.28 4.85 M36.18 92.4 C57.43 68.69, 79.49 43.55, 112.28 4.85 M46.81 92.36 C71.84 62.72, 99.16 29.56, 122.91 4.82 M46.81 92.36 C68.36 66.65, 92.33 40.05, 122.91 4.82 M57.44 92.33 C72.19 72.1, 91.68 55.16, 133.54 4.78 M57.44 92.33 C83.9 61.92, 111.16 30.45, 133.54 4.78 M68.07 92.3 C94.18 64.8, 116.61 33.89, 144.17 4.75 M68.07 92.3 C85.1 73.29, 100.55 54.3, 144.17 4.75 M78.7 92.26 C97.57 69.51, 118.83 46.95, 154.8 4.71 M78.7 92.26 C93.58 73.58, 109.94 54.78, 154.8 4.71 M89.33 92.23 C107.29 74.09, 121.92 53.35, 165.43 4.68 M89.33 92.23 C113.92 63.93, 139.34 35.35, 165.43 4.68 M99.96 92.19 C116.16 72.38, 134.43 55.98, 176.06 4.65 M99.96 92.19 C114.94 75.1, 130.77 57.5, 176.06 4.65 M110.59 92.16 C140.79 58.41, 172.12 24.31, 186.69 4.61 M110.59 92.16 C128.97 68.59, 149.1 47.11, 186.69 4.61 M121.22 92.12 C147.94 60.66, 175.18 30.38, 197.32 4.58 M121.22 92.12 C142.39 69.54, 160.2 46.37, 197.32 4.58 M131.19 92.84 C147.08 75.89, 164.93 54.58, 207.95 4.54 M131.19 92.84 C149.43 71.93, 169.2 51.61, 207.95 4.54 M141.82 92.81 C169.65 58.34, 199.07 24.4, 218.58 4.51 M141.82 92.81 C161.73 68.61, 182.45 43.84, 218.58 4.51 M152.45 92.77 C177.09 66.29, 197.47 42.85, 229.21 4.47 M152.45 92.77 C169.87 71.58, 188.79 50.1, 229.21 4.47 M163.08 92.74 C178.77 72.78, 193.04 56.91, 239.84 4.44 M163.08 92.74 C187.13 64.04, 212.9 33.6, 239.84 4.44 M173.71 92.71 C191.8 68.12, 214.95 47.61, 250.47 4.4 M173.71 92.71 C190.27 71.98, 208.98 52.28, 250.47 4.4 M184.34 92.67 C213.01 59.31, 241.06 26.7, 261.1 4.37 M184.34 92.67 C204.52 68.41, 226.01 45.42, 261.1 4.37 M194.97 92.64 C223.79 60.56, 253.92 25.11, 271.73 4.34 M194.97 92.64 C221.04 62.55, 248.6 31.6, 271.73 4.34 M205.6 92.6 C221.82 68.87, 240.4 48.14, 282.36 4.3 M205.6 92.6 C231.17 63.62, 254.13 35.52, 282.36 4.3 M216.23 92.57 C243.94 61.23, 269.06 32.86, 292.99 4.27 M216.23 92.57 C238.24 65.61, 261.46 37.92, 292.99 4.27 M226.86 92.53 C243.3 74.16, 263.66 50.89, 303.62 4.23 M226.86 92.53 C247.73 67.54, 268.44 43.57, 303.62 4.23 M237.49 92.5 C255.02 74.25, 271.56 53.28, 314.25 4.2 M237.49 92.5 C267.36 59.22, 296.98 24.08, 314.25 4.2 M248.12 92.46 C275.35 63.28, 298.92 32.6, 326.19 2.65 M248.12 92.46 C273.42 64.35, 297.83 35.98, 326.19 2.65 M258.75 92.43 C291.26 56.18, 321.64 21.11, 336.17 3.37 M258.75 92.43 C277.08 69.79, 297.94 46.25, 336.17 3.37 M269.38 92.39 C283.81 73.36, 298.79 56.06, 342.21 8.62 M269.38 92.39 C297.83 60.22, 327.09 26.74, 342.21 8.62 M280.01 92.36 C305.11 62.39, 329.93 31.28, 348.24 13.87 M280.01 92.36 C302.79 66, 327.68 38.65, 348.24 13.87 M290.64 92.33 C311.96 70.05, 329.43 46.8, 351.66 22.14 M290.64 92.33 C305.81 76.89, 320.04 59.45, 351.66 22.14 M301.27 92.29 C321.05 70.85, 339.75 48.68, 351.79 34.18 M301.27 92.29 C315.16 75.12, 329.1 60.47, 351.79 34.18 M311.9 92.26 C326.08 74.48, 340.59 58.24, 351.92 46.22 M311.9 92.26 C325.54 77.16, 338.94 62, 351.92 46.22 M323.85 90.71 C332.94 79.68, 346.61 65.6, 352.06 58.26 M323.85 90.71 C330.38 83.91, 338.15 76.32, 352.06 58.26" stroke="#fd7e14" stroke-width="1" fill="none"></path><path d="M22.46 0 M22.46 0 C108.2 -0.12, 191.21 0.09, 323.54 0 M22.46 0 C129.93 1.04, 238.84 0.29, 323.54 0 M323.54 0 C337.34 -0.66, 344.32 8.67, 346 22.46 M323.54 0 C337.6 1.78, 348.26 9.16, 346 22.46 M346 22.46 C347.41 42.06, 346.15 59.33, 346 67.39 M346 22.46 C346.28 38.93, 346.69 57.95, 346 67.39 M346 67.39 C346.35 80.51, 336.79 90.7, 323.54 89.85 M346 67.39 C344.62 83.17, 340.79 90.56, 323.54 89.85 M323.54 89.85 C238.56 87.48, 151.31 86.88, 22.46 89.85 M323.54 89.85 C211.38 92.09, 99.22 92.23, 22.46 89.85 M22.46 89.85 C9.11 89.27, 1.84 82.08, 0 67.39 M22.46 89.85 C7.93 91.89, -0.09 81.67, 0 67.39 M0 67.39 C0.66 54.98, 2.11 40.51, 0 22.46 M0 67.39 C-0.32 51.59, 0.02 35.44, 0 22.46 M0 22.46 C-0.7 8.18, 6 0, 22.46 0 M0 22.46 C-0.79 5.91, 9.74 -1.95, 22.46 0" stroke="#000000" stroke-width="2" fill="none"></path></g><g stroke-linecap="round"><g transform="translate(229.76982796434083 524.3162099481588) rotate(0 194.42242977621578 0.45540466743983643)"><path d="M-0.71 1.04 C63.97 0.99, 322.68 -0.05, 387.43 -0.25 M1.12 0.54 C66.21 0.68, 324.69 1.07, 389.55 1.16" stroke="#000000" stroke-width="1" fill="none"></path></g></g><mask></mask><g stroke-opacity="0.6" fill-opacity="0.6" stroke-linecap="round" transform="translate(428.1419708884024 436.66160879944357) rotate(0 88.05153371623845 41.60306743247679)"><path d="M3.07 7.96 C3.07 7.96, 3.07 7.96, 3.07 7.96 M3.07 7.96 C3.07 7.96, 3.07 7.96, 3.07 7.96 M0.84 16.63 C4.97 13.52, 5.16 8.6, 10.68 5.31 M0.84 16.63 C3.82 12.08, 8.16 8.3, 10.68 5.31 M1.23 22.27 C6.98 14.2, 12.69 8.99, 17.63 3.4 M1.23 22.27 C5.51 17.6, 8.32 13.15, 17.63 3.4 M0.97 28.67 C8.72 17.76, 17.14 9.33, 23.93 2.25 M0.97 28.67 C7.47 22.5, 12.52 14.65, 23.93 2.25 M0.71 35.07 C12.55 24.61, 20.72 12.32, 28.92 2.61 M0.71 35.07 C11.48 23.76, 19.62 11.48, 28.92 2.61 M1.1 40.71 C14.78 28.03, 23.94 14.47, 34.56 2.22 M1.1 40.71 C7.89 31.2, 16.85 23.91, 34.56 2.22 M0.84 47.11 C14.49 31.73, 31.92 12.52, 39.55 2.58 M0.84 47.11 C16.96 29.54, 30.94 12.08, 39.55 2.58 M1.23 52.75 C11.27 43.93, 19.12 32.98, 45.19 2.18 M1.23 52.75 C15.3 36.84, 29.3 20.27, 45.19 2.18 M0.97 59.15 C17.16 38.85, 36.26 19.6, 50.18 2.54 M0.97 59.15 C16.24 40.48, 32.89 22.72, 50.18 2.54 M0.71 65.54 C13.38 52.25, 23.16 40.88, 55.82 2.15 M0.71 65.54 C13.27 52.14, 24.31 37.62, 55.82 2.15 M2.42 69.68 C22.44 45.44, 44.05 23.88, 60.81 2.51 M2.42 69.68 C21.2 46.92, 41.07 22.9, 60.81 2.51 M2.81 75.32 C22.56 48.8, 44.43 26.63, 65.8 2.87 M2.81 75.32 C17.1 57.83, 30.22 41.66, 65.8 2.87 M5.83 77.95 C26.62 55.24, 49.32 28.28, 71.44 2.47 M5.83 77.95 C22.31 59.68, 38.11 40.77, 71.44 2.47 M8.85 80.57 C34.24 49.94, 60.75 22.18, 76.43 2.83 M8.85 80.57 C28.98 58.53, 47.31 37.26, 76.43 2.83 M13.18 81.68 C33 57.05, 54.03 34.5, 82.07 2.44 M13.18 81.68 C34.59 55.88, 56.17 32.03, 82.07 2.44 M17.51 82.8 C36.29 60.09, 58.76 37.94, 87.06 2.8 M17.51 82.8 C40.05 55.86, 64.15 29.01, 87.06 2.8 M21.84 83.91 C46.22 58.51, 70.32 30.12, 92.7 2.41 M21.84 83.91 C48.57 53.53, 76.73 20.85, 92.7 2.41 M26.83 84.27 C51.3 54.36, 79.84 22.78, 97.69 2.77 M26.83 84.27 C52.98 53.69, 78.56 23.77, 97.69 2.77 M32.47 83.88 C48.37 62.87, 62.61 46.07, 103.33 2.37 M32.47 83.88 C58.76 54.42, 84.42 24.1, 103.33 2.37 M37.46 84.24 C63.06 55.48, 86.38 27.98, 108.32 2.73 M37.46 84.24 C52.37 68.55, 65.18 52.16, 108.32 2.73 M43.1 83.85 C70.42 53.83, 93.64 22.05, 113.96 2.34 M43.1 83.85 C69.16 52.81, 94.4 23.53, 113.96 2.34 M48.09 84.21 C66.13 61.21, 86.34 41.08, 118.95 2.7 M48.09 84.21 C66.29 63.6, 83.21 43.52, 118.95 2.7 M53.73 83.81 C75.22 57.58, 98.99 32.21, 124.59 2.3 M53.73 83.81 C78.87 55.54, 103.94 26.36, 124.59 2.3 M58.72 84.17 C75.26 67.16, 89.73 49.85, 129.58 2.66 M58.72 84.17 C86.52 52.52, 112.42 23.11, 129.58 2.66 M64.36 83.78 C80.32 65.12, 93.69 48.61, 135.22 2.27 M64.36 83.78 C84.52 61.43, 103.62 39.83, 135.22 2.27 M69.35 84.14 C97.14 53.16, 122.94 20.1, 140.21 2.63 M69.35 84.14 C88.76 62.77, 108.07 42.18, 140.21 2.63 M74.99 83.74 C101.6 51.72, 131.47 21.32, 145.85 2.23 M74.99 83.74 C97.93 56.49, 121.13 30, 145.85 2.23 M79.98 84.1 C108.13 52.26, 133.68 21.74, 150.84 2.59 M79.98 84.1 C94.97 66.07, 109.96 49.36, 150.84 2.59 M85.62 83.71 C105.69 60.48, 126.56 35.3, 157.13 1.44 M85.62 83.71 C108.51 56.52, 133.41 29.03, 157.13 1.44 M90.61 84.07 C116.73 54.29, 146.58 22.65, 161.47 2.56 M90.61 84.07 C116.63 54.17, 141.03 25.53, 161.47 2.56 M96.25 83.67 C112.67 65.67, 124.5 48.68, 165.8 3.67 M96.25 83.67 C118.28 57.73, 142.64 30.66, 165.8 3.67 M101.24 84.03 C124 54.53, 150.19 27.22, 170.13 4.79 M101.24 84.03 C119.58 63.29, 137.31 41.54, 170.13 4.79 M106.23 84.39 C133.21 56.25, 156.45 27.42, 173.15 7.41 M106.23 84.39 C120.73 67.67, 134.32 51.67, 173.15 7.41 M111.87 84 C135.5 56.5, 161.85 26, 175.51 10.79 M111.87 84 C132.2 61.64, 151.71 39.09, 175.51 10.79 M116.86 84.36 C129.31 70.13, 139.57 56.4, 175.9 16.43 M116.86 84.36 C130.41 67.25, 144.04 51.08, 175.9 16.43 M122.5 83.96 C133.97 70.02, 145.54 58.37, 176.3 22.08 M122.5 83.96 C137.92 67.23, 154.23 47.65, 176.3 22.08 M127.49 84.32 C140.93 70.43, 152.06 54.66, 176.04 28.48 M127.49 84.32 C145.18 64.96, 162.67 43.41, 176.04 28.48 M133.13 83.93 C147.77 69.86, 158.1 54.26, 176.43 34.12 M133.13 83.93 C144.35 71.3, 154.77 59.55, 176.43 34.12 M138.12 84.29 C150.2 68.85, 164.02 52.32, 176.17 40.52 M138.12 84.29 C149.16 71.57, 160.76 58.79, 176.17 40.52 M143.76 83.89 C154.6 74.37, 161.74 62.45, 176.56 46.16 M143.76 83.89 C150.89 74.82, 157.73 66.34, 176.56 46.16 M148.75 84.26 C157.58 71.4, 169.68 61.95, 176.3 52.56 M148.75 84.26 C155 77.99, 161.27 70.29, 176.3 52.56 M154.39 83.86 C164.82 72.09, 170.59 62.47, 176.7 58.2 M154.39 83.86 C161.73 76.41, 168.27 67.52, 176.7 58.2 M158.07 85.73 C162.76 82.23, 169.2 75.09, 177.09 63.84 M158.07 85.73 C165.24 78.42, 171.06 71.15, 177.09 63.84 M168.3 80.05 C170 78.54, 170.81 77.08, 175.52 71.75 M168.3 80.05 C170.17 77.5, 171.8 75.63, 175.52 71.75" stroke="#228be6" stroke-width="0.5" fill="none"></path><path d="M20.8 0 M20.8 0 C56.78 -3.02, 92.87 0.02, 155.3 0 M155.3 0 C168.47 -1.38, 177.18 8.43, 176.1 20.8 M176.1 20.8 C178.16 30.81, 177.62 38.35, 176.1 62.4 M176.1 62.4 C176.59 78.22, 169.82 83.46, 155.3 83.21 M155.3 83.21 C113.25 81.98, 72.3 83.5, 20.8 83.21 M20.8 83.21 C5.78 83.71, -0.58 74.47, 0 62.4 M0 62.4 C1.73 49.87, -1.66 39.56, 0 20.8 M0 20.8 C-0.1 4.96, 8.55 -1.21, 20.8 0" stroke="#000000" stroke-width="1.5" fill="none" stroke-dasharray="8 9"></path></g><g stroke-linecap="round"><g transform="translate(608.1419708884024 432.31620994815876) rotate(0 -169.8270356998499 0.06188679027837907)"><path d="M-1.03 0.17 C-57.51 0.15, -282.7 0.88, -339.22 0.91 M0.63 -0.79 C-56 -0.62, -283.87 -0.57, -340.28 -0.73" stroke="#000000" stroke-width="1" fill="none"></path></g></g><mask></mask><g stroke-linecap="round"><g transform="translate(605.9690065882522 368.2543231578803) rotate(0 -168.8409516244708 0.5021673236867912)"><path d="M0.83 -0.55 C-55.68 -0.79, -281.3 -0.85, -338.06 -0.65 M-0.19 1.77 C-56.87 1.62, -282.34 1.07, -338.51 0.54" stroke="#000000" stroke-width="1" fill="none"></path></g></g><mask></mask><g stroke-linecap="round"><g transform="translate(451.8961027321684 610.2199160574362) rotate(0 167.4754920333188 26.223555264893037)"><path d="M0.48 1.14 C4.89 8.91, -30.08 37.8, 26.55 45.76 C83.18 53.73, 287.66 48.44, 340.26 48.91 M-0.73 0.69 C3.5 8.72, -31.76 38.96, 25.46 47.22 C82.68 55.48, 289.7 49.86, 342.6 50.24" stroke="#c92a2a" stroke-width="1" fill="none"></path></g><g transform="translate(451.8961027321684 610.2199160574362) rotate(0 167.4754920333188 26.223555264893037)"><path d="M316.4 60.31 C322.91 55.65, 331.81 55.59, 342.12 51.54 M315.11 59.98 C321.72 57.29, 327.83 56.35, 343.1 50.08" stroke="#c92a2a" stroke-width="1" fill="none"></path></g><g transform="translate(451.8961027321684 610.2199160574362) rotate(0 167.4754920333188 26.223555264893037)"><path d="M316.21 39.79 C322.64 41.4, 331.59 47.61, 342.12 51.54 M314.92 39.46 C321.47 41.49, 327.63 45.27, 343.1 50.08" stroke="#c92a2a" stroke-width="1" fill="none"></path></g></g><mask></mask><g stroke-linecap="round"><g transform="translate(352.3095531084432 593.1529565069218) rotate(0 -75.65700321671193 1.8917896285844336)"><path d="M-1.04 -0.37 C-26.46 0.35, -126.06 3.16, -151.39 4.08 M0.61 -1.61 C-25 -0.71, -126.73 4.6, -151.93 5.39" stroke="#c92a2a" stroke-width="1" fill="none"></path></g><g transform="translate(352.3095531084432 593.1529565069218) rotate(0 -75.65700321671193 1.8917896285844336)"><path d="M-124.82 -4.76 C-135.89 -3.15, -145.08 4.25, -153.73 7.32 M-123.64 -6.03 C-130.68 -2.1, -137.42 -0.13, -151.83 4.48" stroke="#c92a2a" stroke-width="1" fill="none"></path></g><g transform="translate(352.3095531084432 593.1529565069218) rotate(0 -75.65700321671193 1.8917896285844336)"><path d="M-123.94 15.74 C-135.32 9.23, -144.86 8.52, -153.73 7.32 M-122.76 14.47 C-130.18 13.37, -137.14 10.3, -151.83 4.48" stroke="#c92a2a" stroke-width="1" fill="none"></path></g></g><mask></mask><g stroke-linecap="round"><g transform="translate(413.39520949856535 480.79198867267655) rotate(0 18.542635801647066 -2.1734066418613907)"><path d="M0.82 0.28 C6.84 -0.66, 31.03 -3.82, 37.3 -4.63 M-0.21 -0.62 C5.54 -0.86, 29.84 -2.74, 36.22 -3.19" stroke="#c92a2a" stroke-width="1" fill="none"></path></g><g transform="translate(413.39520949856535 480.79198867267655) rotate(0 18.542635801647066 -2.1734066418613907)"><path d="M19.43 4.19 C25.43 2.74, 32.35 -2.23, 37.2 -4.31 M19.19 5.28 C23.67 1.92, 26.98 0.51, 36.75 -2.57" stroke="#c92a2a" stroke-width="1" fill="none"></path></g><g transform="translate(413.39520949856535 480.79198867267655) rotate(0 18.542635801647066 -2.1734066418613907)"><path d="M18.48 -8.7 C24.96 -5.06, 32.26 -4.93, 37.2 -4.31 M18.23 -7.61 C22.84 -8.13, 26.36 -6.7, 36.75 -2.57" stroke="#c92a2a" stroke-width="1" fill="none"></path></g></g><mask></mask><g stroke-linecap="round"><g transform="translate(285.03735524063393 405.1375029243862) rotate(0 -47.704081649614096 -1.4341412412277634)"><path d="M-1.1 0.42 C-17.24 -0.01, -80.38 -1.24, -95.94 -1.52 M0.53 -0.41 C-15.3 -0.66, -77.72 -2.84, -93.6 -3.29" stroke="#c92a2a" stroke-width="1" fill="none"></path></g><g transform="translate(285.03735524063393 405.1375029243862) rotate(0 -47.704081649614096 -1.4341412412277634)"><path d="M-64.41 -13.85 C-74.62 -8.08, -84.87 -5.45, -93.19 -4.71 M-65.66 -13.37 C-74.47 -10.24, -83.95 -6.66, -93.3 -3.69" stroke="#c92a2a" stroke-width="1" fill="none"></path></g><g transform="translate(285.03735524063393 405.1375029243862) rotate(0 -47.704081649614096 -1.4341412412277634)"><path d="M-65.05 6.66 C-75.2 4.73, -85.2 -0.37, -93.19 -4.71 M-66.31 7.14 C-75.02 3.53, -84.28 0.37, -93.3 -3.69" stroke="#c92a2a" stroke-width="1" fill="none"></path></g></g><mask></mask><g stroke-linecap="round" transform="translate(611.6790964819353 291.24837679413383) rotate(0 161.29534231031255 116.62388449124802)"><path d="M32 0 M32 0 C107.25 -1.44, 181.18 -1.64, 290.59 0 M290.59 0 C310.38 -0.61, 324.59 11.92, 322.59 32 M322.59 32 C320.27 70.78, 321.42 107.7, 322.59 201.25 M322.59 201.25 C321.44 224.57, 313.58 231.36, 290.59 233.25 M290.59 233.25 C234.84 230.38, 178.69 231.77, 32 233.25 M32 233.25 C9.95 234.97, 1.48 222.81, 0 201.25 M0 201.25 C-0.33 164.23, -0.24 131.43, 0 32 M0 32 C-1.61 8.94, 11.53 -1.21, 32 0" stroke="#364fc7" stroke-width="2.5" fill="none" stroke-dasharray="8 10"></path></g><g stroke-linecap="round"><g stroke-opacity="0.3" fill-opacity="0.3" transform="translate(608.0180863971544 219.67426908387162) rotate(0 0 35.218303386683246)"><path d="M0 0 C0 11.74, 0 58.7, 0 70.44 M0 0 C0 11.74, 0 58.7, 0 70.44" stroke="#000000" stroke-width="1" fill="none"></path></g></g><mask></mask><g stroke-linecap="round"><g transform="translate(609.0279368253703 224.32100730402433) rotate(0 5.375980452850797 -0.31694288415407357)" fill-rule="evenodd"><path d="M0 0 L10.75 -6.21 L10.75 5.57 L0 0" stroke="none" stroke-width="0" fill="#868e96" fill-rule="evenodd"></path><path d="M0 0 C3.35 -1.93, 6.69 -3.86, 10.75 -6.21 M0 0 C2.76 -1.59, 5.52 -3.19, 10.75 -6.21 M10.75 -6.21 C10.75 -2.06, 10.75 2.09, 10.75 5.57 M10.75 -6.21 C10.75 -1.5, 10.75 3.21, 10.75 5.57 M10.75 5.57 C8.47 4.39, 6.19 3.21, 0 0 M10.75 5.57 C6.66 3.45, 2.56 1.33, 0 0 M0 0 C0 0, 0 0, 0 0 M0 0 C0 0, 0 0, 0 0" stroke="#000000" stroke-width="1" fill="none"></path></g></g><mask></mask><g stroke-linecap="round"><g transform="translate(595.8406210761837 224.86711410875844) rotate(180 5.375980452850797 -0.31694288415407357)" fill-rule="evenodd"><path d="M0 0 L10.75 -6.21 L10.75 5.57 L0 0" stroke="none" stroke-width="0" fill="#868e96" fill-rule="evenodd"></path><path d="M0 0 C2.21 -1.27, 4.42 -2.55, 10.75 -6.21 M0 0 C3.08 -1.78, 6.17 -3.56, 10.75 -6.21 M10.75 -6.21 C10.75 -1.58, 10.75 3.04, 10.75 5.57 M10.75 -6.21 C10.75 -2.7, 10.75 0.82, 10.75 5.57 M10.75 5.57 C8.35 4.33, 5.95 3.09, 0 0 M10.75 5.57 C7.45 3.86, 4.15 2.15, 0 0 M0 0 C0 0, 0 0, 0 0 M0 0 C0 0, 0 0, 0 0" stroke="#000000" stroke-width="1" fill="none"></path></g></g><mask></mask><g stroke-linecap="round"><g transform="translate(598.1419241663473 335.17394259916125) rotate(0 23.82431997140202 6.225359040083617)"><path d="M0 0 C12.88 3.37, 25.76 6.73, 47.65 12.45 M0 0 C17.9 4.68, 35.79 9.35, 47.65 12.45" stroke="#c92a2a" stroke-width="1" fill="none"></path></g><g transform="translate(598.1419241663473 335.17394259916125) rotate(0 23.82431997140202 6.225359040083617)"><path d="M23.13 14.75 C29.76 14.13, 36.39 13.51, 47.65 12.45 M23.13 14.75 C32.34 13.89, 41.55 13.02, 47.65 12.45" stroke="#c92a2a" stroke-width="1" fill="none"></path></g><g transform="translate(598.1419241663473 335.17394259916125) rotate(0 23.82431997140202 6.225359040083617)"><path d="M27.39 -1.55 C32.87 2.24, 38.34 6.02, 47.65 12.45 M27.39 -1.55 C35 3.71, 42.61 8.97, 47.65 12.45" stroke="#c92a2a" stroke-width="1" fill="none"></path></g></g><mask></mask><g transform="translate(668.6900782657892 373.8282953611293) rotate(0 97.49999999999994 25)"><text x="0" y="18" font-family="Virgil, Segoe UI Emoji" font-size="20px" fill="#c92a2a" text-anchor="start" style="white-space: pre;" direction="ltr">don't allow to add </text><text x="0" y="43" font-family="Virgil, Segoe UI Emoji" font-size="20px" fill="#c92a2a" text-anchor="start" style="white-space: pre;" direction="ltr">temperature factor</text></g><g transform="translate(635.1180945764141 207.290106625293) rotate(0 122 18)"><text x="0" y="25" font-family="Virgil, Segoe UI Emoji" font-size="28px" fill="#000000" text-anchor="start" style="white-space: pre;" direction="ltr">neigthbour building</text></g><g transform="translate(465.3423389750146 458.43900414500274) rotate(0 61 12.5)"><text x="0" y="18" font-family="Virgil, Segoe UI Emoji" font-size="20px" fill="#364fc7" text-anchor="start" style="white-space: pre;" direction="ltr">to unheated</text></g><g stroke-linecap="round"><g transform="translate(641.9087555367732 515.9907016894903) rotate(0 0 57.3442145454913)"><path d="M0 0 C0 23.25, 0 46.5, 0 114.69 M0 0 C0 26.47, 0 52.94, 0 114.69" stroke="#000000" stroke-width="1" fill="none"></path></g></g><mask></mask><g stroke-linecap="round"><g transform="translate(620.1019541639631 618.3740146451507) rotate(0 17.289712928288793 0)"><path d="M0 0 C7.09 0, 14.18 0, 34.58 0 M0 0 C12.65 0, 25.3 0, 34.58 0" stroke="#000000" stroke-width="1" fill="none"></path></g></g><mask></mask><g stroke-linecap="round"><g transform="translate(635.7505727659299 623.8531274604642) rotate(0 5.475075760624804 -5.4750757606247475)"><path d="M0 0 C2.95 -2.95, 5.9 -5.9, 10.95 -10.95 M0 0 C4.23 -4.23, 8.46 -8.46, 10.95 -10.95" stroke="#000000" stroke-width="1" fill="none"></path></g></g><mask></mask><g stroke-linecap="round"><g transform="translate(636.1748027740491 530.626884588155) rotate(0 5.475075760624804 -5.4750757606247475)"><path d="M0 0 C2.29 -2.29, 4.58 -4.58, 10.95 -10.95 M0 0 C2.57 -2.57, 5.14 -5.14, 10.95 -10.95" stroke="#000000" stroke-width="1" fill="none"></path></g></g><mask></mask><g transform="translate(652.6536987747199 563.9168708355912) rotate(0 36 12.5)"><text x="0" y="18" font-family="Virgil, Segoe UI Emoji" font-size="20px" fill="#000000" text-anchor="start" style="white-space: pre;" direction="ltr">if &gt; 2m</text></g><g transform="translate(819.5603125825659 543.1787584614657) rotate(0 71.5 12.5)"><text x="0" y="18" font-family="Virgil, Segoe UI Emoji" font-size="20px" fill="#364fc7" text-anchor="start" style="white-space: pre;" direction="ltr">floor to earth</text></g><g transform="translate(53.06642960668722 581.7313516694561) rotate(0 66.5 12.5)"><text x="0" y="18" font-family="Virgil, Segoe UI Emoji" font-size="20px" fill="#364fc7" text-anchor="start" style="white-space: pre;" direction="ltr">wall to earth</text></g><g transform="translate(67.74193651413486 386.7063248463805) rotate(0 54.5 12.5)"><text x="0" y="18" font-family="Virgil, Segoe UI Emoji" font-size="20px" fill="#364fc7" text-anchor="start" style="white-space: pre;" direction="ltr">to outdoor</text></g><g stroke-linecap="round" transform="translate(275.1994119058385 295.0723624001657) rotate(0 89.80959886904077 34.824807235120176)"><path d="M17.41 0 M17.41 0 C54.41 -0.79, 93.38 -2.64, 162.21 0 M162.21 0 C172.68 0.85, 179.67 6.73, 179.62 17.41 M179.62 17.41 C178.14 29.76, 177.68 41.61, 179.62 52.24 M179.62 52.24 C181.03 63.9, 172.91 69.72, 162.21 69.65 M162.21 69.65 C116.26 68.28, 68.84 68.59, 17.41 69.65 M17.41 69.65 C4.22 69.16, 1.19 64.64, 0 52.24 M0 52.24 C0.7 45.03, -0.52 35.81, 0 17.41 M0 17.41 C1.23 7.13, 5.96 1.54, 17.41 0" stroke="#a61e4d" stroke-width="1.5" fill="none" stroke-dasharray="8 9"></path></g><g stroke-opacity="0.5" fill-opacity="0.5" transform="translate(36.751737281533735 422.8937081622538) rotate(0 108.50000000000003 20)"><text x="0" y="14" font-family="Virgil, Segoe UI Emoji" font-size="16px" fill="#000000" text-anchor="start" style="white-space: pre;" direction="ltr">temp. diff.:</text><text x="0" y="34" font-family="Virgil, Segoe UI Emoji" font-size="16px" fill="#000000" text-anchor="start" style="white-space: pre;" direction="ltr"> 0.4 - 20°C + 1K = 20.6 K</text></g><g stroke-opacity="0.4" fill-opacity="0.4" transform="translate(683.9915015651998 468.2440204959782) rotate(0 110.49999999999994 12.5)"><text x="0" y="18" font-family="Virgil, Segoe UI Emoji" font-size="20px" fill="#000000" text-anchor="start" style="white-space: pre;" direction="ltr">+ (35-20)/2 = +7.5 K</text></g><g stroke-opacity="0.4" fill-opacity="0.4" transform="translate(671.7644691164322 440.4457948816765) rotate(0 113 12.5)"><text x="0" y="18" font-family="Virgil, Segoe UI Emoji" font-size="20px" fill="#000000" text-anchor="start" style="white-space: pre;" direction="ltr">if construction heated:</text></g><g stroke-linecap="round" transform="translate(10 9.999999999999972) rotate(0 489.5089539497347 355.239256549729)"><path d="M0 0 C281.65 0, 563.3 0, 979.02 0 M0 0 C248.37 0, 496.73 0, 979.02 0 M979.02 0 C979.02 233.88, 979.02 467.75, 979.02 710.48 M979.02 0 C979.02 142.66, 979.02 285.32, 979.02 710.48 M979.02 710.48 C601.5 710.48, 223.98 710.48, 0 710.48 M979.02 710.48 C661.92 710.48, 344.82 710.48, 0 710.48 M0 710.48 C0 508.64, 0 306.81, 0 0 M0 710.48 C0 490.81, 0 271.14, 0 0" stroke="#5f3dc4" stroke-width="1" fill="none"></path></g><g transform="translate(659.9120139105639 334.645510536978) rotate(0 130.00000000000006 12.5)"><text x="0" y="18" font-family="Virgil, Segoe UI Emoji" font-size="20px" fill="#5f3dc4" text-anchor="start" style="white-space: pre;" direction="ltr">outside parameter heated</text></g><g transform="translate(301.1888906538953 304.5735788263905) rotate(0 58 25)"><text x="0" y="18" font-family="Virgil, Segoe UI Emoji" font-size="20px" fill="#5f3dc4" text-anchor="start" style="white-space: pre;" direction="ltr">to heated </text><text x="0" y="43" font-family="Virgil, Segoe UI Emoji" font-size="20px" fill="#5f3dc4" text-anchor="start" style="white-space: pre;" direction="ltr">  zone 18°C</text></g><g stroke-linecap="round"><g transform="translate(381.98799630468477 146.3132864281473) rotate(0 -175.55048589625824 0)"><path d="M0 0 C-117.95 0, -235.91 0, -351.1 0 M0 0 C-111.68 0, -223.36 0, -351.1 0" stroke="#000000" stroke-width="1" fill="none"></path></g></g><mask></mask><g stroke-opacity="0.5" fill-opacity="0.5" transform="translate(250.45755216329349 243.57936852824426) rotate(0 105 19.999999999999986)"><text x="0" y="14" font-family="Virgil, Segoe UI Emoji" font-size="16px" fill="#000000" text-anchor="start" style="white-space: pre;" direction="ltr">temp. diff.:</text><text x="0" y="34" font-family="Virgil, Segoe UI Emoji" font-size="16px" fill="#000000" text-anchor="start" style="white-space: pre;" direction="ltr"> (18 + 1) - (20 + 1) = 2 K</text></g><g stroke-opacity="0.5" fill-opacity="0.5" transform="translate(468.149380333787 48.45810486275593) rotate(0 136.5 37.5)"><text x="136.5" y="18" font-family="Virgil, Segoe UI Emoji" font-size="20px" fill="#000000" text-anchor="middle" style="white-space: pre;" direction="ltr">factors can by applied </text><text x="136.5" y="43" font-family="Virgil, Segoe UI Emoji" font-size="20px" fill="#000000" text-anchor="middle" style="white-space: pre;" direction="ltr">to all opaque constructions</text><text x="136.5" y="68" font-family="Virgil, Segoe UI Emoji" font-size="20px" fill="#000000" text-anchor="middle" style="white-space: pre;" direction="ltr">"Floor", "Wall", "RoofCeiling"</text></g><g transform="translate(298.73921298217147 389.46758318805803) rotate(0 51.5 12.5)"><text x="51.5" y="18" font-family="Virgil, Segoe UI Emoji" font-size="20px" fill="#000000" text-anchor="middle" style="white-space: pre;" direction="ltr">zone 20°C</text></g><g stroke-opacity="0.5" fill-opacity="0.5" transform="translate(140.87484198600157 85.77008228960095) rotate(0 93 12.5)"><text x="0" y="18" font-family="Virgil, Segoe UI Emoji" font-size="20px" fill="#000000" text-anchor="start" style="white-space: pre;" direction="ltr">(35-20)/2 = 7.5 K</text></g><g stroke-opacity="0.5" fill-opacity="0.5" transform="translate(35.58716241711272 58.02105772425212) rotate(0 133.5 12.5)"><text x="0" y="18" font-family="Virgil, Segoe UI Emoji" font-size="20px" fill="#000000" text-anchor="start" style="white-space: pre;" direction="ltr">single room controller = 1 K</text></g><g stroke-opacity="0.5" fill-opacity="0.5" transform="translate(135.39492555664037 28.956203087508626) rotate(0 93 12.5)"><text x="0" y="18" font-family="Virgil, Segoe UI Emoji" font-size="20px" fill="#000000" text-anchor="start" style="white-space: pre;" direction="ltr">room temp. = 20°C</text></g><g stroke-opacity="0.5" fill-opacity="0.5" transform="translate(61.773697690117615 114.73695345718937) rotate(0 135 12.5)"><text x="0" y="18" font-family="Virgil, Segoe UI Emoji" font-size="20px" fill="#000000" text-anchor="start" style="white-space: pre;" direction="ltr">average jan. temp. = 0.4 K</text></g><g stroke-opacity="0.5" fill-opacity="0.5" transform="translate(353.00671932130206 60.21272589771699) rotate(0 6.5 12.5)"><text x="0" y="18" font-family="Virgil, Segoe UI Emoji" font-size="20px" fill="#c92a2a" text-anchor="start" style="white-space: pre;" direction="ltr">+</text></g><g stroke-opacity="0.5" fill-opacity="0.5" transform="translate(354.3931074147864 85.69677949187728) rotate(0 6.5 12.5)"><text x="0" y="18" font-family="Virgil, Segoe UI Emoji" font-size="20px" fill="#c92a2a" text-anchor="start" style="white-space: pre;" direction="ltr">+</text></g><g stroke-opacity="0.5" fill-opacity="0.5" transform="translate(353.82226865323014 113.03564633255839) rotate(0 4.5 12.499999999999993)"><text x="0" y="18" font-family="Virgil, Segoe UI Emoji" font-size="20px" fill="#5c940d" text-anchor="start" style="white-space: pre;" direction="ltr">-</text></g><g stroke-opacity="0.5" fill-opacity="0.5" transform="translate(63.798682967577065 148.39409400469566) rotate(0 139 12.5)"><text x="139" y="18" font-family="Virgil, Segoe UI Emoji" font-size="20px" fill="#000000" text-anchor="middle" style="white-space: pre;" direction="ltr">delta temperature = 28.1 K</text></g><g stroke-linecap="round"><g stroke-opacity="0.5" fill-opacity="0.5" transform="translate(43.363577384806945 181.1506020322279) rotate(0 152.14043982593643 0)"><path d="M0 0 C102.1 0, 204.21 0, 304.28 0 M0 0 C81.06 0, 162.12 0, 304.28 0" stroke="#000000" stroke-width="1" fill="none"></path></g></g><mask></mask><g stroke-linecap="round"><g stroke-opacity="0.5" fill-opacity="0.5" transform="translate(43.363577384806945 186.06810253535681) rotate(0 152.06360388057504 0)"><path d="M0 0 C67.4 0, 134.8 0, 304.13 0 M0 0 C97.28 0, 194.55 0, 304.13 0" stroke="#000000" stroke-width="1" fill="none"></path></g></g><mask></mask><g transform="translate(33.538923520330286 615.4879956341028) rotate(0 82.5 37.5)"><text x="82.5" y="18" font-family="Virgil, Segoe UI Emoji" font-size="20px" fill="#000000" text-anchor="middle" style="white-space: pre;" direction="ltr">tablle factor by:</text><text x="82.5" y="43" font-family="Virgil, Segoe UI Emoji" font-size="20px" fill="#000000" text-anchor="middle" style="white-space: pre;" direction="ltr">- u-value</text><text x="82.5" y="68" font-family="Virgil, Segoe UI Emoji" font-size="20px" fill="#000000" text-anchor="middle" style="white-space: pre;" direction="ltr">- depth</text></g><g transform="translate(485.27764755686076 480.2827690017401) rotate(0 32.5 12.5)"><text x="32.5" y="18" font-family="Virgil, Segoe UI Emoji" font-size="20px" fill="#000000" text-anchor="middle" style="white-space: pre;" direction="ltr">factor</text></g><g stroke-linecap="round"><g transform="translate(373.12309768999137 93.0852372469999) rotate(0 40.77227931679107 -0.33317639680229405)"><path d="M0 0 C18 -0.15, 36 -0.29, 81.54 -0.67 M0 0 C17.97 -0.15, 35.95 -0.29, 81.54 -0.67" stroke="#c92a2a" stroke-width="1" fill="none"></path></g><g transform="translate(373.12309768999137 93.0852372469999) rotate(0 40.77227931679107 -0.33317639680229405)"><path d="M53.44 9.82 C59.64 7.51, 65.85 5.19, 81.54 -0.67 M53.44 9.82 C59.63 7.51, 65.83 5.2, 81.54 -0.67" stroke="#c92a2a" stroke-width="1" fill="none"></path></g><g transform="translate(373.12309768999137 93.0852372469999) rotate(0 40.77227931679107 -0.33317639680229405)"><path d="M53.27 -10.7 C59.51 -8.48, 65.75 -6.27, 81.54 -0.67 M53.27 -10.7 C59.5 -8.49, 65.73 -6.27, 81.54 -0.67" stroke="#c92a2a" stroke-width="1" fill="none"></path></g></g><mask></mask><g transform="translate(804.0199513277613 578.7116161809811) rotate(0 85 62.5)"><text x="85" y="18" font-family="Virgil, Segoe UI Emoji" font-size="20px" fill="#000000" text-anchor="middle" style="white-space: pre;" direction="ltr">Tablle factor by:</text><text x="85" y="43" font-family="Virgil, Segoe UI Emoji" font-size="20px" fill="#000000" text-anchor="middle" style="white-space: pre;" direction="ltr">- u-value</text><text x="85" y="68" font-family="Virgil, Segoe UI Emoji" font-size="20px" fill="#000000" text-anchor="middle" style="white-space: pre;" direction="ltr">- depth</text><text x="85" y="93" font-family="Virgil, Segoe UI Emoji" font-size="20px" fill="#000000" text-anchor="middle" style="white-space: pre;" direction="ltr">- area</text><text x="85" y="118" font-family="Virgil, Segoe UI Emoji" font-size="20px" fill="#000000" text-anchor="middle" style="white-space: pre;" direction="ltr">- parameter</text></g><g stroke-linecap="round" transform="translate(641.2583284430922 380.21079128661466) rotate(0 6.5406940498605195 6.5406940498605195)"><path d="M13.08 6.54 C13.08 6.92, 13.05 7.3, 12.98 7.68 C12.92 8.05, 12.82 8.42, 12.69 8.78 C12.56 9.13, 12.39 9.48, 12.21 9.81 C12.02 10.14, 11.79 10.45, 11.55 10.74 C11.31 11.03, 11.03 11.31, 10.74 11.55 C10.45 11.79, 10.14 12.02, 9.81 12.21 C9.48 12.39, 9.13 12.56, 8.78 12.69 C8.42 12.82, 8.05 12.92, 7.68 12.98 C7.3 13.05, 6.92 13.08, 6.54 13.08 C6.16 13.08, 5.78 13.05, 5.4 12.98 C5.03 12.92, 4.66 12.82, 4.3 12.69 C3.95 12.56, 3.6 12.39, 3.27 12.21 C2.94 12.02, 2.63 11.79, 2.34 11.55 C2.05 11.31, 1.77 11.03, 1.53 10.74 C1.29 10.45, 1.07 10.14, 0.88 9.81 C0.69 9.48, 0.52 9.13, 0.39 8.78 C0.26 8.42, 0.17 8.05, 0.1 7.68 C0.03 7.3, 0 6.92, 0 6.54 C0 6.16, 0.03 5.78, 0.1 5.4 C0.17 5.03, 0.26 4.66, 0.39 4.3 C0.52 3.95, 0.69 3.6, 0.88 3.27 C1.07 2.94, 1.29 2.63, 1.53 2.34 C1.77 2.05, 2.05 1.77, 2.34 1.53 C2.63 1.29, 2.94 1.07, 3.27 0.88 C3.6 0.69, 3.95 0.52, 4.3 0.39 C4.66 0.26, 5.03 0.17, 5.4 0.1 C5.78 0.03, 6.16 0, 6.54 0 C6.92 0, 7.3 0.03, 7.68 0.1 C8.05 0.17, 8.42 0.26, 8.78 0.39 C9.13 0.52, 9.48 0.69, 9.81 0.88 C10.14 1.07, 10.45 1.29, 10.74 1.53 C11.03 1.77, 11.31 2.05, 11.55 2.34 C11.79 2.63, 12.02 2.94, 12.21 3.27 C12.39 3.6, 12.56 3.95, 12.69 4.3 C12.82 4.66, 12.92 5.03, 12.98 5.4 C13.05 5.78, 13.06 6.35, 13.08 6.54 C13.1 6.73, 13.1 6.35, 13.08 6.54" stroke="#000000" stroke-width="1" fill="none"></path></g><g stroke-linecap="round" transform="translate(644.0806884337618 443.93633990474416) rotate(0 6.5406940498605195 6.5406940498605195)"><path d="M13.08 6.54 C13.08 6.92, 13.05 7.3, 12.98 7.68 C12.92 8.05, 12.82 8.42, 12.69 8.78 C12.56 9.13, 12.39 9.48, 12.21 9.81 C12.02 10.14, 11.79 10.45, 11.55 10.74 C11.31 11.03, 11.03 11.31, 10.74 11.55 C10.45 11.79, 10.14 12.02, 9.81 12.21 C9.48 12.39, 9.13 12.56, 8.78 12.69 C8.42 12.82, 8.05 12.92, 7.68 12.98 C7.3 13.05, 6.92 13.08, 6.54 13.08 C6.16 13.08, 5.78 13.05, 5.4 12.98 C5.03 12.92, 4.66 12.82, 4.3 12.69 C3.95 12.56, 3.6 12.39, 3.27 12.21 C2.94 12.02, 2.63 11.79, 2.34 11.55 C2.05 11.31, 1.77 11.03, 1.53 10.74 C1.29 10.45, 1.07 10.14, 0.88 9.81 C0.69 9.48, 0.52 9.13, 0.39 8.78 C0.26 8.42, 0.17 8.05, 0.1 7.68 C0.03 7.3, 0 6.92, 0 6.54 C0 6.16, 0.03 5.78, 0.1 5.4 C0.17 5.03, 0.26 4.66, 0.39 4.3 C0.52 3.95, 0.69 3.6, 0.88 3.27 C1.07 2.94, 1.29 2.63, 1.53 2.34 C1.77 2.05, 2.05 1.77, 2.34 1.53 C2.63 1.29, 2.94 1.07, 3.27 0.88 C3.6 0.69, 3.95 0.52, 4.3 0.39 C4.66 0.26, 5.03 0.17, 5.4 0.1 C5.78 0.03, 6.16 0, 6.54 0 C6.92 0, 7.3 0.03, 7.68 0.1 C8.05 0.17, 8.42 0.26, 8.78 0.39 C9.13 0.52, 9.48 0.69, 9.81 0.88 C10.14 1.07, 10.45 1.29, 10.74 1.53 C11.03 1.77, 11.31 2.05, 11.55 2.34 C11.79 2.63, 12.02 2.94, 12.21 3.27 C12.39 3.6, 12.56 3.95, 12.69 4.3 C12.82 4.66, 12.92 5.03, 12.98 5.4 C13.05 5.78, 13.06 6.35, 13.08 6.54 C13.1 6.73, 13.1 6.35, 13.08 6.54" stroke="#000000" stroke-width="1" fill="none"></path></g><g transform="translate(368.62982347615264 580.5335399101662) rotate(0 75 12.5)"><text x="75" y="18" font-family="Virgil, Segoe UI Emoji" font-size="20px" fill="#000000" text-anchor="middle" style="white-space: pre;" direction="ltr">basement 20°C</text></g><g stroke-linecap="round" transform="translate(21.35695766339552 23.705062169477316) rotate(0 183.81008122115998 87.05291113735062)"><path d="M0 0 C89 0, 178 0, 367.62 0 M0 0 C107.07 0, 214.14 0, 367.62 0 M367.62 0 C367.62 66.13, 367.62 132.26, 367.62 174.11 M367.62 0 C367.62 54.11, 367.62 108.22, 367.62 174.11 M367.62 174.11 C281.54 174.11, 195.47 174.11, 0 174.11 M367.62 174.11 C241.92 174.11, 116.21 174.11, 0 174.11 M0 174.11 C0 111.71, 0 49.31, 0 0 M0 174.11 C0 107.85, 0 41.59, 0 0" stroke="#000000" stroke-width="1" fill="none"></path></g><g transform="translate(298.37440507496365 473.22599933192356) rotate(0 51.5 12.5)"><text x="51.5" y="18" font-family="Virgil, Segoe UI Emoji" font-size="20px" fill="#000000" text-anchor="middle" style="white-space: pre;" direction="ltr">zone 20°C</text></g><g transform="translate(481.54251930662065 314.0748410254882) rotate(0 51.5 12.5)"><text x="51.5" y="18" font-family="Virgil, Segoe UI Emoji" font-size="20px" fill="#000000" text-anchor="middle" style="white-space: pre;" direction="ltr">zone 20°C</text></g><g stroke-linecap="round"><g transform="translate(473.34253710279245 332.78988220832724) rotate(0 -25.68260985619861 -1.3018994815899987)"><path d="M0 0 C-18.87 -0.96, -37.74 -1.91, -51.37 -2.6 M0 0 C-15.35 -0.78, -30.69 -1.56, -51.37 -2.6" stroke="#c92a2a" stroke-width="1" fill="none"></path></g><g transform="translate(473.34253710279245 332.78988220832724) rotate(0 -25.68260985619861 -1.3018994815899987)"><path d="M-26.79 -10.16 C-35.82 -7.39, -44.84 -4.61, -51.37 -2.6 M-26.79 -10.16 C-34.13 -7.91, -41.47 -5.65, -51.37 -2.6" stroke="#c92a2a" stroke-width="1" fill="none"></path></g><g transform="translate(473.34253710279245 332.78988220832724) rotate(0 -25.68260985619861 -1.3018994815899987)"><path d="M-27.68 7.4 C-36.38 3.73, -45.08 0.05, -51.37 -2.6 M-27.68 7.4 C-34.75 4.41, -41.83 1.42, -51.37 -2.6" stroke="#c92a2a" stroke-width="1" fill="none"></path></g></g><mask></mask><g transform="translate(475.16144403803037 204.8592827727419) rotate(0 47 18)"><text x="0" y="25" font-family="Virgil, Segoe UI Emoji" font-size="28px" fill="#000000" text-anchor="start" style="white-space: pre;" direction="ltr">building</text></g></svg>