<?xml version="1.0" encoding="UTF-8" standalone="no"?>
<!DOCTYPE svg PUBLIC "-//W3C//DTD SVG 1.1//EN" "http://www.w3.org/Graphics/SVG/1.1/DTD/svg11.dtd">
<svg width="100%" height="100%" viewBox="0 0 717 395" version="1.1" xmlns="http://www.w3.org/2000/svg" xmlns:xlink="http://www.w3.org/1999/xlink" xml:space="preserve" xmlns:serif="http://www.serif.com/" style="fill-rule:evenodd;clip-rule:evenodd;stroke-linejoin:round;stroke-miterlimit:2;">
    <g transform="matrix(1,0,0,1,-100,-2159)">
        <g transform="matrix(2.66667,0,0,2.66667,0,1620)">
            <rect id="Page-5" serif:id="Page 5" x="0" y="0" width="960" height="540" style="fill:none;"/>
            <g id="Page-51" serif:id="Page 5">
                <g transform="matrix(0.981957,0,0,0.981957,3.3057,4.972)">
                    <g transform="matrix(1.01837,0,0,1.01837,6.05025,-5.71793)">
                        <text x="115.1px" y="216.633px" style="font-family:'Helvetica-Bold', 'Helvetica';font-weight:700;font-size:11px;fill:rgb(255,0,34);">M<tspan x="123.493px 129.442px 136.616px 143.183px 149.132px 151.418px 156.766px 162.114px 167.462px 172.809px 175.095px 177.381px 183.331px 185.617px 192.791px 196.301px 201.649px 204.542px " y="216.633px 216.633px 216.633px 216.633px 216.633px 216.633px 216.633px 216.633px 216.633px 216.633px 216.633px 216.633px 216.633px 216.633px 216.633px 216.633px 216.633px 216.633px ">uKEn 2014 in Kraft</tspan></text>
                        <text x="115.1px" y="248.143px" style="font-family:'Helvetica-Bold', 'Helvetica';font-weight:700;font-size:11px;fill:rgb(255,0,34);">Z<tspan x="121.214px 123.665px 129.178px 131.629px 134.203px 142.761px 148.875px 156.214px 162.946px 169.06px 171.634px 177.147px 182.659px 188.172px 193.685px 196.258px 205.434px 207.885px 210.943px 213.517px 219.03px 221.481px 224.539px 230.052px 233.727px 239.842px 245.354px 248.412px 250.864px 256.376px 261.889px 271.065px 273.638px 283.416px 288.928px " y="248.143px 248.143px 248.143px 248.143px 248.143px 248.143px 248.143px 248.143px 248.143px 248.143px 248.143px 248.143px 248.143px 248.143px 248.143px 248.143px 248.143px 248.143px 248.143px 248.143px 248.143px 248.143px 248.143px 248.143px 248.143px 248.143px 248.143px 248.143px 248.143px 248.143px 248.143px 248.143px 248.143px 248.143px 248.143px ">iel MuKEn 2014 mit alternativem Weg</tspan></text>
                        <text x="115.1px" y="279.653px" style="font-family:'Helvetica-Bold', 'Helvetica';font-weight:700;font-size:11px;fill:rgb(255,0,34);">M<tspan x="123.493px 129.442px 136.616px 143.183px 149.132px 151.418px 156.766px 162.114px 167.462px 172.809px 175.095px 177.381px 183.331px 185.617px 192.791px 196.301px 201.649px 204.542px " y="279.653px 279.653px 279.653px 279.653px 279.653px 279.653px 279.653px 279.653px 279.653px 279.653px 279.653px 279.653px 279.653px 279.653px 279.653px 279.653px 279.653px 279.653px ">uKEn 2008 in Kraft</tspan></text>
                        <text x="115.1px" y="311.163px" style="font-family:'Helvetica-Bold', 'Helvetica';font-weight:700;font-size:11px;fill:rgb(255,0,34);">U<tspan x="122.164px 131.065px 136.302px 141.54px 144.323px 148.943px 154.782px 160.622px 166.461px 168.637px 176.92px 182.759px 189.823px 196.28px 202.119px 204.295px 209.533px 214.771px 220.008px 225.246px 227.422px 232.66px 238.499px 241.9px 247.739px 252.977px 258.215px 263.452px 269.291px 274.529px " y="311.163px 311.163px 311.163px 311.163px 311.163px 311.163px 311.163px 311.163px 311.163px 311.163px 311.163px 311.163px 311.163px 311.163px 311.163px 311.163px 311.163px 311.163px 311.163px 311.163px 311.163px 311.163px 311.163px 311.163px 311.163px 311.163px 311.163px 311.163px 311.163px 311.163px ">msetzung MuKEn 2014 vorgesehen</tspan></text>
                        <text x="115.1px" y="342.683px" style="font-family:'Helvetica-Bold', 'Helvetica';font-weight:700;font-size:11px;fill:rgb(255,0,34);">K<tspan x="122.109px 127.292px 129.413px 135.197px 140.38px 142.501px 149.51px 158.355px 163.538px 168.721px 171.449px 176.014px 181.798px 187.582px 193.367px 195.488px 200.67px 206.455px 209.8px 215.585px 220.767px 225.95px 231.133px 236.917px 242.1px " y="342.683px 342.683px 342.683px 342.683px 342.683px 342.683px 342.683px 342.683px 342.683px 342.683px 342.683px 342.683px 342.683px 342.683px 342.683px 342.683px 342.683px 342.683px 342.683px 342.683px 342.683px 342.683px 342.683px 342.683px 342.683px ">eine Umsetzung vorgesehen</tspan></text>
                    </g>
                    <g transform="matrix(1,0,0,1,-11.987,-114.87)">
                        <rect x="48.347" y="319.56" width="66" height="15.75" style="fill:rgb(84,130,53);"/>
                    </g>
                    <g transform="matrix(1,0,0,1,-11.987,-51.87)">
                        <rect x="48.347" y="288.06" width="66" height="15.75" style="fill:rgb(146,208,80);"/>
                    </g>
                    <g transform="matrix(1,0,0,1,-11.987,11.13)">
                        <rect x="48.347" y="256.56" width="66" height="15.75" style="fill:rgb(0,176,80);"/>
                    </g>
                    <g transform="matrix(1,0,0,1,-11.987,74.13)">
                        <rect x="48.347" y="225.06" width="66" height="15.75" style="fill:rgb(169,208,142);"/>
                    </g>
                    <g transform="matrix(1,0,0,1,-11.987,137.13)">
                        <rect x="48.347" y="193.56" width="66" height="15.75" style="fill:rgb(255,0,0);"/>
                    </g>
                </g>
            </g>
        </g>
    </g>
</svg>
