<?xml version="1.0" encoding="UTF-8" standalone="no"?>
<!DOCTYPE svg PUBLIC "-//W3C//DTD SVG 1.1//EN" "http://www.w3.org/Graphics/SVG/1.1/DTD/svg11.dtd">
<svg width="100%" height="100%" viewBox="0 0 403 496" version="1.1" xmlns="http://www.w3.org/2000/svg" xmlns:xlink="http://www.w3.org/1999/xlink" xml:space="preserve" xmlns:serif="http://www.serif.com/" style="fill-rule:evenodd;clip-rule:evenodd;">
    <g transform="matrix(1,0,0,1,-5680,-2956)">
        <g transform="matrix(2,0,0,2,5357.48,1894.25)">
            <rect id="Page-11" serif:id="Page 11" x="0" y="0" width="595.276" height="841.89" style="fill:none;"/>
            <g id="Page-111" serif:id="Page 11">
                <g transform="matrix(1,0,0,1,0,468.661)">
                    <rect x="65.197" y="61.89" width="400.819" height="249.449" style="fill:rgb(230,231,232);"/>
                </g>
                <text x="191.123px" y="557.422px" style="font-family:'Helvetica-Light', 'Helvetica', sans-serif;font-weight:300;font-size:8px;fill:rgb(35,31,32);">0,05</text>
                <text x="313.083px" y="557.422px" style="font-family:'Helvetica-Light', 'Helvetica', sans-serif;font-weight:300;font-size:8px;fill:rgb(35,31,32);">0,05</text>
                <g transform="matrix(0,-1,1,0,0,0)">
                    <text x="-582.571px" y="337.228px" style="font-family:'Helvetica-Light', 'Helvetica', sans-serif;font-weight:300;font-size:8px;fill:rgb(35,31,32);">0,05</text>
                </g>
                <g transform="matrix(0,-1,1,0,0,0)">
                    <text x="-668.223px" y="337.228px" style="font-family:'Helvetica-Light', 'Helvetica', sans-serif;font-weight:300;font-size:8px;fill:rgb(35,31,32);">1,81</text>
                </g>
                <g transform="matrix(0,-1,1,0,0,0)">
                    <text x="-760.228px" y="337.228px" style="font-family:'Helvetica-Light', 'Helvetica', sans-serif;font-weight:300;font-size:8px;fill:rgb(35,31,32);">0<tspan x="-756.26px -754.516px -750.548px " y="337.228px 337.228px 337.228px ">,18</tspan></text>
                </g>
                <text x="201.974px" y="770.268px" style="font-family:'Helvetica-Light', 'Helvetica', sans-serif;font-weight:300;font-size:8px;fill:rgb(35,31,32);">Netto-Fensterabmessung Breite</text>
                <g transform="matrix(0,-1,1,0,0,0)">
                    <text x="-721.869px" y="181.89px" style="font-family:'Helvetica-Light', 'Helvetica', sans-serif;font-weight:300;font-size:8px;fill:rgb(35,31,32);">Net<tspan x="-709.301px " y="181.89px ">t</tspan>o-<tspan x="-699.845px " y="181.89px ">F</tspan>en<tspan x="-686.381px " y="181.89px ">s</tspan>te<tspan x="-675.589px " y="181.89px ">r</tspan>ab<tspan x="-663.469px " y="181.89px ">m</tspan>es<tspan x="-648.237px " y="181.89px ">s</tspan>un<tspan x="-635.221px " y="181.89px ">g</tspan> H<tspan x="-622.213px " y="181.89px ">รถ</tspan>he</text>
                    <text x="-673.113px" y="350.27px" style="font-family:'Helvetica-Light', 'Helvetica', sans-serif;font-weight:300;font-size:8px;fill:rgb(35,31,32);">2,04</text>
                </g>
                <text x="225.749px" y="557.422px" style="font-family:'Helvetica-Light', 'Helvetica', sans-serif;font-weight:300;font-size:8px;fill:rgb(35,31,32);">0,59</text>
                <text x="250.691px" y="555.619px" style="font-family:'Helvetica-Light', 'Helvetica', sans-serif;font-weight:300;font-size:8px;fill:rgb(35,31,32);">0<tspan x="254.659px 256.403px 260.371px " y="555.619px 555.619px 555.619px ">,12</tspan></text>
                <text x="251.722px" y="544.692px" style="font-family:'Helvetica-Light', 'Helvetica', sans-serif;font-weight:300;font-size:8px;fill:rgb(35,31,32);">1,40</text>
                <text x="278.175px" y="557.422px" style="font-family:'Helvetica-Light', 'Helvetica', sans-serif;font-weight:300;font-size:8px;fill:rgb(35,31,32);">0,59</text>
                <g transform="matrix(-0.707107,0.707107,0.707107,0.707107,307.864,563.558)">
                    <path d="M-4.483,-1.857L0.769,-1.857" style="fill:none;fill-rule:nonzero;stroke:rgb(35,31,32);stroke-width:0.5px;"/>
                </g>
                <g transform="matrix(-0.707107,0.707107,0.707107,0.707107,208.042,563.558)">
                    <path d="M-4.483,-1.857L0.769,-1.857" style="fill:none;fill-rule:nonzero;stroke:rgb(35,31,32);stroke-width:0.5px;"/>
                </g>
                <g transform="matrix(-0.707107,-0.707107,-0.707107,0.707107,185.718,587.36)">
                    <path d="M-4.483,1.857L0.769,1.857" style="fill:none;fill-rule:nonzero;stroke:rgb(35,31,32);stroke-width:0.5px;"/>
                </g>
                <g transform="matrix(-0.707107,-0.707107,-0.707107,0.707107,185.718,738.504)">
                    <path d="M-4.483,1.857L0.769,1.857" style="fill:none;fill-rule:nonzero;stroke:rgb(35,31,32);stroke-width:0.5px;"/>
                </g>
                <g transform="matrix(0.707107,-0.707107,-0.707107,-0.707107,207.403,761.459)">
                    <path d="M-0.769,1.857L4.482,1.857" style="fill:none;fill-rule:nonzero;stroke:rgb(35,31,32);stroke-width:0.5px;"/>
                </g>
                <g transform="matrix(0.707107,-0.707107,-0.707107,-0.707107,311.293,761.459)">
                    <path d="M-0.769,1.857L4.482,1.857" style="fill:none;fill-rule:nonzero;stroke:rgb(35,31,32);stroke-width:0.5px;"/>
                </g>
                <g transform="matrix(-0.707107,-0.707107,-0.707107,0.707107,340.433,587.36)">
                    <path d="M-4.483,1.857L0.769,1.857" style="fill:none;fill-rule:nonzero;stroke:rgb(35,31,32);stroke-width:0.5px;"/>
                </g>
                <g transform="matrix(-0.707107,-0.707107,-0.707107,0.707107,353.303,587.36)">
                    <path d="M-4.483,1.857L0.769,1.857" style="fill:none;fill-rule:nonzero;stroke:rgb(35,31,32);stroke-width:0.5px;"/>
                </g>
                <g transform="matrix(-0.707107,-0.707107,-0.707107,0.707107,340.433,591.046)">
                    <path d="M-4.483,1.857L0.769,1.857" style="fill:none;fill-rule:nonzero;stroke:rgb(35,31,32);stroke-width:0.5px;"/>
                </g>
                <g transform="matrix(-0.707107,-0.707107,-0.707107,0.707107,340.433,725.011)">
                    <path d="M-4.483,1.857L0.769,1.857" style="fill:none;fill-rule:nonzero;stroke:rgb(35,31,32);stroke-width:0.5px;"/>
                </g>
                <g transform="matrix(-0.707107,-0.707107,-0.707107,0.707107,340.433,738.277)">
                    <path d="M-4.483,1.857L0.769,1.857" style="fill:none;fill-rule:nonzero;stroke:rgb(35,31,32);stroke-width:0.5px;"/>
                </g>
                <g transform="matrix(-0.707107,-0.707107,-0.707107,0.707107,353.226,738.234)">
                    <path d="M-4.528,1.876L0.777,1.876" style="fill:none;fill-rule:nonzero;stroke:rgb(35,31,32);stroke-width:0.51px;"/>
                </g>
                <g transform="matrix(-0.707107,0.707107,0.707107,0.707107,208.042,550.66)">
                    <path d="M-4.483,-1.857L0.769,-1.857" style="fill:none;fill-rule:nonzero;stroke:rgb(35,31,32);stroke-width:0.5px;"/>
                </g>
                <g transform="matrix(-0.707107,0.707107,0.707107,0.707107,311.52,563.558)">
                    <path d="M-4.483,-1.857L0.769,-1.857" style="fill:none;fill-rule:nonzero;stroke:rgb(35,31,32);stroke-width:0.5px;"/>
                </g>
                <g transform="matrix(-0.707107,0.707107,0.707107,0.707107,211.699,563.558)">
                    <path d="M-4.483,-1.857L0.769,-1.857" style="fill:none;fill-rule:nonzero;stroke:rgb(35,31,32);stroke-width:0.5px;"/>
                </g>
                <g transform="matrix(-0.707107,0.707107,0.707107,0.707107,264.21,563.558)">
                    <path d="M-4.483,-1.857L0.769,-1.857" style="fill:none;fill-rule:nonzero;stroke:rgb(35,31,32);stroke-width:0.5px;"/>
                </g>
                <g transform="matrix(-0.707107,0.707107,0.707107,0.707107,255.139,563.558)">
                    <path d="M-4.483,-1.857L0.769,-1.857" style="fill:none;fill-rule:nonzero;stroke:rgb(35,31,32);stroke-width:0.5px;"/>
                </g>
                <g transform="matrix(-0.707107,0.707107,0.707107,0.707107,311.52,550.66)">
                    <path d="M-4.483,-1.857L0.769,-1.857" style="fill:none;fill-rule:nonzero;stroke:rgb(35,31,32);stroke-width:0.5px;"/>
                </g>
                <g transform="matrix(0,1,1,0,266.534,665.453)">
                    <path d="M-80.816,-80.816L80.816,-80.816" style="fill:none;fill-rule:nonzero;stroke:rgb(35,31,32);stroke-width:0.3px;"/>
                </g>
                <g transform="matrix(0,1,1,0,431.879,665.764)">
                    <path d="M-78.803,-78.803L78.803,-78.803" style="fill:none;fill-rule:nonzero;stroke:rgb(35,31,32);stroke-width:0.3px;"/>
                </g>
                <g transform="matrix(0,1,1,0,441.017,662.76)">
                    <path d="M-100.734,-100.734L100.734,-100.734" style="fill:none;fill-rule:nonzero;stroke:rgb(35,31,32);stroke-width:0.3px;"/>
                </g>
                <g transform="matrix(0,1,1,0,214.924,754.914)">
                    <path d="M-7.37,-7.37L7.37,-7.37" style="fill:none;fill-rule:nonzero;stroke:rgb(35,31,32);stroke-width:0.3px;"/>
                </g>
                <g transform="matrix(0,1,1,0,226.198,563.794)">
                    <path d="M-18.645,-18.645L18.645,-18.645" style="fill:none;fill-rule:nonzero;stroke:rgb(35,31,32);stroke-width:0.3px;"/>
                </g>
                <g transform="matrix(0,1,1,0,330.015,563.794)">
                    <path d="M-18.645,-18.645L18.645,-18.645" style="fill:none;fill-rule:nonzero;stroke:rgb(35,31,32);stroke-width:0.3px;"/>
                </g>
                <g transform="matrix(0,1,1,0,223.802,570.186)">
                    <path d="M-12.254,-12.254L12.254,-12.254" style="fill:none;fill-rule:nonzero;stroke:rgb(35,31,32);stroke-width:0.3px;"/>
                </g>
                <g transform="matrix(0,1,1,0,267.392,570.186)">
                    <path d="M-12.254,-12.254L12.254,-12.254" style="fill:none;fill-rule:nonzero;stroke:rgb(35,31,32);stroke-width:0.3px;"/>
                </g>
                <g transform="matrix(0,1,1,0,276.08,570.186)">
                    <path d="M-12.254,-12.254L12.254,-12.254" style="fill:none;fill-rule:nonzero;stroke:rgb(35,31,32);stroke-width:0.3px;"/>
                </g>
                <g transform="matrix(0,1,1,0,319.967,570.186)">
                    <path d="M-12.254,-12.254L12.254,-12.254" style="fill:none;fill-rule:nonzero;stroke:rgb(35,31,32);stroke-width:0.3px;"/>
                </g>
                <g transform="matrix(0,1,1,0,318.813,754.914)">
                    <path d="M-7.37,-7.37L7.37,-7.37" style="fill:none;fill-rule:nonzero;stroke:rgb(35,31,32);stroke-width:0.3px;"/>
                </g>
                <g transform="matrix(-1,0,0,1,202.818,758.683)">
                    <path d="M-114.662,0L0,0" style="fill:none;fill-rule:nonzero;stroke:rgb(35,31,32);stroke-width:0.3px;"/>
                </g>
                <g transform="matrix(-1,0,0,1,318.743,741.036)">
                    <path d="M-37.289,0L0,0" style="fill:none;fill-rule:nonzero;stroke:rgb(35,31,32);stroke-width:0.3px;"/>
                </g>
                <g transform="matrix(-1,0,0,1,181.417,741.036)">
                    <path d="M-19.134,0L0,0" style="fill:none;fill-rule:nonzero;stroke:rgb(35,31,32);stroke-width:0.3px;"/>
                </g>
                <g transform="matrix(-1,0,0,1,181.417,589.986)">
                    <path d="M-19.134,0L0,0" style="fill:none;fill-rule:nonzero;stroke:rgb(35,31,32);stroke-width:0.3px;"/>
                </g>
                <g transform="matrix(-1,0,0,1,204.662,548.184)">
                    <path d="M-109.417,0L0,0" style="fill:none;fill-rule:nonzero;stroke:rgb(35,31,32);stroke-width:0.3px;"/>
                </g>
                <g transform="matrix(-1,0,0,1,190.984,560.931)">
                    <path d="M-136.984,0L0,0" style="fill:none;fill-rule:nonzero;stroke:rgb(35,31,32);stroke-width:0.3px;"/>
                </g>
                <g transform="matrix(-1,0,0,1,318.743,589.986)">
                    <path d="M-37.289,0L0,0" style="fill:none;fill-rule:nonzero;stroke:rgb(35,31,32);stroke-width:0.3px;"/>
                </g>
                <g transform="matrix(-1,0,0,1,318.743,593.822)">
                    <path d="M-24.507,0L0,0" style="fill:none;fill-rule:nonzero;stroke:rgb(35,31,32);stroke-width:0.3px;"/>
                </g>
                <g transform="matrix(-1,0,0,1,318.743,727.787)">
                    <path d="M-24.507,0L0,0" style="fill:none;fill-rule:nonzero;stroke:rgb(35,31,32);stroke-width:0.3px;"/>
                </g>
                <g>
                    <clipPath id="_clip1">
                        <rect x="207.279" y="589.386" width="104.014" height="151.501" clip-rule="nonzero"/>
                    </clipPath>
                    <g clip-path="url(#_clip1)">
                        <g transform="matrix(1,0,0,1,0,488.393)">
                            <rect x="207.447" y="101.189" width="103.661" height="151.119" style="fill:rgb(218,177,118);"/>
                        </g>
                        <g transform="matrix(1,0,0,1,0,488.382)">
                            <rect x="207.467" y="101.191" width="103.639" height="151.126" style="fill:none;stroke:rgb(35,31,32);stroke-width:0.38px;stroke-miterlimit:10;"/>
                        </g>
                        <g transform="matrix(1,0,0,1,307.495,727.338)">
                            <path d="M0,-134.154L0,0M-96.237,-134.154L-52.541,-134.154M0,0L-43.695,0M-96.237,0L-96.237,-134.153M-43.695,-134.154L-43.695,0M-52.543,-134.154L-52.543,0" style="fill:none;fill-rule:nonzero;stroke:black;stroke-width:0.1px;stroke-miterlimit:10;"/>
                        </g>
                    </g>
                </g>
                <g transform="matrix(0,1,1,0,332.592,665.045)">
                    <path d="M-74.388,-74.388L74.388,-74.388" style="fill:none;fill-rule:nonzero;stroke:rgb(35,31,32);stroke-width:0.38px;stroke-miterlimit:10;"/>
                </g>
                <g transform="matrix(1,0,0,1,263.8,727.338)">
                    <path d="M0,-134.154L43.695,-134.154M-8.849,0L-52.543,0" style="fill:none;fill-rule:nonzero;stroke:black;stroke-width:0.1px;stroke-miterlimit:10;"/>
                </g>
                <g transform="matrix(1,0,0,1,310.205,590.657)">
                    <path d="M0,148.777L-52.002,148.777M-101.655,148.777L-101.655,0L-51.936,0M-0.183,0L-0.183,148.777M-52.002,0L-0.183,0M-51.769,148.777L-101.84,148.777" style="fill:none;fill-rule:nonzero;stroke:rgb(35,31,32);stroke-width:0.38px;stroke-miterlimit:10;"/>
                </g>
                <g transform="matrix(1,0,0,1,0,478.604)">
                    <rect x="211.183" y="114.555" width="43.755" height="134.176" style="fill:rgb(177,221,232);stroke:rgb(35,31,32);stroke-width:0.38px;stroke-miterlimit:10;"/>
                </g>
                <g transform="matrix(1,0,0,1,0,478.604)">
                    <rect x="263.749" y="114.555" width="43.755" height="134.176" style="fill:rgb(177,221,232);stroke:rgb(35,31,32);stroke-width:0.38px;stroke-miterlimit:10;"/>
                </g>
            </g>
        </g>
    </g>
</svg>
