<?xml version="1.0" encoding="UTF-8" standalone="no"?>
<!DOCTYPE svg PUBLIC "-//W3C//DTD SVG 1.1//EN" "http://www.w3.org/Graphics/SVG/1.1/DTD/svg11.dtd">
<svg width="100%" height="100%" viewBox="0 0 750 707" version="1.1" xmlns="http://www.w3.org/2000/svg" xmlns:xlink="http://www.w3.org/1999/xlink" xml:space="preserve" xmlns:serif="http://www.serif.com/" style="fill-rule:evenodd;clip-rule:evenodd;stroke-linecap:round;stroke-miterlimit:10;">
    <g transform="matrix(1,0,0,1,-4290,-2760)">
        <g transform="matrix(2,0,0,2,4018.11,1894.25)">
            <rect id="Page-10" serif:id="Page 10" x="0" y="0" width="595.276" height="841.89" style="fill:none;"/>
            <g id="Page-101" serif:id="Page 10">
                <g transform="matrix(0.00398027,0.999992,0.999992,-0.00398027,399.45,644.383)">
                    <path d="M76.763,-101.439L101.133,-101.439L101.843,77.069L77.474,77.166L76.763,-101.439Z" style="fill:rgb(146,150,153);fill-rule:nonzero;"/>
                </g>
                <g transform="matrix(1,0,0,1,0,304.612)">
                    <rect x="289.372" y="180.079" width="196.618" height="177.12" style="fill:rgb(197,200,202);"/>
                </g>
                <g transform="matrix(1,0,0,1,0,331.223)">
                    <rect x="299.608" y="190.315" width="176.146" height="130.037" style="fill:rgb(218,177,118);"/>
                </g>
                <g transform="matrix(1,0,0,1,302.618,709.267)">
                    <path d="M0,5.132L170.22,5.132L170.22,4.678L0,4.546L0,5.132ZM-0.197,2.85L170.294,2.828L170.325,2.339L-0.197,2.339L-0.197,2.85ZM-0.081,0.487L170.325,0.526L170.325,0L-0.081,0.029L-0.081,0.487Z" style="fill:rgb(177,221,232);fill-rule:nonzero;"/>
                </g>
                <g transform="matrix(1,0,0,1,478.764,701.579)">
                    <path d="M0,39.731C0,31.673 -0.204,23.816 -0.204,15.758L-1.74,15.758L-1.74,41.386C17.429,41.451 9.458,41.361 28.627,41.428L28.627,39.734M-181.96,39.759C-191.321,39.759 -200.212,39.76 -209.57,39.76L-209.57,41.496C-199.821,41.432 -190.174,41.481 -180.425,41.416L-180.327,15.584L-181.888,15.534L-181.96,39.759ZM8.969,0.034C24.758,0.034 12.837,-0.043 28.627,-0.043L28.627,-1.699C12.448,-1.635 23.404,-1.736 7.226,-1.671L7.226,15.534L8.983,15.534C8.983,10.337 8.969,5.232 8.969,0.034M-191.042,15.556L-189.291,15.506L-189.507,-1.699C-196.2,-1.765 -202.877,-1.527 -209.571,-1.592L-209.57,0.078C-203.265,0.078 -197.383,-0.043 -191.08,-0.043C-191.013,5.156 -191.106,10.17 -191.042,15.367" style="fill:rgb(197,200,202);"/>
                </g>
                <g transform="matrix(1,0,0,1,507.401,717.296)">
                    <path d="M0,-15.683L-19.668,-15.683C-19.668,-10.615 -19.745,-5.201 -19.745,-0.133L-0.011,-0.133C-0.011,-5.201 -0.01,-10.615 -0.01,-15.683M-238.197,0L-219.617,0L-219.617,-15.683L-238.197,-15.683L-238.197,0Z" style="fill:rgb(103,108,111);"/>
                </g>
                <g transform="matrix(1,0,0,1,478.58,741.397)">
                    <path d="M0,-24.234C0,-16.305 -0.032,-7.879 -0.032,0.05C18.619,0.05 10.16,-0.059 28.81,-0.059C28.81,-7.985 28.811,-16.355 28.811,-24.284L0,-24.234ZM-209.386,-24.284C-209.386,-16.355 -209.227,-8.107 -209.227,-0.179C-199.973,-0.179 -191.031,-0.059 -181.776,-0.059C-181.776,-7.985 -181.704,-16.355 -181.704,-24.284" style="fill:rgb(235,218,47);"/>
                </g>
                <g transform="matrix(1,0,0,1,302.435,710.032)">
                    <path d="M0,4.305C-0.066,1.964 0.065,-0.376 0,-2.716L-7.02,-2.716C-7.02,-2.324 -7.108,-1.557 -7.108,-1.168C-9.122,-1.101 -11.049,-1.317 -13.063,-1.252C-13.063,1.412 -12.919,4.358 -12.919,7.021L-3.559,7.021C-3.269,6.658 -2.959,6.222 -2.827,5.767C-1.31,5.767 -0.547,5.655 0.144,5.655C0.469,5.266 1.138,4.695 1.46,4.305C1.006,4.369 0.454,4.24 0,4.305" style="fill:rgb(218,177,118);"/>
                </g>
                <g transform="matrix(1,0,0,1,480.042,715.649)">
                    <path d="M0,-6.869C-0.064,-7.325 0.065,-7.769 0,-8.224C-2.145,-8.224 -4.73,-8.333 -6.876,-8.333C-6.876,-6.057 -7.058,-3.588 -7.058,-1.312L-8.435,-1.312C-7.564,0.649 -6.515,0.156 -4.339,0.038C-4.144,0.494 -3.95,0.95 -3.756,1.404C-0.635,1.404 2.827,1.464 5.948,1.464C5.948,-0.165 5.883,-3.117 5.883,-6.869L0,-6.869Z" style="fill:rgb(218,177,118);"/>
                </g>
                <g transform="matrix(1,0,0,1,390.439,709.701)">
                    <path d="M0,4.698C0,2.359 0.018,0.139 0.018,-2.201L-5.588,-2.201C-5.588,0.204 -5.485,2.191 -5.485,4.595C-5.938,4.529 -6.497,4.7 -6.953,4.636C-6.655,6.899 -2.302,6.098 0.511,5.986C1.156,5.178 1.65,4.488 1.482,4.698C1.027,4.634 0.453,4.764 0,4.698" style="fill:rgb(218,177,118);"/>
                </g>
                <g transform="matrix(1,0,0,1,269.181,741.069)">
                    <path d="M0,-23.689C0,-15.76 0.013,-7.78 0.013,0.148C9.268,0.148 18.441,0.268 27.696,0.268L27.696,-23.957" style="fill:rgb(235,218,47);"/>
                </g>
                <g transform="matrix(1,-0.000289152,-0.000289152,-1,303.915,647.32)">
                    <rect x="-0.018" y="0.012" width="79.578" height="121.558" style="fill:rgb(177,221,232);"/>
                </g>
                <g transform="matrix(1,0,0,1,391.921,525.729)">
                    <rect x="0" y="0" width="79.64" height="121.556" style="fill:rgb(177,221,232);"/>
                </g>
                <g transform="matrix(1,0,0,1,0,468.388)">
                    <rect x="298.432" y="185.615" width="178.34" height="2.272" style="fill:rgb(145,149,151);"/>
                </g>
                <g transform="matrix(1,0,0,1,0,139.874)">
                    <rect x="169.96" y="321.52" width="5.947" height="58.976" style="fill:rgb(146,150,153);"/>
                </g>
                <g transform="matrix(1,0,0,1,0,331.477)">
                    <path d="M203.286,317.512L203.74,317.512L203.74,192.835L203.286,192.835L203.286,317.512ZM200.947,317.657L201.434,317.657L201.434,192.756L200.947,192.756L200.947,317.657ZM198.607,317.512L199.104,317.512L199.104,192.791L198.607,192.791L198.607,317.512Z" style="fill:rgb(177,221,232);"/>
                </g>
                <g transform="matrix(1,0,0,1,198.65,661.742)">
                    <path d="M0,-14.507C-1.961,-13.637 -1.469,-12.588 -1.353,-10.412C-1.808,-10.216 -2.503,-10.064 -2.956,-9.869C-2.956,-6.752 -2.897,-3.175 -2.897,-0.056C-1.267,-0.056 1.774,0 5.526,0L5.526,-5.877C5.981,-5.942 6.532,-5.812 6.986,-5.877C6.986,-8.02 7.019,-10.802 7.019,-12.947C4.745,-12.947 2.274,-12.896 0,-12.896L0,-14.507Z" style="fill:rgb(218,177,118);"/>
                </g>
                <g transform="matrix(1,0,0,1,197.298,488.755)">
                    <path d="M0,33.071C-0.117,35.248 -0.609,36.297 1.353,37.166L1.353,35.548C3.627,35.548 6.097,35.606 8.372,35.606C8.372,33.463 8.265,30.876 8.265,28.732C7.81,28.668 7.364,28.797 6.908,28.732L6.908,-4.033L-1.521,-4.095C-1.521,-4.095 -1.604,29.08 -1.604,32.198C-1.15,32.394 -0.455,32.877 0,33.071" style="fill:rgb(218,177,118);"/>
                </g>
                <g transform="matrix(-0.885075,-0.465449,-0.465449,0.885075,162.347,691.024)">
                    <path d="M-11.944,-48.803C-4.928,-45.113 1.752,-40.376 8.769,-36.686C1.805,-23.444 -4.981,-10.235 -11.944,3.005L-33.393,-8.275C-26.43,-21.515 -18.907,-35.562 -11.944,-48.803" style="fill:rgb(235,218,47);"/>
                </g>
                <g transform="matrix(1,0,0,1,0,138.212)">
                    <rect x="171.518" y="323.18" width="24.176" height="57.318" style="fill:rgb(235,218,47);"/>
                </g>
                <g transform="matrix(1,0,0,1,195.844,461.42)">
                    <rect x="0" y="0" width="37.274" height="23.24" style="fill:rgb(103,108,111);"/>
                </g>
                <g transform="matrix(1,0,0,1,0,519.164)">
                    <rect x="195.709" y="142.647" width="17.337" height="37.432" style="fill:rgb(103,108,111);"/>
                </g>
                <g transform="matrix(1,0,0,1,0,511.853)">
                    <rect x="169.959" y="142.647" width="1.56" height="44.743" style="fill:rgb(146,150,153);"/>
                </g>
                <g transform="matrix(1,0,0,1,0,197.268)">
                    <rect x="187.73" y="321.52" width="7.964" height="1.582" style="fill:rgb(146,150,153);"/>
                </g>
                <g transform="matrix(1,0,0,1,0,519.164)">
                    <rect x="213.046" y="142.647" width="1.56" height="37.432" style="fill:rgb(146,150,153);"/>
                </g>
                <g transform="matrix(1,0,0,1,203.676,648.802)">
                    <path d="M0,-124.535L0,0M-0.39,-124.535L-0.39,0M-2.242,-124.535L-2.242,0M-2.729,-124.535L-2.729,0M-4.582,-124.535L-4.582,0M-5.069,-124.535L-5.069,0" style="fill:none;fill-rule:nonzero;stroke:black;stroke-width:0.2px;"/>
                </g>
                <g transform="matrix(-0.890724,-0.454545,-0.454545,0.890724,195.728,484.553)">
                    <path d="M-0.206,0.049L0.012,0.05" style="fill:none;fill-rule:nonzero;stroke:rgb(119,123,124);stroke-width:0.2px;"/>
                </g>
                <g transform="matrix(1,0,0,1,171.519,627.789)">
                    <path d="M0,-109.079L4.388,-109.079M15.891,-109.079L24.176,-109.079M32.656,-143.099L32.656,-110.54M-1.56,-107.42L4.388,-107.42M15.89,-107.42L24.176,-107.42M25.346,-106.252L25.638,-106.252M24.175,-107.42L24.175,-106.837L25.345,-106.252M32.657,28.075L34.118,28.075L34.118,20.667L32.949,19.496L26.711,19.496M25.638,23.687L25.638,20.666L26.71,19.496M24.175,34.02L43.087,34.02" style="fill:none;fill-rule:nonzero;stroke:black;stroke-width:0.39px;"/>
                </g>
                <g>
                    <clipPath id="_clip1">
                        <rect x="166.806" y="461.407" width="340.595" height="284.61" clip-rule="nonzero"/>
                    </clipPath>
                    <g clip-path="url(#_clip1)">
                        <g transform="matrix(1,0,0,1,195.694,508.866)">
                            <path d="M0,142.903L0,145.657M9.943,139.98L2.827,139.98M-25.735,11.504L-25.735,-47.472M-25.735,190.377L-25.735,145.635M0,11.504L0,-3.314M0,152.944L0,145.536M8.482,146.999L8.482,152.944M-24.175,190.377L-24.175,145.536M-24.175,9.845L-24.175,-47.474" style="fill:none;fill-rule:nonzero;stroke:black;stroke-width:0.39px;stroke-linecap:butt;"/>
                        </g>
                        <g transform="matrix(1,0,0,1,204.176,525.731)">
                            <path d="M0,-8.482L1.461,-8.482L1.461,-1.074L0.292,-0.003L-5.946,-0.003M-7.019,-4.194L-7.019,-1.076L-5.947,0" style="fill:none;fill-rule:nonzero;stroke:black;stroke-width:0.39px;"/>
                        </g>
                        <g transform="matrix(1,0,0,1,205.637,636.37)">
                            <path d="M0,-112.103L-7.117,-112.103M-9.942,-130.819L-9.942,-174.976M7.409,62.873L7.409,25.44M-9.942,62.873L-9.942,25.44M-9.942,-151.679L27.488,-151.679" style="fill:none;fill-rule:nonzero;stroke:black;stroke-width:0.39px;stroke-linecap:butt;"/>
                        </g>
                        <g transform="matrix(1,0,0,1,0,170.093)">
                            <rect x="175.906" y="321.52" width="11.503" height="28.757" style="fill:white;"/>
                        </g>
                        <g transform="matrix(1,0,0,1,187.409,627.595)">
                            <clipPath id="_clip2">
                                <rect x="-20.602" y="-166.188" width="340.595" height="284.61" clip-rule="nonzero"/>
                            </clipPath>
                            <g clip-path="url(#_clip2)">
                                <path d="M0,-107.225L0,-135.982L-11.503,-135.982L-11.503,-107.225M8.286,25.345L-20.47,26.417M9.749,23.298L3.997,24.468M9.749,23.882L4.582,24.956M3.997,24.468L3.997,25.461M4.582,24.956L4.582,25.415M8.219,25.93L-19.886,27.002M-20.47,26.418L-20.47,28.757L-19.885,28.757L-19.885,27.003" style="fill:none;fill-rule:nonzero;stroke:black;stroke-width:0.39px;"/>
                            </g>
                        </g>
                        <g transform="matrix(1,0,0,1,169.96,521.536)">
                            <path d="M0,131.209L0,0M35.678,125.75L35.678,4.192M27.197,125.75L27.197,4.192" style="fill:none;fill-rule:nonzero;stroke:black;stroke-width:0.2px;stroke-linecap:butt;"/>
                        </g>
                        <g transform="matrix(0,-1,-1,0,233.323,680.527)">
                            <path d="M-18.716,18.716L18.716,18.716" style="fill:none;fill-rule:nonzero;stroke:black;stroke-width:0.39px;stroke-linecap:butt;"/>
                        </g>
                        <g transform="matrix(0,-1,-1,0,302.046,573.299)">
                            <path d="M-87.439,87.439L87.439,87.439" style="fill:none;fill-rule:nonzero;stroke:black;stroke-width:0.2px;stroke-linecap:butt;"/>
                        </g>
                        <g transform="matrix(1,0,0,1,0,331.223)">
                            <rect x="299.608" y="190.315" width="176.146" height="130.037" style="fill:none;stroke:black;stroke-width:0.2px;"/>
                        </g>
                        <g transform="matrix(1,0,0,1,383.44,647.285)">
                            <path d="M0,-121.557L-79.543,-121.557M-79.543,0L0,0M88.121,0L88.121,-121.557M-79.543,-121.557L-79.543,0" style="fill:rgb(177,220,233);fill-rule:nonzero;"/>
                        </g>
                        <g transform="matrix(1,0,0,1,383.44,647.188)">
                            <path d="M0,-121.46L-79.543,-121.46M-79.638,0.097L0.096,0.097M88.121,0.097L88.121,-121.46M-79.543,-121.557L-79.543,0.097" style="fill:none;fill-rule:nonzero;stroke:black;stroke-width:0.2px;stroke-linecap:butt;"/>
                        </g>
                        <g transform="matrix(1,0,0,1,298.439,520.37)">
                            <path d="M0,132.473L0,0L178.483,0L178.483,132.473" style="fill:none;fill-rule:nonzero;stroke:black;stroke-width:0.39px;stroke-linecap:butt;"/>
                        </g>
                        <g transform="matrix(1,0,0,1,383.44,647.384)">
                            <path d="M0,-121.656L0,-0.099M8.481,-121.656L8.481,-0.099M5.458,-125.846L5.458,4.19M88.121,-121.656L8.481,-121.656M8.481,-0.099L88.121,-0.099M-79.543,-121.656L-67.262,-112.197M-65.798,-111.127L-63.07,-109.08M-61.704,-108.007L-50.788,-99.624M-49.423,-98.554L-46.596,-96.504M-45.231,-95.433L-34.313,-87.05M-32.947,-85.978L-30.122,-83.931M-28.757,-82.858L-17.839,-74.475M-16.474,-73.405L-13.744,-71.258" style="fill:rgb(177,220,233);fill-rule:nonzero;"/>
                        </g>
                        <g transform="matrix(1,0,0,1,383.44,647.479)">
                            <path d="M0,-121.847L0,-0.194M8.481,-121.844L8.481,-0.194M5.458,-125.942L5.458,4.095M88.121,-121.751L8.481,-121.751M8.388,-0.194L88.217,-0.194M-79.543,-121.751L-67.262,-112.292M-65.798,-111.222L-63.07,-109.175M-61.704,-108.102L-50.788,-99.719M-49.423,-98.649L-46.596,-96.599M-45.231,-95.529L-34.313,-87.145M-32.947,-86.073L-30.122,-84.026M-28.757,-82.953L-17.839,-74.57M-16.474,-73.5L-13.744,-71.353M-12.283,-70.379L0,-60.923L-12.283,-51.467" style="fill:none;fill-rule:nonzero;stroke:black;stroke-width:0.2px;stroke-linecap:butt;"/>
                        </g>
                        <g transform="matrix(1,0,0,1,369.696,636.855)">
                            <path d="M0,-39.868L-2.73,-37.722M-4.095,-36.649L-15.013,-28.266M-16.378,-27.292L-19.203,-25.149M-20.569,-24.076L-31.487,-15.693M-32.852,-14.718L-35.679,-12.575M-37.042,-11.502L-47.96,-3.119M-49.326,-2.046L-52.054,0" style="fill:none;fill-rule:nonzero;stroke:black;stroke-width:0.2px;"/>
                        </g>
                        <g>
                            <clipPath id="_clip3">
                                <rect x="166.806" y="461.407" width="340.595" height="284.61" clip-rule="nonzero"/>
                            </clipPath>
                            <g clip-path="url(#_clip3)">
                                <g transform="matrix(-0.795399,0.606086,0.606086,0.795399,307.99,650.05)">
                                    <path d="M-13.861,-4.679L1.58,-4.679" style="fill:none;fill-rule:nonzero;stroke:black;stroke-width:0.2px;stroke-linecap:butt;"/>
                                </g>
                                <g transform="matrix(1,0,0,1,507.39,655.669)">
                                    <path d="M0,85.67L-28.81,85.67M-208.953,-1.656L-30.468,-1.656M0,61.494L-30.468,61.494M0.001,44.239L-21.4,44.239M-238.196,85.67L-210.321,85.67M-238.195,61.494L-208.953,61.494M-238.196,44.239L-217.824,44.239M-210.513,85.67L-210.513,61.494M-219.578,61.494L-219.578,45.897M-218.018,53.111L-211.972,53.111M-209.051,87.326L-209.051,61.494L-208.357,61.494L-207.772,60.324L-207.772,60.129" style="fill:none;fill-rule:nonzero;stroke:black;stroke-width:0.39px;stroke-linecap:butt;"/>
                                </g>
                            </g>
                        </g>
                        <g transform="matrix(0,-1,-1,0,475.851,715.895)">
                            <path d="M-0.098,0.098L0.098,0.098" style="fill:none;fill-rule:nonzero;stroke:black;stroke-width:0.39px;"/>
                        </g>
                        <g transform="matrix(-1,0,0,1,390.457,714.336)">
                            <path d="M-82.566,0L0,0" style="fill:none;fill-rule:nonzero;stroke:black;stroke-width:0.2px;"/>
                        </g>
                        <g transform="matrix(1,0,0,1,478.58,699.908)">
                            <path d="M0,41.431L0,17.255M7.41,17.255L7.41,0" style="fill:none;fill-rule:nonzero;stroke:black;stroke-width:0.39px;"/>
                        </g>
                        <g transform="matrix(1,0,0,1,477.023,715.993)">
                            <path d="M0,27.002L0,1.17L-0.686,1.17L-1.27,0" style="fill:none;fill-rule:nonzero;stroke:black;stroke-width:0.39px;stroke-linecap:butt;"/>
                        </g>
                        <g>
                            <clipPath id="_clip4">
                                <rect x="166.806" y="461.407" width="340.595" height="284.61" clip-rule="nonzero"/>
                            </clipPath>
                            <g clip-path="url(#_clip4)">
                                <g transform="matrix(1,0,0,1,473.023,709.657)">
                                    <path d="M0,4.287L-82.566,4.287M0,2.437L-82.566,2.437M0,1.948L-82.566,1.948M0,0.096L-82.566,0.096M0,-0.391L-82.566,-0.391M-88.121,4.678L-170.588,4.678M-88.121,4.155L-170.588,4.155M-88.121,2.437L-170.588,2.437M-88.121,1.948L-170.588,1.948M-88.121,0.096L-170.588,0.096M-88.121,-0.391L-170.588,-0.391" style="fill:none;fill-rule:nonzero;stroke:black;stroke-width:0.2px;"/>
                                </g>
                                <g transform="matrix(1,0,0,1,298.533,742.995)">
                                    <path d="M0,0L-29.339,0M208.857,0L178.389,0" style="fill:none;fill-rule:nonzero;stroke:black;stroke-width:0.39px;stroke-linecap:butt;"/>
                                </g>
                            </g>
                        </g>
                        <g transform="matrix(1,0,0,1,471.561,596.013)">
                            <path d="M0,-70.285L-12.379,-60.826M-13.745,-59.756L-16.474,-57.709M-17.839,-56.636L-28.856,-48.253M-30.219,-47.183L-32.947,-45.133M-34.313,-44.062L-45.326,-35.679M-46.692,-34.607L-49.421,-32.56M-50.786,-31.487L-61.803,-23.104M-63.168,-22.034L-65.897,-19.887M-67.26,-18.913L-79.642,-9.457L-67.26,0" style="fill:none;fill-rule:nonzero;stroke:black;stroke-width:0.2px;stroke-linecap:butt;"/>
                        </g>
                        <g transform="matrix(1,0,0,1,405.666,636.855)">
                            <path d="M0,-39.868L2.729,-37.722M4.095,-36.649L15.109,-28.266M16.474,-27.292L19.203,-25.149M20.569,-24.076L31.582,-15.693M32.948,-14.718L35.676,-12.575M37.039,-11.502L48.056,-3.119M49.419,-2.046L52.15,0" style="fill:none;fill-rule:nonzero;stroke:black;stroke-width:0.2px;"/>
                        </g>
                        <g transform="matrix(0.797713,0.603037,0.603037,-0.797713,463.256,635.142)">
                            <path d="M-1.57,-4.679L13.949,-4.679" style="fill:none;fill-rule:nonzero;stroke:black;stroke-width:0.2px;stroke-linecap:butt;"/>
                        </g>
                        <g transform="matrix(1,0,0,1,295.415,714.334)">
                            <path d="M0,-5.554L0,-7.018L7.311,-7.018M8.482,0.294L8.482,-5.944L7.311,-7.017M8.482,0.294L7.311,1.464L4.193,1.464" style="fill:none;fill-rule:nonzero;stroke:black;stroke-width:0.39px;"/>
                        </g>
                        <g transform="matrix(0,1,1,0,305.993,710.874)">
                            <path d="M-3.557,-3.557L3.557,-3.557" style="fill:none;fill-rule:nonzero;stroke:black;stroke-width:0.39px;stroke-linecap:butt;"/>
                        </g>
                        <g transform="matrix(1,0,0,1,480.042,714.333)">
                            <path d="M0,-5.553L0,-7.017L-7.408,-7.017M-8.481,-5.942L-8.481,0.295L-7.408,1.464" style="fill:none;fill-rule:nonzero;stroke:black;stroke-width:0.39px;"/>
                        </g>
                        <g transform="matrix(1,0,0,1,472.634,715.798)">
                            <path d="M0,-8.481L-1.073,-7.408M0,0L3.119,0M0.389,-8.481L0.389,-1.368" style="fill:none;fill-rule:nonzero;stroke:black;stroke-width:0.39px;stroke-linecap:butt;"/>
                        </g>
                        <g transform="matrix(1,0,0,1,384.609,708.39)">
                            <path d="M0,-1.073L6.24,-1.073L7.31,0" style="fill:none;fill-rule:nonzero;stroke:black;stroke-width:0.39px;"/>
                        </g>
                        <g transform="matrix(0,1,1,0,388.46,710.875)">
                            <path d="M-3.558,-3.558L3.558,-3.558" style="fill:none;fill-rule:nonzero;stroke:black;stroke-width:0.39px;stroke-linecap:butt;"/>
                        </g>
                        <g transform="matrix(1,0,0,1,383.44,708.486)">
                            <path d="M0,6.141L0,-0.097L1.169,-1.17M8.479,-0.096L8.479,6.141M7.409,7.311L1.169,7.311L0,6.141" style="fill:none;fill-rule:nonzero;stroke:black;stroke-width:0.39px;"/>
                        </g>
                        <g>
                            <clipPath id="_clip5">
                                <rect x="166.806" y="461.407" width="340.595" height="284.61" clip-rule="nonzero"/>
                            </clipPath>
                            <g clip-path="url(#_clip5)">
                                <g transform="matrix(1,0,0,1,391.919,702.443)">
                                    <path d="M0,12.184L-1.07,13.354M-1.462,4.873L-1.462,11.989M-122.726,-0.878L-103.913,-0.878M-102.547,14.72L-102.547,-2.536M88.123,6.336L94.071,6.336M95.727,14.719L95.727,-0.879L115.472,-0.879" style="fill:none;fill-rule:nonzero;stroke:black;stroke-width:0.39px;stroke-linecap:butt;"/>
                                </g>
                                <g transform="matrix(1,0,0,1,476.922,743.014)">
                                    <path d="M0,2.905L-178.483,2.905L-178.483,0.137M0,3.001L0,-0.096" style="fill:none;fill-rule:nonzero;stroke:black;stroke-width:0.2px;stroke-linecap:butt;"/>
                                </g>
                            </g>
                        </g>
                        <g transform="matrix(1,0,0,1,486.085,698.738)">
                            <path d="M0,-7.212L-196.713,-7.212L-196.713,0" style="fill:none;fill-rule:nonzero;stroke:black;stroke-width:0.2px;stroke-linecap:butt;"/>
                        </g>
                        <g transform="matrix(0,1,1,0,489.596,695.132)">
                            <path d="M-3.606,-3.606L3.606,-3.606" style="fill:none;fill-rule:nonzero;stroke:black;stroke-width:0.2px;stroke-linecap:butt;"/>
                        </g>
                        <g transform="matrix(1,0,0,1,298.439,654.011)">
                            <path d="M0,2.34L178.483,2.34L178.483,0M0,2.34L0,0" style="fill:none;fill-rule:nonzero;stroke:black;stroke-width:0.39px;"/>
                        </g>
                        <g transform="matrix(1,0,0,1,298.25,520.367)">
                            <path d="M0,-28.754L178.773,-28.754L178.773,0" style="fill:none;fill-rule:nonzero;stroke:black;stroke-width:0.2px;stroke-linecap:butt;"/>
                        </g>
                        <g transform="matrix(1,0,0,1,298.349,687.041)">
                            <path d="M0,-166.671L0,-195.428M84.409,28.757L5.548,28.757M173.212,28.757L95.229,28.757M83.922,20.276L5.548,20.276M173.212,20.276L94.741,20.276" style="fill:none;fill-rule:nonzero;stroke:black;stroke-width:0.2px;stroke-linecap:butt;"/>
                        </g>
                        <g transform="matrix(-1,0,0,1,298.531,721.549)">
                            <path d="M-178.392,0L0,0" style="fill:none;fill-rule:nonzero;stroke:black;stroke-width:0.2px;stroke-linecap:butt;"/>
                        </g>
                        <g transform="matrix(1,0,0,1,388.898,715.798)">
                            <path d="M0,-8.481L0,-5.654M-1.169,-5.654L-1.169,-2.825M-2.34,-2.825L-2.34,0M0,-5.654L-1.169,-5.654M-1.169,-2.825L-2.34,-2.825" style="fill:none;fill-rule:nonzero;stroke:black;stroke-width:0.39px;"/>
                        </g>
                        <g transform="matrix(1,0,0,1,289.372,484.787)">
                            <path d="M0,177.023L8.772,177.023M12.478,177.023L19.789,177.023M23.395,177.023L30.706,177.023M34.409,177.023L41.722,177.023M45.329,177.023L52.639,177.023M56.342,177.023L63.653,177.023M67.262,177.023L74.573,177.023M78.276,177.023L85.586,177.023M89.194,177.023L96.504,177.023M100.209,177.023L107.424,177.023M111.127,177.023L118.438,177.023M122.045,177.023L129.355,177.023M133.061,177.023L140.372,177.023M143.976,177.023L151.289,177.023M154.992,177.023L162.305,177.023M165.91,177.023L173.222,177.023M176.925,177.023L184.236,177.023M187.843,177.023L196.618,177.023L196.618,172.538M196.618,168.835L196.618,161.524M196.618,157.917L196.618,150.606M196.618,146.902L196.618,139.592M196.618,135.984L196.618,128.674M196.618,125.066L196.618,117.756M196.618,114.053L196.618,106.742M196.618,103.136L196.618,95.825M196.618,92.119L196.618,84.809M196.618,81.202L196.618,73.892M196.618,70.186L196.618,62.875M196.618,59.271L196.618,51.958M196.618,48.255L196.618,40.944M196.618,37.337L196.618,30.025M196.618,26.321L196.618,19.011M196.618,15.403L196.618,8.093M196.618,4.388L196.618,-0.096L187.843,-0.096M184.236,-0.096L176.925,-0.096M173.22,-0.096L165.91,-0.096M162.302,-0.096L154.992,-0.096M151.289,-0.096L143.976,-0.096M140.372,-0.096L133.061,-0.096M129.355,-0.096L122.042,-0.096M118.438,-0.096L111.127,-0.096M107.421,-0.096L100.209,-0.096M96.504,-0.096L89.194,-0.096M85.589,-0.096L78.276,-0.096M74.573,-0.096L67.262,-0.096M63.656,-0.096L56.342,-0.096M52.639,-0.096L45.329,-0.096M41.722,-0.096L34.412,-0.096M30.706,-0.096L23.395,-0.096M19.789,-0.096L12.478,-0.096M8.772,-0.096L0,-0.096L0,4.388M0,8.093L0,15.403M0,19.011L0,26.321M0,30.025L0,37.337M0,40.942L0,48.255M0,51.96L0,59.271M0,62.875L0,70.186M0,73.892L0,81.202M0,84.809L0,92.119M0,95.825L0,103.136M0,106.742L0,114.053M0,117.756L0,125.066M0,128.674L0,135.984M0,139.592L0,146.902M0,150.606L0,157.917M0,161.524L0,168.835M0,172.539L0,177.119" style="fill:none;fill-rule:nonzero;stroke:black;stroke-width:0.2px;stroke-linecap:butt;"/>
                        </g>
                        <g transform="matrix(1,0,0,1,391.921,737.147)">
                            <path d="M0,0L0,0" style="fill:none;fill-rule:nonzero;stroke:black;stroke-width:0.2px;"/>
                        </g>
                    </g>
                </g>
                <text x="289.701px" y="455.981px" style="font-family:'Roboto-Medium', 'Roboto';font-weight:500;font-size:9px;fill:rgb(35,31,32);">A<tspan x="295.48px " y="455.981px ">n</tspan>sicht</text>
                <text x="360.74px" y="507.855px" style="font-family:'Roboto-Medium', 'Roboto';font-weight:500;font-size:9px;fill:rgb(35,31,32);">Storenkasten</text>
                <text x="168.945px" y="455.981px" style="font-family:'Roboto-Medium', 'Roboto';font-weight:500;font-size:9px;fill:rgb(35,31,32);">S<tspan x="174.557px 179.447px 184.624px 189.809px 192.288px 195.46px " y="455.981px 455.981px 455.981px 455.981px 455.981px 455.981px ">chnitt</tspan></text>
                <text x="220.252px" y="556.611px" style="font-family:'Roboto-Medium', 'Roboto';font-weight:500;font-size:9px;fill:rgb(35,31,32);">innen</text>
                <g>
                    <text x="375.86px" y="701.346px" style="font-family:'Roboto-Medium', 'Roboto';font-weight:500;font-size:9px;fill:rgb(35,31,32);">innen</text>
                    <text x="372.434px" y="758.296px" style="font-family:'Roboto-Medium', 'Roboto';font-weight:500;font-size:9px;fill:rgb(35,31,32);">aussen</text>
                </g>
                <text x="289.701px" y="684px" style="font-family:'Roboto-Medium', 'Roboto';font-weight:500;font-size:9px;fill:rgb(35,31,32);">Grundriss</text>
                <g transform="matrix(0,-1,1,0,0,0)">
                    <text x="-601.171px" y="245.528px" style="font-family:'Helvetica-Light', 'Helvetica', sans-serif;font-weight:300;font-size:8px;fill:rgb(35,31,32);">Fenster</text>
                </g>
                <g transform="matrix(0,-1,1,0,0,0)">
                    <text x="-485.252px" y="245.528px" style="font-family:'Helvetica-Light', 'Helvetica', sans-serif;font-weight:300;font-size:8px;fill:rgb(35,31,32);">Aussenwand</text>
                    <text x="-498.696px" y="261.548px" style="font-family:'Helvetica-Light', 'Helvetica', sans-serif;font-weight:300;font-size:8px;fill:rgb(35,31,32);">Storenkasten</text>
                </g>
                <g transform="matrix(0,-1,1,0,0,0)">
                    <text x="-637.062px" y="144.614px" style="font-family:'Helvetica-Light', 'Helvetica', sans-serif;font-weight:300;font-size:8px;fill:rgb(35,31,32);">Net<tspan x="-624.494px " y="144.614px ">t</tspan>o-<tspan x="-615.038px " y="144.614px ">F</tspan>en<tspan x="-601.574px " y="144.614px ">s</tspan>te<tspan x="-590.782px " y="144.614px ">r</tspan>ab<tspan x="-578.662px " y="144.614px ">m</tspan>es<tspan x="-563.43px " y="144.614px ">s</tspan>un<tspan x="-550.414px " y="144.614px ">g</tspan> H<tspan x="-537.406px " y="144.614px ">ö</tspan>he</text>
                </g>
                <text x="330.313px" y="772.499px" style="font-family:'Helvetica-Light', 'Helvetica', sans-serif;font-weight:300;font-size:8px;fill:rgb(35,31,32);">Netto-Fensterabmessung Breite</text>
                <text x="326.206px" y="627.701px" style="font-family:'Helvetica-Light', 'Helvetica', sans-serif;font-weight:300;font-size:8px;fill:rgb(35,31,32);">Glasbreite</text>
                <text x="414.08px" y="627.701px" style="font-family:'Helvetica-Light', 'Helvetica', sans-serif;font-weight:300;font-size:8px;fill:rgb(35,31,32);">Glasbreite</text>
                <g transform="matrix(0,-1,1,0,0,0)">
                    <text x="-603.062px" y="428.362px" style="font-family:'Helvetica-Light', 'Helvetica', sans-serif;font-weight:300;font-size:8px;fill:rgb(35,31,32);">Glashöhe</text>
                </g>
                <g transform="matrix(0,-1,1,0,0,0)">
                    <text x="-641.704px" y="158.687px" style="font-family:'Helvetica-LightOblique', 'Helvetica', sans-serif;font-weight:300;font-style:italic;font-size:9px;fill:rgb(35,31,32);">y</text>
                    <text x="-637.699px" y="161.684px" style="font-family:'Helvetica-LightOblique', 'Helvetica', sans-serif;font-weight:300;font-style:italic;font-size:5.247px;fill:rgb(35,31,32);">u</text>
                </g>
                <g>
                    <text x="311.386px" y="727.895px" style="font-family:'Helvetica-LightOblique', 'Helvetica', sans-serif;font-weight:300;font-style:italic;font-size:9px;fill:rgb(35,31,32);">x</text>
                    <text x="315.886px" y="730.892px" style="font-family:'Helvetica-LightOblique', 'Helvetica', sans-serif;font-weight:300;font-style:italic;font-size:5.247px;fill:rgb(35,31,32);">li</text>
                </g>
                <g>
                    <text x="398.409px" y="727.895px" style="font-family:'Helvetica-LightOblique', 'Helvetica', sans-serif;font-weight:300;font-style:italic;font-size:9px;fill:rgb(35,31,32);">x</text>
                    <text x="402.909px" y="730.892px" style="font-family:'Helvetica-LightOblique', 'Helvetica', sans-serif;font-weight:300;font-style:italic;font-size:5.247px;fill:rgb(35,31,32);">mi</text>
                </g>
                <g>
                    <text x="457.087px" y="727.895px" style="font-family:'Helvetica-LightOblique', 'Helvetica', sans-serif;font-weight:300;font-style:italic;font-size:9px;fill:rgb(35,31,32);">x</text>
                    <text x="461.587px" y="730.892px" style="font-family:'Helvetica-LightOblique', 'Helvetica', sans-serif;font-weight:300;font-style:italic;font-size:5.247px;fill:rgb(35,31,32);">re</text>
                </g>
                <g transform="matrix(0,-1,1,0,0,0)">
                    <text x="-536.397px" y="158.687px" style="font-family:'Helvetica-LightOblique', 'Helvetica', sans-serif;font-weight:300;font-style:italic;font-size:9px;fill:rgb(35,31,32);">y</text>
                    <text x="-532.482px" y="161.684px" style="font-family:'Helvetica-LightOblique', 'Helvetica', sans-serif;font-weight:300;font-style:italic;font-size:5.247px;fill:rgb(35,31,32);">o</text>
                </g>
                <g transform="matrix(0,-1,1,0,0,0)">
                    <text x="-703.519px" y="245.528px" style="font-family:'Helvetica-Light', 'Helvetica', sans-serif;font-weight:300;font-size:8px;fill:rgb(35,31,32);">Aussenwand</text>
                    <text x="-759.328px" y="246.277px" style="font-family:'Roboto-Medium', 'Roboto';font-weight:500;font-size:9px;fill:rgb(35,31,32);">Bauteile:</text>
                </g>
                <g transform="matrix(0,1,1,0,314.583,766.357)">
                    <path d="M-16.087,-16.087L16.087,-16.087" style="fill:none;fill-rule:nonzero;stroke:rgb(35,31,32);stroke-width:0.3px;stroke-linecap:butt;stroke-miterlimit:4;"/>
                </g>
                <g transform="matrix(0,1,1,0,381.906,570.909)">
                    <path d="M-132.874,-132.874L132.874,-132.874" style="fill:none;fill-rule:nonzero;stroke:rgb(35,31,32);stroke-width:0.3px;stroke-linecap:butt;stroke-miterlimit:4;"/>
                </g>
                <g transform="matrix(0,1,1,0,220.95,587.066)">
                    <path d="M-71.433,-71.433L71.433,-71.433" style="fill:none;fill-rule:nonzero;stroke:rgb(35,31,32);stroke-width:0.3px;stroke-linecap:butt;stroke-miterlimit:4;"/>
                </g>
                <g transform="matrix(0,1,1,0,309.623,731.491)">
                    <path d="M-5.598,-5.598L5.598,-5.598" style="fill:none;fill-rule:nonzero;stroke:rgb(35,31,32);stroke-width:0.3px;stroke-linecap:butt;stroke-miterlimit:4;"/>
                </g>
                <g transform="matrix(0,1,1,0,397.741,731.491)">
                    <path d="M-5.598,-5.598L5.598,-5.598" style="fill:none;fill-rule:nonzero;stroke:rgb(35,31,32);stroke-width:0.3px;stroke-linecap:butt;stroke-miterlimit:4;"/>
                </g>
                <g transform="matrix(0,1,1,0,497.417,586.499)">
                    <path d="M-65.551,-65.551L65.551,-65.551" style="fill:none;fill-rule:nonzero;stroke:rgb(35,31,32);stroke-width:0.3px;stroke-linecap:butt;stroke-miterlimit:4;"/>
                </g>
                <g transform="matrix(1,0,0,1,298.994,631.349)">
                    <path d="M0,0L177.794,0" style="fill:none;fill-rule:nonzero;stroke:rgb(35,31,32);stroke-width:0.3px;stroke-linecap:butt;stroke-miterlimit:4;"/>
                </g>
                <g transform="matrix(0,1,1,0,477.337,731.491)">
                    <path d="M-5.598,-5.598L5.598,-5.598" style="fill:none;fill-rule:nonzero;stroke:rgb(35,31,32);stroke-width:0.3px;stroke-linecap:butt;stroke-miterlimit:4;"/>
                </g>
                <g transform="matrix(0,1,1,0,389.05,731.491)">
                    <path d="M-5.598,-5.598L5.598,-5.598" style="fill:none;fill-rule:nonzero;stroke:rgb(35,31,32);stroke-width:0.3px;stroke-linecap:butt;stroke-miterlimit:4;"/>
                </g>
                <g transform="matrix(1,0,0,1,378.878,732.373)">
                    <path d="M0,0L32.287,0" style="fill:none;fill-rule:nonzero;stroke:rgb(35,31,32);stroke-width:0.3px;stroke-linecap:butt;stroke-miterlimit:4;"/>
                </g>
                <g transform="matrix(1,0,0,1,293.953,732.373)">
                    <path d="M0,0L26.646,0" style="fill:none;fill-rule:nonzero;stroke:rgb(35,31,32);stroke-width:0.3px;stroke-linecap:butt;stroke-miterlimit:4;"/>
                </g>
                <g transform="matrix(1,0,0,1,219.259,653.901)">
                    <path d="M0,0L34.866,0" style="fill:none;fill-rule:nonzero;stroke:rgb(35,31,32);stroke-width:0.3px;stroke-linecap:butt;stroke-miterlimit:4;"/>
                </g>
                <g transform="matrix(1,0,0,1,145.207,653.901)">
                    <path d="M0,0L20.392,0" style="fill:none;fill-rule:nonzero;stroke:rgb(35,31,32);stroke-width:0.3px;stroke-linecap:butt;stroke-miterlimit:4;"/>
                </g>
                <g transform="matrix(1,0,0,1,162.641,646.603)">
                    <path d="M0,0L2.959,0" style="fill:none;fill-rule:nonzero;stroke:rgb(35,31,32);stroke-width:0.3px;stroke-linecap:butt;stroke-miterlimit:4;"/>
                </g>
                <g transform="matrix(0,-1,-1,0,172.708,643.834)">
                    <path d="M-10.067,10.067L10.067,10.067" style="fill:none;fill-rule:nonzero;stroke:rgb(35,31,32);stroke-width:0.3px;stroke-linecap:butt;stroke-miterlimit:4;"/>
                </g>
                <g transform="matrix(0,-1,-1,0,171.239,528.931)">
                    <path d="M-8.608,8.608L8.608,8.608" style="fill:none;fill-rule:nonzero;stroke:rgb(35,31,32);stroke-width:0.3px;stroke-linecap:butt;stroke-miterlimit:4;"/>
                </g>
                <g transform="matrix(1,0,0,1,144.737,520.174)">
                    <path d="M0,0L20.806,0" style="fill:none;fill-rule:nonzero;stroke:rgb(35,31,32);stroke-width:0.3px;stroke-linecap:butt;stroke-miterlimit:4;"/>
                </g>
                <g transform="matrix(1,0,0,1,219.401,491.504)">
                    <path d="M0,0L34.384,0" style="fill:none;fill-rule:nonzero;stroke:rgb(35,31,32);stroke-width:0.3px;stroke-linecap:butt;stroke-miterlimit:4;"/>
                </g>
                <g transform="matrix(1,0,0,1,219.401,520.126)">
                    <path d="M0,0L34.384,0" style="fill:none;fill-rule:nonzero;stroke:rgb(35,31,32);stroke-width:0.3px;stroke-linecap:butt;stroke-miterlimit:4;"/>
                </g>
                <g transform="matrix(1,0,0,1,243.552,506.244)">
                    <path d="M0,0L16.016,0" style="fill:none;fill-rule:nonzero;stroke:rgb(35,31,32);stroke-width:0.3px;stroke-linecap:butt;stroke-miterlimit:4;"/>
                </g>
                <g transform="matrix(0,1,1,0,262.2,503.462)">
                    <path d="M-2.782,-2.782L2.782,-2.782" style="fill:none;fill-rule:nonzero;stroke:rgb(35,31,32);stroke-width:0.3px;stroke-linecap:butt;stroke-miterlimit:4;"/>
                </g>
                <g transform="matrix(1,0,0,1,162.584,525.617)">
                    <path d="M0,0L2.959,0" style="fill:none;fill-rule:nonzero;stroke:rgb(35,31,32);stroke-width:0.3px;stroke-linecap:butt;stroke-miterlimit:4;"/>
                </g>
                <g transform="matrix(1,0,0,1,453.033,732.373)">
                    <path d="M0,0L23.641,0" style="fill:none;fill-rule:nonzero;stroke:rgb(35,31,32);stroke-width:0.3px;stroke-linecap:butt;stroke-miterlimit:4;"/>
                </g>
                <g transform="matrix(0,1,1,0,493.506,766.357)">
                    <path d="M-16.087,-16.087L16.087,-16.087" style="fill:none;fill-rule:nonzero;stroke:rgb(35,31,32);stroke-width:0.3px;stroke-linecap:butt;stroke-miterlimit:4;"/>
                </g>
                <g transform="matrix(-1,0,0,1,293.953,777.661)">
                    <path d="M-188.22,0L0,0" style="fill:none;fill-rule:nonzero;stroke:rgb(35,31,32);stroke-width:0.3px;stroke-linecap:butt;stroke-miterlimit:4;"/>
                </g>
                <g transform="matrix(-0.707107,0.707107,0.707107,0.707107,477.068,782.539)">
                    <path d="M-8.358,-3.462L1.434,-3.462" style="fill:none;fill-rule:nonzero;stroke:rgb(35,31,32);stroke-width:0.5px;stroke-linecap:butt;stroke-miterlimit:4;"/>
                </g>
                <g transform="matrix(0.707107,-0.707107,-0.707107,-0.707107,298.646,782.557)">
                    <path d="M-1.434,3.462L8.358,3.462" style="fill:none;fill-rule:nonzero;stroke:rgb(35,31,32);stroke-width:0.5px;stroke-linecap:butt;stroke-miterlimit:4;"/>
                </g>
                <g transform="matrix(0.707107,-0.707107,-0.707107,-0.707107,304.023,737.269)">
                    <path d="M-1.434,3.462L8.358,3.462" style="fill:none;fill-rule:nonzero;stroke:rgb(35,31,32);stroke-width:0.5px;stroke-linecap:butt;stroke-miterlimit:4;"/>
                </g>
                <g transform="matrix(0.707107,-0.707107,-0.707107,-0.707107,391.992,737.269)">
                    <path d="M-1.434,3.462L8.358,3.462" style="fill:none;fill-rule:nonzero;stroke:rgb(35,31,32);stroke-width:0.5px;stroke-linecap:butt;stroke-miterlimit:4;"/>
                </g>
                <g transform="matrix(0.707107,-0.707107,-0.707107,-0.707107,471.588,737.269)">
                    <path d="M-1.434,3.462L8.358,3.462" style="fill:none;fill-rule:nonzero;stroke:rgb(35,31,32);stroke-width:0.5px;stroke-linecap:butt;stroke-miterlimit:4;"/>
                </g>
                <g transform="matrix(0.707107,-0.707107,-0.707107,-0.707107,477.223,737.269)">
                    <path d="M-1.434,3.462L8.358,3.462" style="fill:none;fill-rule:nonzero;stroke:rgb(35,31,32);stroke-width:0.5px;stroke-linecap:butt;stroke-miterlimit:4;"/>
                </g>
                <g transform="matrix(0.707107,-0.707107,-0.707107,-0.707107,471.702,636.095)">
                    <path d="M-1.434,3.462L8.358,3.462" style="fill:none;fill-rule:nonzero;stroke:rgb(35,31,32);stroke-width:0.5px;stroke-linecap:butt;stroke-miterlimit:4;"/>
                </g>
                <g transform="matrix(0.707107,0.707107,0.707107,-0.707107,431.866,642.324)">
                    <path d="M-1.434,-3.462L8.358,-3.462" style="fill:none;fill-rule:nonzero;stroke:rgb(35,31,32);stroke-width:0.5px;stroke-linecap:butt;stroke-miterlimit:4;"/>
                </g>
                <g transform="matrix(0.707107,0.707107,0.707107,-0.707107,431.866,521.012)">
                    <path d="M-1.434,-3.462L8.358,-3.462" style="fill:none;fill-rule:nonzero;stroke:rgb(35,31,32);stroke-width:0.5px;stroke-linecap:butt;stroke-miterlimit:4;"/>
                </g>
                <g transform="matrix(0.707107,-0.707107,-0.707107,-0.707107,392.077,636.245)">
                    <path d="M-1.434,3.462L8.358,3.462" style="fill:none;fill-rule:nonzero;stroke:rgb(35,31,32);stroke-width:0.5px;stroke-linecap:butt;stroke-miterlimit:4;"/>
                </g>
                <g transform="matrix(0.707107,-0.707107,-0.707107,-0.707107,383.601,636.245)">
                    <path d="M-1.434,3.462L8.358,3.462" style="fill:none;fill-rule:nonzero;stroke:rgb(35,31,32);stroke-width:0.5px;stroke-linecap:butt;stroke-miterlimit:4;"/>
                </g>
                <g transform="matrix(0.707107,-0.707107,-0.707107,-0.707107,303.976,636.245)">
                    <path d="M-1.434,3.462L8.358,3.462" style="fill:none;fill-rule:nonzero;stroke:rgb(35,31,32);stroke-width:0.5px;stroke-linecap:butt;stroke-miterlimit:4;"/>
                </g>
                <g transform="matrix(-0.707107,-0.707107,-0.707107,0.707107,248.999,649.005)">
                    <path d="M-8.358,3.462L1.434,3.462" style="fill:none;fill-rule:nonzero;stroke:rgb(35,31,32);stroke-width:0.5px;stroke-linecap:butt;stroke-miterlimit:4;"/>
                </g>
                <g transform="matrix(-0.707107,-0.707107,-0.707107,0.707107,162.641,642.324)">
                    <path d="M-8.358,3.462L1.434,3.462" style="fill:none;fill-rule:nonzero;stroke:rgb(35,31,32);stroke-width:0.5px;stroke-linecap:butt;stroke-miterlimit:4;"/>
                </g>
                <g transform="matrix(-0.707107,-0.707107,-0.707107,0.707107,162.641,649.005)">
                    <path d="M-8.358,3.462L1.434,3.462" style="fill:none;fill-rule:nonzero;stroke:rgb(35,31,32);stroke-width:0.5px;stroke-linecap:butt;stroke-miterlimit:4;"/>
                </g>
                <g transform="matrix(-0.707107,-0.707107,-0.707107,0.707107,162.641,520.721)">
                    <path d="M-8.358,3.462L1.434,3.462" style="fill:none;fill-rule:nonzero;stroke:rgb(35,31,32);stroke-width:0.5px;stroke-linecap:butt;stroke-miterlimit:4;"/>
                </g>
                <g transform="matrix(-0.707107,-0.707107,-0.707107,0.707107,162.641,515.279)">
                    <path d="M-8.358,3.462L1.434,3.462" style="fill:none;fill-rule:nonzero;stroke:rgb(35,31,32);stroke-width:0.5px;stroke-linecap:butt;stroke-miterlimit:4;"/>
                </g>
                <g transform="matrix(-0.707107,-0.707107,-0.707107,0.707107,248.871,486.656)">
                    <path d="M-8.358,3.462L1.434,3.462" style="fill:none;fill-rule:nonzero;stroke:rgb(35,31,32);stroke-width:0.5px;stroke-linecap:butt;stroke-miterlimit:4;"/>
                </g>
                <g transform="matrix(-0.707107,-0.707107,-0.707107,0.707107,248.871,515.279)">
                    <path d="M-8.358,3.462L1.434,3.462" style="fill:none;fill-rule:nonzero;stroke:rgb(35,31,32);stroke-width:0.5px;stroke-linecap:butt;stroke-miterlimit:4;"/>
                </g>
                <g transform="matrix(-0.707107,-0.707107,-0.707107,0.707107,149.366,515.279)">
                    <path d="M-8.358,3.462L1.434,3.462" style="fill:none;fill-rule:nonzero;stroke:rgb(35,31,32);stroke-width:0.5px;stroke-linecap:butt;stroke-miterlimit:4;"/>
                </g>
                <g transform="matrix(-0.707107,-0.707107,-0.707107,0.707107,149.516,649.005)">
                    <path d="M-8.358,3.462L1.434,3.462" style="fill:none;fill-rule:nonzero;stroke:rgb(35,31,32);stroke-width:0.5px;stroke-linecap:butt;stroke-miterlimit:4;"/>
                </g>
                <g transform="matrix(0.707107,-0.707107,-0.707107,-0.707107,298.641,737.269)">
                    <path d="M-1.434,3.462L8.358,3.462" style="fill:none;fill-rule:nonzero;stroke:rgb(35,31,32);stroke-width:0.5px;stroke-linecap:butt;stroke-miterlimit:4;"/>
                </g>
                <g transform="matrix(0.707107,-0.707107,-0.707107,-0.707107,383.601,737.269)">
                    <path d="M-1.434,3.462L8.358,3.462" style="fill:none;fill-rule:nonzero;stroke:rgb(35,31,32);stroke-width:0.5px;stroke-linecap:butt;stroke-miterlimit:4;"/>
                </g>
                <g transform="matrix(1,0,0,1,242.3,504.607)">
                    <path d="M0,3.276C0.905,3.276 1.638,2.543 1.638,1.638C1.638,0.733 0.905,0 0,0C-0.905,0 -1.638,0.733 -1.638,1.638C-1.638,2.543 -0.905,3.276 0,3.276" style="fill:rgb(35,31,32);fill-rule:nonzero;"/>
                </g>
            </g>
        </g>
    </g>
</svg>
