<?xml version="1.0" encoding="UTF-8" standalone="no"?>
<!DOCTYPE svg PUBLIC "-//W3C//DTD SVG 1.1//EN" "http://www.w3.org/Graphics/SVG/1.1/DTD/svg11.dtd">
<svg width="100%" height="100%" viewBox="0 0 403 236" version="1.1" xmlns="http://www.w3.org/2000/svg" xmlns:xlink="http://www.w3.org/1999/xlink" xml:space="preserve" xmlns:serif="http://www.serif.com/" style="fill-rule:evenodd;clip-rule:evenodd;">
    <g transform="matrix(1,0,0,1,-6945,-647)">
        <g transform="matrix(2,0,0,2,6696.86,0)">
            <rect id="Page-6" serif:id="Page 6" x="0" y="0" width="595.276" height="841.89" style="fill:none;"/>
            <g id="Page-61" serif:id="Page 6">
                <g>
                    <clipPath id="_clip1">
                        <rect x="135.638" y="329.417" width="186.944" height="103.411" clip-rule="nonzero"/>
                    </clipPath>
                    <g clip-path="url(#_clip1)">
                        <g transform="matrix(1,0,0,1,0,-80.622)">
                            <rect x="135.865" y="425.603" width="27.426" height="71.306" style="fill:rgb(146,150,153);"/>
                        </g>
                        <g transform="matrix(1,0,0,1,0,-31.257)">
                            <rect x="163.291" y="425.603" width="32.911" height="21.941" style="fill:rgb(146,150,153);"/>
                        </g>
                        <g transform="matrix(1,0,0,1,0,-66.909)">
                            <rect x="196.2" y="425.603" width="27.426" height="57.593" style="fill:rgb(146,150,153);"/>
                        </g>
                        <g transform="matrix(0.5,0,0,0.5,-3348.43,0)">
                            <path d="M7339.96,700.932L7339.96,832.574L7175.4,832.574L7175.4,700.932L7339.96,700.932ZM7301.56,733.842L7213.8,733.842L7213.8,799.664L7301.56,799.664L7301.56,733.842Z" style="fill:rgb(146,150,153);"/>
                        </g>
                        <g transform="matrix(1,0,0,1,149.577,355.952)">
                            <path d="M0,49.365L0,-2.743M60.338,49.365L60.338,10.969M-13.711,60.335L13.714,38.396M0,49.365L60.335,49.365M46.624,38.396L74.049,60.335M-13.711,-10.97L0,-2.743M46.624,2.742L60.335,10.97M74.049,2.742L60.338,10.97M13.714,-10.97L0.002,-2.743M89.697,60.335L108.894,43.88M108.894,10.97L89.697,-5.486M171.974,60.335L152.775,43.88M152.775,10.97L171.974,-5.486M99.297,52.107L162.374,52.107L162.374,2.741L99.297,2.741L99.297,52.107Z" style="fill:none;fill-rule:nonzero;stroke:rgb(35,31,32);stroke-width:0.24px;"/>
                        </g>
                        <g transform="matrix(1,0,0,1,259.232,382.991)">
                            <path d="M0,0L38.855,0" style="fill:none;fill-rule:nonzero;stroke:rgb(238,48,53);stroke-width:0.48px;"/>
                        </g>
                        <g transform="matrix(1,0,0,1,297.5,380.586)">
                            <path d="M0,4.822L4.177,2.412L0,0" style="fill:rgb(238,48,53);fill-rule:nonzero;"/>
                        </g>
                        <g transform="matrix(0,-1,-1,0,294.741,385.079)">
                            <path d="M-14.399,14.399L14.399,14.399" style="fill:none;fill-rule:nonzero;stroke:rgb(238,48,53);stroke-width:0.48px;"/>
                        </g>
                        <g transform="matrix(1,0,0,1,282.761,367.208)">
                            <path d="M0,4.178L-2.412,0L-4.822,4.178" style="fill:rgb(238,48,53);fill-rule:nonzero;"/>
                        </g>
                        <g transform="matrix(1,0,0,1,164.105,382.676)">
                            <path d="M0,0L27.702,0" style="fill:none;fill-rule:nonzero;stroke:rgb(238,48,53);stroke-width:0.48px;"/>
                        </g>
                        <g transform="matrix(1,0,0,1,191.22,380.273)">
                            <path d="M0,4.823L4.177,2.41L0,0" style="fill:rgb(238,48,53);fill-rule:nonzero;"/>
                        </g>
                    </g>
                </g>
                <text x="143.912px" y="339.58px" style="font-family:'Helvetica-Light', 'Helvetica', sans-serif;font-weight:300;font-size:8px;fill:rgb(255,0,57);">U-<tspan x="152.192px 154.336px 158.704px 161.288px 167.872px 169.568px 174.376px 178.744px 182.664px 184.808px 190.952px 195.32px 200.128px 204.496px 208.864px " y="339.58px 339.58px 339.58px 339.58px 339.58px 339.58px 339.58px 339.58px 339.58px 339.58px 339.58px 339.58px 339.58px 339.58px 339.58px ">förmiges Gebäud</tspan>e</text>
                <text x="265.461px" y="339.58px" style="font-family:'Helvetica-Light', 'Helvetica', sans-serif;font-weight:300;font-size:8px;fill:rgb(255,0,57);">Innenhof</text>
                <text x="235.843px" y="429.226px" style="font-family:'Helvetica-Light', 'Helvetica', sans-serif;font-weight:300;font-size:8px;fill:rgb(255,0,57);">Verschattung «Horizont»</text>
                <g transform="matrix(1,0,0,1,218.664,426.775)">
                    <path d="M0,0L13.117,0" style="fill:none;fill-rule:nonzero;stroke:rgb(238,48,53);stroke-width:0.5px;"/>
                </g>
                <g transform="matrix(1,0,0,1,231.174,424.289)">
                    <path d="M0,4.985L4.318,2.494L0,0" style="fill:rgb(238,48,53);fill-rule:nonzero;"/>
                </g>
            </g>
        </g>
    </g>
</svg>
