<?xml version="1.0" encoding="UTF-8" standalone="no"?>
<!DOCTYPE svg PUBLIC "-//W3C//DTD SVG 1.1//EN" "http://www.w3.org/Graphics/SVG/1.1/DTD/svg11.dtd">
<svg width="100%" height="100%" viewBox="0 0 403 247" version="1.1" xmlns="http://www.w3.org/2000/svg" xmlns:xlink="http://www.w3.org/1999/xlink" xml:space="preserve" xmlns:serif="http://www.serif.com/" style="fill-rule:evenodd;clip-rule:evenodd;stroke-linejoin:round;stroke-miterlimit:10;">
    <g transform="matrix(1,0,0,1,-6945,-232)">
        <g transform="matrix(2,0,0,2,6696.86,0)">
            <rect id="Page-6" serif:id="Page 6" x="0" y="0" width="595.276" height="841.89" style="fill:none;"/>
            <g id="Page-61" serif:id="Page 6">
                <g>
                    <clipPath id="_clip1">
                        <rect x="129.26" y="128.21" width="193.223" height="186.945" clip-rule="nonzero"/>
                    </clipPath>
                    <g clip-path="url(#_clip1)">
                        <g transform="matrix(1,0,0,1,129.26,309.811)">
                            <path d="M0,-83.05L192.756,-83.05M0,0L192.756,0" style="fill:none;fill-rule:nonzero;stroke:rgb(103,108,111);stroke-width:1.47px;"/>
                        </g>
                        <g transform="matrix(1,0,0,1,0,-453.433)">
                            <rect x="143.369" y="615.82" width="41.526" height="63.683" style="fill:rgb(146,150,153);"/>
                        </g>
                        <g transform="matrix(1,0,0,1,164.129,162.398)">
                            <path d="M0,-11.071L20.766,0L-20.76,0" style="fill:rgb(146,150,153);fill-rule:nonzero;"/>
                        </g>
                        <g transform="matrix(1,0,0,1,251.802,159.23)">
                            <path d="M0,-21.744L26.597,0L-26.593,0" style="fill:rgb(146,150,153);fill-rule:nonzero;"/>
                        </g>
                        <g transform="matrix(1,0,0,1,0,-456.983)">
                            <rect x="225.464" y="615.82" width="52.708" height="67.233" style="fill:rgb(146,150,153);"/>
                        </g>
                    </g>
                </g>
                <g transform="matrix(1,0,0,1,184.376,128.398)">
                    <path d="M0,65.145L78.348,0M0,65.145L40.999,65.145" style="fill:none;fill-rule:nonzero;stroke:rgb(238,48,53);stroke-width:0.49px;"/>
                </g>
                <g transform="matrix(0.312091,0.950052,0.950052,-0.312091,217.376,178.537)">
                    <path d="M-6.69,-9.239C-0.318,-7.27 6.366,-7.139 12.76,-9.239" style="fill:none;fill-rule:nonzero;stroke:rgb(238,48,53);stroke-width:0.49px;stroke-linejoin:miter;stroke-miterlimit:4;"/>
                </g>
                <g transform="matrix(1,0,0,1,164.129,226.073)">
                    <path d="M0,-63.675L0,-0.003M-4.151,-63.675L4.155,-63.675M-1.469,-65.141L1.47,-62.204M-4.151,-32.53L4.155,-32.53M-1.469,-33.999L1.47,-31.061M-5.128,-0.003L3.178,-0.003M-2.445,-1.472L0.492,1.466" style="fill:none;fill-rule:nonzero;stroke:rgb(238,48,53);stroke-width:0.49px;"/>
                </g>
                <text x="201.472px" y="189.059px" style="font-family:'Helvetica';font-size:9px;fill:rgb(238,48,53);">a</text>
                <text x="168.279px" y="213.763px" style="font-family:'Helvetica-Light', 'Helvetica', sans-serif;font-weight:300;font-size:9px;fill:rgb(238,48,53);">h<tspan x="173.778px 176.775px " y="213.763px 213.763px ">/2</tspan></text>
                <text x="168.279px" y="181.307px" style="font-family:'Helvetica-Light', 'Helvetica', sans-serif;font-weight:300;font-size:9px;fill:rgb(238,48,53);">h<tspan x="173.778px 176.775px " y="181.307px 181.307px ">/2</tspan></text>
            </g>
        </g>
    </g>
</svg>
