<?xml version="1.0" encoding="UTF-8" standalone="no"?>
<!DOCTYPE svg PUBLIC "-//W3C//DTD SVG 1.1//EN" "http://www.w3.org/Graphics/SVG/1.1/DTD/svg11.dtd">
<svg width="100%" height="100%" viewBox="0 0 389 236" version="1.1" xmlns="http://www.w3.org/2000/svg" xmlns:xlink="http://www.w3.org/1999/xlink" xml:space="preserve" xmlns:serif="http://www.serif.com/" style="fill-rule:evenodd;clip-rule:evenodd;">
    <g transform="matrix(1,0,0,1,-545,-2195)">
        <g transform="matrix(2,0,0,2,0,1894.25)">
            <rect id="Page-7" serif:id="Page 7" x="0" y="0" width="595.276" height="841.89" style="fill:none;"/>
            <g id="Page-71" serif:id="Page 7">
                <g transform="matrix(1,0,0,1,0,-362.706)">
                    <rect x="295.386" y="593.794" width="144.571" height="17.008" style="fill:rgb(147,149,152);"/>
                </g>
                <g transform="matrix(0.5,0,0,0.5,0,-947.126)">
                    <path d="M624.786,2209.03L624.786,2243.04L545.42,2243.04L545.42,2209.03L624.786,2209.03ZM845.894,2243.04L845.894,2209.03L930.932,2209.03L930.932,2243.04L845.894,2243.04Z" style="fill:rgb(147,149,152);"/>
                </g>
                <g transform="matrix(1,0,0,1,0,-419.4)">
                    <rect x="295.387" y="593.796" width="17.008" height="73.698" style="fill:rgb(147,149,152);"/>
                </g>
                <g transform="matrix(1,0,0,1,0,-382.55)">
                    <rect x="429.197" y="610.803" width="4.251" height="2.834" style="fill:rgb(217,176,118);"/>
                </g>
                <g transform="matrix(1,0,0,1,0,-490.138)">
                    <rect x="429.194" y="664.597" width="4.253" height="2.834" style="fill:rgb(217,176,118);"/>
                </g>
                <g transform="matrix(1,0,0,1,430.26,229.734)">
                    <path d="M0,-53.859L0,0M2.124,-53.859L2.124,0" style="fill:none;fill-rule:nonzero;stroke:rgb(159,217,240);stroke-width:1px;"/>
                </g>
                <g transform="matrix(0,-1,-1,0,478.092,202.804)">
                    <path d="M-28.346,28.346L28.346,28.346" style="fill:none;fill-rule:nonzero;stroke:rgb(237,72,53);stroke-width:0.5px;stroke-linejoin:round;stroke-miterlimit:10;"/>
                </g>
                <g transform="matrix(0,-1,-1,0,468.171,202.804)">
                    <path d="M-28.346,28.346L28.346,28.346" style="fill:none;fill-rule:nonzero;stroke:black;stroke-width:0.5px;stroke-linejoin:round;stroke-miterlimit:10;"/>
                </g>
                <g transform="matrix(1,0,0,1,423.319,174.284)">
                    <path d="M0,56.866L0,0.175M30.679,56.779L19.341,56.779M27.931,58.282L24.924,55.277M30.679,28.543L19.341,28.543M27.931,30.045L24.924,27.039M30.679,0.088L19.341,0.088M27.931,1.591L24.924,-1.416" style="fill:none;fill-rule:nonzero;stroke:rgb(237,72,53);stroke-width:0.5px;stroke-linejoin:round;stroke-miterlimit:10;"/>
                </g>
                <g transform="matrix(1,0,0,1,422.945,192.951)">
                    <path d="M0,35.302C-14.089,35.302 -25.513,23.877 -25.513,9.787C-25.513,6.322 -24.821,3.015 -23.566,0" style="fill:none;fill-rule:nonzero;stroke:rgb(237,72,53);stroke-width:0.5px;"/>
                </g>
                <g transform="matrix(1,0,0,1,306.725,255.181)">
                    <path d="M0,0L121.884,0M5.67,4.253L5.67,-4.253M4.167,1.502L7.174,-1.505M116.22,4.253L116.22,-4.253M114.717,1.502L117.724,-1.505" style="fill:none;fill-rule:nonzero;stroke:rgb(237,72,53);stroke-width:0.5px;stroke-linejoin:round;stroke-miterlimit:10;"/>
                </g>
                <g transform="matrix(1,0,0,1,312.394,158.036)">
                    <path d="M0,0L110.551,0" style="fill:none;fill-rule:nonzero;stroke:rgb(147,149,152);stroke-width:1.25px;stroke-linejoin:round;"/>
                </g>
                <g transform="matrix(0,-1,-1,0,437.417,188.491)">
                    <path d="M-14.092,14.092L14.092,14.092" style="fill:none;fill-rule:nonzero;stroke:black;stroke-width:0.5px;stroke-linejoin:round;stroke-miterlimit:10;"/>
                </g>
                <g transform="matrix(-0.925164,-0.379568,-0.379568,0.925164,317.616,133.13)">
                    <path d="M-123.868,24.422L4.815,24.422" style="fill:none;fill-rule:nonzero;stroke:rgb(237,72,53);stroke-width:0.5px;stroke-linecap:round;stroke-linejoin:round;stroke-miterlimit:10;"/>
                </g>
                <text x="453.606px" y="191.945px" style="font-family:'Helvetica-Light', 'Helvetica', sans-serif;font-weight:300;font-size:9px;fill:rgb(238,48,53);">½</text>
                <text x="453.606px" y="220.8px" style="font-family:'Helvetica-Light', 'Helvetica', sans-serif;font-weight:300;font-size:9px;fill:rgb(238,48,53);">½</text>
                <g>
                    <text x="348.089px" y="263.973px" style="font-family:'Helvetica-Light', 'Helvetica', sans-serif;font-weight:300;font-size:9px;fill:rgb(238,48,53);">L<tspan x="352.958px 357.827px 362.696px 368.06px 372.929px 375.296px 377.663px 382.532px " y="263.973px 263.973px 263.973px 263.973px 263.973px 263.973px 263.973px 263.973px ">änge für</tspan></text>
                    <text x="387.76px" y="263.973px" style="font-family:'Helvetica';font-size:9px;fill:rgb(238,48,53);"><tspan x="387.76px " y="263.973px ">b</tspan></text>
                </g>
                <g>
                    <text x="410.59px" y="214.918px" style="font-family:'Helvetica';font-size:10px;fill:rgb(238,48,53);">g</text>
                    <text x="416.151px" y="218.248px" style="font-family:'Helvetica-Light', 'Helvetica', sans-serif;font-weight:300;font-size:5.83px;fill:rgb(238,48,53);">r</text>
                </g>
            </g>
        </g>
    </g>
</svg>
