<?xml version="1.0" encoding="UTF-8" standalone="no"?>
<!DOCTYPE svg PUBLIC "-//W3C//DTD SVG 1.1//EN" "http://www.w3.org/Graphics/SVG/1.1/DTD/svg11.dtd">
<svg width="100%" height="100%" viewBox="0 0 389 295" version="1.1" xmlns="http://www.w3.org/2000/svg" xmlns:xlink="http://www.w3.org/1999/xlink" xml:space="preserve" xmlns:serif="http://www.serif.com/" style="fill-rule:evenodd;clip-rule:evenodd;">
    <g transform="matrix(1,0,0,1,-545,-2479)">
        <g transform="matrix(2,0,0,2,0,1894.25)">
            <rect id="Page-7" serif:id="Page 7" x="0" y="0" width="595.276" height="841.89" style="fill:none;"/>
            <g id="Page-71" serif:id="Page 7">
                <g>
                    <clipPath id="_clip1">
                        <rect x="272.676" y="300" width="193.374" height="144" clip-rule="nonzero"/>
                    </clipPath>
                    <g clip-path="url(#_clip1)">
                        <g transform="matrix(1,0,0,1,0,-19.568)">
                            <rect x="295.968" y="422.225" width="144.57" height="17.008" style="fill:rgb(147,149,152);"/>
                        </g>
                        <g transform="matrix(0.5,0,0,0.5,0,-947.126)">
                            <path d="M625.948,2552.16L625.948,2586.18L546.584,2586.18L546.584,2552.16L625.948,2552.16ZM847.056,2586.18L847.056,2552.16L932.1,2552.16L932.1,2586.18L847.056,2586.18Z" style="fill:rgb(147,149,152);"/>
                        </g>
                        <g transform="matrix(1,0,0,1,0,-76.262)">
                            <rect x="295.968" y="422.227" width="17.008" height="73.698" style="fill:rgb(147,149,152);"/>
                        </g>
                        <g transform="matrix(1,0,0,1,0,-39.412)">
                            <rect x="429.777" y="439.234" width="4.251" height="2.834" style="fill:rgb(217,176,118);"/>
                        </g>
                        <g transform="matrix(1,0,0,1,0,-146.998)">
                            <rect x="429.777" y="493.027" width="4.251" height="2.834" style="fill:rgb(217,176,118);"/>
                        </g>
                        <g transform="matrix(1,0,0,1,430.84,401.303)">
                            <path d="M0,-53.859L0,0M2.127,-53.859L2.127,0" style="fill:none;fill-rule:nonzero;stroke:rgb(159,217,240);stroke-width:1px;"/>
                        </g>
                        <g transform="matrix(0,-1,-1,0,478.673,374.374)">
                            <path d="M-28.346,28.346L28.346,28.346" style="fill:none;fill-rule:nonzero;stroke:rgb(237,72,53);stroke-width:0.5px;stroke-linejoin:round;stroke-miterlimit:10;"/>
                        </g>
                        <g transform="matrix(0,-1,-1,0,468.751,374.374)">
                            <path d="M-28.346,28.346L28.346,28.346" style="fill:none;fill-rule:nonzero;stroke:black;stroke-width:0.5px;stroke-linejoin:round;stroke-miterlimit:10;"/>
                        </g>
                        <g transform="matrix(1,0,0,1,423.899,345.853)">
                            <path d="M0,56.866L0,28.305M30.68,56.779L19.342,56.779M27.934,58.282L24.927,55.277M30.68,28.543L19.342,28.543M27.934,30.045L24.927,27.039M30.68,0.088L19.342,0.088M27.934,1.591L24.927,-1.416" style="fill:none;fill-rule:nonzero;stroke:rgb(237,72,53);stroke-width:0.5px;stroke-linejoin:round;stroke-miterlimit:10;"/>
                        </g>
                        <g transform="matrix(1,0,0,1,423.527,364.52)">
                            <path d="M0,35.302C-14.089,35.302 -25.514,23.877 -25.514,9.787C-25.514,6.322 -24.82,3.015 -23.567,0" style="fill:none;fill-rule:nonzero;stroke:rgb(237,72,53);stroke-width:0.5px;"/>
                        </g>
                        <g transform="matrix(1,0,0,1,307.308,426.75)">
                            <path d="M0,0L121.881,0M5.671,4.253L5.671,-4.253M4.166,1.502L7.171,-1.505M116.219,4.253L116.219,-4.253M114.717,1.502L117.722,-1.505" style="fill:none;fill-rule:nonzero;stroke:rgb(237,72,53);stroke-width:0.5px;stroke-linejoin:round;stroke-miterlimit:10;"/>
                        </g>
                        <g transform="matrix(0,-1,-1,0,437.979,360.064)">
                            <path d="M-14.095,14.095L14.095,14.095" style="fill:none;fill-rule:nonzero;stroke:black;stroke-width:0.5px;stroke-linejoin:round;stroke-miterlimit:10;"/>
                        </g>
                        <g transform="matrix(-0.925165,-0.379565,-0.379565,0.925165,318.197,304.699)">
                            <path d="M-123.869,24.422L4.815,24.422" style="fill:none;fill-rule:nonzero;stroke:rgb(237,72,53);stroke-width:0.5px;stroke-linecap:round;stroke-linejoin:round;stroke-miterlimit:10;"/>
                        </g>
                        <g transform="matrix(1,0,0,1,312.326,300.625)">
                            <path d="M0,218.391L0,190.047M111.85,218.391L111.85,190.047M-0.6,0L112.449,0" style="fill:none;fill-rule:nonzero;stroke:rgb(147,149,152);stroke-width:1.25px;stroke-linejoin:round;"/>
                        </g>
                        <g transform="matrix(0,-1,-1,0,326.499,314.798)">
                            <path d="M-14.174,14.174L14.174,14.174" style="fill:none;fill-rule:nonzero;stroke:rgb(176,180,183);stroke-width:1.25px;stroke-linejoin:round;"/>
                        </g>
                        <g transform="matrix(0,-1,-1,0,438.349,314.798)">
                            <path d="M-14.174,14.174L14.174,14.174" style="fill:none;fill-rule:nonzero;stroke:rgb(147,149,152);stroke-width:1.25px;stroke-linejoin:round;"/>
                        </g>
                    </g>
                </g>
                <text x="272.656px" y="288px" style="font-family:'Helvetica-Light', 'Helvetica', sans-serif;font-weight:300;font-size:8px;fill:rgb(35,31,32);">Bal<tspan x="284.096px " y="288px ">k</tspan>on<tspan x="296.872px " y="288px ">;</tspan> F<tspan x="305.648px " y="288px ">e</tspan>ns<tspan x="318.424px " y="288px ">t</tspan>er<tspan x="327.64px " y="288px "> </tspan>se<tspan x="338.192px " y="288px ">i</tspan>tl<tspan x="343.848px " y="288px ">i</tspan>ch<tspan x="354.4px " y="288px ">;</tspan> G<tspan x="364.952px " y="288px ">r</tspan>un<tspan x="376.392px " y="288px ">d</tspan>ri<tspan x="385.6px " y="288px ">s</tspan>s</text>
                <text x="453.606px" y="363.515px" style="font-family:'Helvetica-Light', 'Helvetica', sans-serif;font-weight:300;font-size:9px;fill:rgb(238,48,53);">½</text>
                <text x="453.606px" y="392.37px" style="font-family:'Helvetica-Light', 'Helvetica', sans-serif;font-weight:300;font-size:9px;fill:rgb(238,48,53);">½</text>
                <g>
                    <text x="348.089px" y="435.543px" style="font-family:'Helvetica-Light', 'Helvetica', sans-serif;font-weight:300;font-size:9px;fill:rgb(238,48,53);">L<tspan x="352.958px 357.827px 362.696px 368.06px 372.929px 375.296px 377.663px 382.532px " y="435.543px 435.543px 435.543px 435.543px 435.543px 435.543px 435.543px 435.543px ">änge für</tspan></text>
                    <text x="387.76px" y="435.543px" style="font-family:'Helvetica';font-size:9px;fill:rgb(238,48,53);"><tspan x="387.76px " y="435.543px ">b</tspan></text>
                </g>
                <g>
                    <text x="410.59px" y="386.488px" style="font-family:'Helvetica';font-size:10px;fill:rgb(238,48,53);">g</text>
                    <text x="416.151px" y="389.817px" style="font-family:'Helvetica-Light', 'Helvetica', sans-serif;font-weight:300;font-size:5.83px;fill:rgb(238,48,53);">r</text>
                </g>
            </g>
        </g>
    </g>
</svg>
