<?xml version="1.0" encoding="UTF-8" standalone="no"?>
<!DOCTYPE svg PUBLIC "-//W3C//DTD SVG 1.1//EN" "http://www.w3.org/Graphics/SVG/1.1/DTD/svg11.dtd">
<svg width="100%" height="100%" viewBox="0 0 403 133" version="1.1" xmlns="http://www.w3.org/2000/svg" xmlns:xlink="http://www.w3.org/1999/xlink" xml:space="preserve" xmlns:serif="http://www.serif.com/" style="fill-rule:evenodd;clip-rule:evenodd;">
    <g transform="matrix(1,0,0,1,-6945,-1362)">
        <g transform="matrix(2,0,0,2,6696.86,0)">
            <rect id="Page-6" serif:id="Page 6" x="0" y="0" width="595.276" height="841.89" style="fill:none;"/>
            <g id="Page-61" serif:id="Page 6">
                <g>
                    <clipPath id="_clip1">
                        <rect x="129.26" y="680.115" width="193.223" height="56.893" clip-rule="nonzero"/>
                    </clipPath>
                    <g clip-path="url(#_clip1)">
                        <g transform="matrix(0.5,0,0,0.5,-3348.43,0)">
                            <path d="M7075.36,1411.65L7075.36,1445.67L6956.31,1445.67L6956.31,1411.65L7075.36,1411.65ZM7217.09,1445.67L7217.09,1411.65L7341.82,1411.65L7341.82,1445.67L7217.09,1445.67Z" style="fill:rgb(146,150,153);"/>
                        </g>
                        <g transform="matrix(1,0,0,1,0,598.908)">
                            <rect x="189.253" y="119.365" width="2.834" height="4.252" style="fill:rgb(218,177,118);"/>
                        </g>
                        <g transform="matrix(1,0,0,1,0,598.908)">
                            <rect x="257.285" y="119.365" width="2.834" height="4.252" style="fill:rgb(218,177,118);"/>
                        </g>
                        <g transform="matrix(1,0,0,1,258.704,721.461)">
                            <path d="M0,-2.125L-68.033,-2.125M0,0L-68.033,0" style="fill:none;fill-rule:nonzero;stroke:rgb(177,221,232);stroke-width:1px;"/>
                        </g>
                        <g transform="matrix(1,0,0,1,189.255,732.757)">
                            <path d="M0,0L70.865,0" style="fill:none;fill-rule:nonzero;stroke:rgb(238,48,53);stroke-width:0.5px;stroke-linejoin:round;stroke-miterlimit:10;"/>
                        </g>
                        <g transform="matrix(1,0,0,1,189.255,705.8)">
                            <path d="M0,17.036L70.865,17.036M0,0L70.865,0" style="fill:none;fill-rule:nonzero;stroke:rgb(35,31,32);stroke-width:0.5px;stroke-linejoin:round;stroke-miterlimit:10;"/>
                        </g>
                        <g transform="matrix(1,0,0,1,189.342,698.713)">
                            <path d="M0,38.295L0,26.957M-1.503,35.548L1.502,32.539M35.345,38.295L35.345,26.957M33.842,35.548L36.85,32.539M70.864,38.295L70.864,26.957M69.362,35.548L72.369,32.539M67.943,19.842L35.345,19.842M18.509,1.571L18.509,27.084M16.92,19.203L19.927,22.209M16.92,5.737L19.927,8.745M35.347,19.842L91.199,0M66.081,8.95C67.286,12.356 67.943,16.023 67.943,19.843" style="fill:none;fill-rule:nonzero;stroke:rgb(238,48,53);stroke-width:0.5px;stroke-linejoin:round;stroke-miterlimit:10;"/>
                        </g>
                    </g>
                </g>
                <g>
                    <text x="250.979px" y="700.086px" style="font-family:'Helvetica';font-size:10px;fill:rgb(238,48,53);">g</text>
                    <text x="256.541px" y="703.416px" style="font-family:'Helvetica-Light', 'Helvetica', sans-serif;font-weight:300;font-size:5.83px;fill:rgb(238,48,53);">l</text>
                </g>
                <g>
                    <text x="129.26px" y="689.659px" style="font-family:'Helvetica-Light', 'Helvetica', sans-serif;font-weight:300;font-size:8px;fill:rgb(255,0,57);">F<tspan x="133.588px 137.916px 142.244px 146.124px 148.228px 152.556px 155.1px 156.756px 161.084px 162.74px 167.508px 171.836px 176.164px 180.932px 183.036px 187.364px 192.132px 196.46px 199.004px 201.108px 205.436px 209.764px 211.244px 215.572px " y="689.659px 689.659px 689.659px 689.659px 689.659px 689.659px 689.659px 689.659px 689.659px 689.659px 689.659px 689.659px 689.659px 689.659px 689.659px 689.659px 689.659px 689.659px 689.659px 689.659px 689.659px 689.659px 689.659px 689.659px ">ensterleibung über 30 cm</tspan></text>
                    <text x="210.898px" y="702.415px" style="font-family:'Helvetica-Light', 'Helvetica', sans-serif;font-weight:300;font-size:8px;fill:rgb(255,0,57);">&gt;<tspan x="215.858px 217.762px 221.89px 226.018px 227.298px 231.426px " y="702.415px 702.415px 702.415px 702.415px 702.415px 702.415px "> 30 cm</tspan></text>
                </g>
                <text x="238.819px" y="743.754px" style="font-family:'Helvetica-Light', 'Helvetica', sans-serif;font-weight:300;font-size:9px;fill:rgb(238,48,53);">½</text>
                <text x="203.953px" y="743.754px" style="font-family:'Helvetica-Light', 'Helvetica', sans-serif;font-weight:300;font-size:9px;fill:rgb(238,48,53);">½</text>
            </g>
        </g>
    </g>
</svg>
