<?xml version="1.0" encoding="UTF-8" standalone="no"?>
<!DOCTYPE svg PUBLIC "-//W3C//DTD SVG 1.1//EN" "http://www.w3.org/Graphics/SVG/1.1/DTD/svg11.dtd">
<svg width="100%" height="100%" viewBox="0 0 1749 2481" version="1.1" xmlns="http://www.w3.org/2000/svg" xmlns:xlink="http://www.w3.org/1999/xlink" xml:space="preserve" xmlns:serif="http://www.serif.com/" style="fill-rule:evenodd;clip-rule:evenodd;stroke-linecap:round;stroke-linejoin:round;">
    <rect x="253.937" y="605.187" width="1240.16" height="1258.13" style="fill:rgb(204,204,204);"/>
    <g transform="matrix(4.16667,0,0,4.16667,-431.101,85.4999)">
        <clipPath id="_clip1">
            <rect x="164.409" y="124.725" width="297.638" height="301.951" clip-rule="nonzero"/>
        </clipPath>
        <g clip-path="url(#_clip1)">
            <g transform="matrix(1,0,0,1,368.902,220.664)">
                <path d="M0,6.655L-9.56,6.655L-9.692,6.095L-9.819,5.409L-9.91,4.719L-9.964,4.025L-9.983,3.328L-9.964,2.631L-9.91,1.936L-9.819,1.246L-9.692,0.561L-9.56,0L0,0L0,-9.56L0.559,-9.691L1.246,-9.818L1.936,-9.909L2.631,-9.964L3.327,-9.983L4.023,-9.964L4.718,-9.909L5.409,-9.818L6.094,-9.691L6.655,-9.56L6.655,0L16.214,0L16.346,0.561L16.473,1.246L16.564,1.936L16.62,2.631L16.636,3.328L16.62,4.025L16.564,4.719L16.473,5.409L16.346,6.095L16.214,6.655L6.655,6.655L6.655,16.215L6.094,16.346L5.409,16.474L4.718,16.564L4.023,16.619L3.327,16.638L2.631,16.619L1.936,16.564L1.246,16.474L0.559,16.346L0,16.215L0,6.655Z" style="fill:rgb(70,72,75);fill-rule:nonzero;"/>
            </g>
            <g transform="matrix(1,0,0,1,420.443,403.731)">
                <path d="M0,3.327L0,-6.232L0.559,-6.364L1.245,-6.49L1.936,-6.583L2.629,-6.637L3.327,-6.655L4.023,-6.637L4.719,-6.583L5.41,-6.49L6.094,-6.364L6.655,-6.232L6.655,9.982L-9.559,9.982L-9.693,9.421L-9.818,8.738L-9.91,8.046L-9.964,7.351L-9.982,6.655L-9.964,5.958L-9.91,5.263L-9.818,4.573L-9.693,3.887L-9.559,3.327L0,3.327Z" style="fill:rgb(70,72,75);fill-rule:nonzero;"/>
            </g>
            <g transform="matrix(1,0,0,1,271.809,158.485)">
                <path d="M0,52.576L-0.685,52.449L-1.376,52.358L-2.07,52.303L-2.767,52.285L-3.463,52.303L-4.157,52.358L-4.848,52.449L-5.535,52.576L-6.094,52.707L-6.094,-0.131L-5.581,0.017L-4.903,0.18L-4.219,0.307L-3.528,0.398L-2.834,0.452L-2.137,0.471L-1.439,0.452L-0.746,0.398L-0.055,0.307L0.561,0.194L0.561,52.707L0,52.576Z" style="fill:rgb(140,142,146);fill-rule:nonzero;"/>
            </g>
            <g transform="matrix(1,0,0,1,359.282,397.076)">
                <path d="M0,16.637L-0.13,16.076L-0.258,15.393L-0.348,14.701L-0.404,14.006L-0.423,13.31L-0.404,12.613L-0.348,11.918L-0.258,11.228L-0.13,10.542L0,9.982L9.586,9.982L9.586,0.417L10.119,0.291L10.806,0.165L11.496,0.072L12.191,0.018L12.887,0L13.583,0.018L14.279,0.072L14.97,0.165L15.655,0.291L16.239,0.43L16.239,9.982L25.775,9.982L25.907,10.542L26.033,11.228L26.124,11.918L26.18,12.613L26.198,13.31L26.18,14.006L26.124,14.701L26.033,15.393L25.907,16.076L25.775,16.637L0,16.637Z" style="fill:rgb(70,72,75);fill-rule:nonzero;"/>
            </g>
            <g transform="matrix(1,0,0,1,420.443,236.915)">
                <path d="M0,-25.775L0.559,-25.907L1.245,-26.033L1.936,-26.125L2.629,-26.18L3.327,-26.198L4.023,-26.18L4.719,-26.125L5.41,-26.033L6.094,-25.907L6.655,-25.775L6.655,0L6.094,0.131L5.41,0.258L4.719,0.349L4.023,0.404L3.327,0.423L2.629,0.404L1.936,0.349L1.245,0.258L0.559,0.131L0,0L0,-9.507L-9.547,-9.507L-9.693,-10.12L-9.818,-10.806L-9.91,-11.497L-9.964,-12.191L-9.982,-12.887L-9.964,-13.584L-9.91,-14.279L-9.818,-14.97L-9.693,-15.655L-9.573,-16.162L0,-16.162L0,-25.775Z" style="fill:rgb(70,72,75);fill-rule:nonzero;"/>
            </g>
            <g transform="matrix(1,0,0,1,217.467,240.949)">
                <path d="M0,-3.559L0.697,-3.578L1.391,-3.632L2.082,-3.723L2.767,-3.851L3.327,-3.982L3.327,0.423L2.767,0.291L2.082,0.164L1.391,0.073L0.697,0.018L0,-0L-0.697,0.018L-1.391,0.073L-2.082,0.164L-2.767,0.291L-3.328,0.423L-3.328,-3.982L-2.767,-3.851L-2.082,-3.723L-1.391,-3.632L-0.697,-3.578L0,-3.559Z" style="fill:rgb(140,142,146);fill-rule:nonzero;"/>
            </g>
            <g transform="matrix(1,0,0,1,0,-266.997)">
                <path d="M323.946,580.882L368.867,580.882L368.867,624.14L323.946,624.14L323.946,580.882ZM272.37,580.882L272.37,614.58L271.809,614.447L271.125,614.321L270.433,614.23L269.739,614.176L269.043,614.157L268.345,614.176L267.652,614.23L266.96,614.321L266.275,614.447L265.715,614.58L265.715,580.882L230.354,580.882L230.486,580.322L230.613,579.637L230.703,578.946L230.758,578.251L230.776,577.555L230.758,576.859L230.703,576.164L230.613,575.474L230.486,574.787L230.354,574.228L265.715,574.228L265.715,503.928L266.275,504.06L266.96,504.186L267.652,504.278L268.345,504.332L269.043,504.351L269.739,504.332L270.433,504.278L271.125,504.186L271.809,504.06L272.37,503.928L272.37,574.228L317.291,574.228L317.291,494.368L281.93,494.368L282.062,493.809L282.189,493.123L282.279,492.432L282.334,491.737L282.352,491.041L282.334,490.344L282.279,489.65L282.189,488.958L282.062,488.273L281.93,487.713L317.291,487.713L317.291,444.426L317.843,444.556L318.528,444.683L319.217,444.773L319.914,444.828L320.61,444.846L321.307,444.828L322.001,444.773L322.692,444.683L323.377,444.556L323.946,444.421L323.946,487.713L359.309,487.713L359.175,488.273L359.048,488.958L358.956,489.65L358.902,490.344L358.884,491.041L358.902,491.737L358.956,492.432L359.048,493.123L359.175,493.809L359.309,494.368L323.946,494.368L323.946,574.228L368.866,574.228L368.866,503.928L369.427,504.06L370.112,504.186L370.803,504.278L371.497,504.332L372.194,504.351L372.891,504.332L373.587,504.278L374.276,504.186L374.962,504.06L375.521,503.928L375.521,574.228L410.857,574.228L410.75,574.685L410.625,575.371L410.533,576.061L410.478,576.756L410.461,577.452L410.478,578.148L410.533,578.844L410.625,579.534L410.75,580.22L410.91,580.882L375.521,580.882L375.521,624.14L410.895,624.14L410.75,624.75L410.625,625.436L410.533,626.128L410.478,626.822L410.461,627.518L410.478,628.215L410.533,628.911L410.625,629.601L410.75,630.286L410.87,630.795L375.521,630.795L375.521,664.466L374.937,664.328L374.251,664.2L373.561,664.109L372.866,664.055L372.17,664.037L371.473,664.055L370.779,664.109L370.088,664.2L369.402,664.328L368.866,664.452L368.866,630.795L323.946,630.795L323.946,664.455L323.4,664.328L322.714,664.2L322.024,664.109L321.33,664.055L320.633,664.037L319.936,664.055L319.242,664.109L318.55,664.2L317.866,664.328L317.291,664.464L317.291,630.795L281.93,630.795L282.062,630.235L282.189,629.549L282.279,628.858L282.334,628.164L282.352,627.467L282.334,626.771L282.279,626.076L282.189,625.385L282.062,624.7L281.93,624.14L317.291,624.14L317.291,580.882L272.37,580.882Z" style="fill:rgb(140,142,146);fill-rule:nonzero;"/>
            </g>
            <g transform="matrix(1,0,0,1,369.434,211.026)">
                <path d="M0,-14.301L0.679,-14.138L1.363,-14.011L2.055,-13.92L2.75,-13.866L3.446,-13.848L4.142,-13.866L4.837,-13.92L5.528,-14.011L6.088,-14.112L6.088,0.166L5.528,0.035L4.843,-0.092L4.153,-0.183L3.458,-0.238L2.76,-0.256L2.064,-0.238L1.369,-0.183L0.679,-0.092L-0.007,0.035L-0.566,0.166L-0.566,-14.467L0,-14.301Z" style="fill:rgb(140,142,146);fill-rule:nonzero;"/>
            </g>
            <g transform="matrix(1,0,0,1,459.411,192.302)">
                <path d="M0,19.959L0,27.052L-32.313,15.126L-32.313,18.837L-32.874,18.705L-33.558,18.579L-34.249,18.487L-34.945,18.433L-35.641,18.414L-36.338,18.433L-37.032,18.487L-37.723,18.579L-38.409,18.705L-38.968,18.837L-38.968,12.67L-75.593,-0.85L-75.37,-1.185L-75.005,-1.779L-74.672,-2.391L-74.372,-3.02L-74.106,-3.664L-73.874,-4.321L-73.675,-4.989L-73.513,-5.667L-73.385,-6.352L-73.288,-7.093L0,19.959Z" style="fill:rgb(140,142,146);fill-rule:nonzero;"/>
            </g>
            <g transform="matrix(1,0,0,1,410.87,227.407)">
                <path d="M0,-6.654L-0.12,-6.147L-0.245,-5.462L-0.337,-4.771L-0.391,-4.076L-0.409,-3.379L-0.391,-2.683L-0.337,-1.989L-0.245,-1.298L-0.12,-0.612L0.026,0L-25.789,0L-25.656,-0.56L-25.529,-1.245L-25.438,-1.936L-25.383,-2.63L-25.366,-3.327L-25.383,-4.024L-25.438,-4.719L-25.529,-5.409L-25.656,-6.094L-25.789,-6.654L0,-6.654Z" style="fill:rgb(140,142,146);fill-rule:nonzero;"/>
            </g>
            <g transform="matrix(1,0,0,1,427.098,373.445)">
                <path d="M0,24.053L-0.561,23.922L-1.245,23.795L-1.936,23.702L-2.632,23.648L-3.328,23.63L-4.026,23.648L-4.719,23.702L-5.41,23.795L-6.096,23.922L-6.655,24.053L-6.655,0L-6.096,0.132L-5.41,0.259L-4.719,0.349L-4.026,0.405L-3.328,0.423L-2.632,0.405L-1.936,0.349L-1.245,0.259L-0.561,0.132L0,0L0,24.053Z" style="fill:rgb(140,142,146);fill-rule:nonzero;"/>
            </g>
            <g transform="matrix(1,0,0,1,385.058,407.058)">
                <path d="M0,6.655L0.132,6.094L0.258,5.411L0.349,4.719L0.405,4.024L0.423,3.328L0.405,2.631L0.349,1.936L0.258,1.246L0.132,0.56L0,0L25.826,0L25.693,0.56L25.567,1.246L25.476,1.936L25.422,2.631L25.403,3.328L25.422,4.024L25.476,4.719L25.567,5.411L25.693,6.094L25.826,6.655L0,6.655Z" style="fill:rgb(140,142,146);fill-rule:nonzero;"/>
            </g>
            <g transform="matrix(1,0,0,1,359.282,413.713)">
                <path d="M0,-6.655L-0.13,-6.095L-0.258,-5.409L-0.348,-4.719L-0.404,-4.024L-0.423,-3.327L-0.404,-2.631L-0.348,-1.936L-0.258,-1.244L-0.13,-0.561L0,0L-25.762,0L-25.631,-0.561L-25.503,-1.244L-25.412,-1.936L-25.357,-2.631L-25.339,-3.327L-25.357,-4.024L-25.412,-4.719L-25.503,-5.409L-25.631,-6.095L-25.762,-6.655L0,-6.655Z" style="fill:rgb(140,142,146);fill-rule:nonzero;"/>
            </g>
            <g transform="matrix(1,0,0,1,369.045,406.88)">
                <path d="M0,-43.225L0,-9.566L-0.141,-9.528L-0.81,-9.331L-1.467,-9.099L-2.11,-8.831L-2.74,-8.532L-3.351,-8.199L-3.947,-7.836L-4.52,-7.441L-5.072,-7.017L-5.604,-6.563L-6.108,-6.085L-6.587,-5.579L-7.041,-5.05L-7.465,-4.496L-7.86,-3.922L-8.224,-3.328L-8.556,-2.716L-8.856,-2.086L-9.123,-1.443L-9.355,-0.786L-9.553,-0.117L-9.584,0L-35.346,0L-35.378,-0.117L-35.575,-0.786L-35.808,-1.443L-36.075,-2.086L-36.375,-2.716L-36.707,-3.328L-37.072,-3.922L-37.466,-4.496L-37.89,-5.05L-38.342,-5.579L-38.822,-6.085L-39.329,-6.563L-39.858,-7.017L-40.411,-7.441L-40.985,-7.836L-41.579,-8.199L-42.192,-8.532L-42.821,-8.831L-43.464,-9.099L-44.12,-9.331L-44.788,-9.528L-44.922,-9.563L-44.922,-43.225L0,-43.225Z" style="fill:rgb(181,183,187);fill-rule:nonzero;"/>
            </g>
            <g transform="matrix(1,0,0,1,220.911,397.495)">
                <path d="M0,-24.097L0.668,-24.294L1.325,-24.528L1.969,-24.795L2.598,-25.094L3.21,-25.427L3.804,-25.79L4.379,-26.186L4.931,-26.61L5.461,-27.062L5.967,-27.542L6.446,-28.047L6.899,-28.578L7.323,-29.129L7.718,-29.704L8.082,-30.299L8.414,-30.91L8.715,-31.54L8.981,-32.183L9.214,-32.841L9.412,-33.509L9.451,-33.66L35.245,-33.66L35.275,-33.543L35.473,-32.876L35.705,-32.219L35.972,-31.576L36.273,-30.945L36.604,-30.334L36.969,-29.74L37.363,-29.164L37.787,-28.612L38.24,-28.082L38.719,-27.577L39.225,-27.098L39.755,-26.645L40.308,-26.221L40.883,-25.826L41.476,-25.462L42.089,-25.129L42.718,-24.829L43.361,-24.562L44.018,-24.33L44.686,-24.133L44.804,-24.101L44.804,9.563L-0.117,9.563L-0.117,-24.039L0,-24.097Z" style="fill:rgb(210,211,213);fill-rule:nonzero;"/>
            </g>
            <g transform="matrix(1,0,0,1,214.139,413.678)">
                <path d="M0,-40.25L0.56,-40.118L1.245,-39.991L1.936,-39.899L2.631,-39.845L3.328,-39.827L4.024,-39.845L4.719,-39.899L5.409,-39.991L6.095,-40.118L6.655,-40.25L6.655,-6.621L51.576,-6.621L51.576,-40.284L52.135,-40.153L52.822,-40.025L53.512,-39.935L54.207,-39.881L54.903,-39.863L55.599,-39.881L56.294,-39.935L56.985,-40.025L57.67,-40.153L58.231,-40.284L58.231,-6.621L93.606,-6.621L93.475,-6.061L93.348,-5.375L93.257,-4.684L93.202,-3.99L93.184,-3.293L93.202,-2.596L93.257,-1.902L93.348,-1.21L93.475,-0.527L93.606,0.034L0,0.034L0,-40.25Z" style="fill:rgb(140,142,146);fill-rule:nonzero;"/>
            </g>
            <g transform="matrix(1,0,0,1,214.139,211.192)">
                <path d="M0,-13.732L6.655,-13.732L6.655,0L6.095,-0.131L5.409,-0.258L4.719,-0.349L4.024,-0.404L3.328,-0.422L2.631,-0.404L1.936,-0.349L1.245,-0.258L0.56,-0.131L0,0L0,-13.732Z" style="fill:rgb(140,142,146);fill-rule:nonzero;"/>
            </g>
            <g transform="matrix(1,0,0,1,282.902,150.009)">
                <path d="M0,-2.899L-0.083,-2.281L-0.211,-1.596L-0.373,-0.919L-0.571,-0.251L-0.803,0.406L-1.071,1.05L-1.371,1.679L-1.703,2.292L-2.067,2.886L-2.363,3.322L-10.532,0.308L-10.532,8.67L-11.148,8.782L-11.839,8.873L-12.532,8.928L-13.23,8.946L-13.927,8.928L-14.622,8.873L-15.312,8.782L-15.996,8.655L-16.674,8.493L-17.187,8.345L-17.187,-2.149L-26.485,-5.58L-26.466,-5.755L-26.376,-6.446L-26.249,-7.131L-26.086,-7.809L-25.888,-8.477L-25.656,-9.133L-25.389,-9.777L-25.089,-10.406L-24.756,-11.018L-24.392,-11.613L-24.238,-11.845L0,-2.899Z" style="fill:rgb(70,72,75);fill-rule:nonzero;"/>
            </g>
            <g transform="matrix(1,0,0,1,258.665,133.864)">
                <path d="M0,4.3L-0.155,4.532L-0.518,5.127L-0.851,5.739L-1.151,6.368L-1.418,7.011L-1.65,7.668L-1.848,8.336L-2.011,9.014L-2.138,9.699L-2.229,10.39L-2.247,10.565L-28.622,0.829L-28.622,-6.265L0,4.3Z" style="fill:rgb(140,142,146);fill-rule:nonzero;"/>
            </g>
            <g transform="matrix(1,0,0,1,309.447,153.018)">
                <path d="M0,4.308L-0.364,4.902L-0.696,5.515L-0.996,6.143L-1.262,6.787L-1.496,7.444L-1.693,8.112L-1.856,8.79L-1.983,9.475L-2.075,10.166L-2.079,10.216L-28.908,0.313L-28.612,-0.124L-28.248,-0.718L-27.916,-1.331L-27.616,-1.96L-27.348,-2.603L-27.116,-3.26L-26.918,-3.928L-26.756,-4.605L-26.628,-5.291L-26.545,-5.908L0.225,3.973L0,4.308Z" style="fill:rgb(140,142,146);fill-rule:nonzero;"/>
            </g>
            <g transform="matrix(1,0,0,1,361.942,172.16)">
                <path d="M0,4.125L-0.225,4.46L-0.589,5.054L-0.921,5.666L-1.221,6.295L-1.488,6.939L-1.721,7.596L-1.919,8.264L-2.082,8.941L-2.207,9.627L-2.299,10.318L-2.304,10.368L-30.394,0L-30.169,-0.335L-29.805,-0.929L-29.472,-1.542L-29.172,-2.17L-28.906,-2.814L-28.674,-3.471L-28.475,-4.139L-28.313,-4.817L-28.185,-5.502L-28.094,-6.193L-28.09,-6.243L0,4.125Z" style="fill:rgb(140,142,146);fill-rule:nonzero;"/>
            </g>
            <g transform="matrix(1,0,0,1,317.273,153.483)">
                <path d="M0,67.421L-35.362,67.421L-35.391,67.303L-35.59,66.635L-35.822,65.978L-36.088,65.335L-36.389,64.705L-36.722,64.094L-37.086,63.499L-37.481,62.925L-37.905,62.372L-38.358,61.842L-38.837,61.337L-39.342,60.857L-39.873,60.404L-40.425,59.981L-41,59.586L-41.594,59.222L-42.206,58.889L-42.834,58.588L-43.479,58.322L-44.136,58.09L-44.803,57.892L-44.922,57.861L-44.922,5.348L-44.851,5.333L-44.174,5.171L-43.505,4.973L-42.848,4.74L-42.205,4.473L-41.576,4.173L-40.963,3.841L-40.37,3.477L-39.795,3.082L-39.242,2.658L-38.713,2.205L-38.207,1.726L-37.727,1.22L-37.275,0.691L-36.851,0.138L-36.753,0L-9.922,9.903L-9.972,10.547L-9.99,11.244L-9.972,11.941L-9.917,12.635L-9.827,13.326L-9.699,14.011L-9.537,14.689L-9.339,15.357L-9.107,16.014L-8.841,16.658L-8.539,17.286L-8.207,17.899L-7.843,18.493L-7.449,19.067L-7.025,19.62L-6.572,20.15L-6.092,20.656L-5.587,21.135L-5.056,21.588L-4.504,22.012L-3.93,22.406L-3.337,22.771L-2.724,23.103L-2.095,23.403L-1.451,23.67L-0.794,23.902L-0.125,24.1L0,24.133L0,67.421Z" style="fill:rgb(181,183,187);fill-rule:nonzero;"/>
            </g>
            <g transform="matrix(1,0,0,1,272.37,397.471)">
                <path d="M0,9.587L0,-24.077L0.117,-24.109L0.786,-24.306L1.442,-24.538L2.086,-24.805L2.715,-25.105L3.327,-25.438L3.921,-25.802L4.496,-26.197L5.048,-26.621L5.578,-27.074L6.083,-27.553L6.564,-28.058L7.017,-28.588L7.441,-29.14L7.835,-29.716L8.2,-30.31L8.531,-30.921L8.832,-31.552L9.098,-32.195L9.33,-32.852L9.529,-33.519L9.559,-33.636L44.921,-33.636L44.921,0.032L44.817,0.059L44.15,0.257L43.492,0.489L42.849,0.757L42.221,1.056L41.608,1.389L41.013,1.752L40.439,2.148L39.886,2.572L39.357,3.023L38.852,3.504L38.371,4.009L37.919,4.538L37.495,5.092L37.1,5.666L36.736,6.26L36.403,6.873L36.104,7.501L35.837,8.146L35.604,8.803L35.406,9.47L35.375,9.587L0,9.587Z" style="fill:rgb(210,211,213);fill-rule:nonzero;"/>
            </g>
            <g transform="matrix(1,0,0,1,220.794,397.437)">
                <path d="M0,-23.981L0.117,-24.039L0.785,-24.236L1.442,-24.47L2.086,-24.737L2.715,-25.037L3.327,-25.369L3.921,-25.733L4.496,-26.128L5.049,-26.552L5.579,-27.004L6.084,-27.484L6.563,-27.99L7.016,-28.52L7.44,-29.072L7.835,-29.646L8.199,-30.241L8.532,-30.853L8.832,-31.482L9.098,-32.125L9.331,-32.783L9.529,-33.451L9.568,-33.602L35.357,-33.602L35.59,-32.818L35.822,-32.161L36.089,-31.518L36.39,-30.888L36.721,-30.276L37.086,-29.683L37.48,-29.107L37.904,-28.555L38.357,-28.025L38.836,-27.519L39.342,-27.04L39.872,-26.587L40.425,-26.164L41,-25.769L41.593,-25.404L42.206,-25.071L42.835,-24.771L43.478,-24.504L44.135,-24.273L44.921,-24.039L44.921,9.621L0,9.621L0,-23.981Z" style="fill:rgb(210,211,213);fill-rule:nonzero;"/>
            </g>
            <g transform="matrix(-0.756791,0.653657,0.653657,0.756791,202.238,361.942)">
                <path d="M-4.361,-1.623L0.604,-1.623" style="fill:none;fill-rule:nonzero;stroke:black;stroke-width:0.37px;"/>
            </g>
            <g transform="matrix(-1,0,0,1,147.293,357.247)">
                <path d="M-66.554,0L0,0" style="fill:none;fill-rule:nonzero;stroke:black;stroke-width:0.73px;stroke-linecap:butt;stroke-linejoin:miter;"/>
            </g>
            <g transform="matrix(1,0,0,1,166.58,360.766)">
                <path d="M0,-3.187L-3.757,0.059M2.476,-3.614L5.722,0.143M6.423,-3.501L9.668,0.256M15.304,-3.33L18.549,0.427M10.863,-3.501L14.109,0.256M20.086,-3.331L23.331,0.426M28.845,-3.074L25.088,0.171M33.285,-2.903L29.528,0.342M42.679,-3.074L38.921,0.171M46.948,-3.245L43.191,0" style="fill:none;fill-rule:nonzero;stroke:black;stroke-width:0.37px;"/>
            </g>
            <g transform="matrix(1,0,0,1,423.247,357.054)">
                <path d="M0,0L23.947,0" style="fill:none;fill-rule:nonzero;stroke:black;stroke-width:0.73px;stroke-linecap:butt;stroke-linejoin:miter;"/>
            </g>
            <g transform="matrix(1,0,0,1,439.562,360.746)">
                <path d="M0,-3.671L-3.757,-0.426M-3.757,-3.502L-7.514,-0.256M-7.514,-3.502L-11.271,-0.256M3.416,-3.502L-0.341,-0.256M6.107,-3.714L9.354,0.043" style="fill:none;fill-rule:nonzero;stroke:black;stroke-width:0.37px;"/>
            </g>
            <g transform="matrix(1,0,0,1,385.05,191.571)">
                <path d="M0,29.064L-0.197,28.396L-0.429,27.739L-0.696,27.095L-0.997,26.467L-1.328,25.854L-1.693,25.26L-2.087,24.686L-2.511,24.133L-2.965,23.603L-3.445,23.098L-3.95,22.618L-4.48,22.166L-5.033,21.741L-5.607,21.347L-6.202,20.982L-6.813,20.65L-7.442,20.35L-8.086,20.083L-8.742,19.851L-9.411,19.653L-9.529,19.621L-9.529,5.343L-9.403,5.317L-8.727,5.154L-8.058,4.956L-7.402,4.724L-6.756,4.457L-6.128,4.157L-5.516,3.825L-4.921,3.46L-4.347,3.066L-3.794,2.642L-3.264,2.189L-2.759,1.709L-2.28,1.204L-1.828,0.674L-1.403,0.121L-1.233,-0.118L35.393,13.401L35.393,19.569L35.275,19.6L34.608,19.798L33.949,20.03L33.307,20.297L32.677,20.597L32.065,20.929L31.471,21.294L30.897,21.688L30.344,22.112L29.815,22.565L29.309,23.045L28.829,23.55L28.377,24.081L27.953,24.632L27.558,25.207L27.194,25.801L26.861,26.413L26.562,27.042L26.294,27.686L26.061,28.343L25.864,29.012L25.82,29.182L0.031,29.182L0,29.064Z" style="fill:rgb(210,211,213);fill-rule:nonzero;"/>
            </g>
            <g transform="matrix(1,0,0,1,272.487,297.738)">
                <path d="M0,-60.802L0.669,-61L1.325,-61.233L1.969,-61.499L2.598,-61.799L3.211,-62.131L3.805,-62.495L4.379,-62.89L4.932,-63.314L5.462,-63.767L5.967,-64.247L6.447,-64.752L6.9,-65.282L7.324,-65.835L7.719,-66.409L8.083,-67.003L8.415,-67.615L8.715,-68.244L8.981,-68.888L9.214,-69.545L9.412,-70.213L9.443,-70.331L44.804,-70.331L44.804,9.529L-0.117,9.529L-0.117,-60.743L0,-60.802Z" style="fill:rgb(181,183,187);fill-rule:nonzero;"/>
            </g>
            <g transform="matrix(1,0,0,1,420.325,293.271)">
                <path d="M0,-51.869L-0.667,-51.671L-1.325,-51.439L-1.968,-51.172L-2.597,-50.872L-3.21,-50.539L-3.804,-50.176L-4.378,-49.78L-4.931,-49.356L-5.46,-48.904L-5.965,-48.424L-6.446,-47.919L-6.898,-47.389L-7.322,-46.836L-7.717,-46.262L-8.081,-45.667L-8.413,-45.056L-8.713,-44.426L-8.98,-43.782L-9.214,-43.126L-9.411,-42.458L-9.575,-41.78L-9.7,-41.094L-9.792,-40.404L-9.846,-39.709L-9.864,-39.012L-9.846,-38.316L-9.792,-37.622L-9.7,-36.93L-9.575,-36.245L-9.411,-35.568L-9.214,-34.899L-8.98,-34.243L-8.713,-33.599L-8.413,-32.97L-8.081,-32.357L-7.717,-31.764L-7.322,-31.189L-6.898,-30.636L-6.446,-30.107L-5.965,-29.601L-5.46,-29.121L-4.931,-28.669L-4.378,-28.245L-3.804,-27.85L-3.21,-27.485L-2.597,-27.153L-1.968,-26.853L-1.325,-26.587L-0.667,-26.354L0,-26.157L0.677,-25.993L1.363,-25.866L1.782,-25.807L1.782,-6.936L1.283,-6.936L1.283,-4.275L0.118,-4.275L0.118,4.332L0,4.364L-0.667,4.562L-1.325,4.794L-1.968,5.061L-2.597,5.361L-3.21,5.694L-3.804,6.058L-4.378,6.453L-4.931,6.877L-5.46,7.329L-5.965,7.808L-6.446,8.314L-6.898,8.844L-7.322,9.397L-7.717,9.971L-8.081,10.565L-8.413,11.178L-8.713,11.806L-8.98,12.45L-9.214,13.108L-9.411,13.776L-9.468,13.995L-44.803,13.995L-44.803,-56.304L-44.685,-56.336L-44.017,-56.533L-43.361,-56.766L-42.716,-57.033L-42.088,-57.332L-41.476,-57.665L-40.882,-58.028L-40.308,-58.423L-39.754,-58.848L-39.224,-59.3L-38.719,-59.78L-38.24,-60.285L-37.786,-60.815L-37.362,-61.369L-36.968,-61.943L-36.603,-62.536L-36.272,-63.149L-35.971,-63.778L-35.704,-64.422L-35.472,-65.078L-35.275,-65.746L-35.244,-65.864L-9.429,-65.864L-9.411,-65.8L-9.214,-65.132L-8.98,-64.475L-8.713,-63.83L-8.413,-63.202L-8.081,-62.59L-7.717,-61.996L-7.322,-61.421L-6.898,-60.869L-6.446,-60.338L-5.965,-59.833L-5.46,-59.354L-4.931,-58.901L-4.378,-58.477L-3.804,-58.082L-3.21,-57.718L-2.597,-57.385L-1.968,-57.086L-1.325,-56.819L-0.667,-56.586L0,-56.388L0.118,-56.357L0.118,-51.9L0,-51.869Z" style="fill:rgb(181,183,187);fill-rule:nonzero;"/>
            </g>
            <g transform="matrix(1,0,0,1,410.914,357.165)">
                <path d="M0,-43.228L0.197,-42.56L0.43,-41.904L0.698,-41.26L0.997,-40.631L1.33,-40.018L1.693,-39.423L2.089,-38.85L2.513,-38.297L2.965,-37.767L3.445,-37.262L3.95,-36.782L4.48,-36.33L5.033,-35.905L5.607,-35.51L6.201,-35.146L6.813,-34.814L7.442,-34.514L8.085,-34.247L8.744,-34.015L9.411,-33.817L9.529,-33.786L9.529,-9.495L9.411,-9.464L8.744,-9.265L8.085,-9.033L7.442,-8.766L6.813,-8.466L6.201,-8.134L5.607,-7.77L5.033,-7.375L4.48,-6.951L3.95,-6.498L3.445,-6.019L2.965,-5.513L2.513,-4.983L2.089,-4.431L1.693,-3.856L1.33,-3.261L0.997,-2.65L0.698,-2.021L0.43,-1.377L0.197,-0.72L0,-0.052L-0.018,0.015L-35.393,0.015L-35.393,-43.243L-0.004,-43.243L0,-43.228Z" style="fill:rgb(181,183,187);fill-rule:nonzero;"/>
            </g>
            <g transform="matrix(1,0,0,1,317.291,313.922)">
                <path d="M0,43.258L-35.362,43.258L-35.392,43.14L-35.59,42.471L-35.823,41.815L-36.089,41.171L-36.389,40.542L-36.721,39.93L-37.086,39.335L-37.48,38.762L-37.904,38.209L-38.357,37.68L-38.837,37.172L-39.343,36.693L-39.873,36.241L-40.425,35.817L-41,35.421L-41.594,35.058L-42.206,34.725L-42.835,34.426L-43.479,34.159L-44.135,33.926L-44.804,33.729L-44.921,33.698L-44.921,0L0,0L0,43.258Z" style="fill:rgb(181,183,187);fill-rule:nonzero;"/>
            </g>
            <g transform="matrix(1,0,0,1,220.911,347.651)">
                <path d="M0,-24.2L0.668,-24.398L1.325,-24.631L1.969,-24.898L2.598,-25.197L3.21,-25.53L3.804,-25.895L4.379,-26.289L4.931,-26.714L5.461,-27.166L5.967,-27.645L6.446,-28.151L6.899,-28.681L7.323,-29.234L7.718,-29.808L8.082,-30.402L8.414,-31.015L8.715,-31.643L8.981,-32.287L9.214,-32.944L9.412,-33.612L9.443,-33.729L44.804,-33.729L44.804,-0.032L44.686,-0.001L44.018,0.197L43.361,0.429L42.718,0.697L42.089,0.996L41.476,1.329L40.883,1.692L40.308,2.088L39.755,2.511L39.225,2.964L38.719,3.443L38.24,3.95L37.787,4.48L37.363,5.032L36.969,5.606L36.604,6.201L36.273,6.812L35.972,7.441L35.705,8.085L35.473,8.741L35.275,9.41L35.245,9.529L9.434,9.529L9.412,9.445L9.214,8.778L8.981,8.12L8.715,7.476L8.414,6.847L8.082,6.236L7.718,5.64L7.323,5.067L6.899,4.514L6.446,3.985L5.967,3.479L5.461,2.999L4.931,2.546L4.379,2.122L3.804,1.728L3.21,1.363L2.598,1.031L1.969,0.731L1.325,0.465L0.668,0.231L0,0.034L-0.117,0.003L-0.117,-24.169L0,-24.2Z" style="fill:rgb(181,183,187);fill-rule:nonzero;"/>
            </g>
            <g transform="matrix(1,0,0,1,410.914,406.89)">
                <path d="M0,-42.887L0.197,-42.219L0.43,-41.562L0.698,-40.919L0.997,-40.289L1.33,-39.678L1.693,-39.084L2.089,-38.509L2.513,-37.957L2.965,-37.425L3.445,-36.92L3.95,-36.442L4.48,-35.988L5.033,-35.563L5.607,-35.171L6.201,-34.805L6.813,-34.473L7.442,-34.173L8.085,-33.906L8.744,-33.674L9.411,-33.476L9.529,-33.445L9.529,-9.392L9.411,-9.36L8.744,-9.163L8.085,-8.93L7.442,-8.663L6.813,-8.364L6.201,-8.031L5.607,-7.668L5.033,-7.272L4.48,-6.848L3.95,-6.396L3.445,-5.915L2.965,-5.411L2.513,-4.881L2.089,-4.327L1.693,-3.754L1.33,-3.16L0.997,-2.546L0.698,-1.918L0.43,-1.273L0.197,-0.617L0,0.051L-0.031,0.168L-25.857,0.168L-25.887,0.051L-26.086,-0.617L-26.319,-1.273L-26.585,-1.918L-26.885,-2.546L-27.218,-3.16L-27.581,-3.754L-27.976,-4.327L-28.4,-4.881L-28.853,-5.411L-29.333,-5.915L-29.839,-6.396L-30.369,-6.848L-30.92,-7.272L-31.496,-7.668L-32.089,-8.031L-32.702,-8.364L-33.331,-8.663L-33.974,-8.93L-34.632,-9.163L-35.299,-9.36L-35.393,-9.384L-35.393,-43.055L-0.069,-43.055L0,-42.887Z" style="fill:rgb(181,183,187);fill-rule:nonzero;"/>
            </g>
            <g transform="matrix(1,0,0,1,324.055,215.481)">
                <path d="M0,-38.049L0.668,-38.247L1.325,-38.479L1.969,-38.746L2.598,-39.046L3.211,-39.379L3.805,-39.743L4.378,-40.138L4.932,-40.562L5.461,-41.014L5.967,-41.494L6.447,-41.999L6.899,-42.529L7.324,-43.082L7.493,-43.321L35.581,-32.954L35.582,-32.953L35.533,-32.309L35.515,-31.612L35.533,-30.916L35.588,-30.221L35.679,-29.53L35.805,-28.845L35.968,-28.168L36.166,-27.5L36.399,-26.842L36.666,-26.199L36.965,-25.57L37.298,-24.957L37.662,-24.363L38.057,-23.789L38.479,-23.236L38.933,-22.706L39.414,-22.201L39.919,-21.721L40.448,-21.269L41.001,-20.845L41.575,-20.45L42.17,-20.086L42.781,-19.753L43.411,-19.453L44.054,-19.187L44.71,-18.954L44.813,-18.922L44.813,-4.289L44.695,-4.258L44.026,-4.059L43.37,-3.827L42.727,-3.561L42.096,-3.26L41.484,-2.928L40.891,-2.563L40.317,-2.169L39.763,-1.745L39.233,-1.292L38.727,-0.812L38.248,-0.307L37.796,0.223L37.371,0.776L36.977,1.35L36.612,1.944L36.281,2.556L35.981,3.185L35.713,3.829L35.481,4.486L35.284,5.154L35.254,5.272L-0.109,5.272L-0.109,-38.02L0,-38.049Z" style="fill:rgb(181,183,187);fill-rule:nonzero;"/>
            </g>
            <g transform="matrix(1,0,0,1,218.163,267.124)">
                <path d="M0,0.426L0.695,0.371L1.385,0.281L2.071,0.154L2.748,-0.009L3.416,-0.207L4.073,-0.439L4.717,-0.706L5.346,-1.006L5.958,-1.338L6.552,-1.703L7.127,-2.098L7.679,-2.522L8.209,-2.974L8.715,-3.454L9.194,-3.96L9.647,-4.489L10.071,-5.042L10.466,-5.617L10.83,-6.21L11.162,-6.823L11.462,-7.452L11.729,-8.096L11.962,-8.752L12.159,-9.421L12.322,-10.098L12.449,-10.783L12.54,-11.474L12.595,-12.169L12.613,-12.865L12.595,-13.562L12.54,-14.257L12.449,-14.947L12.322,-15.632L12.159,-16.31L11.962,-16.979L11.729,-17.635L11.462,-18.279L11.162,-18.909L10.83,-19.52L10.466,-20.114L10.071,-20.689L9.647,-21.241L9.194,-21.771L8.715,-22.277L8.209,-22.757L7.679,-23.209L7.127,-23.633L6.552,-24.028L5.958,-24.392L5.346,-24.724L4.717,-25.025L4.073,-25.292L3.416,-25.524L2.748,-25.722L2.631,-25.752L2.631,-30.157L2.748,-30.188L3.416,-30.386L4.073,-30.619L4.717,-30.885L5.346,-31.185L5.958,-31.517L6.552,-31.881L7.127,-32.276L7.679,-32.7L8.209,-33.153L8.715,-33.633L9.194,-34.138L9.647,-34.668L10.071,-35.221L10.466,-35.796L10.83,-36.389L11.162,-37.001L11.462,-37.631L11.729,-38.274L11.962,-38.931L12.159,-39.599L12.19,-39.717L37.993,-39.717L38.023,-39.599L38.221,-38.931L38.453,-38.274L38.72,-37.631L39.021,-37.001L39.352,-36.389L39.717,-35.796L40.111,-35.221L40.535,-34.668L40.988,-34.138L41.467,-33.633L41.973,-33.153L42.503,-32.7L43.056,-32.276L43.631,-31.881L44.224,-31.517L44.836,-31.185L45.466,-30.885L46.109,-30.619L46.766,-30.386L47.434,-30.188L47.552,-30.157L47.552,40.143L12.19,40.143L12.159,40.025L11.962,39.357L11.729,38.701L11.462,38.056L11.162,37.428L10.83,36.815L10.466,36.221L10.071,35.647L9.647,35.094L9.194,34.564L8.715,34.059L8.209,33.579L7.679,33.126L7.127,32.702L6.552,32.307L5.958,31.944L5.346,31.61L4.717,31.311L4.073,31.044L3.416,30.812L2.748,30.614L2.631,30.582L2.631,28.105L2.748,28.074L3.416,27.876L4.073,27.643L4.717,27.376L5.346,27.077L5.958,26.744L6.552,26.379L7.127,25.985L7.679,25.56L8.209,25.108L8.715,24.629L9.194,24.124L9.647,23.593L10.071,23.04L10.466,22.467L10.83,21.872L11.162,21.26L11.462,20.631L11.729,19.987L11.962,19.33L12.159,18.663L12.322,17.985L12.449,17.299L12.54,16.609L12.595,15.914L12.613,15.217L12.595,14.52L12.54,13.826L12.449,13.135L12.322,12.45L12.159,11.772L11.962,11.104L11.729,10.447L11.462,9.804L11.162,9.175L10.83,8.562L10.466,7.968L10.071,7.394L9.647,6.841L9.194,6.311L8.715,5.805L8.209,5.326L7.679,4.874L7.127,4.449L6.552,4.054L5.958,3.69L5.346,3.358L4.717,3.058L4.073,2.792L3.416,2.558L2.748,2.361L2.071,2.198L1.385,2.071L0.695,1.98L0,1.926L-0.364,1.912L-0.364,0.44L0,0.426Z" style="fill:rgb(181,183,187);fill-rule:nonzero;"/>
            </g>
            <g transform="matrix(1,0,0,1,420.443,207.234)">
                <path d="M0,-2.262L0,3.905L-0.118,3.937L-0.785,4.134L-1.443,4.367L-2.086,4.634L-2.716,4.933L-3.328,5.266L-3.922,5.63L-4.496,6.024L-5.049,6.449L-5.578,6.902L-6.083,7.381L-6.564,7.886L-7.016,8.417L-7.44,8.969L-7.835,9.543L-8.199,10.138L-8.531,10.75L-8.831,11.379L-9.099,12.023L-9.332,12.68L-9.529,13.348L-9.573,13.519L-35.362,13.519L-35.393,13.401L-35.59,12.733L-35.822,12.076L-36.089,11.431L-36.39,10.803L-36.721,10.191L-37.086,9.597L-37.48,9.023L-37.904,8.47L-38.358,7.94L-38.837,7.434L-39.343,6.955L-39.873,6.502L-40.426,6.078L-41,5.683L-41.594,5.319L-42.206,4.986L-42.835,4.686L-43.479,4.42L-44.135,4.187L-44.804,3.989L-44.922,3.958L-44.922,-10.321L-44.796,-10.346L-44.12,-10.509L-43.451,-10.707L-42.794,-10.94L-42.149,-11.207L-41.521,-11.507L-40.909,-11.839L-40.314,-12.203L-39.74,-12.598L-39.187,-13.022L-38.657,-13.474L-38.152,-13.954L-37.672,-14.459L-37.22,-14.99L-36.796,-15.542L-36.626,-15.781L0,-2.262Z" style="fill:rgb(210,211,213);fill-rule:nonzero;"/>
            </g>
            <g transform="matrix(1,0,0,1,317.291,373.393)">
                <path d="M0,24.105L-0.771,24.334L-1.429,24.566L-2.072,24.834L-2.7,25.133L-3.313,25.466L-3.908,25.829L-4.482,26.225L-5.034,26.649L-5.564,27.1L-6.069,27.582L-6.55,28.086L-7.002,28.615L-7.426,29.169L-7.821,29.743L-8.185,30.337L-8.518,30.95L-8.817,31.579L-9.084,32.224L-9.317,32.88L-9.55,33.664L-44.921,33.664L-44.921,0.004L-44.135,-0.229L-43.479,-0.461L-42.835,-0.728L-42.206,-1.027L-41.594,-1.36L-41,-1.725L-40.425,-2.12L-39.873,-2.544L-39.343,-2.996L-38.837,-3.475L-38.357,-3.981L-37.904,-4.511L-37.48,-5.063L-37.086,-5.639L-36.721,-6.232L-36.389,-6.844L-36.089,-7.474L-35.823,-8.117L-35.59,-8.774L-35.357,-9.559L0,-9.559L0,24.105Z" style="fill:rgb(210,211,213);fill-rule:nonzero;"/>
            </g>
            <g transform="matrix(1,0,0,1,220.794,397.437)">
                <path d="M0,-23.981L0.117,-24.039L0.785,-24.236L1.442,-24.47L2.086,-24.737L2.715,-25.037L3.327,-25.369L3.921,-25.733L4.496,-26.128L5.049,-26.552L5.579,-27.004L6.084,-27.484L6.563,-27.99L7.016,-28.52L7.44,-29.072L7.835,-29.646L8.199,-30.241L8.532,-30.853L8.832,-31.482L9.098,-32.125L9.331,-32.783L9.529,-33.451L9.568,-33.602L35.357,-33.602L35.59,-32.818L35.822,-32.161L36.089,-31.518L36.39,-30.888L36.721,-30.276L37.086,-29.683L37.48,-29.107L37.904,-28.555L38.357,-28.025L38.836,-27.519L39.342,-27.04L39.872,-26.587L40.425,-26.164L41,-25.769L41.593,-25.404L42.206,-25.071L42.835,-24.771L43.478,-24.504L44.135,-24.273L44.921,-24.039L44.921,9.621L0,9.621L0,-23.981Z" style="fill:rgb(210,211,213);fill-rule:nonzero;"/>
            </g>
            <g transform="matrix(1,0,0,1,359.308,307.267)">
                <path d="M0,-79.86L0.03,-79.742L0.227,-79.074L0.459,-78.417L0.728,-77.774L1.027,-77.144L1.359,-76.532L1.723,-75.939L2.118,-75.364L2.542,-74.811L2.994,-74.281L3.474,-73.776L3.98,-73.296L4.51,-72.843L5.063,-72.419L5.637,-72.024L6.23,-71.66L6.842,-71.328L7.473,-71.028L8.116,-70.762L8.773,-70.529L9.441,-70.331L9.559,-70.3L9.559,0L-35.362,0L-35.362,-79.86L0,-79.86Z" style="fill:rgb(181,183,187);fill-rule:nonzero;"/>
            </g>
            <g transform="matrix(1,0,0,1,214.139,253.836)">
                <path d="M0,-12.464L0.56,-12.596L1.245,-12.723L1.936,-12.814L2.631,-12.869L3.328,-12.887L4.024,-12.869L4.719,-12.814L5.409,-12.723L6.095,-12.596L6.655,-12.464L6.655,0.423L0,0.423L0,-12.464Z" style="fill:rgb(31,32,34);fill-rule:nonzero;"/>
            </g>
            <g transform="matrix(-1,0,0,1,434.934,-330.71)">
                <rect x="216.635" y="584.969" width="1.664" height="2.662" style="fill:rgb(31,32,34);"/>
            </g>
            <g transform="matrix(1,0,0,1,0,-317.405)">
                <rect x="217.134" y="574.326" width="0.665" height="10.643" style="fill:rgb(31,32,34);"/>
            </g>
            <g transform="matrix(1,0,0,1,214.139,253.836)">
                <path d="M0,-12.464L0.56,-12.596L1.245,-12.723L1.936,-12.814L2.631,-12.869L3.328,-12.887L4.024,-12.869L4.719,-12.814L5.409,-12.723L6.095,-12.596L6.655,-12.464L6.655,0.423L0,0.423L0,-12.464Z" style="fill:rgb(70,72,75);fill-rule:nonzero;"/>
            </g>
            <g transform="matrix(1,0,0,1,0,-330.71)">
                <rect x="216.635" y="584.969" width="1.664" height="2.662" style="fill:rgb(70,72,75);"/>
            </g>
            <g transform="matrix(1,0,0,1,0,-317.405)">
                <rect x="217.134" y="574.326" width="0.665" height="10.643" style="fill:rgb(70,72,75);"/>
            </g>
            <g transform="matrix(1,0,0,1,427.098,240.949)">
                <path d="M0,13.31L-0.666,13.31L-0.666,8.705L-3.827,8.705L-3.827,13.31L-6.655,13.31L-6.655,0.423L-6.096,0.291L-5.41,0.164L-4.719,0.073L-4.026,0.018L-3.328,0L-2.632,0.018L-1.936,0.073L-1.245,0.164L-0.561,0.291L0,0.423L0,13.31Z" style="fill:rgb(70,72,75);fill-rule:nonzero;"/>
            </g>
            <g transform="matrix(1,0,0,1,0,-330.71)">
                <rect x="421.608" y="584.969" width="1.663" height="2.662" style="fill:rgb(70,72,75);"/>
            </g>
            <g transform="matrix(1,0,0,1,422.107,267.531)">
                <path d="M0,-10.61L0,-0.067L0.272,-0.035L0.664,0L0.664,-10.61L0,-10.61Z" style="fill:rgb(70,72,75);fill-rule:nonzero;"/>
            </g>
            <g transform="matrix(1,0,0,1,214.139,295.651)">
                <path d="M0,-13.31L6.655,-13.31L6.655,-0.422L6.095,-0.292L5.409,-0.164L4.719,-0.074L4.024,-0.019L3.328,0L2.631,-0.019L1.936,-0.074L1.245,-0.164L0.56,-0.292L0,-0.422L0,-13.31Z" style="fill:rgb(70,72,75);fill-rule:nonzero;"/>
            </g>
            <g transform="matrix(1,0,0,1,0,-279.868)">
                <rect x="216.635" y="559.548" width="1.664" height="2.662" style="fill:rgb(70,72,75);"/>
            </g>
            <g transform="matrix(1,0,0,1,217.134,279.675)">
                <path d="M0,-10.639L0,0.005L0.665,0.005L0.665,-10.639L0.333,-10.644L0,-10.639Z" style="fill:rgb(70,72,75);fill-rule:nonzero;"/>
            </g>
            <g transform="matrix(1,0,0,1,427.098,297.604)">
                <path d="M0,25.775L-0.561,25.907L-1.245,26.033L-1.936,26.124L-2.632,26.18L-3.328,26.198L-4.026,26.18L-4.719,26.124L-5.41,26.033L-6.096,25.907L-6.655,25.775L-6.655,16.318L-16.188,16.318L-16.348,15.655L-16.473,14.97L-16.565,14.279L-16.619,13.584L-16.637,12.887L-16.619,12.191L-16.565,11.496L-16.473,10.806L-16.348,10.121L-16.241,9.663L-6.655,9.663L-6.655,0L-6.096,-0.131L-5.41,-0.259L-4.719,-0.349L-4.026,-0.404L-3.328,-0.423L-2.632,-0.404L-1.936,-0.349L-1.245,-0.259L-0.561,-0.131L0,0L0,25.775Z" style="fill:rgb(70,72,75);fill-rule:nonzero;"/>
            </g>
            <g transform="matrix(1,0,0,1,410.87,357.281)">
                <path d="M0,6.554L-0.12,6.044L-0.245,5.358L-0.337,4.669L-0.391,3.974L-0.409,3.278L-0.391,2.58L-0.337,1.886L-0.245,1.194L-0.12,0.51L0.026,-0.101L9.573,-0.101L9.573,-9.611L10.132,-9.742L10.818,-9.869L11.509,-9.959L12.203,-10.015L12.9,-10.033L13.597,-10.015L14.292,-9.959L14.983,-9.869L15.667,-9.742L16.228,-9.611L16.228,16.164L15.667,16.296L14.983,16.424L14.292,16.514L13.597,16.57L12.9,16.587L12.203,16.57L11.509,16.514L10.818,16.424L10.132,16.296L9.573,16.164L9.573,6.554L0,6.554Z" style="fill:rgb(70,72,75);fill-rule:nonzero;"/>
            </g>
            <g transform="matrix(1,0,0,1,204.175,223.383)">
                <path d="M0,1.394L0.054,2.088L0.146,2.779L0.272,3.464L0.404,4.024L-6.957,4.024L-6.957,-2.63L0.404,-2.63L0.272,-2.07L0.146,-1.385L0.054,-0.695L0,-0L-0.019,0.697L0,1.394Z" style="fill:rgb(140,142,146);fill-rule:nonzero;"/>
            </g>
            <g transform="matrix(1,0,0,1,230.354,220.753)">
                <path d="M0,6.654L0.132,6.094L0.259,5.409L0.35,4.718L0.404,4.024L0.423,3.327L0.404,2.63L0.35,1.935L0.259,1.245L0.132,0.56L0,0L44.103,0L43.97,0.56L43.844,1.245L43.753,1.935L43.698,2.63L43.679,3.327L43.698,4.024L43.753,4.718L43.844,5.409L43.97,6.094L44.103,6.654L0,6.654Z" style="fill:rgb(140,142,146);fill-rule:nonzero;"/>
            </g>
            <g transform="matrix(1,0,0,1,166.28,307.267)">
                <path d="M0,6.655L0,0L38.3,0L38.168,0.561L38.041,1.245L37.95,1.936L37.895,2.631L37.877,3.328L37.895,4.025L37.95,4.719L38.041,5.41L38.168,6.095L38.3,6.655L0,6.655Z" style="fill:rgb(140,142,146);fill-rule:nonzero;"/>
            </g>
            <g transform="matrix(1,0,0,1,216.77,297.304)">
                <path d="M0,-1.671L0.697,-1.652L1.393,-1.671L2.088,-1.726L2.779,-1.816L3.464,-1.944L4.024,-2.074L4.024,0.403L3.464,0.272L2.779,0.145L2.088,0.055L1.393,-0.002L0.697,-0.019L0,-0.002L-0.695,0.055L-1.386,0.145L-2.071,0.272L-2.631,0.403L-2.631,-2.074L-2.071,-1.944L-1.386,-1.816L-0.695,-1.726L0,-1.671Z" style="fill:rgb(140,142,146);fill-rule:nonzero;"/>
            </g>
            <g transform="matrix(1,0,0,1,214.139,347.654)">
                <path d="M0,-24.172L0.56,-24.041L1.245,-23.914L1.936,-23.823L2.631,-23.767L3.328,-23.75L4.024,-23.767L4.719,-23.823L5.409,-23.914L6.095,-24.041L6.655,-24.172L6.655,0L6.095,-0.132L5.409,-0.259L4.719,-0.35L4.024,-0.404L3.328,-0.422L2.631,-0.404L1.936,-0.35L1.245,-0.259L0.56,-0.132L0,0L0,-24.172Z" style="fill:rgb(140,142,146);fill-rule:nonzero;"/>
            </g>
            <g transform="matrix(1,0,0,1,427.098,323.379)">
                <path d="M0,24.291L-0.561,24.16L-1.245,24.033L-1.936,23.943L-2.632,23.887L-3.328,23.869L-4.026,23.887L-4.719,23.943L-5.41,24.033L-6.096,24.16L-6.655,24.291L-6.655,0L-6.096,0.132L-5.41,0.258L-4.719,0.349L-4.026,0.405L-3.328,0.423L-2.632,0.405L-1.936,0.349L-1.245,0.258L-0.561,0.132L0,0L0,24.291Z" style="fill:rgb(140,142,146);fill-rule:nonzero;"/>
            </g>
            <g transform="matrix(1,0,0,1,423.77,289.42)">
                <path d="M0,7.761L-0.698,7.78L-1.391,7.835L-2.082,7.925L-2.768,8.053L-3.327,8.184L-3.327,-0.423L3.328,-0.423L3.328,8.184L2.766,8.053L2.083,7.925L1.392,7.835L0.696,7.78L0,7.761Z" style="fill:rgb(140,142,146);fill-rule:nonzero;"/>
            </g>
            <g transform="matrix(-1,0,0,1,844.879,-266.558)">
                <rect x="421.608" y="552.893" width="1.663" height="2.662" style="fill:rgb(140,142,146);"/>
            </g>
            <g transform="matrix(1,0,0,1,422.107,267.464)">
                <path d="M0,18.871L0.664,18.871L0.664,0.066L0.272,0.031L0,0L0,18.871Z" style="fill:rgb(140,142,146);fill-rule:nonzero;"/>
            </g>
            <g transform="matrix(1,0,0,1,423.77,240.949)">
                <path d="M0,-3.611L0.696,-3.63L1.392,-3.685L2.083,-3.776L2.766,-3.903L3.328,-4.034L3.328,0.423L2.766,0.291L2.083,0.164L1.392,0.073L0.696,0.019L0,0L-0.698,0.019L-1.391,0.073L-2.082,0.164L-2.768,0.291L-3.327,0.423L-3.327,-4.034L-2.768,-3.903L-2.082,-3.776L-1.391,-3.685L-0.698,-3.63L0,-3.611Z" style="fill:rgb(140,142,146);fill-rule:nonzero;"/>
            </g>
            <g transform="matrix(1,0,0,1,427.098,413.713)">
                <path d="M0,-192.96L0,0M0,0L-76.533,0" style="fill:none;fill-rule:nonzero;stroke:black;stroke-width:0.51px;"/>
            </g>
            <g transform="matrix(1,0,0,1,265.715,220.753)">
                <path d="M0,6.654L-9.559,6.654L-9.692,6.094L-9.819,5.409L-9.91,4.718L-9.964,4.024L-9.983,3.327L-9.964,2.63L-9.91,1.935L-9.819,1.245L-9.692,0.56L-9.559,0L0,0L0,-9.561L0.559,-9.692L1.246,-9.819L1.936,-9.91L2.631,-9.965L3.327,-9.983L4.023,-9.965L4.718,-9.91L5.409,-9.819L6.094,-9.692L6.655,-9.561L6.655,0L16.214,0L16.346,0.56L16.473,1.245L16.564,1.935L16.62,2.63L16.636,3.327L16.62,4.024L16.564,4.718L16.473,5.409L16.346,6.094L16.214,6.654L6.655,6.654L6.655,16.214L6.094,16.345L5.409,16.473L4.718,16.564L4.023,16.618L3.327,16.637L2.631,16.618L1.936,16.564L1.246,16.473L0.559,16.345L0,16.214L0,6.654Z" style="fill:rgb(70,72,75);fill-rule:nonzero;"/>
            </g>
            <g transform="matrix(1,0,0,1,317.291,220.753)">
                <path d="M0,143.082L-44.921,143.082M58.23,0L103.152,0M-51.576,143.082L-96.497,143.082M-96.497,0L-51.576,0M-103.152,143.082L-103.152,93.169" style="fill:none;fill-rule:nonzero;stroke:black;stroke-width:0.51px;"/>
            </g>
            <g transform="matrix(1,0,0,1,220.794,227.391)">
                <path d="M0,86.531L0,129.789M199.649,129.789L199.649,86.531M206.304,179.667L206.304,179.579M0,136.444L0,179.667M4.856,179.667L0,179.667M199.649,179.667L199.649,136.444M199.649,-11.63L199.649,-22.036M199.649,-6.638L199.649,-22.419M238.617,-8.036L238.617,-15.129M206.304,-19.963L238.617,-8.036M0,-29.931L-6.655,-29.931M0,-23.276L0,-6.638M0,-23.276L0,-29.931M-54.515,86.531L-54.515,79.876M-6.655,-6.638L-6.655,-29.931M-6.655,79.876L-54.515,79.876M-6.655,186.322L-6.655,86.531M-6.655,86.531L-54.515,86.531M-23.576,0.016L-23.576,-6.638M-20.315,-6.638L-6.655,-6.638M-6.655,0.016L-23.576,0.016M-6.655,-6.638L-23.576,-6.638M199.649,79.876L199.649,61.606M206.304,61.606L206.304,186.322M200.814,61.606L200.814,58.944M202.477,58.944L202.477,61.606M202.477,58.944L200.814,58.944M-6.655,26.868L-6.655,0.016M0,0.016L0,26.868M-3.327,26.868L-1.664,26.868M-2.496,26.868L-2.496,29.53M-2.496,29.53L-4.159,29.53M-4.159,29.53L-4.159,26.868M199.649,26.868L199.649,0.016M206.304,-19.963L206.304,26.868M202.477,26.868L202.477,22.263M202.477,22.263L204.639,22.263M205.638,22.263L205.638,26.868M202.976,22.263L205.638,22.263M205.638,26.868L206.304,26.868M200.814,26.868L200.814,29.53M200.814,29.53L202.477,29.53M202.477,29.53L202.477,26.868M201.977,29.53L201.977,51.624M201.313,29.53L201.313,51.624M201.977,58.944L201.977,36.851M201.313,58.944L201.313,36.851M-6.655,79.876L-6.655,54.951M0,58.407L0,54.951M0,54.951L0,79.876M-2.496,54.951L-2.496,52.289M-4.159,52.289L-4.159,54.951M-4.159,52.289L-2.496,52.289M-3.661,29.53L-3.661,44.968M-2.995,29.53L-2.995,44.968M-3.661,52.289L-3.661,36.851M-2.995,52.289L-2.995,36.851M-6.655,186.322L206.304,186.322M-6.655,186.322L-6.655,146.038M199.649,61.606L200.814,61.606M202.477,61.606L206.304,61.606M199.649,26.868L200.814,26.868M-6.655,26.868L-4.159,26.868M-2.496,26.868L0,26.868M-6.655,54.951L-4.159,54.951M-2.496,54.951L0,54.951M206.304,-6.638L206.304,186.322M206.304,-6.638L206.304,186.322M129.771,186.322L206.304,186.322M69.878,-6.638L96.497,-6.638M103.152,-6.638L148.015,-6.638M129.771,0.016L103.152,0.016M129.771,79.876L103.152,79.876M96.497,79.876L69.878,79.876M96.497,0.016L96.497,79.876M103.152,0.016L103.152,79.876M129.771,86.531L103.152,86.531M96.497,86.531L69.878,86.531M129.771,129.789L103.152,129.789M103.152,86.531L103.152,129.789M44.921,53.256L44.921,37.114M51.576,53.256L51.576,46.602M44.921,126.365L44.921,113.151M44.921,53.256L44.921,79.876M44.921,86.531L44.921,113.151M51.576,53.256L51.576,79.876M51.576,86.531L51.576,113.151M51.576,119.805L51.576,129.789M44.921,119.805L44.921,129.789M44.921,-16.621L44.921,-6.638M44.921,0.016L44.921,46.602M51.576,0.016L51.576,46.602M51.576,129.789L51.576,113.151M44.921,136.444L44.921,179.667M51.576,136.444L51.576,179.667M44.921,-16.621L44.921,-70.203M44.921,-70.203L44.921,-16.621M44.921,-16.621L44.921,-72.776M44.921,-16.621L44.921,-72.776M148.074,61.456L148.074,46.602M154.727,59.202L154.727,46.602M154.727,129.789L154.727,108.787M148.074,53.256L148.074,79.876M148.074,86.531L148.074,113.151M154.727,53.256L154.727,79.876M154.727,86.531L154.727,113.151M148.074,119.805L148.074,129.789M154.727,119.805L154.727,129.789M148.074,-16.621L148.074,-6.638M148.074,0.016L148.074,46.602M154.727,-16.621L154.727,-6.638M154.727,0.016L154.727,46.602M154.727,136.444L154.727,179.667M96.497,-6.638L61.135,-6.638M96.497,0.016L61.135,0.016M129.771,0.016L138.514,0.016M103.152,-58.037L136.426,-45.755M96.497,-60.493L96.497,-6.638M103.152,-58.037L103.152,-6.638M138.88,-51.943L238.617,-15.129M72.181,-76.562L105.457,-64.28M105.457,-64.28L138.731,-51.998M44.921,-79.53L44.921,-16.621M63.222,179.667L76.715,179.667M129.771,179.667L137.214,179.667M128.789,186.322L138.488,186.322M154.727,-34.218L154.727,-39M148.074,-34.567L148.074,-41.456M199.649,136.444L154.727,136.444M190.076,136.444L154.727,136.444M69.878,129.789L51.576,129.789M44.921,129.789L0,129.789M61.135,136.444L51.576,136.444M44.921,136.444L35.362,136.444M96.497,136.444L51.576,136.444M96.497,136.444L96.497,179.667M136.426,179.667L148.074,179.667M154.727,179.667L199.649,179.667M199.649,0.016L154.727,0.016M148.074,0.016L136.426,0.016M154.727,-6.638L199.649,-6.638M51.576,-72.168L51.576,-77.074M51.576,-77.074L69.878,-70.319M148.074,-16.199L148.074,-41.456M154.727,-16.199L154.727,-39M136.426,-45.755L148.074,-41.456M154.727,-39L199.649,-22.419M63.222,0.016L51.576,0.016M44.921,0.016L0,0.016M0,-6.638L44.921,-6.638M69.878,-70.319L96.497,-60.493M44.921,-6.638L44.921,-79.53M44.921,-6.638L44.921,-79.53M0,179.667L44.921,179.667M51.576,179.667L63.222,179.667M69.878,179.667L96.497,179.667M103.152,179.667L129.771,179.667M154.727,-6.638L199.649,-6.638M154.727,-6.638L199.649,-6.638M154.727,-6.638L199.649,-6.638M9.249,-99.791L9.249,-92.697M9.249,-92.697L44.921,-79.53M69.878,79.876L51.576,79.876M44.921,79.876L0,79.876M69.878,86.531L51.576,86.531M44.921,86.531L0,86.531M9.568,136.444L0,136.444M44.921,136.444L0,136.444M-6.655,11.666L-6.655,0.016M0,-6.638L44.921,-6.638M0,-6.638L44.921,-6.638M-6.655,136.409L-6.655,86.531M-6.655,79.876L-6.655,0.016M-6.655,136.409L-6.655,86.531M-6.655,79.876L-6.655,0.016M199.649,79.876L154.727,79.876M148.074,79.876L129.771,79.876M199.649,86.531L154.727,86.531M148.074,86.531L129.771,86.531" style="fill:none;fill-rule:nonzero;stroke:black;stroke-width:0.37px;"/>
            </g>
            <g transform="matrix(1,0,0,1,230.704,225.472)">
                <path d="M0,-2.784L0.054,-2.089L0.073,-1.392L0.054,-0.695L0,-0.001L-0.091,0.69L-0.218,1.375L-0.35,1.935L-9.909,1.935L-9.909,11.495L-10.47,11.626L-11.155,11.754L-11.846,11.845L-12.54,11.899L-13.237,11.918L-13.934,11.899L-14.628,11.845L-15.319,11.754L-16.004,11.626L-16.564,11.495L-16.564,1.935L-26.124,1.935L-26.256,1.375L-26.383,0.69L-26.475,-0.001L-26.529,-0.695L-26.547,-1.392L-26.529,-2.089L-26.475,-2.784L-26.383,-3.474L-26.256,-4.16L-26.124,-4.719L-16.564,-4.719L-16.564,-14.28L-16.004,-14.412L-15.319,-14.538L-14.628,-14.63L-13.934,-14.684L-13.237,-14.702L-12.54,-14.684L-11.846,-14.63L-11.155,-14.538L-10.47,-14.412L-9.909,-14.28L-9.909,-4.719L-0.35,-4.719L-0.218,-4.16L-0.091,-3.474L0,-2.784Z" style="fill:rgb(70,72,75);fill-rule:nonzero;"/>
            </g>
            <g transform="matrix(1,0,0,1,216.075,297.358)">
                <path d="M0,26.473L-0.691,26.382L-1.376,26.255L-1.936,26.124L-1.936,16.564L-11.496,16.564L-11.628,16.004L-11.755,15.319L-11.846,14.628L-11.9,13.934L-11.919,13.237L-11.9,12.54L-11.846,11.845L-11.755,11.154L-11.628,10.469L-11.496,9.909L-1.936,9.909L-1.936,0.349L-1.376,0.217L-0.691,0.091L0,0L0.695,-0.056L1.391,-0.073L2.088,-0.056L2.783,0L3.473,0.091L4.159,0.217L4.719,0.349L4.719,9.909L14.278,9.909L14.41,10.469L14.537,11.154L14.628,11.845L14.683,12.54L14.701,13.237L14.683,13.934L14.628,14.628L14.537,15.319L14.41,16.004L14.278,16.564L4.719,16.564L4.719,26.124L4.159,26.255L3.473,26.382L2.783,26.473L2.088,26.528L1.391,26.546L0.695,26.528L0,26.473Z" style="fill:rgb(70,72,75);fill-rule:nonzero;"/>
            </g>
            <g transform="matrix(1,0,0,1,214.139,373.429)">
                <path d="M0,-25.775L0.56,-25.907L1.245,-26.034L1.936,-26.125L2.631,-26.179L3.328,-26.197L4.024,-26.179L4.719,-26.125L5.409,-26.034L6.095,-25.907L6.655,-25.775L6.655,-16.249L16.206,-16.249L16.346,-15.655L16.473,-14.97L16.564,-14.279L16.619,-13.584L16.637,-12.888L16.619,-12.191L16.564,-11.496L16.473,-10.805L16.346,-10.121L16.223,-9.594L6.655,-9.594L6.655,-0.001L6.095,0.131L5.409,0.258L4.719,0.35L4.024,0.404L3.328,0.422L2.631,0.404L1.936,0.35L1.245,0.258L0.56,0.131L0,-0.001L0,-25.775Z" style="fill:rgb(70,72,75);fill-rule:nonzero;"/>
            </g>
            <g transform="matrix(1,0,0,1,265.715,357.177)">
                <path d="M0,6.658L-9.559,6.658L-9.692,6.097L-9.819,5.412L-9.91,4.722L-9.964,4.027L-9.983,3.331L-9.964,2.633L-9.91,1.939L-9.819,1.247L-9.692,0.563L-9.559,0.003L0,0.003L0,-9.557L0.559,-9.689L1.246,-9.817L1.936,-9.908L2.631,-9.962L3.327,-9.981L4.023,-9.962L4.718,-9.908L5.409,-9.817L6.094,-9.689L6.655,-9.557L6.655,0.003L16.214,0.003L16.346,0.563L16.473,1.247L16.564,1.939L16.62,2.633L16.636,3.331L16.62,4.027L16.564,4.722L16.473,5.412L16.346,6.097L16.214,6.658L6.655,6.658L6.655,16.217L6.094,16.349L5.409,16.476L4.718,16.567L4.023,16.621L3.327,16.639L2.631,16.621L1.936,16.567L1.246,16.476L0.559,16.349L0,16.217L0,6.658Z" style="fill:rgb(70,72,75);fill-rule:nonzero;"/>
            </g>
            <g transform="matrix(1,0,0,1,307.614,397.637)">
                <path d="M0,15.515L-0.126,14.832L-0.218,14.14L-0.273,13.445L-0.29,12.749L-0.273,12.052L-0.218,11.357L-0.126,10.667L0,9.981L0.132,9.421L9.677,9.421L9.677,-0.134L10.252,-0.269L10.936,-0.396L11.628,-0.489L12.323,-0.543L13.019,-0.561L13.716,-0.543L14.41,-0.489L15.101,-0.396L15.786,-0.269L16.332,-0.142L16.332,9.421L25.906,9.421L26.038,9.981L26.165,10.667L26.256,11.357L26.311,12.052L26.329,12.749L26.311,13.445L26.256,14.14L26.165,14.832L26.038,15.515L25.906,16.076L0.132,16.076L0,15.515Z" style="fill:rgb(70,72,75);fill-rule:nonzero;"/>
            </g>
            <g transform="matrix(1,0,0,1,386.123,188.253)">
                <path d="M0,-3.044L-0.007,-2.993L-0.097,-2.303L-0.225,-1.618L-0.386,-0.941L-0.585,-0.272L-0.817,0.385L-1.084,1.029L-1.384,1.657L-1.717,2.27L-2.081,2.864L-2.305,3.199L-10.601,0.138L-10.601,8.66L-11.161,8.761L-11.852,8.852L-12.547,8.907L-13.243,8.925L-13.939,8.907L-14.634,8.852L-15.326,8.761L-16.01,8.634L-16.689,8.471L-17.255,8.305L-17.255,-2.319L-26.485,-5.726L-26.48,-5.776L-26.388,-6.467L-26.263,-7.152L-26.1,-7.83L-25.902,-8.498L-25.669,-9.155L-25.402,-9.799L-25.102,-10.428L-24.77,-11.04L-24.406,-11.634L-24.181,-11.969L0,-3.044Z" style="fill:rgb(70,72,75);fill-rule:nonzero;"/>
            </g>
            <g transform="matrix(1,0,0,1,333.852,168.96)">
                <path d="M0,-3.043L-0.004,-2.993L-0.096,-2.302L-0.223,-1.617L-0.386,-0.939L-0.584,-0.271L-0.816,0.386L-1.083,1.03L-1.382,1.658L-1.715,2.271L-2.079,2.865L-2.304,3.2L-9.906,0.394L-9.906,8.501L-10.475,8.635L-11.16,8.762L-11.85,8.853L-12.545,8.907L-13.241,8.926L-13.938,8.907L-14.634,8.853L-15.324,8.762L-16.009,8.635L-16.561,8.505L-16.561,-2.062L-26.484,-5.725L-26.479,-5.776L-26.388,-6.466L-26.261,-7.151L-26.098,-7.829L-25.901,-8.497L-25.667,-9.154L-25.4,-9.798L-25.101,-10.427L-24.768,-11.039L-24.405,-11.633L-24.179,-11.969L0,-3.043Z" style="fill:rgb(70,72,75);fill-rule:nonzero;"/>
            </g>
            <g transform="matrix(1,0,0,1,420.443,313.922)">
                <path d="M0,43.258L-44.922,43.258M-51.575,43.258L-69.878,43.258M-51.575,43.258L-51.575,26.62M-51.575,0L-51.575,43.258" style="fill:none;fill-rule:nonzero;stroke:black;stroke-width:0.37px;"/>
            </g>
            <g transform="matrix(1,0,0,1,230.363,357.18)">
                <path d="M0,6.655L0.123,6.128L0.25,5.444L0.341,4.753L0.395,4.058L0.414,3.361L0.395,2.665L0.341,1.97L0.25,1.279L0.123,0.594L-0.018,0L25.793,0L25.661,0.56L25.534,1.244L25.443,1.936L25.389,2.63L25.37,3.328L25.389,4.024L25.443,4.719L25.534,5.409L25.661,6.094L25.793,6.655L0,6.655Z" style="fill:rgb(140,142,146);fill-rule:nonzero;"/>
            </g>
            <g transform="matrix(0.938128,0.346289,0.346289,-0.938128,359.539,175.368)">
                <path d="M-0.005,-0.028L0.154,-0.028" style="fill:none;fill-rule:nonzero;stroke:black;stroke-width:0.37px;"/>
            </g>
            <g transform="matrix(0,-1,-1,0,254.069,267.337)">
                <path d="M-39.93,39.93L39.93,39.93" style="fill:none;fill-rule:nonzero;stroke:black;stroke-width:0.51px;"/>
            </g>
            <g transform="matrix(1,0,0,1,427.098,333.727)">
                <path d="M0,-112.974L0,79.986M0,79.986L-76.533,79.986M0,-112.974L0,79.986M0,79.986L-76.533,79.986M-145.168,30.108L-154.728,30.108M-145.168,30.108L-154.728,30.108M-161.383,-112.974L-161.383,-185.866M-161.383,-112.974L-161.383,-185.866M-161.383,-112.974L-161.383,-185.866M-161.383,-112.974L-161.383,-185.866M-161.383,30.108L-206.304,30.108M-161.383,30.108L-206.304,30.108M-206.304,-112.974L-161.383,-112.974M-206.304,-112.974L-161.383,-112.974M-206.304,-112.974L-161.383,-112.974M-212.959,30.108L-212.959,-19.805M-212.959,-26.46L-212.959,-106.32M-212.959,30.108L-212.959,-19.805M-212.959,-26.46L-212.959,-106.32M-109.807,63.776L-109.807,72.041M-109.808,79.986L0,79.986M0,-133.393L-161.383,-192.96" style="fill:none;fill-rule:nonzero;stroke:black;stroke-width:0.37px;stroke-dasharray:1347.01,269.4,269.4,269.4;"/>
            </g>
            <g transform="matrix(1,0,0,1,437.081,273.855)">
                <path d="M0,86.704C0,79.353 -5.96,73.393 -13.311,73.393C-20.662,73.393 -26.62,79.353 -26.62,86.704C-26.62,94.054 -20.662,100.013 -13.311,100.013C-5.96,100.013 0,94.054 0,86.704ZM0,36.636C0,29.286 -5.96,23.326 -13.311,23.326C-20.662,23.326 -26.62,29.286 -26.62,36.636C-26.62,43.988 -20.662,49.947 -13.311,49.947C-5.96,49.947 0,43.988 0,36.636ZM0,-19.596C0,-26.947 -5.96,-32.906 -13.311,-32.906C-20.662,-32.906 -26.62,-26.947 -26.62,-19.596C-26.62,-12.245 -20.662,-6.286 -13.311,-6.286C-5.96,-6.286 0,-12.245 0,-19.596ZM0,-49.827C0,-57.178 -5.96,-63.138 -13.311,-63.138C-20.662,-63.138 -26.62,-57.178 -26.62,-49.827C-26.62,-42.477 -20.662,-36.517 -13.311,-36.517C-5.96,-36.517 0,-42.477 0,-49.827ZM-154.729,-49.775C-154.729,-57.126 -160.688,-63.085 -168.038,-63.085C-175.39,-63.085 -181.348,-57.126 -181.348,-49.775C-181.348,-42.424 -175.39,-36.465 -168.038,-36.465C-160.688,-36.465 -154.729,-42.424 -154.729,-49.775ZM-206.304,-49.775C-206.304,-57.126 -212.264,-63.085 -219.614,-63.085C-226.965,-63.085 -232.924,-57.126 -232.924,-49.775C-232.924,-42.424 -226.965,-36.465 -219.614,-36.465C-212.264,-36.465 -206.304,-42.424 -206.304,-49.775ZM-206.304,-19.596C-206.304,-26.947 -212.264,-32.906 -219.614,-32.906C-226.965,-32.906 -232.924,-26.947 -232.924,-19.596C-232.924,-12.245 -226.965,-6.286 -219.614,-6.286C-212.264,-6.286 -206.304,-12.245 -206.304,-19.596ZM-206.304,8.487C-206.304,1.136 -212.264,-4.823 -219.614,-4.823C-226.965,-4.823 -232.924,1.136 -232.924,8.487C-232.924,15.837 -226.965,21.797 -219.614,21.797C-212.264,21.797 -206.304,15.837 -206.304,8.487ZM-206.304,36.74C-206.304,29.389 -212.264,23.43 -219.614,23.43C-226.965,23.43 -232.924,29.389 -232.924,36.74C-232.924,44.09 -226.965,50.049 -219.614,50.049C-212.264,50.049 -206.304,44.09 -206.304,36.74ZM-206.304,86.687C-206.304,79.335 -212.264,73.377 -219.614,73.377C-226.965,73.377 -232.924,79.335 -232.924,86.687C-232.924,94.037 -226.965,99.996 -219.614,99.996C-212.264,99.996 -206.304,94.037 -206.304,86.687ZM-154.729,86.653C-154.729,79.301 -160.688,73.341 -168.038,73.341C-175.39,73.341 -181.348,79.301 -181.348,86.653C-181.348,94.003 -175.39,99.961 -168.038,99.961C-160.688,99.961 -154.729,94.003 -154.729,86.653ZM-103.138,136.531C-103.138,129.18 -109.097,123.221 -116.448,123.221C-123.798,123.221 -129.757,129.18 -129.757,136.531C-129.757,143.882 -123.798,149.842 -116.448,149.842C-109.097,149.842 -103.138,143.882 -103.138,136.531Z" style="fill:none;fill-rule:nonzero;stroke:rgb(238,50,82);stroke-width:0.51px;"/>
            </g>
            <g transform="matrix(1,0,0,1,265.715,363.835)">
                <path d="M0,-143.082L-51.576,-143.082M-51.576,-143.082L-51.576,0" style="fill:none;fill-rule:nonzero;stroke:black;stroke-width:0.37px;"/>
            </g>
            <g transform="matrix(1,0,0,1,220.794,147.861)">
                <path d="M0,72.892L44.921,72.892M44.921,72.892L44.921,0" style="fill:none;fill-rule:nonzero;stroke:black;stroke-width:0.51px;"/>
            </g>
            <g transform="matrix(1,0,0,1,265.715,207.586)">
                <path d="M0,-66.819L0,13.167M-35.672,-79.986L27.26,-56.757" style="fill:none;fill-rule:nonzero;stroke:black;stroke-width:0.37px;"/>
            </g>
            <g transform="matrix(-1,0,0,1,692.782,-170.97)">
                <rect x="324.058" y="484.854" width="44.666" height="43.152" style="fill:rgb(181,183,187);stroke:black;stroke-width:0.21px;stroke-linecap:butt;stroke-linejoin:miter;"/>
            </g>
            <g transform="matrix(1,0,0,1,317.29,139.937)">
                <path d="M0,273.776L109.808,273.776M109.808,273.776L109.808,80.816M58.4,41.703L-52.282,0M-51.797,0.487L-51.797,81.302M-52.282,80.816L-103.15,80.816M-103.15,80.816L-103.15,223.898" style="fill:none;fill-rule:nonzero;stroke:rgb(60,123,187);stroke-width:2.07px;stroke-linecap:butt;stroke-linejoin:bevel;stroke-dasharray:10.33,6.2;"/>
            </g>
            <g transform="matrix(1,0,0,1,230.698,410.207)">
                <path d="M0,-185.978C0,-178.623 -5.963,-172.66 -13.318,-172.66C-20.673,-172.66 -26.636,-178.623 -26.636,-185.978C-26.636,-193.334 -20.673,-199.296 -13.318,-199.296C-5.963,-199.296 0,-193.334 0,-185.978ZM0,-155.674C0,-148.319 -5.963,-142.356 -13.318,-142.356C-20.673,-142.356 -26.636,-148.319 -26.636,-155.674C-26.636,-163.03 -20.673,-168.993 -13.318,-168.993C-5.963,-168.993 0,-163.03 0,-155.674ZM0,-127.658C0,-120.303 -5.963,-114.34 -13.318,-114.34C-20.673,-114.34 -26.636,-120.303 -26.636,-127.658C-26.636,-135.014 -20.673,-140.976 -13.318,-140.976C-5.963,-140.976 0,-135.014 0,-127.658ZM0,-99.641C0,-92.286 -5.963,-86.325 -13.318,-86.325C-20.673,-86.325 -26.636,-92.286 -26.636,-99.641C-26.636,-106.997 -20.673,-112.96 -13.318,-112.96C-5.963,-112.96 0,-106.997 0,-99.641ZM0,-49.899C0,-42.543 -5.963,-36.58 -13.318,-36.58C-20.673,-36.58 -26.636,-42.543 -26.636,-49.899C-26.636,-57.254 -20.673,-63.216 -13.318,-63.216C-5.963,-63.216 0,-57.254 0,-49.899ZM51.459,-49.899C51.459,-42.543 45.496,-36.58 38.141,-36.58C30.785,-36.58 24.822,-42.543 24.822,-49.899C24.822,-57.254 30.785,-63.216 38.141,-63.216C45.496,-63.216 51.459,-57.254 51.459,-49.899ZM103.326,0C103.326,7.356 97.363,13.318 90.008,13.318C82.653,13.318 76.689,7.356 76.689,0C76.689,-7.354 82.653,-13.318 90.008,-13.318C97.363,-13.318 103.326,-7.354 103.326,0ZM206.385,-49.682C206.385,-42.327 200.421,-36.365 193.066,-36.365C185.71,-36.365 179.749,-42.327 179.749,-49.682C179.749,-57.038 185.71,-63 193.066,-63C200.421,-63 206.385,-57.038 206.385,-49.682ZM206.295,-99.76C206.295,-92.405 200.332,-86.442 192.976,-86.442C185.621,-86.442 179.658,-92.405 179.658,-99.76C179.658,-107.115 185.621,-113.078 192.976,-113.078C200.332,-113.078 206.295,-107.115 206.295,-99.76ZM206.295,-156.076C206.295,-148.721 200.332,-142.759 192.976,-142.759C185.621,-142.759 179.658,-148.721 179.658,-156.076C179.658,-163.431 185.621,-169.395 192.976,-169.395C200.332,-169.395 206.295,-163.431 206.295,-156.076Z" style="fill:none;fill-rule:nonzero;stroke:rgb(229,45,37);stroke-width:1.24px;stroke-linecap:butt;stroke-linejoin:miter;"/>
            </g>
            <g transform="matrix(1,0,0,1,437.322,164.534)">
                <path d="M0,245.726C0,253.081 -5.964,259.043 -13.32,259.043C-20.674,259.043 -26.637,253.081 -26.637,245.726C-26.637,238.37 -20.674,232.406 -13.32,232.406C-5.964,232.406 0,238.37 0,245.726ZM-103.423,0.002C-103.423,7.357 -109.387,13.319 -116.741,13.319C-124.097,13.319 -130.059,7.357 -130.059,0.002C-130.059,-7.354 -124.097,-13.317 -116.741,-13.317C-109.387,-13.317 -103.423,-7.354 -103.423,0.002ZM-51.426,19.542C-51.426,26.897 -57.388,32.859 -64.744,32.859C-72.099,32.859 -78.062,26.897 -78.062,19.542C-78.062,12.187 -72.099,6.223 -64.744,6.223C-57.388,6.223 -51.426,12.187 -51.426,19.542Z" style="fill:none;fill-rule:nonzero;stroke:rgb(100,188,70);stroke-width:1.24px;stroke-dasharray:4.13,4.13;"/>
            </g>
            <g transform="matrix(1,0,0,1,375.69,220.458)">
                <path d="M0,-38.819L0,-0.547M0,0L51.408,0" style="fill:none;fill-rule:nonzero;stroke:rgb(60,123,187);stroke-width:2.07px;stroke-linecap:butt;stroke-linejoin:bevel;stroke-dasharray:10.33,6.2;"/>
            </g>
            <g transform="matrix(0,1,1,0,307.588,185.535)">
                <path d="M-35.218,-35.218L35.218,-35.218" style="fill:none;fill-rule:nonzero;stroke:black;stroke-width:0.37px;stroke-linecap:butt;stroke-linejoin:miter;"/>
            </g>
            <g transform="matrix(0,-1,-1,0,269.115,210.669)">
                <circle cx="-13.318" cy="0.001" r="13.318" style="fill:none;stroke:rgb(229,45,37);stroke-width:1.24px;stroke-linecap:butt;stroke-linejoin:miter;"/>
            </g>
            <g transform="matrix(0,1,1,0,390.37,385.337)">
                <path d="M-21.503,-21.503L21.503,-21.503" style="fill:none;fill-rule:nonzero;stroke:black;stroke-width:0.37px;"/>
            </g>
            <g transform="matrix(1,0,0,1,385.73,145.48)">
                <path d="M0,264.947C0,272.301 -5.963,278.264 -13.319,278.264C-20.674,278.264 -26.636,272.301 -26.636,264.947C-26.636,257.591 -20.674,251.627 -13.319,251.627C-5.963,251.627 0,257.591 0,264.947ZM-102.648,0.002C-102.648,7.357 -108.611,13.319 -115.966,13.319C-123.322,13.319 -129.283,7.357 -129.283,0.002C-129.283,-7.354 -123.322,-13.317 -115.966,-13.317C-108.611,-13.317 -102.648,-7.354 -102.648,0.002Z" style="fill:none;fill-rule:nonzero;stroke:rgb(100,188,70);stroke-width:1.24px;stroke-dasharray:4.13,4.13;"/>
            </g>
            <g transform="matrix(1,0,0,1,317.254,357.225)">
                <path d="M0,6.657L-9.559,6.657L-9.692,6.096L-9.819,5.411L-9.91,4.721L-9.964,4.026L-9.982,3.33L-9.964,2.632L-9.91,1.939L-9.819,1.247L-9.692,0.562L-9.559,0.003L0,0.003L0,-9.558L0.56,-9.69L1.246,-9.817L1.936,-9.908L2.631,-9.962L3.328,-9.981L4.024,-9.962L4.719,-9.908L5.409,-9.817L6.094,-9.69L6.655,-9.558L6.655,0.003L16.214,0.003L16.346,0.562L16.474,1.247L16.565,1.939L16.62,2.632L16.636,3.33L16.62,4.026L16.565,4.721L16.474,5.411L16.346,6.096L16.214,6.657L6.655,6.657L6.655,16.217L6.094,16.348L5.409,16.475L4.719,16.566L4.024,16.62L3.328,16.638L2.631,16.62L1.936,16.566L1.246,16.475L0.56,16.348L0,16.217L0,6.657Z" style="fill:rgb(70,72,75);fill-rule:nonzero;"/>
            </g>
            <g transform="matrix(0,-1,-1,0,372.109,210.782)">
                <circle cx="-13.318" cy="0" r="13.318" style="fill:none;stroke:rgb(100,188,70);stroke-width:1.24px;stroke-dasharray:4.13,4.13;"/>
            </g>
            <g transform="matrix(0,-1,-1,0,423.854,210.635)">
                <ellipse cx="-13.318" cy="0.001" rx="13.318" ry="13.318" style="fill:none;stroke:rgb(229,45,37);stroke-width:1.24px;stroke-linecap:butt;stroke-linejoin:miter;"/>
            </g>
            <g transform="matrix(0,-1,-1,0,320.572,347.584)">
                <clipPath id="_clip2">
                    <path d="M-16.539,38.967L-17.324,39.201L-17.979,39.433L-18.623,39.698L-19.253,39.999L-19.865,40.331L-20.459,40.695L-21.036,41.09L-21.587,41.513L-22.117,41.967L-22.621,42.447L-23.101,42.952L-23.554,43.482L-23.978,44.034L-24.374,44.61L-24.737,45.204L-25.071,45.815L-25.371,46.445L-25.635,47.088L-25.869,47.744L-26.102,48.531L-59.762,48.531L-59.762,13.159L-58.977,12.927L-58.322,12.693L-57.676,12.426L-57.047,12.127L-56.434,11.795L-55.841,11.43L-55.267,11.036L-54.714,10.611L-54.183,10.158L-53.679,9.679L-53.198,9.173L-52.746,8.644L-52.322,8.091L-51.926,7.518L-51.564,6.922L-51.231,6.31L-50.931,5.681L-50.663,5.038L-50.431,4.38L-50.202,3.609L-16.539,3.609L-16.539,38.967Z" clip-rule="nonzero"/>
                </clipPath>
                <g clip-path="url(#_clip2)">
                    <path d="M-13.319,-13.319C-20.674,-13.319 -26.637,-7.357 -26.637,-0.001C-26.637,7.356 -20.674,13.319 -13.319,13.319C-5.963,13.319 -0.001,7.356 -0.001,-0.001C-0.001,-7.357 -5.963,-13.319 -13.319,-13.319" style="fill:white;fill-rule:nonzero;"/>
                </g>
            </g>
            <g transform="matrix(-1,0,0,1,320.939,373.802)">
                <clipPath id="_clip3">
                    <path d="M-3.221,-9.709L-3.221,25.649L-4.005,25.882L-4.661,26.114L-5.305,26.38L-5.935,26.681L-6.547,27.012L-7.141,27.377L-7.717,27.771L-8.268,28.196L-8.798,28.649L-9.303,29.128L-9.783,29.633L-10.236,30.163L-10.66,30.716L-11.055,31.291L-11.419,31.884L-11.752,32.497L-12.052,33.126L-12.318,33.77L-12.551,34.427L-12.784,35.212L-46.444,35.212L-46.444,-0.16L-45.659,-0.392L-45.002,-0.625L-44.358,-0.892L-43.729,-1.193L-43.116,-1.524L-42.521,-1.888L-41.948,-2.283L-41.395,-2.707L-40.865,-3.16L-40.361,-3.64L-39.88,-4.146L-39.428,-4.675L-39.003,-5.227L-38.608,-5.801L-38.245,-6.396L-37.913,-7.008L-37.612,-7.639L-37.346,-8.279L-37.113,-8.938L-36.884,-9.709L-3.221,-9.709Z" clip-rule="nonzero"/>
                </clipPath>
                <g clip-path="url(#_clip3)">
                    <path d="M0,-26.637C-7.356,-26.637 -13.318,-20.674 -13.318,-13.319C-13.318,-5.963 -7.356,0 0,0C7.356,0 13.318,-5.963 13.318,-13.319C13.318,-20.674 7.356,-26.637 0,-26.637" style="fill:white;fill-rule:nonzero;"/>
                </g>
            </g>
            <g transform="matrix(0,1,1,0,320.604,346.803)">
                <clipPath id="_clip4">
                    <path d="M-33.126,13.16L-32.34,12.927L-31.684,12.694L-31.039,12.427L-30.41,12.128L-29.797,11.795L-29.203,11.43L-28.63,11.036L-28.077,10.612L-27.547,10.159L-27.042,9.68L-26.562,9.174L-26.109,8.644L-25.685,8.091L-25.29,7.518L-24.927,6.923L-24.594,6.311L-24.294,5.682L-24.027,5.039L-23.795,4.382L-23.566,3.61L10.098,3.61L10.098,38.968L9.313,39.201L8.657,39.434L8.013,39.699L7.383,40L6.772,40.332L6.177,40.697L5.602,41.091L5.051,41.515L4.519,41.967L4.015,42.447L3.535,42.953L3.082,43.482L2.659,44.035L2.264,44.611L1.9,45.205L1.566,45.816L1.267,46.446L1.001,47.089L0.767,47.745L0.534,48.532L-33.126,48.532L-33.126,13.16Z" clip-rule="nonzero"/>
                </clipPath>
                <g clip-path="url(#_clip4)">
                    <path d="M13.319,-13.319C5.963,-13.319 0.001,-7.356 0.001,0C0.001,7.356 5.963,13.319 13.319,13.319C20.675,13.319 26.637,7.356 26.637,0C26.637,-7.356 20.675,-13.319 13.319,-13.319" style="fill:white;fill-rule:nonzero;"/>
                </g>
            </g>
            <g transform="matrix(1,0,0,1,320.331,347.289)">
                <clipPath id="_clip5">
                    <path d="M-46.444,-35.213L-46.444,0.16L-45.657,0.392L-45.001,0.625L-44.358,0.892L-43.729,1.192L-43.117,1.524L-42.521,1.889L-41.948,2.283L-41.395,2.707L-40.865,3.16L-40.36,3.639L-39.879,4.145L-39.427,4.674L-39.003,5.227L-38.608,5.801L-38.244,6.396L-37.912,7.008L-37.611,7.637L-37.346,8.28L-37.113,8.938L-36.884,9.709L-3.22,9.709L-3.22,-25.649L-4.005,-25.882L-4.661,-26.115L-5.306,-26.381L-5.935,-26.682L-6.547,-27.014L-7.14,-27.378L-7.715,-27.772L-8.268,-28.196L-8.798,-28.649L-9.304,-29.129L-9.783,-29.635L-10.236,-30.164L-10.658,-30.716L-11.054,-31.291L-11.419,-31.886L-11.752,-32.498L-12.051,-33.127L-12.318,-33.77L-12.55,-34.427L-12.783,-35.213L-46.444,-35.213Z" clip-rule="nonzero"/>
                </clipPath>
                <g clip-path="url(#_clip5)">
                    <path d="M0,26.637C-7.356,26.637 -13.319,20.674 -13.319,13.318C-13.319,5.963 -7.356,0 0,0C7.356,0 13.318,5.963 13.318,13.318C13.318,20.674 7.356,26.637 0,26.637" style="fill:white;fill-rule:nonzero;"/>
                </g>
            </g>
            <g transform="matrix(1,0,0,1,368.868,313.922)">
                <path d="M0,43.258L-44.922,43.258M-44.922,43.258L-44.922,0" style="fill:none;fill-rule:nonzero;stroke:black;stroke-width:0.37px;"/>
            </g>
            <g transform="matrix(0,1,1,0,334.125,380.669)">
                <path d="M-16.834,-16.834L16.834,-16.834" style="fill:none;fill-rule:nonzero;stroke:black;stroke-width:0.37px;stroke-dasharray:1347.01,269.4,269.4,269.4;"/>
            </g>
            <g transform="matrix(1,0,0,1,317.291,357.18)">
                <path d="M0,-43.258L0,0M0,0L-26.619,0" style="fill:none;fill-rule:nonzero;stroke:black;stroke-width:0.37px;"/>
            </g>
            <g transform="matrix(1,0,0,1,214.139,363.835)">
                <path d="M0,0L103.152,0" style="fill:none;fill-rule:nonzero;stroke:black;stroke-width:0.37px;stroke-dasharray:1347.01,269.4,269.4,269.4;"/>
            </g>
            <g transform="matrix(1,0,0,1,214.139,363.835)">
                <path d="M0,0L103.152,0" style="fill:none;fill-rule:nonzero;stroke:rgb(60,123,187);stroke-width:2.07px;stroke-linecap:butt;stroke-linejoin:bevel;stroke-dasharray:10.33,6.2;"/>
            </g>
            <g transform="matrix(1,0,0,1,323.946,407.058)">
                <path d="M0,-43.223L0,0M44.922,-43.223L0,-43.223" style="fill:none;fill-rule:nonzero;stroke:black;stroke-width:0.37px;"/>
            </g>
            <g transform="matrix(0,1,1,0,338.903,385.446)">
                <path d="M-21.612,-21.612L21.612,-21.612" style="fill:none;fill-rule:nonzero;stroke:rgb(60,123,187);stroke-width:2.07px;stroke-linecap:butt;stroke-linejoin:bevel;stroke-dasharray:10.33,6.2;"/>
            </g>
            <g transform="matrix(0,-1,-1,0,320.81,347.506)">
                <ellipse cx="-13.319" cy="-0.001" rx="13.319" ry="13.319" style="fill:none;stroke:rgb(229,45,37);stroke-width:1.24px;stroke-linecap:butt;stroke-linejoin:miter;"/>
            </g>
            <g transform="matrix(1,0,0,1,323.946,313.922)">
                <path d="M0,0L44.922,0" style="fill:none;fill-rule:nonzero;stroke:black;stroke-width:0.37px;"/>
            </g>
            <g>
                <text x="232.238px" y="187.343px" style="font-family:'Helvetica';font-size:10px;fill:rgb(35,31,32);">1<tspan x="238.05px 241.078px " y="187.343px 187.343px ">.2</tspan></text>
                <text x="232.238px" y="198.843px" style="font-family:'Helvetica';font-size:10px;fill:rgb(35,31,32);">1<tspan x="238.05px 241.078px " y="198.843px 198.843px ">.3</tspan></text>
                <text x="232.238px" y="210.343px" style="font-family:'Helvetica';font-size:10px;fill:rgb(35,31,32);">3.1</text>
                <text x="232.238px" y="258.003px" style="font-family:'Helvetica';font-size:10px;fill:rgb(35,31,32);">5<tspan x="238.05px 241.078px " y="258.003px 258.003px ">.1</tspan></text>
                <text x="232.238px" y="269.503px" style="font-family:'Helvetica';font-size:10px;fill:rgb(35,31,32);">b<tspan x="238.609px 241.64px " y="269.503px 269.503px ">is</tspan></text>
                <text x="232.238px" y="281.003px" style="font-family:'Helvetica';font-size:10px;fill:rgb(35,31,32);">5.3</text>
            </g>
            <text x="280.63px" y="210.425px" style="font-family:'Helvetica';font-size:10px;fill:rgb(35,31,32);">3.1</text>
            <text x="382.677px" y="210.425px" style="font-family:'Helvetica';font-size:10px;fill:rgb(35,31,32);">3.3</text>
            <text x="232.238px" y="348.006px" style="font-family:'Helvetica';font-size:10px;fill:rgb(35,31,32);">3.4</text>
            <text x="232.238px" y="325.506px" style="font-family:'Helvetica';font-size:10px;fill:rgb(35,31,32);">1.1</text>
            <text x="280.63px" y="348.006px" style="font-family:'Helvetica';font-size:10px;fill:rgb(35,31,32);">2.2</text>
            <text x="332.059px" y="348.006px" style="font-family:'Helvetica';font-size:10px;fill:rgb(35,31,32);">2.2</text>
            <text x="395.231px" y="348.006px" style="font-family:'Helvetica';font-size:10px;fill:rgb(35,31,32);">3.4</text>
            <text x="395.231px" y="298.096px" style="font-family:'Helvetica';font-size:10px;fill:rgb(35,31,32);">2.1</text>
            <text x="395.231px" y="268.94px" style="font-family:'Helvetica';font-size:10px;fill:rgb(35,31,32);">5.1</text>
            <text x="332.059px" y="398.119px" style="font-family:'Helvetica';font-size:10px;fill:rgb(35,31,32);">2.4</text>
        </g>
    </g>
</svg>
