<?xml version="1.0" encoding="UTF-8" standalone="no"?>
<!DOCTYPE svg PUBLIC "-//W3C//DTD SVG 1.1//EN" "http://www.w3.org/Graphics/SVG/1.1/DTD/svg11.dtd">
<svg width="100%" height="100%" viewBox="0 0 601 415" version="1.1" xmlns="http://www.w3.org/2000/svg" xmlns:xlink="http://www.w3.org/1999/xlink" xml:space="preserve" xmlns:serif="http://www.serif.com/" style="fill-rule:evenodd;clip-rule:evenodd;stroke-miterlimit:10;">
    <g transform="matrix(1,0,0,1,-1386,-2153)">
        <g transform="matrix(2,0,0,2,1339.37,1894.25)">
            <rect id="Page-8" serif:id="Page 8" x="0" y="0" width="595.276" height="841.89" style="fill:none;"/>
            <g id="Page-81" serif:id="Page 8">
                <g transform="matrix(-1,0,0,1,567.206,-530.945)">
                    <rect x="245.3" y="671.554" width="76.606" height="29.727" style="fill:rgb(235,218,46);"/>
                </g>
                <g transform="matrix(-1,0,0,1,591.205,-455.889)">
                    <rect x="269.299" y="626.227" width="52.607" height="45.325" style="fill:rgb(103,108,111);"/>
                </g>
                <g transform="matrix(1,0,0,1,267.342,218.098)">
                    <path d="M0,-30.218L1.956,-30.218L1.956,-2.436L54.564,-2.436L54.564,0L0,0L0,-2.436" style="fill:rgb(147,150,153);fill-rule:nonzero;"/>
                </g>
                <g transform="matrix(1,0,0,1,238.954,176.673)">
                    <path d="M0,-3.411L1.949,-3.411L1.462,-2.924L0.975,-2.924L0.975,-0.488L1.949,-0.488L1.949,0L0,0L0,-0.488L0.487,-0.488L0.487,-2.924L-2.928,-2.924L-2.928,-1.462L-1.951,-1.462L-2.439,-0.975L-2.928,-0.975L-2.928,-2.924L-5.851,-2.924L-5.851,-2.437L-6.338,-1.462L-5.851,-1.462L-5.851,-0.975L-6.828,-0.975L-6.828,-1.462L-5.851,-3.411" style="fill:white;fill-rule:nonzero;"/>
                </g>
                <g transform="matrix(1,0,0,1,243.342,192.755)">
                    <path d="M0,-22.419L25.846,-22.419L25.846,-4.875L10.728,-4.875L10.728,0L-10.239,0L-10.239,-0.49L-12.677,-7.798L-12.677,-8.283L-10.726,-8.283L-10.726,-7.798L-9.754,-7.798L-10.239,-7.798L-10.239,-8.283L-8.29,-8.283L-8.29,-8.772L-7.801,-8.772L-7.315,-8.283L-7.801,-8.772L-9.262,-8.772L-7.801,-8.772L-7.801,-15.596L-8.29,-15.596L-7.801,-15.596L-8.29,-15.596L-8.29,-16.57L-9.262,-16.57L-9.262,-17.057L-10.726,-17.057L-10.239,-17.057L-10.239,-17.542L-10.726,-17.542L-10.239,-18.519L-10.239,-19.006L-7.315,-19.006L-7.315,-17.057L-6.826,-17.057L-6.339,-17.542L-7.315,-17.542L-7.315,-19.006L-3.9,-19.006L-3.9,-16.57L-4.388,-16.57L-4.388,-16.083L-2.439,-16.083L-2.439,-16.57L-3.413,-16.57L-3.413,-19.006L-2.926,-19.006L-2.439,-19.496L-4.875,-19.496L-3.413,-22.419" style="fill:rgb(217,176,117);fill-rule:nonzero;"/>
                </g>
                <g transform="matrix(1,0,0,1,229.691,184.957)">
                    <path d="M0,-0.974L0.484,-0.487L0.484,0L0.975,0L0.975,-0.487L2.926,-0.487L2.926,0L3.412,0L3.412,-0.487L5.361,-0.487L5.361,-0.974L5.851,-0.974L0,-0.974ZM5.851,-0.974L6.336,-0.487L5.851,-0.974ZM3.412,0L3.898,0L3.412,0Z" style="fill:white;fill-rule:nonzero;"/>
                </g>
                <g transform="matrix(1,0,0,1,0,-480.748)">
                    <rect x="179.257" y="657.907" width="56.282" height="6.824" style="fill:rgb(176,220,232);"/>
                </g>
                <g transform="matrix(1,0,0,1,231.639,175.697)">
                    <path d="M0,0.975L-0.487,1.462L0.487,1.462L0.487,0.975L0,0.975ZM0.487,-0.487L0.487,0L2.441,0L2.441,0.488L3.413,0.488L3.413,1.462L3.9,1.462L2.441,1.462L3.413,1.462L2.926,1.462L2.441,0.975L2.441,1.462L-0.974,1.462L-0.487,1.462L-0.487,0.488L0,0.488L0,-0.487" style="fill:white;fill-rule:nonzero;"/>
                </g>
                <g transform="matrix(1,0,0,1,232.126,175.21)">
                    <path d="M0,0.487L0.49,0.487L0,0.487L0,0L0,0.487Z" style="fill-rule:nonzero;"/>
                </g>
                <g transform="matrix(1,0,0,1,244.736,174.686)">
                    <path d="M0,-0.001L-0.691,-0.001L-1.38,0.63L-1.38,-0.001L-1.38,0.63L-2.07,1.261L1.381,1.261L1.381,0.63L0.689,0.63L0,-0.001ZM0,-5.686L0,-5.056L0,-5.686L0.564,-5.053L0.601,-4.422L0,-4.422L0,-0.632L2.761,-0.632L2.761,1.895L4.141,1.895L4.141,1.261L4.829,1.261L5.52,1.895L5.52,2.526L4.829,2.526L4.141,3.16L4.141,2.526L2.761,2.526L2.761,5.053L2.069,5.053L2.761,5.685L3.449,5.685L0.689,5.685L1.381,4.42L1.381,1.895L-2.07,1.895L-1.38,1.895L-4.14,1.895L-2.76,1.895L-2.07,0.63L-2.07,-0.001L-1.38,-0.001L-0.691,-0.632L-1.38,-0.632L-1.38,-4.422L-0.691,-4.422L-0.691,-5.686" style="fill:white;fill-rule:nonzero;"/>
                </g>
                <g transform="matrix(1,0,0,1,0,-489.361)">
                    <rect x="247.496" y="665.309" width="1.38" height="0.633" style="fill:white;"/>
                </g>
                <g transform="matrix(1,0,0,1,233.103,175.211)">
                    <path d="M0,-1.462L0.486,-1.462L0,-1.462ZM0,-1.462L0,-0.975L0,-1.462ZM-0.486,0L0,-0.975L-0.486,0Z" style="fill-rule:nonzero;"/>
                </g>
                <g transform="matrix(1,0,0,1,233.103,173.749)">
                    <path d="M0,0L0.486,0L0,0Z" style="fill:rgb(15,107,179);fill-rule:nonzero;"/>
                </g>
                <g transform="matrix(1,0,0,1,234.08,176.672)">
                    <path d="M0,0.487L-1.954,0.487L0.974,0.487L0.485,0.487L0,0L0,0.487Z" style="fill-rule:nonzero;"/>
                </g>
                <g transform="matrix(1,0,0,1,244.736,175.947)">
                    <path d="M0,-1.262L0.689,-0.631L1.381,-0.631L1.381,0L-2.07,0L-1.38,-0.631L-1.38,-1.262L-1.38,-0.631L-0.691,-1.262" style="fill:white;fill-rule:nonzero;"/>
                </g>
                <g transform="matrix(1,0,0,1,242.665,176.581)">
                    <path d="M0,0L3.449,0L0,0Z" style="fill:rgb(15,107,179);fill-rule:nonzero;"/>
                </g>
                <g transform="matrix(1,0,0,1,232.126,183.983)">
                    <path d="M1.462,0L-0.487,0L1.462,0Z" style="fill-rule:nonzero;"/>
                </g>
                <g transform="matrix(1,0,0,1,232.126,184.957)">
                    <path d="M0.49,-0.487L-1.461,-0.487L0.49,-0.487ZM0.49,-0.487L0.49,0L1.462,0L0.49,0L0.49,-0.487Z" style="fill-rule:nonzero;"/>
                </g>
                <g transform="matrix(1,0,0,1,321.906,170.335)">
                    <path d="M0,-32.164L0,-29.728L-76.606,-29.728L-76.606,0L-78.564,0L-78.564,-32.164L-76.606,-32.164" style="fill:rgb(147,150,153);fill-rule:nonzero;"/>
                </g>
                <g transform="matrix(1,0,0,1,233.103,173.749)">
                    <path d="M0,0.487L0,0L0,0.487Z" style="fill-rule:nonzero;"/>
                </g>
                <g transform="matrix(1,0,0,1,248.185,177.843)">
                    <rect x="-0.691" y="-0.631" width="1.379" height="0.631" style="fill:white;fill-rule:nonzero;"/>
                </g>
                <g transform="matrix(1,0,0,1,248.873,175.947)">
                    <path d="M0,1.896L0.691,1.265L1.38,1.265L1.38,0.634L0.691,0L1.38,0L1.38,1.896" style="fill:white;fill-rule:nonzero;"/>
                </g>
                <g transform="matrix(1,0,0,1,247.496,186.685)">
                    <path d="M0,-6.314L-0.691,-6.945L0,-6.945L0,-7.579L0,-6.945L1.38,-6.945L1.38,-5.683L2.068,-5.052L4.14,-5.052L4.14,-3.787L6.209,-3.787L6.209,-1.26L4.14,-1.26L4.14,0.636L4.828,0.636L4.828,1.265L0,1.265L0,0.636L-1.38,0.636L-1.38,0.003L-5.52,0.003L-5.52,-3.787L-1.38,-3.787L-1.38,-4.418L-0.691,-4.418L-0.691,-6.314L0.689,-6.314" style="fill:white;fill-rule:nonzero;"/>
                </g>
                <g transform="matrix(1,0,0,1,253.016,187.95)">
                    <path d="M1.38,0L-0.691,0L1.38,0Z" style="fill-rule:nonzero;"/>
                </g>
                <g transform="matrix(1,0,0,1,242.665,180.373)">
                    <path d="M0,-3.792L3.448,-3.792L3.448,-1.267L2.76,0L0.69,0L0.69,-3.161L0,-3.792L-2.069,-3.792" style="fill:white;fill-rule:nonzero;"/>
                </g>
                <g transform="matrix(1,0,0,1,231.639,177.159)">
                    <path d="M0,-0.487L-0.488,0L0.487,0L0.487,-0.487L0,-0.487Z" style="fill-rule:nonzero;"/>
                </g>
                <g transform="matrix(1,0,0,1,230.665,183.983)">
                    <path d="M0.486,0L-0.488,0L0.486,0Z" style="fill-rule:nonzero;"/>
                </g>
                <g transform="matrix(-1,0,0,1,269.299,170.336)">
                    <path d="M-52.607,0L0,0" style="fill:none;fill-rule:nonzero;stroke:black;stroke-width:0.22px;"/>
                </g>
                <g transform="matrix(1,0,0,1,269.185,140.608)">
                    <path d="M0,29.728L-5.849,29.728M-5.849,29.728L-9.751,29.728M-9.751,29.728L-11.7,29.728M-11.7,29.728L-15.604,29.728M-15.602,29.728L-20.479,29.728M-20.479,29.728L-23.892,29.728M-23.892,29.728L-23.892,0" style="fill:none;fill-rule:nonzero;stroke:black;stroke-width:0.22px;stroke-linecap:square;"/>
                </g>
                <g transform="matrix(1,0,0,1,245.3,215.662)">
                    <path d="M0,-75.055L76.606,-75.055M76.606,0L23.998,0" style="fill:none;fill-rule:nonzero;stroke:black;stroke-width:0.22px;"/>
                </g>
                <g transform="matrix(1,0,0,1,269.185,170.336)">
                    <path d="M0,45.327L0,17.545M0,17.545L0,17.06M0,17.06L0,4.387M0,4.385L0,0M-1.949,17.545L0,17.545M-30.23,2.926L-29.743,2.926M-29.743,2.926L-28.769,2.926M-28.769,2.926L-28.279,2.926M-28.281,2.926L-28.769,3.413M-28.769,3.413L-29.256,3.413M-29.256,3.413L-29.256,5.849M-29.256,5.849L-28.281,5.849M-28.281,5.849L-28.281,6.337M-28.281,6.337L-30.23,6.337M-30.23,6.337L-30.23,5.849M-30.23,5.849L-29.743,5.849M-29.743,5.849L-29.743,3.413M-29.743,3.413L-33.156,3.413M-33.158,3.413L-33.158,4.875M-33.158,4.875L-32.669,4.875M-32.669,4.875L-32.182,4.875M-32.182,4.875L-32.669,5.362M-32.669,5.362L-33.158,5.362M-33.158,5.362L-33.158,3.413M-33.158,3.413L-35.597,3.413M-35.597,3.413L-36.082,3.413M-36.082,3.9L-36.568,4.875M-36.568,4.875L-36.082,4.875M-36.082,4.875L-36.082,5.362M-36.082,5.362L-36.568,5.362M-36.568,5.362L-37.059,5.362M-37.059,5.362L-37.059,4.875M-25.843,0L-23.892,0M-38.519,14.621L-38.519,14.134M-38.519,14.134L-37.059,14.134M-36.568,14.134L-36.568,14.621M-35.597,14.621L-36.082,14.621M-36.082,14.621L-36.082,14.134M-36.082,14.134L-35.597,14.134M-35.597,14.134L-35.104,14.134M-35.107,14.134L-34.133,14.134M-34.133,14.134L-34.133,13.647M-34.133,13.647L-33.644,13.647M-33.645,13.647L-33.156,14.134M-33.158,14.134L-33.645,13.647M-33.645,13.647L-34.133,13.647M-34.133,13.647L-35.107,13.647M-35.107,13.647L-33.645,13.647M-33.645,13.647L-33.645,12.673M-33.645,12.67L-33.645,7.798M-33.645,7.798L-33.645,6.824M-33.645,6.824L-34.133,6.824M-34.133,6.824L-33.644,6.824M-33.645,6.824L-34.133,6.824M-34.133,6.824L-34.133,6.337M-34.133,6.337L-34.133,5.849M-34.133,5.849L-34.62,5.849M-34.62,5.849L-35.107,5.849M-35.107,5.849L-35.107,5.362M-35.107,5.362L-35.597,5.362M-35.597,5.362L-36.082,5.362M-36.082,5.362L-36.568,5.362M-36.568,4.875L-36.082,3.9M-39.494,13.647L-39.01,13.647M-39.01,13.647L-38.519,13.647M-38.519,13.647L-38.033,13.647M-38.033,13.647L-37.546,13.647M-37.546,13.647L-37.059,13.647M-37.059,13.647L-35.597,13.647M-35.597,13.647L-35.104,13.647M-35.597,14.621L-36.082,14.621M-36.082,14.621L-36.568,14.621M-37.059,14.134L-38.519,14.134M-38.519,6.824L-37.546,6.824M-37.546,6.824L-37.059,6.824M-35.107,6.824L-34.62,6.824M-34.62,6.824L-34.131,6.824M-38.519,13.647L-39.01,13.647M-37.059,4.875L-37.059,5.362M-35.107,6.824L-34.62,6.824M-34.133,6.824L-34.62,6.824M-35.107,6.824L-35.597,6.824M-35.597,6.824L-36.082,6.824M-36.082,6.824L-36.568,6.824M-36.568,6.824L-37.059,6.824" style="fill:none;fill-rule:nonzero;stroke:black;stroke-width:0.22px;stroke-linecap:square;"/>
                </g>
                <g transform="matrix(1,0,0,1,232.126,173.475)">
                    <path d="M11.229,-1.946L11.229,-3.211M11.229,-1.317L11.229,-1.946M11.229,0.579L11.229,-1.317M11.919,0.579L11.229,0.579M11.229,1.21L11.919,0.579M10.539,1.21L11.229,1.21M10.539,1.841L10.539,1.21M9.85,3.106L10.539,1.841M9.158,3.106L9.85,3.106M11.229,3.106L10.539,3.106M10.539,3.106L11.229,3.106M11.229,3.106L10.539,3.106M13.987,3.106L11.229,3.106M13.987,4.999L13.987,3.106M13.987,5.631L13.987,4.999M13.299,6.895L13.987,5.631M14.679,6.895L13.299,6.895M16.059,6.895L14.679,6.895M14.679,6.264L15.37,6.895M15.37,6.264L14.679,6.264M15.37,5.631L15.37,6.264M15.37,4.368L15.37,5.631M15.37,3.737L15.37,4.368M16.059,3.737L15.37,3.737M16.747,4.368L16.747,3.737M17.438,3.737L16.747,4.368M18.13,3.737L17.438,3.737M18.13,3.106L18.13,3.737M17.438,2.475L18.127,3.106M16.747,2.475L17.438,2.475M16.747,3.106L16.747,2.475M15.37,3.106L16.75,3.106M15.37,2.475L15.37,3.106M15.37,1.21L15.37,2.472M15.37,0.579L15.37,1.21M14.679,0.579L15.37,0.579M12.609,0.579L14.679,0.579M12.609,-0.053L12.609,0.576M12.609,-2.58L12.609,-0.053" style="fill:none;fill-rule:nonzero;stroke:black;stroke-width:0.22px;stroke-linecap:square;"/>
                </g>
                <g transform="matrix(0,1,1,0,245.051,170.58)">
                    <path d="M-0.316,-0.316L0.316,-0.316" style="fill:none;fill-rule:nonzero;stroke:black;stroke-width:0.22px;"/>
                </g>
                <g transform="matrix(1,0,0,1,244.736,191.435)">
                    <path d="M5.52,-13.592L4.141,-13.592M5.52,-14.854L5.52,-14.223M5.52,-15.485L5.52,-14.854M2.069,-9.171L2.069,-11.064M1.378,-9.171L2.066,-9.171M1.378,-8.537L1.378,-9.168M-2.76,-8.537L1.381,-8.537M-2.76,-4.748L-2.76,-8.537M1.378,-4.748L-2.762,-4.748M1.378,-4.117L1.378,-4.748M2.069,-4.117L1.381,-4.117M2.761,-4.117L2.069,-4.117M2.761,-3.485L2.761,-4.114M8.28,-3.485L7.589,-3.485M8.97,-3.485L8.28,-3.485M8.28,-3.485L9.327,-3.485M7.589,-3.485L8.28,-3.485M7.589,-4.117L7.589,-3.485M6.9,-4.117L7.589,-4.117M6.9,-6.01L6.9,-4.117M7.589,-6.01L6.9,-6.01M8.97,-6.01L7.589,-6.01M8.97,-8.537L8.97,-6.01M7.589,-8.537L8.97,-8.537M6.9,-8.537L7.589,-8.537M6.9,-9.802L6.9,-8.537M4.829,-9.802L6.9,-9.802M4.138,-10.433L4.829,-9.802M4.138,-11.696L4.138,-10.433M3.449,-11.696L4.138,-11.696M2.761,-11.696L3.449,-11.696M2.761,-12.329L2.761,-11.696M-1.38,-14.223L-2.07,-14.854M-1.38,-11.696L-1.38,-14.223M-1.38,-11.064L-1.38,-11.696M-1.38,-14.854L1.378,-14.854M-11.633,-17.199L-11.633,-17.686M-11.633,-17.686L-11.148,-17.686M-13.097,-14.276L-13.584,-14.276M-12.609,-14.276L-13.097,-14.276M-0.691,-16.75L-0.002,-16.75M-1.38,-16.119L-0.691,-16.75M-1.38,-16.75L-1.38,-16.119M-1.38,-16.119L-1.38,-16.75M-2.07,-15.485L-1.38,-16.119M0,-15.485L-1.38,-15.485M1.378,-15.485L-0.002,-15.485M1.378,-16.119L1.378,-15.485M0.689,-16.119L1.378,-16.119M0,-16.75L0.689,-16.119M-12.609,-15.737L-12.119,-15.737M2.761,-15.485L4.141,-15.485M3.449,-13.592L2.761,-13.592M4.138,-13.592L3.449,-13.592M4.138,-14.223L3.449,-14.223M5.52,-14.223L5.52,-13.592M4.829,-15.485L5.518,-15.485M6.9,-3.485L2.761,-3.485M7.589,-3.485L6.9,-3.485M2.761,-11.064L3.449,-11.064M-2.07,-14.854L-3.832,-14.854M0.689,-11.064L-1.38,-11.064M-11.633,-17.199L-11.633,-17.686M-11.633,-17.686L-11.148,-17.686M-12.609,-14.276L-12.119,-14.276M-12.119,-14.276L-11.633,-14.276M-11.633,-14.276L-11.148,-14.276M-11.148,-14.276L-10.655,-14.276M-10.171,-14.276L-9.682,-14.276M-1.38,-15.485L-2.07,-15.485M-13.584,-7.453L-14.07,-7.453M-11.148,-7.453L-12.609,-7.453M-12.609,-7.453L-13.097,-7.453M-12.119,-6.478L-11.633,-6.478M-12.119,-6.478L-12.119,-6.965M-12.119,-6.965L-12.609,-6.965" style="fill:none;fill-rule:nonzero;stroke:black;stroke-width:0.22px;stroke-linecap:square;"/>
                </g>
                <g transform="matrix(1,0,0,1,232.126,217.612)">
                    <path d="M0,-33.142L0.49,-33.142M0.977,-32.655L1.462,-32.655M-2.436,-33.629L-1.951,-33.142M-1.951,-33.142L-1.951,-32.655M-1.951,-32.655L-1.461,-32.655M-1.461,-32.655L0.977,-25.345M0.977,-25.345L0.977,-24.857M0.977,-24.857L1.462,-24.857M1.462,-24.857L2.438,-24.857M2.438,-24.857L18.53,-24.857M18.53,-24.857L19.018,-24.857M19.018,-24.857L19.505,-24.857M19.505,-24.857L21.943,-24.857M21.943,-24.857L21.943,-29.731M21.943,-29.731L31.21,-29.731M31.21,-29.731L35.109,-29.731M35.109,-29.731L35.109,-1.949M35.109,-1.949L35.109,0M35.109,0L35.109,0.487" style="fill:none;fill-rule:nonzero;stroke:black;stroke-width:0.22px;stroke-linecap:square;"/>
                </g>
                <g transform="matrix(1,0,0,1,267.342,138.172)">
                    <path d="M0,79.927L54.564,79.927M54.564,0L-22.042,0" style="fill:none;fill-rule:nonzero;stroke:black;stroke-width:0.22px;"/>
                </g>
                <g transform="matrix(-1,0,0,1,243.342,138.171)">
                    <path d="M-1.951,0L0,0" style="fill:none;fill-rule:nonzero;stroke:black;stroke-width:0.22px;stroke-linecap:square;"/>
                </g>
                <g transform="matrix(1,0,0,1,243.342,138.171)">
                    <path d="M0,32.165L0,0L0,32.165Z" style="fill:rgb(145,149,152);fill-rule:nonzero;"/>
                </g>
                <g transform="matrix(1,0,0,1,243.342,177.159)">
                    <path d="M0,-38.988L0,-6.824M0,-6.824L-3.413,-6.824M-3.413,-6.824L-4.875,-3.9M-4.875,-3.898L-4.388,-3.898M-4.388,-3.898L-10.239,-3.898M-10.239,-3.898L-11.216,-1.949M-11.216,-1.949L-11.703,-1.949M-11.703,-1.949L-11.703,-1.462M-11.703,-1.462L-11.703,-0.974M-11.703,-0.974L-12.19,-0.974M-12.19,-0.974L-12.19,-0.487M-12.19,-0.487L-12.19,0M-12.19,0L-12.677,0" style="fill:none;fill-rule:nonzero;stroke:black;stroke-width:0.22px;stroke-linecap:square;"/>
                </g>
                <g transform="matrix(1,0,0,1,239.341,319.314)">
                    <path d="M0,-3.411L1.951,-3.411L1.464,-2.923L0.975,-2.923L0.975,-0.487L1.951,-0.487L1.951,0L0,0L0,-0.487L0.489,-0.487L0.489,-2.923L-2.926,-2.923L-2.926,-1.459L-1.951,-1.459L-2.436,-0.974L-2.926,-0.974L-2.926,-2.923L-5.849,-2.923L-5.849,-2.436L-6.339,-1.459L-5.849,-1.459L-5.849,-0.974L-6.826,-0.974L-6.826,-1.459L-5.849,-3.411" style="fill:white;fill-rule:nonzero;"/>
                </g>
                <g transform="matrix(1,0,0,1,243.731,335.396)">
                    <path d="M25.843,-22.418L-3.415,-22.418L-4.877,-19.493L-2.442,-19.493L-2.926,-19.005L-3.415,-19.005L-3.415,-16.569L-2.442,-16.569L-2.442,-16.082L-4.389,-16.082L-4.389,-16.569L-3.902,-16.569L-3.902,-19.005L-7.315,-19.005L-7.315,-17.541L-6.34,-17.541L-6.827,-17.056L-7.315,-17.056L-7.315,-19.005L-10.238,-19.005L-10.238,-18.518L-10.729,-17.541L-10.238,-17.541L-10.238,-17.056L-10.729,-17.056L-9.265,-17.056L-9.265,-16.569L-8.292,-16.569L-8.292,-15.595L-7.803,-15.595L-8.292,-15.595L-7.803,-15.595L-7.803,-8.772L-9.265,-8.772L-7.803,-8.772L-7.315,-8.285L-7.803,-8.772L-8.292,-8.772L-8.292,-8.285L-10.238,-8.285L-10.238,-7.798L-9.754,-7.798L-10.729,-7.798L-10.729,-8.285L-12.679,-8.285L-12.679,-7.798L-10.238,-0.487L-10.238,0L10.728,0L10.728,-4.874L25.843,-4.874L25.843,-22.418Z" style="fill:rgb(217,176,117);fill-rule:nonzero;"/>
                </g>
                <g transform="matrix(1,0,0,1,230.077,327.599)">
                    <path d="M0,-0.975L0.487,-0.488L0.487,0L0.975,0L0.975,-0.488L2.925,-0.488L2.925,0L3.415,0L3.415,-0.488L5.362,-0.488L5.362,-0.975L5.851,-0.975L0,-0.975ZM5.851,-0.975L6.339,-0.488L5.851,-0.975ZM3.415,0L3.9,0L3.415,0Z" style="fill:white;fill-rule:nonzero;"/>
                </g>
                <g transform="matrix(1,0,0,1,0,-195.465)">
                    <rect x="179.645" y="515.266" width="56.282" height="6.823" style="fill:rgb(178,221,232);"/>
                </g>
                <g transform="matrix(1,0,0,1,232.028,318.339)">
                    <path d="M0,0.975L-0.489,1.462L0.487,1.462L0.487,0.975L0,0.975ZM0.487,-0.487L0.487,0.001L2.438,0.001L2.438,0.488L3.411,0.488L3.411,1.462L3.9,1.462L2.438,1.462L3.411,1.462L2.926,1.462L2.438,0.975L2.438,1.462L-0.977,1.462L-0.489,1.462L-0.489,0.488L0,0.488L0,-0.487" style="fill:white;fill-rule:nonzero;"/>
                </g>
                <g transform="matrix(1,0,0,1,232.515,317.851)">
                    <path d="M0,0.489L0.487,0.489L0,0.489L0,0L0,0.489Z" style="fill-rule:nonzero;"/>
                </g>
                <g transform="matrix(1,0,0,1,245.123,323.012)">
                    <path d="M0,-11.371L0,-10.737L0,-11.371L0.689,-10.737L0.689,-10.106L0,-10.106L0,-6.317L2.76,-6.317L2.76,-3.789L4.14,-3.789L4.14,-4.421L4.831,-4.421L5.521,-3.789L5.521,-3.156L4.831,-3.156L4.14,-2.525L4.14,-3.156L2.76,-3.156L2.76,-0.631L2.069,-0.631L2.76,0L3.449,0L0.689,0L1.38,-1.264L1.38,-3.789L-2.071,-3.789L-1.38,-3.789L-4.14,-3.789L-2.76,-3.789L-2.071,-5.054L-2.071,-5.685L-1.38,-5.685L-0.688,-6.317L-1.38,-6.317L-1.38,-10.106L-0.688,-10.106L-0.688,-11.371" style="fill:white;fill-rule:nonzero;"/>
                </g>
                <g transform="matrix(1,0,0,1,0,-204.075)">
                    <rect x="247.88" y="522.667" width="1.381" height="0.631" style="fill:white;"/>
                </g>
                <g transform="matrix(1,0,0,1,233.492,317.852)">
                    <path d="M0,-1.461L0.484,-1.461L0,-1.461ZM0,-1.461L0,-0.974L0,-1.461ZM-0.491,0L0,-0.974L-0.491,0Z" style="fill-rule:nonzero;"/>
                </g>
                <g transform="matrix(1,0,0,1,233.492,316.391)">
                    <path d="M0,0L0.484,0L0,0Z" style="fill:rgb(15,107,179);fill-rule:nonzero;"/>
                </g>
                <g transform="matrix(1,0,0,1,234.466,319.314)">
                    <path d="M0,0.487L-1.951,0.487L0.975,0.487L0.487,0.487L0,0L0,0.487Z" style="fill-rule:nonzero;"/>
                </g>
                <g transform="matrix(1,0,0,1,243.051,319.223)">
                    <path d="M0,0L3.449,0L0,0Z" style="fill:rgb(15,107,179);fill-rule:nonzero;"/>
                </g>
                <g transform="matrix(1,0,0,1,232.515,326.624)">
                    <path d="M1.462,0L-0.487,0L1.462,0Z" style="fill-rule:nonzero;"/>
                </g>
                <g transform="matrix(1,0,0,1,232.513,327.599)">
                    <path d="M0.489,-0.488L-1.462,-0.488L0.489,-0.488ZM0.489,-0.488L0.489,0L1.463,0L0.489,0L0.489,-0.488Z" style="fill-rule:nonzero;"/>
                </g>
                <g transform="matrix(1,0,0,1,233.492,316.391)">
                    <path d="M0,0.487L0,0L0,0.487Z" style="fill-rule:nonzero;"/>
                </g>
                <g transform="matrix(1,0,0,1,248.572,320.485)">
                    <rect x="-0.692" y="-0.631" width="1.38" height="0.631" style="fill:white;fill-rule:nonzero;"/>
                </g>
                <g transform="matrix(1,0,0,1,249.26,318.591)">
                    <path d="M0,1.894L0.691,1.263L1.38,1.263L1.38,0.632L0.691,0L1.38,0L1.38,1.894" style="fill:white;fill-rule:nonzero;"/>
                </g>
                <g transform="matrix(1,0,0,1,247.882,329.324)">
                    <path d="M0,-6.309L-0.69,-6.943L0,-6.943L0,-7.576L0,-6.943L1.38,-6.943L1.38,-5.681L2.131,-5.137L4.141,-5.049L4.141,-3.784L6.209,-3.784L6.209,-1.26L4.141,-1.26L4.141,0.639L4.829,0.639L4.829,1.267L0,1.267L0,0.639L-1.38,0.639L-1.38,0.005L-5.52,0.005L-5.52,-3.784L-1.38,-3.784L-1.38,-4.418L-0.69,-4.418L-0.69,-6.309L0.689,-6.309" style="fill:white;fill-rule:nonzero;"/>
                </g>
                <g transform="matrix(1,0,0,1,253.403,330.591)">
                    <path d="M1.38,0L-0.692,0L1.38,0Z" style="fill-rule:nonzero;"/>
                </g>
                <g transform="matrix(1,0,0,1,243.051,323.015)">
                    <path d="M0,-3.792L3.449,-3.792L3.449,-1.267L2.76,0L0.691,0L0.691,-3.159L0,-3.792L-2.068,-3.792" style="fill:white;fill-rule:nonzero;"/>
                </g>
                <g transform="matrix(1,0,0,1,232.028,319.801)">
                    <path d="M0,-0.487L-0.49,0L0.487,0L0.487,-0.487L0,-0.487Z" style="fill-rule:nonzero;"/>
                </g>
                <g transform="matrix(1,0,0,1,231.052,326.624)">
                    <path d="M0.487,0L-0.488,0L0.487,0Z" style="fill-rule:nonzero;"/>
                </g>
                <g transform="matrix(1,0,0,1,269.574,330.522)">
                    <path d="M0,-17.544L-5.851,-17.544M-5.851,-17.544L-9.754,-17.544M-9.754,-17.544L-11.702,-17.544M-11.702,-17.544L-15.605,-17.544M-15.605,-17.544L-20.48,-17.544M-20.48,-17.544L-23.895,-17.544M0,0L0,-0.487M0,-0.487L0,-13.16M0,-13.16L0,-17.544M-1.948,0L0,0M-30.233,-14.619L-29.743,-14.619" style="fill:none;fill-rule:nonzero;stroke:black;stroke-width:0.22px;stroke-linecap:square;"/>
                </g>
                <g transform="matrix(1,0,0,1,239.828,315.903)">
                    <path d="M0,0L0.977,0" style="fill:none;fill-rule:nonzero;stroke:black;stroke-width:0.22px;"/>
                </g>
                <g transform="matrix(1,0,0,1,240.805,319.802)">
                    <path d="M-0.489,-3.411L-0.489,-0.975M-0.489,-0.975L0.487,-0.975M0.487,-0.975L0.487,-0.488M0.487,-0.488L-1.464,-0.488M-1.464,-0.488L-1.464,-0.975" style="fill:none;fill-rule:nonzero;stroke:black;stroke-width:0.22px;stroke-linecap:square;"/>
                </g>
                <g transform="matrix(1,0,0,1,239.341,318.827)">
                    <path d="M0,0L0.489,0" style="fill:none;fill-rule:nonzero;stroke:black;stroke-width:0.22px;"/>
                </g>
                <g transform="matrix(1,0,0,1,239.828,321.678)">
                    <path d="M0,-2.851L0,-5.287M0,-5.287L-3.413,-5.287M-3.413,-5.287L-3.413,-3.826M-3.413,-3.338L-3.413,-5.287M-3.413,-5.287L-5.852,-5.287M-5.852,-5.287L-6.336,-5.287M-6.336,-3.826L-6.336,-3.338M-6.336,-3.338L-6.826,-3.338M-6.826,-3.338L-7.315,-3.338M-7.313,-3.338L-7.313,-3.826M3.902,-8.7L5.851,-8.7M-8.777,5.921L-8.777,5.433M-8.777,5.433L-7.315,5.433M-6.826,5.433L-6.826,5.921M-5.852,5.921L-6.336,5.921M-6.336,5.921L-6.336,5.433M-6.336,5.433L-5.852,5.433M-5.852,5.433L-5.362,5.433M-5.362,5.433L-4.39,5.433M-4.39,5.433L-4.39,4.946M-4.39,4.946L-3.9,4.946M-3.9,4.946L-3.413,5.433M-3.413,5.433L-3.9,4.946M-3.9,4.946L-4.39,4.946M-4.39,4.946L-5.362,4.946M-5.362,4.946L-3.9,4.946M-3.9,4.946L-3.9,3.972M-3.9,3.97L-3.9,-0.902M-3.9,-0.902L-3.9,-1.877M-3.9,-1.877L-4.39,-1.877M-4.39,-1.877L-3.9,-1.877M-3.9,-1.877L-4.39,-1.877M-4.39,-1.877L-4.39,-2.364M-4.39,-2.364L-4.39,-2.851M-4.39,-2.851L-4.877,-2.851M-4.875,-2.851L-5.362,-2.851M-5.362,-2.851L-5.362,-3.338M-5.362,-3.338L-5.852,-3.338M-5.852,-3.338L-6.336,-3.338M-6.336,-3.338L-6.826,-3.338M-9.752,4.946L-9.265,4.946M-9.265,4.946L-8.777,4.946M-8.777,4.946L-8.29,4.946M-8.29,4.946L-7.801,4.946M-7.801,4.946L-7.313,4.946M-7.313,4.946L-5.852,4.946M-5.852,4.946L-5.362,4.946M-5.852,5.921L-6.336,5.921M-6.336,5.921L-6.826,5.921M-7.313,5.433L-8.777,5.433M-8.777,-1.877L-7.801,-1.877M-7.801,-1.877L-7.313,-1.877M-5.362,-1.877L-4.875,-1.877M-4.875,-1.877L-4.388,-1.877M-8.777,4.946L-9.265,4.946M-7.313,-3.826L-7.313,-3.338M-5.362,-1.877L-4.875,-1.877M-4.39,-1.877L-4.877,-1.877M-5.362,-1.877L-5.852,-1.877M-5.852,-1.877L-6.336,-1.877M-6.336,-1.877L-6.826,-1.877M-6.826,-1.877L-7.315,-1.877M3.914,-7.507L3.914,-8.772M3.914,-6.879L3.914,-7.507M3.914,-4.983L3.914,-6.879" style="fill:none;fill-rule:nonzero;stroke:black;stroke-width:0.22px;stroke-linecap:square;"/>
                </g>
                <g transform="matrix(1,0,0,1,243.743,319.223)">
                    <path d="M0,-2.528L0.688,-2.528L0,-1.896L-0.691,-1.896L-0.691,-1.265L-1.38,0" style="fill:none;fill-rule:nonzero;stroke:black;stroke-width:0.22px;"/>
                </g>
                <g transform="matrix(1,0,0,1,241.674,321.116)">
                    <path d="M0,-1.893L0.688,-1.893M2.068,-1.893L1.38,-1.893M1.377,-1.893L2.068,-1.893M2.068,-1.893L1.38,-1.893M4.828,-1.893L2.068,-1.893M4.828,0L4.828,-1.893" style="fill:none;fill-rule:nonzero;stroke:black;stroke-width:0.22px;stroke-linecap:square;"/>
                </g>
                <g transform="matrix(1,0,0,1,246.502,323.012)">
                    <path d="M0,-1.896L0,-1.264L-0.691,0" style="fill:none;fill-rule:nonzero;stroke:black;stroke-width:0.22px;"/>
                </g>
                <g transform="matrix(1,0,0,1,245.811,323.015)">
                    <path d="M1.381,0L0,0M2.761,0L1.381,0" style="fill:none;fill-rule:nonzero;stroke:black;stroke-width:0.22px;stroke-linecap:square;"/>
                </g>
                <g transform="matrix(1,0,0,1,247.882,323.012)">
                    <path d="M0,-0.631L-0.69,-0.631L0,0" style="fill:none;fill-rule:nonzero;stroke:black;stroke-width:0.22px;"/>
                </g>
                <g transform="matrix(1,0,0,1,247.882,320.487)">
                    <path d="M0,1.261L0,1.894M0,-0.002L0,1.261M0,-0.633L0,-0.002M0.689,-0.633L0,-0.633M1.378,-0.002L1.378,-0.633" style="fill:none;fill-rule:nonzero;stroke:black;stroke-width:0.22px;stroke-linecap:square;"/>
                </g>
                <g transform="matrix(1,0,0,1,250.643,320.485)">
                    <path d="M0,-0.631L-0.69,-0.631L-1.383,0" style="fill:none;fill-rule:nonzero;stroke:black;stroke-width:0.22px;"/>
                </g>
                <g transform="matrix(0,1,1,0,250.959,319.539)">
                    <path d="M-0.317,-0.317L0.317,-0.317" style="fill:none;fill-rule:nonzero;stroke:black;stroke-width:0.22px;stroke-linecap:square;"/>
                </g>
                <g transform="matrix(0.73742,0.675434,0.675434,-0.73742,250.257,318.441)">
                    <path d="M-0.123,-0.316L0.813,-0.316" style="fill:none;fill-rule:nonzero;stroke:black;stroke-width:0.22px;"/>
                </g>
                <g transform="matrix(1,0,0,1,249.953,324.906)">
                    <path d="M-0.693,-6.315L-0.002,-6.315M-0.693,-5.683L-0.693,-6.315M-2.071,-5.683L-0.691,-5.683M-2.071,-6.315L-2.071,-5.683M-2.071,-7.579L-2.071,-6.315M-2.071,-8.211L-2.071,-7.579M-2.762,-8.211L-2.071,-8.211M-4.831,-8.211L-2.762,-8.211M-4.831,-8.842L-4.831,-8.211M-4.831,-11.369L-4.831,-8.842M-4.831,-12L-4.831,-11.369M0.69,-4.421L-0.691,-4.421M0.69,-5.683L0.69,-5.05M0.69,-6.315L0.69,-5.683M-2.762,-0L-2.762,-1.891M-3.451,-0L-2.762,-0M-3.451,0.634L-3.451,-0M-7.591,0.634L-3.451,0.634M-7.591,4.423L-7.591,0.634M-3.451,4.423L-7.591,4.423M-3.451,5.054L-3.451,4.423M-2.762,5.054L-3.451,5.054M-2.071,5.054L-2.762,5.054M-2.071,5.685L-2.071,5.057M3.449,5.685L2.758,5.685M4.138,5.685L3.449,5.685M3.449,5.685L4.491,5.685M2.758,5.685L3.449,5.685M2.758,5.054L2.758,5.685M2.069,5.054L2.758,5.054M2.069,3.158L2.069,5.054M2.758,3.158L2.069,3.158M4.138,3.158L2.758,3.158M4.138,0.634L4.138,3.158M2.758,0.634L4.138,0.634M2.069,0.634L2.758,0.634M2.069,-0.631L2.069,0.634" style="fill:none;fill-rule:nonzero;stroke:black;stroke-width:0.22px;stroke-linecap:square;"/>
                </g>
                <g transform="matrix(1,0,0,1,249.26,324.275)">
                    <path d="M0,-1.894L0,-0.632L0.824,0L2.763,0" style="fill:none;fill-rule:nonzero;stroke:black;stroke-width:0.22px;"/>
                </g>
                <g transform="matrix(1,0,0,1,248.572,321.748)">
                    <path d="M0,0.633L0.689,0.633M-0.689,0.633L0,0.633M-0.689,0L-0.689,0.633" style="fill:none;fill-rule:nonzero;stroke:black;stroke-width:0.22px;stroke-linecap:square;"/>
                </g>
                <g transform="matrix(1,0,0,1,243.743,319.223)">
                    <path d="M0,3.158L0,0.631L-0.691,0" style="fill:none;fill-rule:nonzero;stroke:black;stroke-width:0.22px;"/>
                </g>
                <g transform="matrix(1,0,0,1,243.743,319.223)">
                    <path d="M0,3.792L0,3.158M0,0L2.76,0" style="fill:none;fill-rule:nonzero;stroke:black;stroke-width:0.22px;stroke-linecap:square;"/>
                </g>
                <g transform="matrix(1,0,0,1,233.493,317.852)">
                    <path d="M0,-1.461L0,-0.974L-0.343,-0.294L-0.49,0L0,0" style="fill:none;fill-rule:nonzero;stroke:black;stroke-width:0.22px;"/>
                </g>
                <g transform="matrix(1,0,0,1,233.493,319.801)">
                    <path d="M0,-3.41L0.484,-3.41M-1.465,0L-1.954,0M-0.977,0L-1.467,0" style="fill:none;fill-rule:nonzero;stroke:black;stroke-width:0.22px;stroke-linecap:square;"/>
                </g>
                <g transform="matrix(1,0,0,1,246.502,317.96)">
                    <path d="M0,-0.002L-0.691,-0.002L-1.382,-0.633L-2.071,-0.633L-3.448,0.631L-2.76,0.631" style="fill:none;fill-rule:nonzero;stroke:black;stroke-width:0.22px;"/>
                </g>
                <g transform="matrix(1,0,0,1,244.431,331.222)">
                    <path d="M0.691,-12.631L-0.688,-12.631M2.071,-12.631L0.691,-12.631M2.071,-13.264L2.071,-12.631M-11.916,-12.882L-11.429,-12.882M3.451,-12.631L4.831,-12.631M4.141,-10.737L3.451,-10.737M4.829,-10.737L4.141,-10.737M4.829,-11.368L4.141,-11.368M6.212,-11.368L6.212,-10.737M5.522,-12.631L6.212,-12.631M7.592,-0.631L3.451,-0.631M8.28,-0.631L7.592,-0.631M3.451,-8.207L4.141,-8.207" style="fill:none;fill-rule:nonzero;stroke:black;stroke-width:0.22px;stroke-linecap:square;"/>
                </g>
                <g transform="matrix(-1,0,0,1,241.289,319.223)">
                    <path d="M-1.762,0L0,0" style="fill:none;fill-rule:nonzero;stroke:black;stroke-width:0.22px;"/>
                </g>
                <g transform="matrix(1,0,0,1,245.811,320.975)">
                    <path d="M0,2.04L-2.068,2.04M-12.318,-4.584L-11.834,-4.584M-13.296,-1.174L-12.809,-1.174M-12.809,-1.174L-12.318,-1.174M-12.318,-1.174L-11.834,-1.174M-11.834,-1.174L-11.345,-1.174M-10.858,-1.174L-10.37,-1.174M-14.273,5.649L-14.76,5.649M-11.834,5.649L-13.296,5.649M-13.296,5.649L-13.785,5.649M-12.809,6.624L-12.318,6.624M-12.809,6.624L-12.809,6.136M-12.809,6.136L-13.298,6.136M-13.296,6.136L-12.809,6.136M-12.318,6.624L-11.834,6.624" style="fill:none;fill-rule:nonzero;stroke:black;stroke-width:0.22px;stroke-linecap:square;"/>
                </g>
                <g transform="matrix(0.707107,0.707107,0.707107,-0.707107,230.32,326.523)">
                    <path d="M-0.101,-0.244L0.588,-0.244" style="fill:none;fill-rule:nonzero;stroke:black;stroke-width:0.22px;"/>
                </g>
                <g transform="matrix(1,0,0,1,230.564,321.263)">
                    <path d="M0,5.848L0,6.336M0,6.336L0.487,6.336M0.487,6.336L2.929,13.646M2.929,13.644L2.929,14.133M2.929,14.133L3.413,14.133M3.413,14.133L4.388,14.133M4.39,14.133L20.479,14.133M20.479,14.133L20.969,14.133M20.969,14.133L21.456,14.133M21.456,14.133L23.895,14.133M23.895,14.133L23.895,9.259M23.895,9.259L33.159,9.259M33.159,9.259L37.062,9.259M13.167,-8.285L9.752,-8.285" style="fill:none;fill-rule:nonzero;stroke:black;stroke-width:0.22px;stroke-linecap:square;"/>
                </g>
                <g transform="matrix(-0.446602,0.894733,0.894733,0.446602,240.568,315.747)">
                    <path d="M-2.365,-1.462L0.905,-1.462" style="fill:none;fill-rule:nonzero;stroke:black;stroke-width:0.22px;"/>
                </g>
                <g transform="matrix(1,0,0,1,238.854,315.903)">
                    <path d="M0,0L0.489,0" style="fill:none;fill-rule:nonzero;stroke:black;stroke-width:0.22px;stroke-linecap:square;"/>
                </g>
                <g transform="matrix(1,0,0,1,239.341,317.855)">
                    <path d="M0,-1.952L-5.849,-1.952L-6.826,0" style="fill:none;fill-rule:nonzero;stroke:black;stroke-width:0.22px;"/>
                </g>
                <g transform="matrix(1,0,0,1,233.493,321.75)">
                    <path d="M-0.977,-3.898L-1.467,-3.898M-1.465,-3.898L-1.465,-3.41M-1.465,-3.41L-1.465,-2.923M-1.465,-2.923L-1.954,-2.923M-1.954,-2.923L-1.954,-2.436M-1.954,-2.436L-1.954,-1.949M-1.954,-1.949L-2.441,-1.949" style="fill:none;fill-rule:nonzero;stroke:black;stroke-width:0.22px;stroke-linecap:square;"/>
                </g>
                <g transform="matrix(1,0,0,1,321.721,282.071)">
                    <path d="M0,0.002L-52.073,0.002L-52.073,30.924L-76.613,30.924L-76.613,-30.922L0,-30.922" style="fill:rgb(235,218,46);fill-rule:nonzero;"/>
                </g>
                <g transform="matrix(-1,0,0,1,591.369,-231.86)">
                    <rect x="269.648" y="513.931" width="52.073" height="45.888" style="fill:rgb(103,108,111);"/>
                </g>
                <g transform="matrix(0,-1,-1,0,296.43,355.242)">
                    <path d="M25.289,26.784L27.283,26.784L27.283,-25.289L24.79,-25.289L24.79,26.784" style="fill:rgb(147,150,153);fill-rule:nonzero;"/>
                </g>
                <g transform="matrix(1,0,0,1,321.721,312.995)">
                    <path d="M0,-64.342L0,-61.848L-76.613,-61.848L-76.613,0L-78.617,0L-78.617,-64.342L-76.613,-64.342" style="fill:rgb(147,150,153);fill-rule:nonzero;"/>
                </g>
                <g transform="matrix(1,0,0,1,321.721,299.528)">
                    <path d="M0,-17.455L-52.073,-17.455M-52.154,-17.455L-52.154,10.474M-52.154,10.474L-52.154,13.467M-52.154,13.467L-58.147,13.467M-58.147,13.467L-62.141,13.467M-62.141,13.467L-64.14,13.467M-64.138,13.467L-68.131,13.467M-68.131,13.467L-73.126,13.467M-73.126,13.467L-76.62,13.467M-76.62,13.467L-76.62,-17.458M-76.62,-17.455L-76.62,-48.379M-76.613,-48.379L0,-48.379M0,28.431L-52.073,28.431M-52.154,28.431L-52.154,17.458M-52.154,17.458L-52.154,13.467M-52.154,30.425L-52.154,28.431M-78.617,13.467L-76.62,13.467M-52.154,30.425L-52.154,30.924" style="fill:none;fill-rule:nonzero;stroke:black;stroke-width:0.22px;stroke-linecap:square;"/>
                </g>
                <g transform="matrix(1,0,0,1,269.646,330.452)">
                    <path d="M0,0L52.072,0L0,0Z" style="fill:rgb(145,149,152);fill-rule:nonzero;"/>
                </g>
                <g transform="matrix(1,0,0,1,269.646,248.653)">
                    <path d="M0,81.799L52.073,81.799M52.075,0L-24.538,0M-24.545,0L-26.542,0" style="fill:none;fill-rule:nonzero;stroke:black;stroke-width:0.22px;stroke-linecap:square;"/>
                </g>
                <g transform="matrix(1,0,0,1,243.103,248.653)">
                    <path d="M0,64.342L0,0L0,64.342Z" style="fill:rgb(145,149,152);fill-rule:nonzero;"/>
                </g>
                <g transform="matrix(0,1,1,0,275.275,280.824)">
                    <path d="M-32.171,-32.171L32.171,-32.171" style="fill:none;fill-rule:nonzero;stroke:black;stroke-width:0.22px;stroke-linecap:square;"/>
                </g>
                <g transform="matrix(1,0,0,1,236.415,316.388)">
                    <path d="M0,1.467L0.489,1.464L0.977,1.464L0.489,1.952L0,1.952M4.39,-0.485L4.877,-0.485L4.39,0.003L3.9,0.003M7.327,0.939L7.327,1.57" style="fill:none;fill-rule:nonzero;stroke:black;stroke-width:0.22px;"/>
                </g>
                <g transform="matrix(1,0,0,1,168.446,208.024)">
                    <path d="M0,-66.713L-36.322,-66.713L-37.332,-66.221L-52.913,-66.221L-53.358,-65.734L-56.806,-65.734L-57.778,-65.247L-59.725,-65.247L-63.617,-64.272L-64.106,-64.272L-65.566,-63.788L-67.513,-63.3L-68.486,-62.813L-71.407,-59.892L-72.382,-58.431L-72.869,-57.943L-72.869,-57.456L-73.339,-56.514L-73.354,-55.995L-73.841,-55.995L-73.841,-54.535L-74.326,-53.561L-74.326,-53.074L-74.815,-52.586L-74.815,-50.64L-75.303,-49.179L-75.303,-48.692L-75.787,-48.204L-75.787,-46.258L-76.274,-44.796L-76.274,-43.335L-76.762,-42.847L-76.762,-40.901L-77.736,-40.901L-78.711,-39.929M-142.906,-30.19L-97.695,-30.19L-95.746,-29.703L-92.825,-29.703L-92.341,-30.19L-91.853,-30.19L-91.366,-30.674L-89.417,-30.674L-89.417,-31.162L-86.534,-31.162L-86.534,-31.649L-83.575,-31.649L-83.575,-31.162L-81.142,-31.162L-81.142,-31.649L-80.655,-31.649L-80.655,-32.136L-80.173,-32.621L-80.173,-33.595L-78.711,-35.059L-78.222,-36.034L-76.762,-37.006L-76.762,-37.493L-76.274,-37.493L-76.274,-37.98L-75.787,-38.467L-75.79,-38.955L-74.815,-39.927L-74.815,-40.414L-74.326,-40.901L-74.326,-41.388L-73.841,-42.847L-72.869,-44.309L-71.895,-46.258L-71.895,-46.745L-71.407,-47.232L-70.436,-49.179L-69.461,-50.64L-68,-52.586L-66.051,-54.535L-62.158,-57.456L-60.699,-57.943L-58.752,-58.918L-58.266,-58.918L-57.778,-59.405L-56.806,-59.405L-55.345,-59.892L-53.358,-60.38L-51.449,-60.38L-50.475,-60.864L-48.531,-60.864L-46.582,-61.354L-42.199,-61.354L-40.253,-61.838L-34.896,-61.838L-32.952,-62.326L-0.034,-62.326M0,-60.362L-19.323,-60.362L-21.757,-59.892L-34.412,-59.892L-35.873,-59.405L-40.72,-59.405L-44.617,-58.918L-46.582,-58.431L-49.99,-58.431L-50.475,-57.943L-54.372,-56.971L-55.356,-56.971L-55.812,-56.484L-57.291,-56.484L-58.75,-55.51L-60.212,-55.023L-61.184,-54.535L-61.671,-54.048L-63.617,-53.074L-63.617,-52.586L-64.594,-52.099L-65.081,-51.615L-66.54,-50.64L-67.513,-49.666L-67.998,-48.694L-68.974,-47.719L-69.459,-46.745L-69.948,-46.258L-71.407,-43.824L-71.895,-43.335L-72.869,-40.901L-73.372,-40.901L-73.841,-39.929L-74.815,-38.955L-74.815,-37.98L-75.787,-37.006L-75.787,-36.034L-76.762,-36.034L-76.762,-35.059L-77.249,-35.059L-77.249,-34.572L-77.736,-34.572L-77.736,-34.083L-78.222,-34.083L-78.711,-33.598L-78.711,-33.062L-79.212,-32.136L-79.681,-32.136L-79.681,-31.649L-80.173,-31.649L-80.173,-31.162L-80.655,-31.162L-81.142,-30.674L-86.499,-30.674L-87.471,-30.19L-91.853,-30.19M-142.935,-27.754L-89.894,-27.754L-89.412,-27.272L-86.012,-27.267L-85.524,-26.779L-80.655,-26.779L-80.655,-27.267L-78.222,-27.267L-78.222,-27.754L-77.736,-27.754L-77.249,-28.241L-76.762,-28.241L-76.762,-28.728L-76.274,-29.215L-74.815,-29.215L-74.815,-30.19L-73.841,-30.19L-73.841,-30.674L-73.354,-30.674L-73.354,-31.162L-72.869,-31.162L-72.869,-31.649L-72.382,-32.136L-71.893,-32.136L-71.893,-32.624L-71.401,-33.115L-70.436,-34.572L-69.948,-35.059L-69.948,-35.544L-69.461,-36.519L-68.974,-37.98L-68.486,-37.98L-68,-38.955L-67.513,-38.955L-67.513,-39.442L-67.027,-39.442L-67.027,-39.929L-66.54,-39.929L-65.566,-40.901L-64.588,-41.395L-63.133,-42.847L-62.645,-42.847L-61.186,-43.824L-60.699,-44.309L-60.212,-44.309L-58.752,-45.283L-58.266,-45.768L-56.806,-46.258L-56.316,-46.745L-54.372,-47.232L-53.395,-47.719L-50.962,-48.204L-49.503,-48.694L-48.531,-49.179L-45.607,-49.666L-44.636,-49.666L-41.228,-50.155L-40.727,-50.155L-37.819,-50.64L-35.873,-50.64L-31.493,-51.127L-27.598,-51.127L-24.192,-51.615L-0.034,-51.615M-92.341,-30.19L-97.695,-30.19M-142.935,-29.215L-89.42,-29.215L-88.933,-29.703L-82.116,-29.703L-81.142,-30.19L-79.683,-30.19L-79.683,-30.674L-79.195,-30.674L-78.222,-31.649L-78.222,-32.136L-77.736,-32.136L-76.801,-33.072L-76.274,-34.085L-75.303,-35.059L-75.303,-35.544L-74.815,-36.034L-73.841,-37.98L-73.841,-38.467L-72.869,-38.955L-72.869,-39.442L-71.407,-40.901L-70.92,-41.876L-69.461,-43.822L-68.974,-44.796L-66.54,-47.232L-65.081,-48.204L-65.081,-48.692L-63.617,-49.666L-63.133,-50.153L-62.158,-50.64L-61.671,-51.127L-60.699,-51.615L-60.212,-52.099L-59.239,-52.586L-58.266,-52.586L-58.266,-53.097L-57.291,-53.561L-56.316,-53.561L-54.372,-54.535L-51.449,-55.51L-46.095,-56.484L-44.636,-56.484L-40.74,-56.971L-39.766,-56.971L-37.819,-57.456L-29.06,-57.456L-26.624,-57.943L-0.015,-57.943M0,-55.995L-14.456,-55.995L-16.402,-55.51L-33.927,-55.51L-36.848,-55.023L-38.794,-55.023L-41.713,-54.535L-43.661,-54.535L-47.557,-53.561L-49.503,-53.561L-51.937,-52.586L-52.911,-52.586L-57.778,-50.64L-58.266,-50.64L-58.266,-50.153L-59.725,-49.666L-60.212,-49.666L-60.212,-49.179L-61.663,-48.694L-61.663,-48.204L-62.645,-47.719L-63.133,-47.232L-64.106,-46.745L-65.566,-45.283L-67.027,-44.309L-67.027,-43.824L-68.486,-42.847L-69.459,-41.388L-70.92,-39.929L-70.92,-39.442L-71.407,-39.442L-71.895,-38.467L-72.382,-37.98L-72.869,-37.006L-72.869,-36.519L-73.354,-36.034L-73.841,-35.059L-74.326,-34.572L-74.326,-34.085L-74.815,-34.085L-74.815,-33.598L-75.787,-32.624L-75.787,-32.136L-76.274,-32.136L-76.762,-31.649L-76.762,-31.162L-77.249,-30.674L-77.736,-30.674L-77.736,-30.19L-78.711,-30.19L-78.711,-29.703L-79.195,-29.703L-79.195,-29.215L-81.142,-29.215L-82.116,-28.728L-142.935,-28.728M0,-49.666L-12.02,-49.666L-18.349,-49.179L-29.06,-49.179L-32.465,-48.692L-37.819,-48.692L-39.766,-48.204L-41.713,-48.204L-44.687,-47.719L-45.12,-47.719L-46.095,-47.232L-48.531,-46.745L-49.931,-46.745L-51.937,-45.771L-53.395,-45.771L-53.883,-45.283L-54.857,-44.796L-56.316,-44.309L-58.263,-43.335L-59.725,-42.363L-60.212,-42.363L-60.699,-41.876L-62.158,-41.388L-62.158,-40.901L-62.645,-40.901L-63.617,-39.929L-64.106,-39.929L-65.081,-38.955L-66.051,-38.467L-66.54,-37.98L-66.54,-37.493L-67.027,-37.493L-67.027,-36.519L-67.513,-36.034L-68,-35.059L-68.486,-34.572L-69.461,-33.111L-69.948,-32.624L-70.92,-31.162L-72.869,-29.215L-73.354,-29.215L-73.841,-28.728L-73.841,-28.241L-74.326,-28.241L-74.814,-27.752L-75.303,-27.752L-75.303,-27.267L-77.248,-27.267L-77.248,-26.779L-77.736,-26.779L-78.222,-26.292L-79.195,-26.292L-79.682,-25.806L-85.524,-25.806L-85.524,-26.292L-86.986,-26.292L-87.958,-26.779L-89.417,-26.779L-89.904,-27.267L-142.935,-27.267M0,-47.232L-22.728,-47.232L-25.162,-46.745L-33.437,-46.745L-38.307,-46.258L-39.281,-46.258L-40.74,-45.771L-43.661,-45.771L-47.557,-44.796L-48.531,-44.796L-49.99,-44.309L-51.937,-43.822L-53.395,-43.822L-53.883,-43.335L-54.857,-42.847L-55.345,-42.847L-58.266,-41.388L-58.752,-40.901L-59.266,-40.901L-60.212,-40.414L-61.186,-39.44L-62.158,-39.442L-62.158,-38.955L-62.645,-38.955L-63.133,-38.467L-63.617,-38.467L-63.617,-37.98L-64.106,-37.98L-64.106,-37.006L-64.594,-36.034L-65.081,-35.544L-65.081,-35.059L-66.053,-34.57L-66.053,-33.595L-68.974,-30.674L-69.461,-29.703L-69.948,-29.215L-70.436,-29.215L-71.893,-27.754L-72.869,-27.267L-73.354,-27.267L-73.841,-26.292L-74.815,-26.292L-74.815,-25.805L-75.303,-25.805L-75.79,-25.318L-76.274,-25.318L-77.736,-24.833L-78.711,-24.833L-80.655,-24.346L-83.091,-24.346L-83.575,-24.833L-85.035,-24.833L-85.522,-25.32L-86.986,-25.32L-86.986,-25.807L-87.471,-25.807L-88.445,-26.292L-90.879,-26.292L-91.366,-26.779L-142.935,-26.779M0,-45.276L-8.614,-45.283L-12.507,-44.796L-33.437,-44.796L-34.896,-44.309L-39.281,-44.309L-41.228,-43.822L-43.661,-43.822L-44.636,-43.335L-47.069,-43.335L-48.044,-42.847L-49.016,-42.847L-50.965,-42.363L-51.937,-41.876L-52.421,-41.876L-53.395,-41.388L-54.37,-41.388L-54.857,-40.901L-56.316,-39.929L-57.291,-39.929L-58.752,-38.955L-59.239,-38.955L-60.699,-37.493L-61.186,-37.493L-61.186,-37.008L-62.158,-35.544L-62.158,-35.059L-63.133,-34.085L-63.133,-33.598L-68,-28.728L-68.974,-28.241L-68.974,-27.754L-69.461,-27.754L-69.948,-27.267L-70.436,-27.267L-70.92,-26.779L-70.92,-26.292L-73.841,-24.833L-75.303,-24.346L-76.274,-23.859L-76.762,-23.859L-77.736,-23.374L-84.55,-23.374L-85.037,-23.859L-85.524,-23.859L-86.014,-24.346L-86.496,-24.346L-86.496,-24.833L-87.471,-24.833L-87.471,-25.32L-88.933,-25.318L-89.904,-25.807L-90.879,-25.807L-91.366,-26.292L-142.906,-26.292M0,-40.901L-25.649,-40.901L-28.083,-40.414L-35.871,-40.414L-37.332,-39.929L-44.636,-39.929L-46.582,-39.442L-47.069,-39.442L-48.531,-38.955L-51.449,-38.955L-51.449,-38.467L-52.911,-38.467L-52.911,-37.98L-53.395,-37.98L-53.395,-37.006L-53.883,-37.006L-53.883,-36.034L-54.372,-36.034L-54.372,-35.544L-54.857,-35.059L-54.857,-34.572L-55.345,-33.598L-56.316,-32.624L-56.316,-32.136L-57.778,-31.164L-57.778,-30.674L-59.237,-29.703L-59.725,-29.215L-60.212,-28.241L-61.186,-27.754L-61.671,-27.267L-62.158,-27.267L-65.081,-25.807L-66.54,-24.833L-67.027,-24.833L-67.513,-24.346L-69.459,-23.374L-69.948,-23.374L-71.893,-22.399L-72.382,-22.399L-72.869,-21.912L-73.354,-21.912L-74.326,-21.425L-75.787,-21.425L-75.787,-20.938L-76.274,-20.938L-77.249,-20.451L-79.195,-20.451L-80.173,-19.963L-83.091,-19.963L-83.575,-20.451L-85.524,-20.451L-86.496,-21.425L-86.986,-21.425L-87.958,-22.399L-88.445,-22.399L-88.445,-22.884L-88.933,-22.884L-89.417,-23.374L-89.417,-23.843L-89.904,-23.843L-89.904,-24.346L-90.392,-24.346L-90.392,-24.833L-91.851,-24.833L-91.851,-25.318L-142.935,-25.318M-90.757,-22.397L-90.392,-22.399L-90.392,-21.91L-89.417,-20.938L-88.445,-20.451L-87.471,-19.476L-86.986,-19.476L-86.496,-18.989L-85.524,-18.989L-85.524,-18.502L-84.062,-18.502L-83.575,-18.015L-78.711,-18.015L-77.736,-18.502L-75.787,-18.502L-74.815,-18.989L-73.354,-19.476L-72.869,-19.963L-72.382,-19.963L-71.895,-20.451L-70.92,-20.451L-70.92,-20.938L-69.948,-20.938L-69.948,-21.425L-68.974,-21.425L-68.486,-21.91L-67.513,-22.397L-65.081,-22.884L-64.106,-23.374L-62.645,-24.346L-61.671,-24.346L-60.212,-25.318L-59.725,-25.318L-59.239,-25.807L-58.266,-26.292L-57.778,-26.292L-56.316,-27.267L-54.37,-28.241L-53.395,-29.703L-52.421,-30.19L-52.421,-30.674L-51.449,-31.162L-49.99,-31.649L-47.557,-33.111L-46.095,-33.595L-45.607,-34.083L-44.636,-34.57L-43.174,-35.059L-42.199,-36.034L-41.713,-36.034L-39.768,-37.007L-38.794,-37.98L-36.358,-37.98L-33.925,-38.467L-12.994,-38.467L-12.507,-38.955L-0.015,-38.955M0.077,-21.425L-30.517,-21.425L-33.437,-21.91L-41.713,-21.91L-43.661,-22.399L-46.095,-22.399L-48.531,-22.884L-49.016,-22.884L-50.475,-23.374L-55.832,-23.374L-56.806,-22.884L-57.778,-22.884L-58.266,-22.397L-59.725,-22.397L-63.133,-21.425M-67.932,-20.048L-69.459,-18.502L-69.966,-18.502L-70.436,-18.015L-71.407,-17.527L-71.895,-17.527L-73.354,-17.04L-73.841,-16.555L-75.787,-16.555L-75.787,-16.068L-76.356,-16.068M-84.446,-16.013L-85.524,-16.555L-86.529,-16.555L-87.471,-17.04L-87.958,-17.527L-88.445,-17.527L-89.97,-19.047M-79.573,-37.98L-80.17,-37.98L-81.142,-37.493L-81.629,-37.493L-82.116,-37.006L-82.603,-37.006L-83.188,-36.421M0.077,0L-13.966,0L-14.454,-0.489L-19.323,-0.489L-22.243,-0.975L-24.677,-0.975L-28.083,-1.949L-30.517,-1.949L-33.437,-2.921L-38.794,-4.382L-39.281,-4.382L-48.041,-8.765L-49.503,-10.224L-51.449,-11.686L-52.421,-12.66L-53.395,-13.148L-54.902,-14.119" style="fill:none;fill-rule:nonzero;stroke:rgb(69,76,30);stroke-width:0.22px;"/>
                </g>
                <g transform="matrix(1,0,0,1,25.5115,171.505)">
                    <path d="M0,11.686L50.594,11.686L50.594,12.155L51.084,12.155L51.569,12.661L51.569,12.173L53.515,12.173L53.515,13.145L54.489,13.145L54.489,12.173L56.439,12.173L56.439,4.87L52.056,4.87M56.439,4.87L54.977,3.408L53.03,3.408M51.569,12.173L53.149,17.23L54.002,19.964L54.489,20.451L72.015,20.451L72.5,19.965L74.935,19.965L74.935,15.094L88.08,15.094L88.08,45.771L143.012,45.771L142.901,-34.085L64.224,-34.085L64.224,-1.461L60.331,-1.461L59.36,0.975L54.002,0.975L53.03,2.921L53.03,3.408L52.543,3.408L52.543,3.895L52.056,4.383L52.056,5.317L0.029,5.317M142.901,43.337L90.514,43.337L90.514,-1.461L64.224,-1.461M90.514,15.094L88.08,15.094M90.514,-1.461L143.012,-1.461M143.012,-31.651L66.173,-31.651L66.173,-1.461M67.633,7.791L69.094,7.791L69.094,7.304L67.632,7.304L67.632,9.252L68.609,9.252L68.609,10.227L69.094,10.227L69.094,10.751L71.042,10.751L71.042,12.112L72.015,12.112L72.015,13.635L71.04,13.635L71.04,15.581L72.499,15.581L72.499,15.094L71.042,15.094M68.607,7.791L68.607,7.304M68.12,7.791L68.12,7.304M69.094,7.304L69.094,6.329L67.148,6.329L67.148,8.278L66.66,8.278L66.173,9.252L66.173,9.74L67.148,9.74L68.119,10.227L68.609,10.227M68.119,10.227L68.119,9.74L67.632,9.74L67.122,9.252L67.632,9.252M67.148,9.74L67.148,11.201L66.66,11.201L66.66,11.686L64.227,11.686L64.227,14.12L66.66,14.12L66.66,15.094L67.62,15.094L67.62,15.581L71.04,15.581M66.173,9.74L64.713,9.74L64.224,9.252L64.224,6.816L67.122,6.816M64.711,5.357L64.713,5.845L64.224,6.329L64.224,6.816L63.254,6.816L64.224,5.357L65.686,5.357L67.148,4.87L67.148,6.329M65.198,4.87L64.712,4.87L64.712,3.407L65.198,2.921L65.198,1.013L65.686,1.013L65.686,4.383L65.198,4.87L65.198,5.357M65.686,5.357L65.219,4.89M52.056,4.87L52.543,4.383L53.03,4.383L53.03,4.87M53.518,3.408L53.979,1.46L56.439,1.46L56.439,4.161L57.41,4.161L57.41,1.46L60.331,1.46L60.331,4.383L60.819,4.383L60.819,1.46L61.306,1.46L61.306,0.975L59.36,0.975M54.489,1.46L53.59,3.408" style="fill:none;fill-rule:nonzero;stroke:rgb(35,31,32);stroke-width:0.22px;"/>
                </g>
                <g transform="matrix(1,0,0,1,168.45,186.356)">
                    <clipPath id="_clip1">
                        <rect x="-142.939" y="-49.046" width="143.122" height="80.076" clip-rule="nonzero"/>
                    </clipPath>
                    <g clip-path="url(#_clip1)">
                        <path d="M0,-42.604L-40.744,-42.604L-42.233,-42.12L-47.561,-42.12L-48.591,-41.632L-51.453,-41.632L-53.452,-41.147L-55.495,-41.147L-56.445,-40.658L-58.025,-40.658L-59.728,-39.928L-63.137,-39.199L-65.57,-37.737L-66.141,-37.187L-68.247,-35.546L-70.151,-33.111L-71.052,-31.766L-71.898,-30.918L-71.898,-29.947L-72.873,-28.243L-73.358,-26.593L-73.939,-25.385L-74.18,-24.253L-74.819,-22.598L-75.307,-20.864L-75.791,-19.554L-75.791,-18.261L-76.766,-16.799L-78.001,-15.695L-79.686,-14.853L-80.659,-14.166L-81.385,-12.659L-81.633,-11.08L-81.633,-10.468L-83.579,-10.468L-83.579,-11.443L-85.528,-11.443L-85.528,-10.69L-88.389,-10.69L-88.389,-9.914L-89.534,-9.914L-89.534,-9.346L-142.939,-9.346M-0.019,-31.893L-28.087,-31.893L-30.521,-31.406L-36.362,-31.406L-38.311,-30.918L-41.717,-30.918L-42.691,-30.431L-47.073,-29.947L-48.776,-29.419L-51.629,-28.884L-52.641,-28.434L-54.501,-27.914L-55.929,-27.023L-58.226,-26.073L-59.833,-24.913L-62.313,-23.952L-63.289,-22.924L-64.644,-22.156L-65.648,-21.047L-66.666,-20.451L-67.517,-19.147L-70.681,-16.556L-71.084,-15.338L-71.777,-13.634L-72.873,-12.173L-74.936,-9.737L-76.423,-8.703L-77.813,-7.547L-78.79,-6.914L-78.79,-6.418L-81.301,-6.418L-81.301,-5.73L-86.428,-5.73L-88.205,-6.639L-142.939,-6.639M-0.057,-21.179L-31.01,-21.179L-31.497,-20.451L-38.909,-20.451L-40.014,-19.964L-43.423,-19.964L-45.931,-19.476L-47.803,-18.989L-50.613,-18.989L-51.102,-18.503L-52.183,-18.503L-54.267,-17.771L-57.051,-16.312L-57.908,-14.725L-59.405,-12.661L-60.549,-10.622L-62.405,-9.346L-65.085,-6.573L-68.978,-4.383L-71.411,-2.678L-73.115,-1.948L-75.791,-1.065L-78.35,-1.065L-79.313,0L-84.554,0L-86.987,-1.56L-88.692,-3.165L-91.37,-3.165L-92.469,-4.382L-142.91,-4.382" style="fill:none;fill-rule:nonzero;stroke:rgb(18,106,178);stroke-width:1px;"/>
                    </g>
                </g>
                <g>
                    <clipPath id="_clip2">
                        <rect x="25.538" y="248.398" width="143.095" height="86.909" clip-rule="nonzero"/>
                    </clipPath>
                    <g clip-path="url(#_clip2)">
                        <g transform="matrix(1,0,0,1,168.512,331.201)">
                            <path d="M0,-78.698L-23.774,-78.698L-26.17,-78.496L-32.763,-78.496L-34.162,-78.295L-40.154,-78.295L-40.553,-78.096L-44.148,-78.096L-44.549,-77.899L-47.345,-77.899L-47.746,-77.698L-48.344,-77.698L-49.942,-77.496L-50.542,-77.496L-51.941,-77.294L-53.338,-77.294L-54.538,-77.095L-54.721,-77.095L-62.129,-75.293L-67.325,-72.689L-68.521,-71.088L-69.12,-70.485L-69.12,-70.286L-71.119,-67.281L-71.119,-66.679L-71.717,-65.479L-72.718,-62.275L-72.718,-61.877L-73.114,-59.872L-73.315,-59.258L-73.717,-56.469L-73.717,-56.268L-73.916,-54.468L-74.117,-54.468L-74.117,-52.264L-74.315,-50.861L-74.315,-50.261L-74.511,-49.06L-74.513,-48.257L-74.715,-47.056L-74.715,-44.654L-74.914,-43.051L-74.914,-42.65L-75.115,-41.249L-75.115,-38.446L-75.313,-37.245L-75.313,-34.641L-75.514,-33.041L-75.512,-32.037L-75.713,-31.236L-75.713,-29.032L-75.912,-28.233L-75.912,-26.832L-76.114,-26.229L-76.114,-25.228L-76.311,-24.828L-76.311,-23.426L-76.513,-23.229L-76.513,-22.226L-76.913,-22.027L-77.112,-22.027L-77.31,-21.825L-77.71,-21.624L-77.911,-21.624L-78.711,-21.024M-79.908,-18.621L-79.908,-18.422L-80.23,-18.422L-81.106,-18.019L-82.505,-17.021L-82.903,-17.018M0.107,-74.181L-2.6,-74.09L-7.793,-74.09L-7.992,-73.891L-16.184,-73.891L-18.181,-73.692L-24.771,-73.692L-27.769,-73.49L-29.766,-73.291L-32.763,-73.291L-33.963,-73.089L-35.357,-73.089L-36.56,-72.89L-37.556,-72.89L-40.154,-72.49L-40.553,-72.49L-42.151,-72.29L-42.752,-72.29L-43.949,-72.089L-45.749,-71.69L-46.947,-71.489L-47.345,-71.287L-48.844,-70.987L-50.288,-70.687L-52.939,-69.684L-53.338,-69.686L-53.938,-69.487L-57.737,-67.682L-60.732,-65.479L-61.128,-65.282L-61.327,-64.879L-62.328,-63.881L-64.726,-61.075L-65.127,-60.472L-66.125,-58.471L-66.922,-57.069L-67.322,-55.867C-67.322,-55.867 -67.518,-55.381 -67.523,-55.368C-67.528,-55.355 -67.889,-54.368 -67.889,-54.368L-68.122,-53.664L-68.321,-53.265L-68.321,-53.066L-68.82,-51.264L-69.12,-49.862L-69.254,-49.461L-69.721,-47.659L-69.721,-47.256L-70.119,-45.655L-70.32,-44.054L-70.32,-43.653L-70.52,-43.253L-70.92,-40.449L-70.918,-39.648L-71.119,-38.047L-71.516,-36.041L-71.717,-34.841L-72.042,-32.687L-72.517,-30.036L-72.514,-29.635L-72.716,-28.034L-72.917,-27.631L-72.917,-27.033L-73.114,-26.229L-73.515,-25.43L-73.717,-24.629L-73.717,-23.827L-74.315,-22.426L-74.511,-21.825L-74.511,-21.624L-74.715,-21.225L-74.715,-20.822L-74.914,-20.623L-74.915,-20.422L-75.313,-19.675L-75.514,-19.423L-75.514,-19.02L-75.912,-18.621L-75.912,-18.422L-76.114,-18.22L-76.446,-17.72L-77.511,-16.62L-77.911,-16.418L-79.309,-15.014C-79.309,-15.014 -79.245,-14.88 -79.309,-14.817C-79.371,-14.755 -79.707,-14.419 -79.707,-14.419L-79.707,-14.016L-79.908,-13.814L-79.908,-13.617L-80.107,-13.416L-80.107,-13.012L-80.307,-12.813L-80.307,-12.213L-80.506,-12.213L-80.506,-12.012L-80.705,-12.012L-80.705,-11.813L-80.907,-11.813L-80.907,-11.616L-81.706,-11.616L-82.106,-11.412L-83.106,-11.412L-83.106,-11.616L-83.305,-11.616L-83.705,-11.813L-86.055,-11.813L-86.499,-11.616L-87.102,-11.616L-88.098,-11.614L-88.098,-11.213L-89.345,-11.011L-89.898,-11.011L-90.094,-10.812L-91.095,-10.812L-91.294,-10.61L-142.892,-10.61M-142.904,-10.01L-91.894,-10.01L-91.493,-10.212L-89.695,-10.212L-89.297,-10.411L-88.299,-10.411L-87.5,-10.61L-87.301,-10.61L-86.7,-10.812L-83.305,-10.812L-83.103,-10.61L-82.903,-10.61L-82.704,-10.812L-81.407,-10.812L-80.907,-11.011L-80.705,-11.011L-80.506,-11.213L-80.307,-11.213L-80.107,-11.414L-80.107,-11.616L-79.908,-11.616L-79.707,-11.813L-79.508,-12.213L-79.309,-12.412L-79.106,-12.813L-78.91,-13.012L-78.91,-13.214L-78.708,-13.214L-78.308,-14.013L-78.108,-14.218L-77.909,-14.618L-77.911,-14.817L-77.724,-15.001L-77.521,-15.001L-77.521,-15.606L-77.31,-15.813L-77.112,-15.619L-76.911,-15.619L-76.73,-15.8L-76.73,-16.046L-75.906,-16.831L-75.724,-17.199L-75.328,-17.604L-75.328,-17.82L-75.115,-18.235L-75.115,-18.592L-74.524,-19.213L-74.524,-19.408L-74.338,-19.622L-74.338,-19.849L-73.927,-20.423L-73.927,-20.623L-73.515,-21.425L-73.314,-21.631L-71.717,-26.229L-70.719,-30.235L-70.52,-31.437L-70.119,-33.041L-69.92,-34.24L-69.519,-36.242L-69.322,-37.444L-69.12,-38.246L-68.921,-39.249L-68.921,-39.847L-68.72,-40.25L-68.321,-43.051L-68.122,-43.452L-67.92,-44.856L-67.724,-45.857L-66.922,-48.461L-66.925,-49.06L-66.523,-50.059L-66.125,-51.664L-65.525,-53.066L-65.525,-53.265L-64.925,-54.268L-64.726,-54.866L-64.524,-55.267L-62.328,-58.872L-61.529,-59.671L-60.133,-61.476L-58.733,-62.877L-56.936,-64.08L-55.938,-64.879L-53.139,-66.281L-49.169,-67.884L-48.145,-68.083L-45.402,-68.882L-44.95,-68.885L-43.35,-69.285L-42.951,-69.285L-41.353,-69.684L-41.153,-69.684L-35.559,-70.286L-35.357,-70.286L-31.964,-70.687L-31.164,-70.687L-26.17,-71.09L-23.575,-71.088L-20.399,-71.285L-19.179,-71.287L-14.384,-71.489L-14.182,-71.489L-8.191,-71.69L-1.399,-71.69L-0.051,-71.767M-0.015,-69.65L-2.998,-69.285L-8.391,-69.285L-13.385,-69.086L-17.379,-69.086L-22.744,-68.685L-23.575,-68.685L-28.567,-68.481L-29.165,-68.282L-29.766,-68.282L-32.763,-68.083L-34.572,-67.884L-37.856,-67.382L-42.151,-66.679L-44.128,-66.281L-46.748,-65.479L-48.334,-65.081L-49.544,-64.478L-51.739,-63.677L-52.939,-63.076L-54.938,-61.877L-56.137,-61.075L-56.736,-60.472L-57.535,-59.872L-59.132,-58.272L-60.329,-56.87L-61.327,-55.291L-61.729,-54.866L-62.73,-53.066L-62.73,-52.862L-64.427,-49.059L-64.526,-48.859L-64.726,-48.057L-65.127,-46.658L-65.525,-44.856L-65.924,-43.852L-66.324,-42.05L-66.726,-39.847L-67.124,-38.249L-67.124,-38.07L-67.484,-36.242L-67.536,-36.009L-67.92,-34.843L-68.022,-34.24L-68.205,-33.338L-68.3,-32.768L-68.421,-32.237L-68.616,-31.457L-69.052,-29.709L-69.569,-27.834L-69.832,-26.787L-69.892,-26.431L-70.633,-24.699L-71.057,-23.755L-71.516,-22.826L-72.317,-20.822L-73.017,-19.924L-73.515,-19.224L-73.717,-18.82L-73.917,-18.617L-74.513,-16.819L-74.715,-16.62L-74.914,-16.219L-75.115,-16.017L-75.115,-15.816L-75.314,-15.616L-75.514,-15.218L-76.114,-14.618L-76.114,-14.417L-76.311,-14.215L-76.513,-13.814L-76.913,-13.214L-77.133,-13.214L-77.511,-12.614L-77.71,-12.614L-77.961,-12.313L-78.108,-12.012L-78.31,-11.813L-78.509,-11.813L-78.711,-11.412L-79.106,-11.213L-79.289,-11.031L-80.107,-10.61L-80.107,-10.411L-80.322,-10.411L-80.514,-10.219L-80.907,-10.219L-80.907,-10.01L-81.161,-10.01L-81.905,-9.811L-88.098,-9.811L-88.697,-9.609L-92.292,-9.609L-92.893,-9.41L-95.689,-9.41L-98.486,-9.609L-142.907,-9.609M-0.051,-67.125L-1.689,-67.129L-4.796,-67.082L-8.231,-66.883L-12.586,-66.883L-16.381,-66.679L-19.378,-66.482L-23.575,-66.281L-25.807,-66.077L-29.165,-65.88L-32.962,-65.479L-33.564,-65.479L-34.162,-65.282L-37.757,-64.879L-43.152,-63.878L-43.35,-63.677L-43.585,-63.677L-43.85,-63.577L-47.945,-62.476L-48.943,-61.877L-50.142,-61.476L-52.541,-60.074L-53.1,-59.671L-54.737,-58.872L-55.738,-57.871L-57.535,-56.268L-58.857,-54.567L-59.333,-54.101L-60.021,-52.862L-60.476,-52.145L-60.748,-51.827L-61.487,-50.059L-61.529,-49.814L-62.929,-46.459L-63.514,-44.114L-63.698,-43.712L-64.461,-41.05L-64.547,-40.705L-64.726,-39.411L-65.189,-37.548L-65.326,-37.243L-65.326,-36.695L-66.125,-33.622L-66.522,-32.438L-66.726,-31.036L-67.124,-30.036L-67.524,-28.836L-68.314,-26.252L-69.12,-24.23L-70.32,-22.027L-70.32,-21.825L-70.719,-21.425L-71.316,-20.224L-71.518,-20.023L-71.919,-19.224L-72.517,-18.621L-73.114,-17.018L-73.114,-16.817L-73.721,-15.802L-73.908,-15.237L-74.315,-14.817L-74.315,-14.618L-74.513,-14.413L-74.914,-13.814L-75.115,-13.416L-76.513,-12.012L-76.513,-11.75L-76.714,-11.578L-76.714,-11.412L-77.112,-11.011L-77.362,-11.011L-77.362,-10.794L-77.529,-10.794L-77.911,-10.411L-78.108,-10.411L-78.707,-9.812L-79.106,-9.812L-79.106,-9.609L-79.717,-9.609L-79.908,-9.41L-80.307,-9.41L-80.509,-9.211L-81.106,-9.211L-81.507,-9.01L-82.505,-9.01L-83.302,-8.81L-85.102,-8.81L-86.3,-9.01L-142.892,-9.01M-0.015,-62.501L-2.998,-62.501L-4.198,-62.275L-8.391,-62.275L-11.627,-62.076L-11.988,-62.076L-16.381,-61.877L-18.181,-61.877L-22.174,-61.452L-24.372,-61.476L-31.164,-60.674L-32.562,-60.674L-34.961,-60.273L-37.157,-60.074L-38.756,-59.671L-39.756,-59.472L-40.954,-59.273L-44.947,-58.272L-46.947,-57.669L-47.144,-57.47L-47.345,-57.47L-48.744,-56.87L-49.371,-56.458L-50.308,-56.069L-50.743,-56.069L-51.142,-55.668L-52.141,-55.267L-52.541,-54.866L-53.358,-54.259L-53.738,-54.067L-55.536,-52.264L-55.738,-51.864L-56.134,-51.264L-56.336,-50.861L-56.566,-50.661L-57.535,-49.06L-58.933,-45.456L-58.933,-45.254L-59.132,-44.856L-59.931,-42.05L-60.329,-40.85L-60.531,-40.037L-60.932,-37.845L-61.327,-36.444L-61.529,-35.443L-62.129,-33.24L-62.53,-32.438L-62.67,-31.737L-62.929,-30.635L-63.728,-28.634L-63.927,-27.631L-64.925,-25.629L-65.727,-23.625L-66.324,-22.826L-66.726,-22.027L-67.724,-20.424L-69.322,-18.621L-69.721,-16.819L-70.32,-15.818L-70.52,-15.218L-71.119,-14.417L-71.516,-13.416L-71.919,-13.214L-72.115,-12.614L-72.517,-12.213L-72.716,-11.813L-73.515,-11.013L-73.916,-10.812L-73.916,-10.61L-74.117,-10.61L-74.117,-10.411L-74.315,-10.411L-74.315,-10.012L-74.78,-10.012L-74.914,-9.811L-75.115,-9.811L-75.313,-9.609L-75.776,-9.347L-75.912,-9.211L-76.114,-9.211L-76.712,-8.611L-76.913,-8.611L-77.71,-8.011L-78.142,-7.809L-78.308,-7.61L-78.711,-7.61L-78.91,-7.408L-79.707,-7.207L-80.506,-7.207L-80.705,-7.006L-86.3,-7.006L-86.7,-7.207L-87.102,-7.207L-88.098,-7.408L-88.498,-7.61L-90.094,-7.61L-90.296,-7.809L-93.691,-7.809L-94.69,-8.011L-142.908,-8.011M0,-60.35L-2,-60.074L-4.597,-60.074L-6.596,-59.872L-10.413,-59.87L-12.586,-59.671L-15.186,-59.671L-16.381,-59.472L-19.179,-59.273L-20.575,-59.273L-24.973,-58.872L-26.369,-58.872L-31.765,-58.272L-32.562,-58.272L-33.163,-58.07L-35.745,-57.872L-36.144,-57.669L-38.957,-57.268L-39.356,-57.268L-39.553,-57.069L-41.353,-56.87L-43.733,-56.272L-44.748,-56.069L-45.749,-55.668L-46.147,-55.668L-46.549,-55.469L-47.746,-55.068L-48.943,-54.468L-49.342,-54.468L-49.544,-54.268L-50.142,-54.067L-50.743,-53.664L-51.938,-53.066L-52.141,-52.862L-52.541,-52.665L-52.929,-52.275L-53.139,-52.275L-53.738,-51.664L-53.938,-51.264L-54.737,-50.462L-55.136,-49.862L-55.539,-48.859L-55.539,-48.66L-56.137,-47.46L-57.934,-42.252L-58.332,-40.449L-58.551,-39.05L-59.132,-36.844L-59.132,-36.645L-59.354,-36.645L-59.354,-36.444L-59.731,-34.841L-59.731,-34.24L-60.13,-33.041L-60.732,-30.837L-61.133,-30.014L-61.327,-29.032C-61.327,-29.032 -61.719,-28.259 -61.729,-28.233C-61.738,-28.207 -62.339,-26.611 -62.339,-26.611L-62.515,-26.26L-62.926,-25.228L-63.526,-24.23L-64.327,-22.627L-64.327,-22.426L-64.925,-21.825L-65.326,-21.228L-65.326,-21.026L-65.525,-20.822L-65.924,-20.224L-66.723,-19.423L-67.322,-18.621L-67.92,-17.018L-67.92,-16.819L-68.521,-15.218L-69.322,-13.817L-69.519,-13.416L-70.52,-12.213L-70.918,-11.616L-71.119,-11.616L-71.316,-11.213L-72.265,-10.264L-72.265,-10.012L-72.517,-10.012L-72.735,-9.793L-72.735,-9.609L-72.917,-9.609L-72.917,-9.41L-73.114,-9.41L-73.114,-9.211L-73.414,-9.211L-73.414,-9.012L-73.855,-9.012L-73.942,-8.81L-74.117,-8.81L-74.117,-8.582L-74.511,-8.21L-74.96,-8.011L-75.115,-8.011L-75.115,-7.709L-74.951,-7.548L-75.464,-7.232L-75.275,-7.006L-74.96,-7.006L-74.715,-6.808L-74.513,-6.808L-74.758,-6.607L-75.313,-6.808L-78.01,-6.808L-78.16,-6.607L-78.308,-6.607L-78.308,-6.408L-78.711,-6.408L-79.508,-6.007C-79.508,-6.007 -80.217,-6.018 -80.307,-6.007C-80.397,-5.995 -81.905,-5.805 -81.905,-5.805L-83.903,-5.805L-84.104,-6.007L-85.5,-6.007L-85.699,-6.206L-86.658,-6.206L-87.104,-6.408L-87.301,-6.607L-88.232,-6.831L-89.297,-7.006L-90.296,-7.006L-90.694,-7.207L-92.093,-7.207L-92.693,-7.408L-142.902,-7.408M0.021,-58.094L-3.598,-57.669L-7.393,-57.669L-8.991,-57.47L-12.986,-57.47L-13.385,-57.268L-15.982,-57.268L-18.38,-57.052L-19.378,-57.069L-20.146,-56.87L-22.174,-56.87L-25.57,-56.469L-26.77,-56.469L-28.368,-56.268L-30.565,-56.069L-31.932,-55.867L-32.962,-55.867L-34.56,-55.668L-34.762,-55.668L-35.927,-55.474L-36.36,-55.267L-37.556,-55.267L-43.551,-54.067L-45.122,-53.67L-45.749,-53.465L-46.174,-53.465L-46.729,-53.265L-47.547,-53.066L-47.723,-53.066L-48.501,-52.687L-49.345,-52.464L-49.544,-52.264L-49.942,-52.06L-50.542,-51.864L-50.743,-51.864L-51.941,-51.264L-53.139,-50.059L-53.338,-49.66L-53.738,-49.06L-54.339,-47.858L-54.339,-47.659L-54.938,-45.453L-55.337,-44.654L-55.337,-44.054L-55.938,-42.252L-56.336,-40.248L-56.736,-38.647L-56.934,-37.444L-57.334,-36.043L-57.535,-35.443L-57.535,-35.042L-57.934,-33.242L-57.934,-33.038L-58.525,-31.256L-58.525,-31.036L-59.333,-28.634L-59.333,-28.432L-60.133,-26.633L-60.133,-26.229L-61.128,-24.23L-61.313,-24.046L-62.328,-22.027L-62.73,-21.626L-63.128,-20.824L-63.911,-20.039L-63.911,-19.824L-64.128,-19.824L-64.526,-19.02L-64.726,-18.849L-65.127,-18.621L-65.127,-18.22L-65.525,-17.018L-65.924,-16.017L-66.125,-15.642L-66.522,-15.014L-66.726,-14.417L-68.122,-12.213L-68.321,-12.213L-68.321,-11.994L-69.92,-10.212L-70.119,-9.811L-70.478,-9.452L-71.089,-9.03L-71.903,-8.225L-72.517,-7.809L-72.917,-7.61L-73.116,-7.207L-73.717,-7.006L-73.717,-6.808L-73.953,-6.808L-74.315,-6.406L-74.511,-6.406L-74.914,-6.182L-74.914,-6.005L-75.313,-5.805L-75.313,-5.407L-76.114,-5.407L-76.114,-4.804L-78.711,-4.804L-80.907,-4.603L-83.106,-4.603L-83.705,-4.804L-84.502,-4.804L-85.102,-5.006L-85.503,-5.205L-85.901,-5.205L-86.499,-5.407L-86.7,-5.407L-86.902,-5.606L-87.102,-5.606L-87.5,-5.805L-87.699,-5.805L-87.9,-6.007L-88.532,-6.206L-89.297,-6.206L-89.494,-6.408L-90.296,-6.408L-90.694,-6.607L-91.931,-6.607L-92.693,-6.825L-94.09,-6.825L-94.718,-7.008L-142.902,-7.008M-0.051,-55.454L-5.396,-55.454L-7.393,-55.267L-10.19,-55.267L-11.588,-55.068L-13.184,-55.068L-14.983,-54.866L-16.582,-54.866L-18.408,-54.667L-20.177,-54.667L-24.569,-54.266L-25.371,-54.268L-27.168,-54.067L-27.367,-54.067L-29.566,-53.863L-30.166,-53.863L-31.563,-53.664L-31.765,-53.664L-32.962,-53.465L-33.564,-53.465L-34.361,-53.265L-35.357,-53.265L-36.159,-53.066L-36.36,-53.066L-37.157,-52.862L-38.357,-52.862L-38.957,-52.665L-39.955,-52.464L-40.553,-52.464L-41.952,-52.264L-42.351,-52.06L-43.949,-51.864L-44.148,-51.864L-44.971,-51.662L-45.548,-51.662L-45.948,-51.461L-46.347,-51.461L-46.748,-51.264L-47.345,-51.264L-47.748,-51.062L-48.744,-50.861L-48.943,-50.861L-49.942,-50.462L-50.343,-50.462L-51.543,-50.059L-51.941,-49.86L-52.34,-49.06L-52.34,-48.857L-52.541,-48.66L-52.541,-48.057L-52.74,-47.856L-52.74,-47.256L-53.139,-46.459L-53.139,-45.655L-53.338,-44.856L-53.338,-44.654L-53.537,-43.653L-53.738,-43.253L-53.738,-42.852L-53.938,-42.65L-53.938,-41.652L-54.14,-41.652L-54.339,-40.049L-54.339,-39.648L-54.737,-38.446L-54.737,-37.845L-54.938,-36.844L-55.136,-36.242L-55.337,-35.443L-55.337,-35.042L-55.539,-34.639L-55.738,-33.842L-56.137,-31.636L-56.736,-29.433L-56.934,-29.032L-57.135,-28.208L-57.737,-26.431L-57.737,-26.229L-58.733,-24.23L-58.733,-24.029L-59.931,-22.027L-60.531,-21.225L-61.327,-19.824L-62.53,-18.621L-62.53,-18.019L-62.73,-17.62L-62.929,-17.421L-63.528,-15.619L-64.126,-14.618L-64.126,-14.417L-64.726,-13.214L-65.326,-12.614L-65.525,-12.213L-66.125,-11.616L-67.124,-10.212L-67.92,-9.41L-69.12,-8.409L-69.721,-7.809L-70.32,-7.408L-70.52,-7.172L-71.919,-6.206L-71.919,-6.005L-72.517,-5.606L-72.718,-5.606L-72.917,-5.407L-73.717,-5.004L-74.914,-4.603L-75.115,-4.404L-75.912,-4.003L-76.311,-4.003L-78.108,-3.602L-78.742,-3.398L-80.907,-3.204L-82.903,-3.204L-83.305,-3.401L-83.705,-3.401L-84.502,-3.602L-84.703,-3.602L-85.102,-3.804L-85.304,-3.804L-85.699,-4.003L-85.926,-4.204L-86.501,-4.802L-86.801,-4.881L-87.076,-5.033L-87.303,-5.006L-87.523,-5.205L-87.699,-5.205L-88.098,-5.407L-88.697,-5.407L-88.897,-5.606L-89.297,-5.606L-90.094,-5.805L-90.296,-5.805L-91.098,-6.005L-91.493,-6.005L-91.894,-6.206L-92.927,-6.206L-93.492,-6.408L-142.885,-6.408M0,-51.041L-1.801,-50.861L-4.997,-50.861L-6.795,-50.661L-8.991,-50.661L-10.19,-50.462L-13.587,-50.462L-15.137,-50.261L-15.982,-50.261L-17.642,-50.059L-20.177,-50.059L-20.575,-49.86L-22.974,-49.86L-25.172,-49.66L-26.369,-49.26L-26.57,-48.859L-27.569,-48.257L-27.968,-47.858L-28.767,-47.256L-28.767,-47.056L-29.165,-46.855L-30.365,-45.655L-32.763,-43.852L-33.362,-43.253L-34.56,-42.451L-35.423,-41.602L-36.208,-41.012L-37.262,-40.246L-38.756,-39.247L-39.553,-38.446L-42.951,-36.242L-43.551,-35.642L-45.749,-34.24L-47.146,-33.439L-47.945,-33.041L-49.544,-32.04L-49.745,-32.04L-50.844,-31.301L-51.739,-30.837L-51.941,-30.235L-51.941,-30.033L-52.34,-28.233L-52.34,-27.631L-53.139,-24.828L-53.139,-24.429L-53.537,-23.028L-53.938,-22.226L-53.938,-22.027L-54.339,-21.024L-55.136,-19.423L-55.738,-18.82L-55.738,-18.621L-55.938,-18.22L-56.137,-17.219L-56.336,-17.018L-56.336,-16.62L-57.135,-14.618L-58.332,-13.012L-58.332,-12.614L-58.531,-12.412L-59.532,-11.011L-59.532,-10.812L-60.73,-9.609L-61.128,-9.41L-61.729,-8.611L-62.73,-7.809L-62.929,-7.809L-62.929,-7.608L-64.726,-6.408L-65.525,-5.805L-66.77,-4.981L-67.92,-4.404L-69.92,-3.204L-70.819,-3.002L-71.818,-2.551L-72.817,-2.051L-74.117,-1.6L-74.412,-1.6L-74.715,-1.399L-75.115,-1.399L-75.713,-0.998L-75.912,-0.998L-76.913,-0.6L-77.112,-0.6L-77.911,-0.398L-78.109,-0.2L-79.106,-0.2L-80.107,0.003L-83.004,0.003L-83.705,-0.199L-84.104,-0.199L-84.502,-0.398L-85.301,-0.6L-85.901,-0.802L-85.901,-0.998L-86.7,-1.198L-86.902,-1.399L-87.514,-1.802L-87.699,-1.802L-88.897,-3.002L-89.097,-3.002L-89.097,-3.226L-89.327,-3.226L-89.535,-3.434L-89.535,-3.602L-89.731,-3.602L-89.731,-3.855L-89.939,-3.855L-89.939,-4.086L-90.112,-4.204L-91.525,-4.204L-91.692,-4.003L-91.894,-4.003L-92.096,-4.204L-92.096,-4.404L-92.292,-4.404L-92.491,-4.603L-92.491,-4.804L-94.69,-4.804L-96.889,-5.004L-142.885,-5.004M-0.015,-41.14L-0.601,-41.05L-2.998,-40.25L-4.597,-39.648L-10.19,-37.245L-10.791,-37.046L-13.261,-35.921L-16.4,-34.58L-19.179,-33.439L-19.179,-33.24L-19.378,-33.242L-22.559,-31.722L-25.656,-30.218L-28.169,-29.032L-29.766,-28.233L-31.941,-27.046L-35.357,-25.629L-36.759,-24.828L-38.357,-24.029L-39.955,-23.229L-42.393,-22.226L-43.721,-21.425L-45.749,-20.424L-45.948,-20.224L-48.162,-19.206L-48.344,-19.02L-49.146,-18.621L-49.724,-18.235L-51.739,-16.62L-51.739,-16.418L-51.941,-16.418L-53.139,-13.416L-55.337,-10.01L-55.539,-10.01L-58.531,-7.006L-60.329,-5.805L-61.529,-5.205L-61.729,-5.004L-63.749,-4.003L-64.925,-3.204L-66.726,-2.803L-68.321,-1.802L-68.921,-1.6L-69.12,-1.399L-69.322,-1.399L-69.721,-1.198L-69.921,-0.997L-70.619,-0.997L-70.719,-0.802L-70.92,-0.802L-71.119,-0.6L-71.316,-0.6L-71.516,-0.398L-71.717,-0.398L-72.317,0.003L-74.315,0.802L-74.513,1.006L-75.713,1.202L-75.912,1.404L-77.31,1.805L-78.308,1.802L-78.711,2.004L-79.106,2.004L-80.506,2.206L-81.305,2.203L-82.704,2.004L-83.305,2.004L-83.904,1.802L-84.303,1.802L-84.502,1.603L-85.301,1.404L-85.699,1.202L-85.901,1.202L-86.7,1.004L-86.902,0.802L-87.5,0.401L-87.699,0.401L-88.498,-0.398L-89.494,-0.998L-90.296,-2.001L-90.694,-2.2L-90.694,-2.402L-91.294,-3.002M-0.051,-21.425L-0.401,-21.425L-3.797,-20.623L-5.993,-20.023L-7.793,-19.622L-11.588,-18.422L-12.586,-18.22L-16.584,-17.222L-17.182,-17.018L-23.972,-15.016L-24.372,-15.014L-24.569,-14.817L-34.194,-12.001L-35.96,-11.412L-38.758,-10.613L-40.954,-9.811L-43.386,-9.198L-47.547,-7.809L-48.545,-7.408L-50.542,-6.808L-51.739,-6.607L-52.77,-5.593L-56.336,-4.003L-56.537,-3.768L-59.363,-2.593L-62.73,-1.6L-62.929,-1.399L-63.128,-1.399L-63.927,-0.998M-67.322,0.003L-68.098,0.49L-68.321,0.603L-71.316,2.607L-71.545,2.604L-73.216,3.305L-75.115,3.807L-75.313,3.807L-75.713,4.006M-67.322,3.608L-67.724,4.006M-89.87,1.338L-89.596,1.502L-88.897,2.203L-88.299,2.607L-87.898,2.806L-87.699,3.008L-87.5,3.005L-86.499,3.608L-86.3,3.608L-85.739,3.807L-85.5,3.807L-84.703,4.006M0,-3.998L-3.197,-3.401L-3.598,-3.401L-6.394,-3.002L-7.793,-2.803L-8.391,-2.601L-8.991,-2.601L-10.788,-2.004L-11.789,-1.802L-13.985,-1.198L-15.334,-0.991M-90.246,-13.263L-91.358,-11.616L-142.904,-11.616M-78.708,-18.621L-51.739,-18.621L-51.739,-0.998L0.021,-0.998L-0.026,-82.704L-78.708,-82.704L-78.708,-18.621L-82.304,-18.621L-83.305,-16.017L-83.305,-15.816L-89.096,-15.816L-90.246,-13.263L-88.897,-13.263L-88.897,-13.617L-89.494,-13.617L-88.697,-15.42L-86.3,-15.42L-86.3,-13.012L-87.98,-13.012L-88.498,-13.416L-88.699,-13.416L-88.903,-13.263M0.021,-3.002L-51.739,-3.002M-51.739,-0.998L-67.322,-0.998L-67.322,4.006L-88.897,4.006L-92.096,-5.004L-92.491,-5.205L-93.492,-5.205L-94.69,-5.407L-142.885,-5.407M-81.305,-12.614L-81.906,-12.614L-81.906,-15.417L-81.305,-15.417L-81.305,-12.614ZM-81.305,-15.417L-81.305,-15.816L-83.305,-15.816M-82.505,-12.614L-82.505,-15.42L-85.699,-15.42L-85.699,-13.814L-85.301,-13.814L-84.948,-13.615L-84.373,-13.615L-83.904,-13.315L-83.305,-13.315L-83.003,-13.012L-82.901,-13.012L-82.505,-12.614ZM-91.358,-11.616L-86.7,-11.616L-86.7,-4.603L-86.902,-4.603L-86.902,-4.404L-88.299,-4.404L-88.598,-4.104L-88.598,-3.602L-89.535,-3.602L-90.194,-4.404L-91.883,-4.404M-92.096,-5.004L-86.7,-5.004M-71.717,-0.991L-71.717,-2.801L-70.719,-2.801L-70.719,-4.704L-71.717,-4.704L-71.717,-6.007L-73.717,-6.007L-73.916,-6.206L-73.916,-7.408L-75.167,-7.408L-75.167,-7.809L-75.912,-7.809L-76.513,-6.808L-75.313,-6.808L-75.313,-5.405L-76.114,-5.405L-76.114,-4.802L-78.708,-4.802L-78.708,-1.802L-76.111,-1.802L-76.111,-1.397L-75.516,-1.397L-75.115,-0.997L-70.619,-0.997M-76.513,-6.808L-78.108,-6.808L-78.108,-7.044L-78.308,-7.044L-78.308,-9.609L-78.509,-9.759L-78.509,-10.411L-78.009,-11.011L-77.71,-11.011L-77.511,-11.213L-77.212,-11.213L-77.212,-11.616L-75.113,-11.616L-75.113,-10.411L-75.015,-10.212L-74.815,-10.209L-73.315,-10.209L-73.315,-9.01L-74.914,-9.01L-75.167,-8.81L-75.167,-7.809M0.021,-80.596L-76.51,-80.596L-76.51,-18.621" style="fill:none;fill-rule:nonzero;stroke:rgb(16,20,22);stroke-width:0.2px;"/>
                        </g>
                        <g transform="matrix(1,0,0,1,168.489,329.399)">
                            <path d="M0,-74.591L-2.975,-74.691L-7.562,-74.448L-17.756,-74.491L-20.754,-74.192L-27.664,-74.292L-29.242,-73.991L-31.94,-74.091L-33.438,-73.891L-35.835,-73.891L-37.134,-73.591L-39.131,-73.69L-39.83,-73.391L-41.728,-73.491L-43.129,-73.191L-44.126,-73.224L-45.425,-72.79L-47.122,-72.891L-49.539,-72.38L-54.414,-71.287L-61.304,-68.484L-63.104,-67.08L-66.102,-64.078L-67.7,-61.474L-68.797,-59.273L-69.52,-57.57L-70.297,-55.068L-70.895,-52.164L-71.492,-50.261L-71.895,-47.258L-72.294,-44.352L-72.394,-41.851L-72.894,-38.448L-73.292,-34.44L-73.693,-31.276L-73.894,-28.734L-74.487,-25.431L-74.691,-23.927L-75.39,-21.026L-75.789,-18.923L-76.188,-17.522L-76.988,-16.52L-78.985,-15.468L-80.283,-14.417L-81.281,-13.212L-81.48,-12.212L-81.281,-11.011L-80.884,-10.411L-82.58,-10.312L-83.382,-10.712L-84.08,-11.614L-85.078,-11.614L-85.777,-11.111L-87.676,-11.211L-88.476,-10.811L-88.773,-10.11L-89.974,-9.51C-89.974,-9.51 -91.255,-9.351 -91.27,-9.31C-91.283,-9.269 -92.869,-9.209 -92.869,-9.209L-142.884,-9.209M0.023,-62.974L-2.171,-62.924L-6.37,-62.949L-8.068,-62.876L-8.37,-62.477L-12.473,-62.648L-15.561,-62.402L-16.758,-62.402L-23.751,-62.076L-27.344,-61.675L-29.043,-61.783L-30.038,-61.275L-33.339,-61.239L-39.732,-60.274L-42.629,-59.473L-44.924,-58.672L-46.725,-58.549L-47.725,-57.672L-50.12,-56.969L-51.818,-56.169L-52.916,-55.267L-53.515,-54.567L-55.214,-53.466L-57.908,-50.564L-59.507,-47.46L-60.189,-45.655C-60.189,-45.655 -60.942,-44.171 -60.908,-44.055C-60.874,-43.938 -61.405,-42.252 -61.405,-42.252L-61.785,-41.351L-63.104,-37.321L-63.503,-34.556C-63.503,-34.556 -64.136,-31.906 -64.152,-31.838C-64.169,-31.771 -64.622,-29.836 -64.622,-29.836L-65.462,-27.031L-66.168,-25.431L-66.999,-23.426L-67.6,-22.227L-69.197,-19.222L-70.296,-17.42L-71.096,-16.62L-71.593,-15.115L-72.293,-14.117L-72.494,-13.015L-72.993,-11.914L-74.487,-10.511L-75.789,-8.811L-76.789,-8.407L-77.288,-7.908L-78.086,-7.208L-79.684,-6.507L-80.685,-6.458L-82.28,-6.309L-83.581,-6.209L-87.474,-6.209L-88.275,-6.507L-89.173,-6.509L-90.37,-6.707L-93.668,-6.608L-95.185,-6.909L-142.95,-6.909M-142.861,-4.205L-94.167,-4.205L-92.169,-3.804L-89.874,-3.403L-88.674,-3.003L-87.875,-2.402L-86.978,-1.699L-86.476,-1.2L-85.676,-0.799L-84.08,-0.5L-82.878,0.1L-81.782,0.1L-80.682,0L-79.087,-0.299L-78.085,-0.399L-76.89,-0.7L-74.691,-1.2L-72.892,-2.002L-71.994,-2.452L-70.392,-3.304L-69.097,-4.404L-67.727,-5.207L-65.802,-6.678L-65.003,-7.41L-63.505,-8.71L-63.104,-9.61L-61.307,-12.012L-60.905,-13.114L-60.508,-13.817L-59.308,-15.818L-59.209,-16.318L-58.709,-17.22L-58.408,-17.821L-57.714,-18.821L-56.712,-21.024L-56.113,-22.025L-55.814,-23.026L-55.213,-24.732L-54.915,-25.63L-54.714,-26.331L-54.113,-28.834L-53.814,-29.936L-53.514,-31.438L-52.916,-33.542L-52.717,-34.642L-52.616,-37.447L-52.417,-39.047L-52.217,-40.594L-52.017,-41.85L-50.824,-42.552L-48.82,-44.153L-47.922,-45.156L-47.523,-45.658L-46.525,-46.858L-45.925,-47.659L-44.927,-48.06L-43.525,-48.159L-42.028,-48.36L-41.061,-48.459L-40.43,-48.559L-38.831,-48.66L-37.333,-48.96L-36.036,-49.061L-34.837,-49.119L-33.857,-49.317L-32.938,-49.662L-29.543,-49.662L-25.348,-50.062L-24.05,-50.062L-21.368,-50.361C-21.368,-50.361 -20.727,-50.463 -20.552,-50.463C-20.377,-50.463 -19.255,-50.562 -19.255,-50.562L-16.642,-50.962L-15.658,-50.863L-13.562,-50.962L-12.362,-51.06L-9.966,-51.06L-8.268,-51.162C-8.268,-51.162 -6.565,-51.264 -6.37,-51.264L-4.371,-51.264L-3.174,-51.364L-2.376,-51.636L-1.775,-51.55L0.023,-51.636" style="fill:none;fill-rule:nonzero;stroke:rgb(22,107,178);stroke-width:1px;stroke-linejoin:round;"/>
                        </g>
                    </g>
                </g>
                <g>
                    <g transform="matrix(1,0,-0.176322,1,25.3986,0)">
                        <text x="179.257px" y="144.046px" style="font-family:'Helvetica';font-size:9px;fill:rgb(35,31,32);">Y</text>
                    </g>
                    <text x="187.595px" y="144.046px" style="font-family:'Helvetica-Light', 'Helvetica', sans-serif;font-weight:300;font-size:8px;fill:rgb(35,31,32);"><tspan x="187.595px 192.875px 195.21px " y="144.046px 144.046px 144.046px ">= 0</tspan>,08 <tspan x="213.114px " y="144.046px ">W</tspan>/mK</text>
                    <g transform="matrix(1,0,-0.176322,1,44.9104,0)">
                        <text x="179.836px" y="254.706px" style="font-family:'Helvetica';font-size:9px;fill:rgb(35,31,32);">Y</text>
                    </g>
                    <text x="188.018px" y="254.706px" style="font-family:'Helvetica-Light', 'Helvetica', sans-serif;font-weight:300;font-size:8px;fill:rgb(35,31,32);">= 0,<tspan x="201.924px 206.252px 210.58px " y="254.706px 254.706px 254.706px ">11 </tspan>W/<tspan x="221.991px 228.535px " y="254.706px 254.706px ">mK</tspan></text>
                </g>
            </g>
        </g>
    </g>
</svg>
