<?xml version="1.0" encoding="UTF-8" standalone="no"?>
<!DOCTYPE svg PUBLIC "-//W3C//DTD SVG 1.1//EN" "http://www.w3.org/Graphics/SVG/1.1/DTD/svg11.dtd">
<svg width="100%" height="100%" viewBox="0 0 403 365" version="1.1" xmlns="http://www.w3.org/2000/svg" xmlns:xlink="http://www.w3.org/1999/xlink" xml:space="preserve" xmlns:serif="http://www.serif.com/" style="fill-rule:evenodd;clip-rule:evenodd;">
    <g transform="matrix(1,0,0,1,-3218,-263)">
        <g transform="matrix(2,0,0,2,2678.74,0)">
            <rect id="Page-3" serif:id="Page 3" x="0" y="0" width="595.276" height="841.89" style="fill:none;"/>
            <g id="Page-31" serif:id="Page 3">
                <g>
                    <clipPath id="_clip1">
                        <rect x="272.693" y="178.823" width="193.323" height="132.757" clip-rule="nonzero"/>
                    </clipPath>
                    <g clip-path="url(#_clip1)">
                        <g transform="matrix(1,0,0,1,0,-355.625)">
                            <rect x="306.822" y="597.785" width="17.417" height="1.945" style="fill:rgb(146,150,153);stroke:rgb(35,31,32);stroke-width:0.25px;"/>
                        </g>
                        <g transform="matrix(1,0,0,1,347.668,230.923)">
                            <path d="M0,-11.961L0,-11.79L-0.292,-7.819C-0.293,-7.774 -0.284,-7.725 -0.257,-7.685L0.16,-7.055C0.206,-6.983 0.206,-6.887 0.158,-6.819C0.106,-6.747 0.019,-6.714 -0.066,-6.735L-2.376,-6.771C-2.695,-6.733 -2.935,-6.466 -2.947,-6.146L-2.947,-4.312L-5.473,-4.312L-5.473,-2.211L-2.947,-2.211L-2.947,0.291L-2.296,0.702C-2.262,0.724 -2.246,0.76 -2.241,0.801C-2.238,0.839 -2.251,0.877 -2.282,0.904L-3.58,1.423C-3.681,1.464 -3.733,1.572 -3.7,1.678C-3.671,1.781 -3.567,1.844 -3.46,1.825L-2.176,1.572L-1.157,1.572C-1.142,1.57 -1.126,1.563 -1.113,1.553L-1.029,1.512C-1.005,1.502 -0.989,1.483 -0.974,1.464L-0.897,1.329C-0.875,1.298 -0.873,1.26 -0.882,1.226L-0.928,1.096L-0.962,1.053L-1.801,-0.642C-1.857,-0.754 -1.885,-0.88 -1.89,-1.004L-1.914,-3.406C-1.919,-3.519 -1.878,-3.627 -1.801,-3.711C-1.724,-3.793 -1.613,-3.838 -1.502,-3.838L1.453,-3.882L1.483,-3.471L3.742,-3.471C3.8,-3.483 3.848,-3.533 3.851,-3.593C3.856,-3.651 3.816,-3.706 3.764,-3.728L3.158,-3.92C3.132,-3.93 3.105,-3.949 3.089,-3.976L2.062,-5.718C1.989,-5.891 1.862,-6.031 1.702,-6.122L0.94,-6.435C0.865,-6.466 0.815,-6.533 0.807,-6.613C0.798,-6.69 0.836,-6.766 0.906,-6.807C1.031,-6.887 1.108,-7.031 1.1,-7.182L0.98,-9.783L0.894,-10.829L0.841,-11.747C0.824,-12.055 0.776,-12.365 0.691,-12.663L0.427,-13.605C0.416,-13.708 0.329,-13.792 0.228,-13.797C0.119,-13.805 0.026,-13.737 0,-13.634" style="fill:rgb(104,190,136);fill-rule:nonzero;stroke:rgb(35,31,32);stroke-width:0.25px;"/>
                        </g>
                        <g transform="matrix(1,0,0,1,349.701,224.904)">
                            <path d="M0,1.454L-0.575,0.74C-0.618,0.692 -0.63,0.625 -0.618,0.56C-0.704,0.324 -0.933,0.173 -1.182,0.182L-1.421,0.038C-1.502,-0.036 -1.596,-0.096 -1.7,-0.135L-1.762,-0.161C-1.892,-0.209 -2.041,-0.19 -2.157,-0.109L-2.274,-0.027L-2.385,0.055C-2.51,0.141 -2.652,0.197 -2.803,0.209L-3.666,0.283C-3.73,0.288 -3.779,0.339 -3.779,0.404L-3.822,1.31C-3.824,1.372 -3.779,1.43 -3.719,1.44L-2.38,1.663L-0.102,1.661C-0.048,1.661 -0.005,1.632 0.017,1.586C0.033,1.543 0.028,1.493 0,1.454" style="fill:white;fill-rule:nonzero;"/>
                        </g>
                        <g transform="matrix(1,0,0,1,349.701,224.904)">
                            <path d="M0,1.454L-0.577,0.74C-0.618,0.692 -0.63,0.625 -0.618,0.56C-0.704,0.324 -0.933,0.173 -1.182,0.182L-1.421,0.038C-1.502,-0.036 -1.596,-0.096 -1.7,-0.135L-1.762,-0.161C-1.892,-0.209 -2.041,-0.19 -2.157,-0.109L-2.274,-0.027L-2.385,0.055C-2.51,0.141 -2.652,0.197 -2.803,0.209L-3.666,0.283C-3.73,0.288 -3.779,0.339 -3.779,0.404L-3.822,1.31C-3.824,1.372 -3.779,1.43 -3.719,1.44L-2.38,1.663L-0.102,1.661C-0.048,1.661 -0.005,1.632 0.017,1.586C0.033,1.543 0.028,1.493 0,1.454Z" style="fill:none;fill-rule:nonzero;stroke:black;stroke-width:0.2px;stroke-linecap:round;stroke-linejoin:round;"/>
                        </g>
                        <g transform="matrix(1,0,0,1,368.2,236.697)">
                            <path d="M0,-0.421L-2.865,-0.421L-2.85,-1.26L5.682,-1.26C5.699,-1.262 5.719,-1.25 5.724,-1.233C5.731,-1.217 5.724,-1.2 5.712,-1.188C5.267,-0.805 4.879,-0.368 4.551,0.115C4.515,0.161 4.464,0.185 4.411,0.18C4.356,0.178 4.306,0.146 4.281,0.098L4.312,-0.015L4.002,-0.421L1.474,-0.421L1.474,0.841L0,0.841" style="fill:rgb(104,190,136);fill-rule:nonzero;"/>
                        </g>
                        <g transform="matrix(1,0,0,1,368.2,236.697)">
                            <path d="M0,-0.421L-2.865,-0.421L-2.85,-1.26L5.682,-1.26C5.699,-1.262 5.719,-1.25 5.724,-1.233C5.731,-1.217 5.724,-1.2 5.712,-1.188C5.267,-0.805 4.879,-0.368 4.551,0.115C4.515,0.161 4.464,0.185 4.411,0.18C4.356,0.178 4.306,0.146 4.281,0.098L4.312,-0.015L4.002,-0.421L1.474,-0.421L1.474,0.841L0,0.841L0,-0.421Z" style="fill:none;fill-rule:nonzero;stroke:rgb(35,31,32);stroke-width:0.25px;"/>
                        </g>
                        <g transform="matrix(1,0,0,1,370.241,219.397)">
                            <path d="M0,-3.17C0.012,-3.201 0.036,-3.228 0.072,-3.24L0.286,-3.24C0.432,-3.24 0.558,-3.139 0.591,-2.999C0.793,-2.026 1.202,-1.108 1.796,-0.312C1.894,-0.29 1.966,-0.206 1.966,-0.105L1.966,-0.014C1.966,0.01 1.959,0.032 1.945,0.046C1.925,0.063 1.906,0.07 1.882,0.07L-3.899,0.07C-4.195,-0.031 -4.476,-0.173 -4.733,-0.353C-4.745,-0.362 -4.754,-0.38 -4.75,-0.396C-4.036,-1.442 -3.108,-2.326 -2.028,-2.99C-1.981,-3.002 -1.926,-3.004 -1.875,-2.993L-1.637,-2.872" style="fill:rgb(104,190,136);fill-rule:nonzero;"/>
                        </g>
                        <g transform="matrix(1,0,0,1,370.241,219.397)">
                            <path d="M0,-3.17C0.012,-3.201 0.036,-3.228 0.072,-3.24L0.286,-3.24C0.432,-3.24 0.558,-3.139 0.591,-2.999C0.793,-2.026 1.202,-1.108 1.796,-0.312C1.894,-0.29 1.966,-0.206 1.966,-0.105L1.966,-0.014C1.966,0.01 1.959,0.032 1.945,0.046C1.925,0.063 1.906,0.07 1.882,0.07L-3.899,0.07C-4.195,-0.031 -4.476,-0.173 -4.733,-0.353C-4.745,-0.362 -4.754,-0.38 -4.748,-0.396C-4.036,-1.442 -3.108,-2.326 -2.028,-2.99C-1.981,-3.002 -1.926,-3.004 -1.875,-2.993L-1.637,-2.872" style="fill:none;fill-rule:nonzero;stroke:rgb(35,31,32);stroke-width:0.25px;"/>
                        </g>
                        <g transform="matrix(1,0,0,1,330.545,219.256)">
                            <path d="M0,-6.933L24.222,-6.933C24.311,-6.933 24.391,-6.878 24.42,-6.794L25.954,-2.592C25.963,-2.568 25.965,-2.546 25.965,-2.519C25.965,-2.464 25.944,-2.411 25.901,-2.371C25.865,-2.332 25.809,-2.311 25.754,-2.311L24.492,-2.311C24.384,-2.311 24.273,-2.354 24.194,-2.433C24.115,-2.513 24.072,-2.618 24.072,-2.731L24.072,-2.94C24.072,-2.972 24.084,-3.005 24.105,-3.029C24.129,-3.053 24.163,-3.065 24.196,-3.065L24.973,-3.065L23.838,-6.175L11.649,-6.175L11.649,-2.731L16.701,-2.731L17.123,-2.311L17.123,-1.594C17.123,-1.563 17.11,-1.529 17.083,-1.505C17.062,-1.484 17.031,-1.469 16.997,-1.469L16.826,-1.469C16.795,-1.469 16.766,-1.484 16.737,-1.505C16.716,-1.529 16.701,-1.563 16.701,-1.594L16.701,-1.972C16.701,-2.007 16.687,-2.039 16.663,-2.063C16.641,-2.087 16.608,-2.101 16.577,-2.101L15.985,-2.101C15.954,-2.101 15.92,-2.087 15.896,-2.063C15.872,-2.039 15.858,-2.007 15.858,-1.972L15.858,-0.546C15.858,-0.512 15.872,-0.479 15.896,-0.457C15.92,-0.431 15.954,-0.419 15.985,-0.419L16.997,-0.419C17.031,-0.419 17.062,-0.404 17.083,-0.383C17.11,-0.359 17.123,-0.328 17.123,-0.294L17.123,-0.126C17.123,-0.092 17.11,-0.058 17.083,-0.036C17.062,-0.013 17.031,0 16.997,0L15.478,0C15.447,0 15.416,-0.013 15.389,-0.036C15.37,-0.058 15.353,-0.092 15.353,-0.126L15.353,-0.21L14.091,-0.21C14.06,-0.21 14.024,-0.221 14.002,-0.246C13.976,-0.27 13.963,-0.301 13.963,-0.335L13.963,-0.546C13.963,-0.623 13.995,-0.695 14.052,-0.753C14.105,-0.808 14.182,-0.839 14.26,-0.839L15.353,-0.839L15.353,-2.101L11.44,-2.101L10.384,-1.048L7.312,-1.048C7.254,-1.048 7.202,-1.07 7.166,-1.111C7.122,-1.15 7.101,-1.202 7.101,-1.26C7.101,-1.315 7.122,-1.368 7.166,-1.407L7.944,-2.19C7.967,-2.212 8,-2.224 8.033,-2.224L8.237,-2.224C8.269,-2.224 8.303,-2.212 8.326,-2.19C8.351,-2.164 8.366,-2.133 8.366,-2.101L8.366,-1.806L10.069,-1.806L10.688,-2.421C10.762,-2.495 10.807,-2.599 10.807,-2.707C10.807,-2.818 10.762,-2.921 10.688,-2.995L10.129,-3.551C10.076,-3.604 10.053,-3.683 10.076,-3.758C10.098,-3.83 10.158,-3.887 10.233,-3.904C10.577,-3.984 10.817,-4.296 10.807,-4.649C10.793,-5 10.528,-5.296 10.18,-5.347C9.832,-5.402 9.492,-5.2 9.375,-4.866C9.305,-4.673 9.096,-4.575 8.904,-4.642C8.714,-4.709 8.61,-4.921 8.678,-5.113C8.765,-5.347 8.906,-5.558 9.096,-5.724C9.161,-5.781 9.185,-5.873 9.151,-5.957C9.12,-6.036 9.043,-6.091 8.954,-6.091L2.695,-6.091C2.606,-6.091 2.526,-6.036 2.498,-5.957C2.467,-5.873 2.49,-5.781 2.556,-5.724C2.746,-5.558 2.887,-5.347 2.971,-5.113C3.036,-4.921 2.935,-4.709 2.746,-4.642C2.553,-4.575 2.343,-4.673 2.276,-4.866C2.159,-5.2 1.817,-5.402 1.469,-5.347C1.12,-5.296 0.856,-5 0.841,-4.649C0.831,-4.296 1.075,-3.984 1.418,-3.904C1.491,-3.887 1.553,-3.83 1.575,-3.758C1.591,-3.683 1.575,-3.604 1.519,-3.551L0.961,-2.995C0.887,-2.921 0.841,-2.818 0.841,-2.707C0.841,-2.599 0.887,-2.495 0.961,-2.421L1.58,-1.806L3.286,-1.806L3.286,-2.101C3.286,-2.133 3.3,-2.164 3.323,-2.19C3.346,-2.212 3.379,-2.224 3.411,-2.224L3.615,-2.224C3.649,-2.224 3.681,-2.212 3.704,-2.19L4.49,-1.407C4.527,-1.368 4.55,-1.315 4.55,-1.26C4.55,-1.202 4.527,-1.15 4.49,-1.111C4.447,-1.07 4.396,-1.048 4.339,-1.048L1.265,-1.048L0.211,-2.101L-3.702,-2.101L-3.702,-0.839L-2.611,-0.839C-2.531,-0.839 -2.457,-0.808 -2.399,-0.753C-2.348,-0.695 -2.315,-0.623 -2.315,-0.546L-2.315,-0.335C-2.315,-0.301 -2.327,-0.27 -2.35,-0.246C-2.375,-0.221 -2.408,-0.21 -2.437,-0.21L-3.702,-0.21L-3.702,-0.126C-3.702,-0.092 -3.719,-0.058 -3.74,-0.036C-3.765,-0.013 -3.795,0 -3.829,0L-5.346,0C-5.379,0 -5.413,-0.013 -5.435,-0.036C-5.462,-0.058 -5.473,-0.092 -5.473,-0.126L-5.473,-0.294C-5.473,-0.328 -5.462,-0.359 -5.435,-0.383C-5.413,-0.404 -5.379,-0.419 -5.346,-0.419L-4.336,-0.419C-4.303,-0.419 -4.269,-0.431 -4.25,-0.457C-4.22,-0.479 -4.212,-0.512 -4.212,-0.546L-4.212,-1.972C-4.212,-2.007 -4.22,-2.039 -4.25,-2.063C-4.269,-2.087 -4.303,-2.101 -4.336,-2.101L-4.926,-2.101C-4.959,-2.101 -4.99,-2.087 -5.014,-2.063C-5.04,-2.039 -5.053,-2.007 -5.053,-1.972L-5.053,-1.594C-5.053,-1.563 -5.065,-1.529 -5.091,-1.505C-5.111,-1.484 -5.147,-1.469 -5.178,-1.469L-5.346,-1.469C-5.379,-1.469 -5.413,-1.484 -5.435,-1.505C-5.462,-1.529 -5.473,-1.563 -5.473,-1.594L-5.473,-2.311L-5.053,-2.731L0,-2.731" style="fill:rgb(77,82,159);fill-rule:nonzero;"/>
                        </g>
                        <g transform="matrix(1,0,0,1,330.545,219.256)">
                            <path d="M0,-6.933L24.222,-6.933C24.311,-6.933 24.391,-6.878 24.42,-6.794L25.954,-2.592C25.963,-2.568 25.965,-2.546 25.965,-2.519C25.965,-2.464 25.944,-2.411 25.901,-2.371C25.865,-2.332 25.809,-2.311 25.754,-2.311L24.492,-2.311C24.384,-2.311 24.273,-2.354 24.194,-2.433C24.115,-2.513 24.072,-2.618 24.072,-2.731L24.072,-2.94C24.072,-2.972 24.084,-3.005 24.105,-3.029C24.129,-3.053 24.165,-3.065 24.196,-3.065L24.973,-3.065L23.838,-6.175L11.649,-6.175L11.649,-2.731L16.701,-2.731L17.123,-2.311L17.123,-1.594C17.123,-1.563 17.11,-1.529 17.083,-1.505C17.062,-1.484 17.031,-1.469 16.997,-1.469L16.826,-1.469C16.795,-1.469 16.766,-1.484 16.737,-1.505C16.716,-1.529 16.701,-1.563 16.701,-1.594L16.701,-1.972C16.701,-2.007 16.687,-2.039 16.663,-2.063C16.641,-2.087 16.608,-2.101 16.577,-2.101L15.985,-2.101C15.954,-2.101 15.92,-2.087 15.896,-2.063C15.872,-2.039 15.858,-2.007 15.858,-1.972L15.858,-0.546C15.858,-0.512 15.872,-0.479 15.896,-0.457C15.92,-0.431 15.954,-0.419 15.985,-0.419L16.997,-0.419C17.031,-0.419 17.062,-0.404 17.083,-0.383C17.11,-0.359 17.123,-0.328 17.123,-0.294L17.123,-0.126C17.123,-0.092 17.11,-0.058 17.083,-0.036C17.062,-0.013 17.031,0 16.997,0L15.478,0C15.447,0 15.416,-0.013 15.389,-0.036C15.37,-0.058 15.353,-0.092 15.353,-0.126L15.353,-0.21L14.091,-0.21C14.06,-0.21 14.024,-0.221 14.002,-0.246C13.976,-0.27 13.963,-0.301 13.963,-0.335L13.963,-0.546C13.963,-0.623 13.995,-0.695 14.052,-0.753C14.105,-0.808 14.182,-0.839 14.26,-0.839L15.353,-0.839L15.353,-2.101L11.44,-2.101L10.384,-1.048L7.312,-1.048C7.254,-1.048 7.202,-1.07 7.166,-1.111C7.122,-1.15 7.101,-1.202 7.101,-1.26C7.101,-1.315 7.122,-1.368 7.166,-1.407L7.944,-2.19C7.967,-2.212 8,-2.224 8.033,-2.224L8.237,-2.224C8.269,-2.224 8.303,-2.212 8.326,-2.19C8.351,-2.164 8.366,-2.133 8.366,-2.101L8.366,-1.806L10.069,-1.806L10.688,-2.421C10.762,-2.495 10.807,-2.599 10.807,-2.707C10.807,-2.818 10.762,-2.921 10.688,-2.995L10.129,-3.551C10.076,-3.604 10.053,-3.683 10.076,-3.758C10.098,-3.83 10.158,-3.887 10.233,-3.904C10.577,-3.984 10.817,-4.296 10.807,-4.649C10.793,-5 10.528,-5.296 10.18,-5.347C9.832,-5.402 9.492,-5.2 9.375,-4.866C9.305,-4.673 9.096,-4.575 8.904,-4.642C8.714,-4.709 8.61,-4.921 8.678,-5.113C8.765,-5.347 8.906,-5.558 9.096,-5.724C9.161,-5.781 9.185,-5.873 9.151,-5.957C9.12,-6.036 9.043,-6.091 8.954,-6.091L2.695,-6.091C2.606,-6.091 2.526,-6.036 2.498,-5.957C2.467,-5.873 2.49,-5.781 2.556,-5.724C2.746,-5.558 2.887,-5.347 2.971,-5.113C3.036,-4.921 2.935,-4.709 2.746,-4.642C2.553,-4.575 2.343,-4.673 2.276,-4.866C2.159,-5.2 1.817,-5.402 1.469,-5.347C1.12,-5.296 0.856,-5 0.841,-4.649C0.831,-4.296 1.075,-3.984 1.418,-3.904C1.491,-3.887 1.553,-3.83 1.575,-3.758C1.591,-3.683 1.575,-3.604 1.519,-3.551L0.961,-2.995C0.887,-2.921 0.841,-2.818 0.841,-2.707C0.841,-2.599 0.887,-2.495 0.961,-2.421L1.58,-1.806L3.286,-1.806L3.286,-2.101C3.286,-2.133 3.3,-2.164 3.323,-2.19C3.346,-2.212 3.379,-2.224 3.411,-2.224L3.615,-2.224C3.649,-2.224 3.681,-2.212 3.704,-2.19L4.49,-1.407C4.527,-1.368 4.55,-1.315 4.55,-1.26C4.55,-1.202 4.527,-1.15 4.49,-1.111C4.447,-1.07 4.396,-1.048 4.339,-1.048L1.265,-1.048L0.211,-2.101L-3.702,-2.101L-3.702,-0.839L-2.611,-0.839C-2.531,-0.839 -2.457,-0.808 -2.399,-0.753C-2.348,-0.695 -2.315,-0.623 -2.315,-0.546L-2.315,-0.335C-2.315,-0.301 -2.327,-0.27 -2.35,-0.246C-2.375,-0.221 -2.408,-0.21 -2.437,-0.21L-3.702,-0.21L-3.702,-0.126C-3.702,-0.092 -3.719,-0.058 -3.74,-0.036C-3.765,-0.013 -3.795,0 -3.829,0L-5.346,0C-5.379,0 -5.413,-0.013 -5.435,-0.036C-5.462,-0.058 -5.473,-0.092 -5.473,-0.126L-5.473,-0.294C-5.473,-0.328 -5.462,-0.359 -5.435,-0.383C-5.413,-0.404 -5.379,-0.419 -5.346,-0.419L-4.336,-0.419C-4.303,-0.419 -4.269,-0.431 -4.25,-0.457C-4.22,-0.479 -4.212,-0.512 -4.212,-0.546L-4.212,-1.972C-4.212,-2.007 -4.22,-2.039 -4.25,-2.063C-4.269,-2.087 -4.303,-2.101 -4.336,-2.101L-4.926,-2.101C-4.959,-2.101 -4.99,-2.087 -5.014,-2.063C-5.04,-2.039 -5.053,-2.007 -5.053,-1.972L-5.053,-1.594C-5.053,-1.563 -5.065,-1.529 -5.091,-1.505C-5.111,-1.484 -5.147,-1.469 -5.178,-1.469L-5.346,-1.469C-5.379,-1.469 -5.413,-1.484 -5.435,-1.505C-5.462,-1.529 -5.473,-1.563 -5.473,-1.594L-5.473,-2.311L-5.053,-2.731L0,-2.731L0,-6.933Z" style="fill:none;fill-rule:nonzero;stroke:rgb(35,31,32);stroke-width:0.25px;stroke-linecap:round;stroke-linejoin:round;"/>
                        </g>
                        <g transform="matrix(1,0,0,1,0,-373.829)">
                            <rect x="366.064" y="606.489" width="99.826" height="2.741" style="fill:rgb(177,221,232);stroke:rgb(35,31,32);stroke-width:0.25px;stroke-miterlimit:3.864;"/>
                        </g>
                        <g transform="matrix(1,0,0,1,364.717,214.008)">
                            <path d="M0,2.937L-0.327,2.937C-0.399,2.937 -0.47,2.899 -0.507,2.834L-1.067,1.868C-1.091,1.827 -1.091,1.778 -1.067,1.74C-1.043,1.702 -1.004,1.678 -0.958,1.678L-0.464,1.678L-0.464,-1.012L-4.082,-1.012L-4.082,3.473C-4.082,3.495 -4.088,3.517 -4.1,3.536L-4.677,4.555C-4.702,4.596 -4.742,4.62 -4.786,4.62L-9.348,4.62C-9.382,4.62 -9.41,4.606 -9.435,4.584C-9.461,4.56 -9.473,4.526 -9.473,4.492L-9.473,4.115C-9.473,4.081 -9.461,4.048 -9.435,4.024C-9.41,4.002 -9.382,3.988 -9.348,3.988L-5.155,3.988C-5.113,3.988 -5.069,3.964 -5.043,3.925L-4.773,3.444C-4.761,3.425 -4.756,3.401 -4.756,3.382L-4.756,-0.803C-4.756,-0.834 -4.771,-0.868 -4.793,-0.892C-4.819,-0.916 -4.848,-0.928 -4.882,-0.928L-5.324,-0.928C-5.418,-0.928 -5.512,-0.964 -5.579,-1.034C-5.644,-1.101 -5.682,-1.19 -5.682,-1.286L-5.682,-1.327C-5.682,-1.423 -5.644,-1.515 -5.579,-1.58C-5.512,-1.647 -5.418,-1.683 -5.324,-1.683L3.952,-1.683C4.039,-1.683 4.118,-1.63 4.152,-1.546L5.681,2.656C5.704,2.721 5.697,2.795 5.656,2.848C5.618,2.904 5.551,2.937 5.486,2.937L5.048,2.937L4.84,2.728L4.627,2.937L4.31,2.937C4.2,2.937 4.094,2.894 4.012,2.815C3.933,2.735 3.887,2.629 3.887,2.516L3.887,2.307C3.887,2.276 3.902,2.243 3.928,2.219C3.95,2.195 3.984,2.182 4.012,2.182L4.791,2.182L3.63,-1.012L0.212,-1.012L0.212,2.728C0.212,2.783 0.19,2.839 0.15,2.877C0.111,2.916 0.058,2.937 0,2.937" style="fill:rgb(77,82,159);fill-rule:nonzero;"/>
                        </g>
                        <g transform="matrix(1,0,0,1,364.717,214.008)">
                            <path d="M0,2.937L-0.327,2.937C-0.399,2.937 -0.47,2.899 -0.507,2.834L-1.067,1.868C-1.091,1.827 -1.091,1.778 -1.067,1.74C-1.043,1.702 -1.004,1.678 -0.958,1.678L-0.464,1.678L-0.464,-1.012L-4.082,-1.012L-4.082,3.473C-4.082,3.495 -4.088,3.517 -4.1,3.536L-4.677,4.555C-4.702,4.596 -4.742,4.62 -4.788,4.62L-9.348,4.62C-9.382,4.62 -9.41,4.606 -9.435,4.584C-9.461,4.56 -9.473,4.526 -9.473,4.492L-9.473,4.115C-9.473,4.081 -9.461,4.048 -9.435,4.024C-9.41,4.002 -9.382,3.988 -9.348,3.988L-5.155,3.988C-5.113,3.988 -5.069,3.964 -5.043,3.925L-4.773,3.444C-4.761,3.425 -4.756,3.401 -4.756,3.382L-4.756,-0.803C-4.756,-0.834 -4.773,-0.868 -4.793,-0.892C-4.819,-0.916 -4.848,-0.928 -4.882,-0.928L-5.324,-0.928C-5.421,-0.928 -5.512,-0.964 -5.579,-1.034C-5.644,-1.101 -5.682,-1.19 -5.682,-1.286L-5.682,-1.327C-5.682,-1.423 -5.644,-1.515 -5.579,-1.58C-5.512,-1.647 -5.421,-1.683 -5.324,-1.683L3.952,-1.683C4.039,-1.683 4.118,-1.63 4.152,-1.546L5.681,2.656C5.704,2.721 5.697,2.795 5.656,2.848C5.618,2.904 5.551,2.937 5.486,2.937L5.048,2.937L4.84,2.728L4.627,2.937L4.31,2.937C4.2,2.937 4.094,2.894 4.012,2.815C3.933,2.735 3.887,2.629 3.887,2.516L3.887,2.307C3.887,2.276 3.902,2.243 3.928,2.219C3.95,2.195 3.984,2.182 4.012,2.182L4.791,2.182L3.63,-1.012L0.212,-1.012L0.212,2.728C0.212,2.783 0.19,2.839 0.15,2.877C0.111,2.916 0.058,2.937 0,2.937Z" style="fill:none;fill-rule:nonzero;stroke:rgb(35,31,32);stroke-width:0.25px;stroke-linecap:round;stroke-linejoin:round;"/>
                        </g>
                        <g transform="matrix(1,0,0,1,340.088,242.161)">
                            <path d="M0,-12.129L0,-6.726C0,-6.613 -0.046,-6.507 -0.123,-6.425C-0.203,-6.35 -0.308,-6.303 -0.424,-6.303L-1.685,-6.303L-1.685,-2.942L-0.424,-2.942C-0.308,-2.942 -0.203,-2.899 -0.123,-2.82C-0.046,-2.74 0,-2.634 0,-2.521L0,-0.632C0,-0.464 -0.068,-0.305 -0.185,-0.188C-0.303,-0.067 -0.467,0 -0.633,0L-33.268,0L-34.11,-0.841L-34.11,-12.129" style="fill:rgb(218,177,118);fill-rule:nonzero;"/>
                        </g>
                        <g transform="matrix(1,0,0,1,340.088,242.161)">
                            <path d="M0,-12.129L0,-6.726C0,-6.613 -0.046,-6.507 -0.123,-6.425C-0.203,-6.35 -0.308,-6.303 -0.424,-6.303L-1.685,-6.303L-1.685,-2.942L-0.424,-2.942C-0.308,-2.942 -0.203,-2.899 -0.123,-2.82C-0.046,-2.74 0,-2.634 0,-2.521L0,-0.632C0,-0.464 -0.068,-0.305 -0.185,-0.188C-0.303,-0.067 -0.467,0 -0.633,0L-33.268,0L-34.11,-0.841L-34.11,-12.129L0,-12.129Z" style="fill:none;fill-rule:nonzero;stroke:rgb(35,31,32);stroke-width:0.25px;stroke-linecap:round;stroke-linejoin:round;"/>
                        </g>
                        <g transform="matrix(1,0,0,1,305.978,225.182)">
                            <path d="M0,-4.874L0.493,-5.716L34.745,-5.716L37.057,-4.456L37.057,0.842L0,0.842" style="fill:rgb(218,177,118);fill-rule:nonzero;"/>
                        </g>
                        <g transform="matrix(1,0,0,1,305.978,225.182)">
                            <path d="M0,-4.874L0.493,-5.716L34.745,-5.716L37.057,-4.456L37.057,0.842L0,0.842L0,-4.874Z" style="fill:none;fill-rule:nonzero;stroke:rgb(35,31,32);stroke-width:0.25px;stroke-linecap:round;stroke-linejoin:round;"/>
                        </g>
                        <g transform="matrix(1,0,0,1,306.109,233.755)">
                            <path d="M0,-9.245L38.611,-9.245L38.611,-7.353L38.399,-7.144L36.085,-7.144L36.085,-5.043L38.399,-5.043L38.611,-4.831L38.611,-2.942C38.611,-2.774 38.546,-2.615 38.425,-2.495C38.308,-2.377 38.145,-2.31 37.978,-2.31L36.926,-2.31L36.926,-0.627C36.926,-0.462 36.858,-0.303 36.741,-0.185C36.626,-0.065 36.461,0 36.296,0L0,0" style="fill:rgb(218,177,118);fill-rule:nonzero;"/>
                        </g>
                        <g transform="matrix(1,0,0,1,342.679,233.755)">
                            <path d="M0,-9.245L2.043,-9.245L2.043,-7.353L1.832,-7.144L-0.485,-7.144L-0.485,-5.043L1.832,-5.043L2.043,-4.831L2.043,-2.942C2.043,-2.774 1.976,-2.615 1.855,-2.495C1.74,-2.377 1.575,-2.31 1.411,-2.31L0.356,-2.31L0.356,-0.627C0.356,-0.462 0.289,-0.303 0.171,-0.185C0.056,-0.065 -0.109,0 -0.277,0L-2.945,0" style="fill:none;fill-rule:nonzero;stroke:rgb(35,31,32);stroke-width:0.25px;"/>
                        </g>
                        <g transform="matrix(1,0,0,1,362.407,219.467)">
                            <path d="M0,9.341L0,0L-6.738,0C-6.964,0 -7.178,0.089 -7.337,0.247C-7.495,0.404 -7.584,0.618 -7.584,0.841L-7.584,1.682L-5.897,2.132L-5.897,4.17L-7.584,4.625L-7.584,7.144C-7.584,7.367 -7.668,7.581 -7.827,7.737C-7.983,7.896 -8.202,7.985 -8.425,9.341" style="fill:rgb(218,177,118);fill-rule:nonzero;"/>
                        </g>
                        <g transform="matrix(1,0,0,1,362.407,219.467)">
                            <path d="M0,9.341L0,0L-6.738,0C-6.964,0 -7.178,0.089 -7.337,0.247C-7.495,0.404 -7.584,0.618 -7.584,0.841L-7.584,1.682L-5.897,2.132L-5.897,4.17L-7.584,4.625L-7.584,7.144C-7.584,7.367 -7.668,7.581 -7.827,7.737C-7.983,7.896 -8.202,7.985 -8.425,9.341L0,9.341Z" style="fill:none;fill-rule:nonzero;stroke:rgb(35,31,32);stroke-width:0.25px;stroke-linecap:round;stroke-linejoin:round;"/>
                        </g>
                        <g transform="matrix(1,0,0,1,345.128,243.778)">
                            <path d="M0,-2.312C-0.071,-1.911 -0.421,-1.617 -0.831,-1.617L-7.357,-1.617C-7.523,-1.617 -7.685,-1.552 -7.802,-1.435C-7.923,-1.314 -7.99,-1.153 -7.99,-0.988L-7.99,5.945C-7.99,6.282 -7.858,6.601 -7.617,6.837C-7.382,7.075 -7.06,7.207 -6.725,7.207L22.624,7.207C23.101,7.207 23.519,6.887 23.642,6.428L27.384,-7.095L27.074,-7.502L24.545,-7.502L24.545,-6.242L23.071,-6.242L23.071,-7.502L17.279,-7.502L17.276,-9.519L0,-9.519" style="fill:rgb(218,177,118);fill-rule:nonzero;"/>
                        </g>
                        <g transform="matrix(1,0,0,1,345.128,243.778)">
                            <path d="M0,-2.312C-0.071,-1.911 -0.421,-1.617 -0.831,-1.617L-7.357,-1.617C-7.523,-1.617 -7.685,-1.552 -7.802,-1.435C-7.923,-1.314 -7.99,-1.153 -7.99,-0.988L-7.99,5.945C-7.99,6.282 -7.858,6.601 -7.617,6.837C-7.382,7.075 -7.06,7.207 -6.725,7.207L22.624,7.207C23.101,7.207 23.519,6.887 23.639,6.428L27.384,-7.095L27.074,-7.502L24.545,-7.502L24.545,-6.242L23.071,-6.242L23.071,-7.502L17.279,-7.502L17.276,-9.519L0,-9.519L0,-2.312Z" style="fill:none;fill-rule:nonzero;stroke:rgb(35,31,32);stroke-width:0.25px;stroke-linecap:round;stroke-linejoin:round;"/>
                        </g>
                        <g transform="matrix(1,0,0,1,324.24,311.453)">
                            <path d="M0,-67.348L0,0L-51.421,0L-51.421,-4.092L-4.091,-4.092L-4.091,-67.348" style="fill:rgb(146,150,153);fill-rule:nonzero;"/>
                        </g>
                        <g transform="matrix(1,0,0,1,324.24,311.453)">
                            <path d="M0,-67.348L0,0L-51.421,0L-51.421,-4.092L-4.091,-4.092L-4.091,-67.348L0,-67.348Z" style="fill:none;fill-rule:nonzero;stroke:rgb(35,31,32);stroke-width:0.25px;"/>
                        </g>
                        <g transform="matrix(1,0,0,1,352.797,178.949)">
                            <path d="M0,33.256L0,0L-79.954,0L-79.954,3.872L-3.875,3.872L-3.875,33.256" style="fill:rgb(103,108,111);fill-rule:nonzero;"/>
                        </g>
                        <g transform="matrix(1,0,0,1,352.797,178.949)">
                            <path d="M0,33.256L0,0L-79.954,0L-79.954,3.872L-3.875,3.872L-3.875,33.256L0,33.256Z" style="fill:none;fill-rule:nonzero;stroke:rgb(35,31,32);stroke-width:0.25px;"/>
                        </g>
                        <g transform="matrix(1,0,0,1,0,-290.424)">
                            <rect x="272.831" y="534.529" width="47.319" height="63.256" style="fill:rgb(103,108,111);"/>
                        </g>
                        <g transform="matrix(1,0,0,1,0,-290.425)">
                            <rect x="272.831" y="534.529" width="47.317" height="63.257" style="fill:none;stroke:rgb(35,31,32);stroke-width:0.25px;"/>
                        </g>
                        <g transform="matrix(1,0,0,1,305.978,207.461)">
                            <path d="M0,12.006L18.745,12.006L18.745,4.785L42.941,4.785L42.941,-24.639L-33.148,-24.639L-33.148,36.645L0,36.645" style="fill:rgb(235,218,47);fill-rule:nonzero;"/>
                        </g>
                        <g transform="matrix(1,0,0,1,305.978,207.461)">
                            <path d="M0,12.006L18.745,12.006L18.745,4.785L42.941,4.785L42.941,-24.639L-33.148,-24.639L-33.148,36.645L0,36.645L0,12.006Z" style="fill:none;fill-rule:nonzero;stroke:rgb(35,31,32);stroke-width:0.25px;"/>
                        </g>
                        <g transform="matrix(1,0,0,1,362.407,227.452)">
                            <path d="M0,8.824L0,0L-12.423,0C-12.591,0 -12.752,0.065 -12.868,0.183C-12.988,0.3 -13.056,0.464 -13.056,0.63L-13.056,4.202C-13.056,4.426 -13.145,4.639 -13.3,4.795C-13.462,4.954 -13.673,5.043 -13.899,5.043L-16.425,5.043C-16.646,5.043 -16.86,5.132 -17.019,5.288C-17.177,5.447 -17.266,5.661 -17.266,5.884L-17.266,8.824" style="fill:rgb(218,177,118);fill-rule:nonzero;"/>
                        </g>
                        <g transform="matrix(1,0,0,1,354.518,236.279)">
                            <path d="M0,-8.827L-4.533,-8.827C-4.702,-8.827 -4.863,-8.762 -4.98,-8.642C-5.101,-8.524 -5.166,-8.363 -5.166,-8.197L-5.166,-4.625C-5.166,-4.401 -5.255,-4.187 -5.411,-4.031C-5.572,-3.872 -5.783,-3.786 -6.009,-3.786L-8.536,-3.786C-8.76,-3.786 -8.971,-3.697 -9.128,-3.538C-9.288,-3.382 -9.377,-3.166 -9.377,-2.945L-9.377,0M7.889,-0.003L7.889,-8.827" style="fill:none;fill-rule:nonzero;stroke:rgb(35,31,32);stroke-width:0.25px;stroke-linecap:round;stroke-linejoin:round;"/>
                        </g>
                        <g transform="matrix(1,0,0,1,0,-400.269)">
                            <rect x="366.064" y="619.709" width="99.826" height="2.741" style="fill:rgb(177,221,232);"/>
                        </g>
                        <g transform="matrix(1,0,0,1,0,-400.27)">
                            <rect x="366.064" y="619.709" width="99.826" height="2.742" style="fill:none;stroke:rgb(35,31,32);stroke-width:0.25px;stroke-miterlimit:3.864;"/>
                        </g>
                        <g transform="matrix(1,0,0,1,0,-387.08)">
                            <rect x="368.612" y="609.347" width="2.293" height="10.276" style="fill:rgb(104,190,136);"/>
                        </g>
                        <g transform="matrix(1,0,0,1,0,-387.08)">
                            <rect x="368.612" y="609.347" width="2.294" height="10.276" style="fill:none;stroke:rgb(35,31,32);stroke-width:0.25px;"/>
                        </g>
                        <g transform="matrix(1,0,0,1,0,-387.08)">
                            <rect x="366.082" y="609.347" width="2.295" height="10.276" style="fill:rgb(77,82,159);stroke:rgb(35,31,32);stroke-width:0.25px;stroke-linecap:round;stroke-linejoin:round;"/>
                        </g>
                        <g transform="matrix(1,0,0,1,0,-394.568)">
                            <rect x="362.539" y="614.039" width="3.393" height="8.38" style="fill:rgb(104,190,136);stroke:rgb(35,31,32);stroke-width:0.25px;"/>
                        </g>
                        <g transform="matrix(1,0,0,1,0,-387.079)">
                            <rect x="366.064" y="613.114" width="99.826" height="2.741" style="fill:rgb(177,221,232);"/>
                        </g>
                        <g transform="matrix(1,0,0,1,0,-387.08)">
                            <rect x="366.064" y="613.114" width="99.826" height="2.742" style="fill:none;stroke:rgb(35,31,32);stroke-width:0.25px;stroke-miterlimit:3.864;"/>
                        </g>
                        <g>
                            <text x="385.654px" y="193.281px" style="font-family:'Helvetica-Light', 'Helvetica', sans-serif;font-weight:300;font-size:8px;fill:rgb(238,48,53);">Glaslichtmass A</text>
                            <text x="443.446px" y="195.946px" style="font-family:'Helvetica-Light', 'Helvetica', sans-serif;font-weight:300;font-size:4.664px;fill:rgb(238,48,53);">g</text>
                        </g>
                    </g>
                </g>
                <g>
                    <g transform="matrix(1,0,-0.176325,1,30.4481,0)">
                        <text x="364.57px" y="172.682px" style="font-family:'Helvetica';font-size:8px;fill:rgb(238,48,53);">Y</text>
                    </g>
                    <text x="369.905px" y="175.346px" style="font-family:'Helvetica-LightOblique', 'Helvetica', sans-serif;font-weight:300;font-style:italic;font-size:4.664px;fill:rgb(238,48,53);">g</text>
                    <text x="372.755px" y="172.682px" style="font-family:'Helvetica-Light', 'Helvetica', sans-serif;font-weight:300;font-size:8px;fill:rgb(238,48,53);">-Glasrandverbund</text>
                </g>
                <g>
                    <text x="366.449px" y="147.36px" style="font-family:'Helvetica-Light', 'Helvetica', sans-serif;font-weight:300;font-size:8px;fill:rgb(238,48,53);">Net<tspan x="378.777px " y="147.36px ">t</tspan>o-<tspan x="387.993px " y="147.36px ">F</tspan>en<tspan x="401.217px " y="147.36px ">s</tspan>te<tspan x="411.769px " y="147.36px ">r</tspan>ab<tspan x="423.649px " y="147.36px ">m</tspan>es<tspan x="438.641px " y="147.36px ">s</tspan>un<tspan x="451.417px " y="147.36px ">g</tspan> A</text>
                    <text x="463.745px" y="150.024px" style="font-family:'Helvetica-Light', 'Helvetica', sans-serif;font-weight:300;font-size:4.664px;fill:rgb(238,48,53);">w</text>
                </g>
                <text x="279.213px" y="147.36px" style="font-family:'Helvetica-Light', 'Helvetica', sans-serif;font-weight:300;font-size:8px;fill:rgb(238,48,53);">W<tspan x="286.205px 290.533px 294.861px 299.629px 303.957px 308.725px 315.269px 319.597px 323.477px 327.357px 331.685px 336.013px " y="147.36px 147.36px 147.36px 147.36px 147.36px 147.36px 147.36px 147.36px 147.36px 147.36px 147.36px 147.36px ">andabmessung</tspan></text>
                <g transform="matrix(1,0,0,1,377.77,197.877)">
                    <path d="M0,0L88.245,0" style="fill:none;fill-rule:nonzero;stroke:rgb(238,48,53);stroke-width:0.5px;"/>
                </g>
                <g transform="matrix(1,0,0,1,373.039,197.877)">
                    <path d="M0,0L6.325,2.302L6.325,-2.302L0,0Z" style="fill:rgb(238,48,53);fill-rule:nonzero;"/>
                </g>
                <g transform="matrix(-1,0,0,1,272.693,151.919)">
                    <path d="M-73.93,0L0,0" style="fill:none;fill-rule:nonzero;stroke:rgb(238,48,53);stroke-width:0.5px;"/>
                </g>
                <g transform="matrix(1,0,0,1,351.354,151.919)">
                    <path d="M0,0L-6.325,-2.302L-6.325,2.302L0,0Z" style="fill:rgb(238,48,53);fill-rule:nonzero;"/>
                </g>
                <g transform="matrix(0,-1,-1,0,385.873,192.995)">
                    <path d="M-14.217,14.217L14.217,14.217" style="fill:none;fill-rule:nonzero;stroke:rgb(238,48,53);stroke-width:0.5px;"/>
                </g>
                <g transform="matrix(1,0,0,1,371.656,205.618)">
                    <path d="M0,6.325L2.302,0L-2.302,0L0,6.325Z" style="fill:rgb(238,48,53);fill-rule:nonzero;"/>
                </g>
                <g transform="matrix(0,-1,-1,0,374.225,155.704)">
                    <path d="M-21.402,21.402L21.402,21.402" style="fill:none;fill-rule:nonzero;stroke:rgb(238,48,53);stroke-width:0.5px;"/>
                </g>
                <g transform="matrix(1,0,0,1,358.778,151.919)">
                    <path d="M0,0L107.237,0" style="fill:none;fill-rule:nonzero;stroke:rgb(238,48,53);stroke-width:0.5px;"/>
                </g>
                <g transform="matrix(1,0,0,1,354.047,151.919)">
                    <path d="M0,0L6.325,2.302L6.325,-2.302L0,0Z" style="fill:rgb(238,48,53);fill-rule:nonzero;"/>
                </g>
            </g>
        </g>
    </g>
</svg>
