<?xml version="1.0" encoding="UTF-8" standalone="no"?>
<!DOCTYPE svg PUBLIC "-//W3C//DTD SVG 1.1//EN" "http://www.w3.org/Graphics/SVG/1.1/DTD/svg11.dtd">
<svg width="100%" height="100%" viewBox="0 0 380 311" version="1.1" xmlns="http://www.w3.org/2000/svg" xmlns:xlink="http://www.w3.org/1999/xlink" xml:space="preserve" xmlns:serif="http://www.serif.com/" style="fill-rule:evenodd;clip-rule:evenodd;stroke-miterlimit:10;">
    <g transform="matrix(1,0,0,1,-4277,-1225)">
        <g transform="matrix(2,0,0,2,4018.11,0)">
            <rect id="Page-4" serif:id="Page 4" x="0" y="0" width="595.276" height="841.89" style="fill:none;"/>
            <g id="Page-41" serif:id="Page 4">
                <g>
                    <clipPath id="_clip1">
                        <rect x="147.331" y="628.966" width="147.299" height="136.668" clip-rule="nonzero"/>
                    </clipPath>
                    <g clip-path="url(#_clip1)">
                        <g transform="matrix(1,0,0,1,0,552.71)">
                            <rect x="147.511" y="76.435" width="146.941" height="136.31" style="fill:rgb(218,177,118);"/>
                        </g>
                        <g transform="matrix(1,0,0,1,0,552.709)">
                            <rect x="147.511" y="76.435" width="146.941" height="136.311" style="fill:none;stroke:rgb(35,31,32);stroke-width:0.36px;"/>
                        </g>
                        <g transform="matrix(1,0,0,1,147.621,715.351)">
                            <path d="M0,0L146.865,0" style="fill:none;fill-rule:nonzero;stroke:rgb(35,31,32);stroke-width:0.36px;stroke-dasharray:0.17,0.08;"/>
                        </g>
                        <g transform="matrix(1,0,0,1,147.456,632.685)">
                            <path d="M0,75.814L146.998,75.814M99.143,0L99.143,75.814M7.032,0L139.966,0L139.966,75.814M7.032,75.814L7.032,0M102.573,0L102.573,75.814" style="fill:none;fill-rule:nonzero;stroke:rgb(35,31,32);stroke-width:0.36px;"/>
                        </g>
                        <g transform="matrix(1,0,0,1,147.456,710.386)">
                            <path d="M0,0L146.998,0" style="fill:none;fill-rule:nonzero;stroke:black;stroke-width:0.36px;"/>
                        </g>
                        <g transform="matrix(1,0,0,1,294.455,764.588)">
                            <path d="M0,-48.37L-0.859,-49.228M0,-42.367L-6.862,-49.228M0,-36.362L-12.864,-49.228M0,-30.361L-18.868,-49.228M0,-24.357L-24.872,-49.228M0,-18.354L-30.876,-49.228M0,-12.35L-36.88,-49.228M0,-6.346L-42.882,-49.228M0,-0.343L-48.885,-49.228M-4.804,0.858L-54.89,-49.228M-10.806,0.858L-60.893,-49.228M-16.81,0.858L-66.895,-49.228M-22.813,0.858L-72.899,-49.228M-28.817,0.858L-78.903,-49.228M-34.821,0.858L-84.906,-49.228M-40.823,0.858L-90.909,-49.228M-46.827,0.858L-96.913,-49.228M-52.83,0.858L-102.917,-49.228M-58.835,0.858L-108.748,-49.228M-64.837,0.858L-114.752,-49.228M-70.67,0.858L-120.755,-49.228M-76.672,0.858L-126.758,-49.228M-82.676,0.858L-132.762,-49.228M-88.679,0.858L-138.765,-49.228M-94.684,0.858L-144.769,-49.228M-100.687,0.858L-146.998,-45.283M-106.69,0.858L-146.998,-39.279M-112.693,0.858L-146.998,-33.277M-118.697,0.858L-146.998,-27.272M-124.701,0.858L-146.998,-21.27M-130.703,0.858L-146.998,-15.266M-136.707,0.858L-146.998,-9.263M-142.71,0.858L-146.998,-3.26" style="fill:none;fill-rule:nonzero;stroke:rgb(35,31,32);stroke-width:0.36px;"/>
                        </g>
                        <g transform="matrix(1,0,0,1,0,498.423)">
                            <rect x="157.06" y="136.663" width="87.118" height="70.141" style="fill:rgb(176,221,234);stroke:rgb(35,31,32);stroke-width:0.36px;"/>
                        </g>
                        <g transform="matrix(1,0,0,1,0,498.45)">
                            <rect x="252.452" y="136.662" width="32.394" height="70.116" style="fill:rgb(176,221,234);"/>
                        </g>
                        <g transform="matrix(1,0,0,1,0,498.449)">
                            <rect x="252.453" y="136.662" width="32.393" height="70.117" style="fill:none;stroke:rgb(35,31,32);stroke-width:0.36px;"/>
                        </g>
                        <g transform="matrix(1,0,0,1,0,576.995)">
                            <rect x="147.562" y="131.517" width="146.805" height="1.861" style="fill:rgb(146,150,153);stroke:rgb(35,31,32);stroke-width:0.36px;stroke-miterlimit:4;"/>
                        </g>
                        <text x="158.032px" y="658.107px" style="font-family:'Helvetica-Light', 'Helvetica', sans-serif;font-weight:300;font-size:8px;fill:rgb(255,0,57);">≤<tspan x="162.375px 164.4px 168.647px 172.895px 174.295px 178.543px " y="658.107px 658.107px 658.107px 658.107px 658.107px 658.107px "> 15 cm</tspan></text>
                        <text x="200.409px" y="642.091px" style="font-family:'Helvetica-Light', 'Helvetica', sans-serif;font-weight:300;font-size:8px;fill:rgb(255,0,57);">≤<tspan x="204.753px 206.777px 211.025px 215.273px 216.673px 220.921px " y="642.091px 642.091px 642.091px 642.091px 642.091px 642.091px "> 15 cm</tspan></text>
                    </g>
                </g>
                <text x="201.402px" y="621.965px" style="font-family:'Helvetica-Light', 'Helvetica', sans-serif;font-weight:300;font-size:8px;fill:rgb(255,0,57);">Ne<tspan x="211.466px 213.61px 215.754px 220.122px 222.706px 227.074px 231.442px 235.81px 239.73px 241.874px 246.242px 248.826px 253.194px 258.002px 264.586px 268.954px 272.874px 276.794px 281.162px " y="621.965px 621.965px 621.965px 621.965px 621.965px 621.965px 621.965px 621.965px 621.965px 621.965px 621.965px 621.965px 621.965px 621.965px 621.965px 621.965px 621.965px 621.965px 621.965px ">tto-Fensterabmessun</tspan>g</text>
                <g transform="matrix(0,-1,1,0,0,0)">
                    <text x="-761.382px" y="312px" style="font-family:'Helvetica-Light', 'Helvetica', sans-serif;font-weight:300;font-size:8px;fill:rgb(255,0,57);">Ne<tspan x="-751.318px -749.174px -747.03px -742.662px -740.078px -735.71px -731.342px -726.974px -723.054px -720.91px -716.542px -713.958px -709.59px -704.782px -698.198px -693.83px -689.91px -685.99px -681.622px " y="312px 312px 312px 312px 312px 312px 312px 312px 312px 312px 312px 312px 312px 312px 312px 312px 312px 312px 312px ">tto-Fensterabmessun</tspan>g</text>
                </g>
                <text x="200.197px" y="703.036px" style="font-family:'Helvetica-Light', 'Helvetica', sans-serif;font-weight:300;font-size:8px;fill:rgb(35,31,32);">≤<tspan x="204.541px 206.565px 210.813px 215.061px 216.461px 220.709px " y="703.036px 703.036px 703.036px 703.036px 703.036px 703.036px "> 15 cm</tspan></text>
                <text x="256.394px" y="658.107px" style="font-family:'Helvetica-Light', 'Helvetica', sans-serif;font-weight:300;font-size:8px;fill:rgb(255,0,57);">≤<tspan x="260.738px 262.762px 267.01px 271.258px 272.658px 276.906px " y="658.107px 658.107px 658.107px 658.107px 658.107px 658.107px "> 15 cm</tspan></text>
                <g transform="matrix(1,0,0,1,162.763,662.736)">
                    <path d="M0,0L8.733,0" style="fill:none;fill-rule:nonzero;stroke:rgb(35,31,32);stroke-width:0.5px;stroke-miterlimit:4;"/>
                </g>
                <g transform="matrix(1,0,0,1,158.031,662.736)">
                    <path d="M0,0L6.325,2.302L6.325,-2.302L0,0Z" style="fill:rgb(35,31,32);fill-rule:nonzero;"/>
                </g>
                <g transform="matrix(1,0,0,1,299.818,662.736)">
                    <path d="M0,0L8.733,0" style="fill:none;fill-rule:nonzero;stroke:rgb(35,31,32);stroke-width:0.5px;stroke-miterlimit:4;"/>
                </g>
                <g transform="matrix(1,0,0,1,295.087,662.736)">
                    <path d="M0,0L6.325,2.302L6.325,-2.302L0,0Z" style="fill:rgb(35,31,32);fill-rule:nonzero;"/>
                </g>
                <g transform="matrix(0,-1,-1,0,200.7,695.45)">
                    <path d="M-4.366,4.366L4.366,4.366" style="fill:none;fill-rule:nonzero;stroke:rgb(35,31,32);stroke-width:0.5px;stroke-miterlimit:4;"/>
                </g>
                <g transform="matrix(1,0,0,1,196.333,698.222)">
                    <path d="M0,6.325L2.302,0L-2.302,0L0,6.325Z" style="fill:rgb(35,31,32);fill-rule:nonzero;"/>
                </g>
                <g transform="matrix(0,1,1,0,200.7,724.771)">
                    <path d="M-4.366,-4.366L4.366,-4.366" style="fill:none;fill-rule:nonzero;stroke:rgb(35,31,32);stroke-width:0.5px;stroke-miterlimit:4;"/>
                </g>
                <g transform="matrix(1,0,0,1,196.333,721.999)">
                    <path d="M0,-6.325L-2.302,0L2.302,0L0,-6.325Z" style="fill:rgb(35,31,32);fill-rule:nonzero;"/>
                </g>
                <g transform="matrix(0,1,1,0,200.7,645.047)">
                    <path d="M-4.366,-4.366L4.366,-4.366" style="fill:none;fill-rule:nonzero;stroke:rgb(35,31,32);stroke-width:0.5px;stroke-miterlimit:4;"/>
                </g>
                <g transform="matrix(1,0,0,1,196.333,642.274)">
                    <path d="M0,-6.325L-2.302,0L2.302,0L0,-6.325Z" style="fill:rgb(35,31,32);fill-rule:nonzero;"/>
                </g>
                <g transform="matrix(-1,0,0,1,133.229,662.736)">
                    <path d="M-8.733,0L0,0" style="fill:none;fill-rule:nonzero;stroke:rgb(35,31,32);stroke-width:0.5px;stroke-miterlimit:4;"/>
                </g>
                <g transform="matrix(1,0,0,1,146.693,662.736)">
                    <path d="M0,0L-6.325,-2.302L-6.325,2.302L0,0Z" style="fill:rgb(35,31,32);fill-rule:nonzero;"/>
                </g>
                <g transform="matrix(-1,0,0,1,270.284,662.736)">
                    <path d="M-8.733,0L0,0" style="fill:none;fill-rule:nonzero;stroke:rgb(35,31,32);stroke-width:0.5px;stroke-miterlimit:4;"/>
                </g>
                <g transform="matrix(1,0,0,1,283.748,662.736)">
                    <path d="M0,0L-6.325,-2.302L-6.325,2.302L0,0Z" style="fill:rgb(35,31,32);fill-rule:nonzero;"/>
                </g>
                <g transform="matrix(0,-1,-1,0,200.7,619.056)">
                    <path d="M-4.366,4.366L4.366,4.366" style="fill:none;fill-rule:nonzero;stroke:rgb(35,31,32);stroke-width:0.5px;stroke-miterlimit:4;"/>
                </g>
                <g transform="matrix(1,0,0,1,196.333,621.829)">
                    <path d="M0,6.325L2.302,0L-2.302,0L0,6.325Z" style="fill:rgb(35,31,32);fill-rule:nonzero;"/>
                </g>
                <g transform="matrix(1,0,0,1,0,661.959)">
                    <rect x="155.055" y="79.694" width="103.465" height="20.543" style="fill:white;"/>
                </g>
                <g transform="matrix(1,0,0,1,144.85,614.122)">
                    <path d="M0,0L151.937,0" style="fill:none;fill-rule:nonzero;stroke:rgb(35,31,32);stroke-width:0.3px;stroke-miterlimit:4;"/>
                </g>
                <g transform="matrix(0,1,1,0,385.024,697.106)">
                    <path d="M-70.654,-70.654L70.654,-70.654" style="fill:none;fill-rule:nonzero;stroke:rgb(35,31,32);stroke-width:0.3px;stroke-miterlimit:4;"/>
                </g>
                <g transform="matrix(-1,0,0,1,296.788,765.047)">
                    <path d="M-19.346,0L0,0" style="fill:none;fill-rule:nonzero;stroke:rgb(35,31,32);stroke-width:0.3px;stroke-miterlimit:4;"/>
                </g>
                <g transform="matrix(-1,0,0,1,296.788,628.816)">
                    <path d="M-19.346,0L0,0" style="fill:none;fill-rule:nonzero;stroke:rgb(35,31,32);stroke-width:0.3px;stroke-miterlimit:4;"/>
                </g>
                <g transform="matrix(0,-1,-1,0,301.748,620.358)">
                    <path d="M-7.229,7.229L7.229,7.229" style="fill:none;fill-rule:nonzero;stroke:rgb(35,31,32);stroke-width:0.3px;stroke-miterlimit:4;"/>
                </g>
                <g transform="matrix(0,-1,-1,0,154.709,620.358)">
                    <path d="M-7.229,7.229L7.229,7.229" style="fill:none;fill-rule:nonzero;stroke:rgb(35,31,32);stroke-width:0.3px;stroke-miterlimit:4;"/>
                </g>
                <g transform="matrix(0.707107,-0.707107,-0.707107,-0.707107,147.297,616.466)">
                    <path d="M-0.675,1.629L3.932,1.629" style="fill:none;fill-rule:nonzero;stroke:rgb(35,31,32);stroke-width:0.5px;stroke-miterlimit:4;"/>
                </g>
                <g transform="matrix(0.707107,-0.707107,-0.707107,-0.707107,294.168,616.739)">
                    <path d="M-0.675,1.629L3.932,1.629" style="fill:none;fill-rule:nonzero;stroke:rgb(35,31,32);stroke-width:0.5px;stroke-miterlimit:4;"/>
                </g>
                <g transform="matrix(-0.707107,-0.707107,-0.707107,0.707107,314.52,626.513)">
                    <path d="M-3.932,1.629L0.675,1.629" style="fill:none;fill-rule:nonzero;stroke:rgb(35,31,32);stroke-width:0.5px;stroke-miterlimit:4;"/>
                </g>
                <g transform="matrix(-0.707107,-0.707107,-0.707107,0.707107,314.22,762.894)">
                    <path d="M-3.932,1.629L0.675,1.629" style="fill:none;fill-rule:nonzero;stroke:rgb(35,31,32);stroke-width:0.5px;stroke-miterlimit:4;"/>
                </g>
                <g>
                    <text x="157.606px" y="749.496px" style="font-family:'Helvetica-Light', 'Helvetica', sans-serif;font-weight:300;font-size:8px;fill:rgb(255,0,57);">Fl<tspan x="163.67px 168.038px 172.406px 176.774px 181.142px 183.286px 189.87px 194.238px 198.158px 202.078px 204.222px 209.478px 213.846px 215.99px 220.358px 222.942px 227.75px 232.118px 234.702px 239.07px 243.438px 248.246px 252.614px " y="749.496px 749.496px 749.496px 749.496px 749.496px 749.496px 749.496px 749.496px 749.496px 749.496px 749.496px 749.496px 749.496px 749.496px 749.496px 749.496px 749.496px 749.496px 749.496px 749.496px 749.496px 749.496px 749.496px ">äche muss Anforderungen</tspan></text>
                    <text x="157.606px" y="758.696px" style="font-family:'Helvetica-Light', 'Helvetica', sans-serif;font-weight:300;font-size:8px;fill:rgb(255,0,57);">a<tspan x="161.934px 166.262px 168.366px 172.694px 177.462px 181.79px 185.67px 189.998px 192.102px 197.318px 201.646px 205.974px 208.078px 212.406px 214.062px 215.718px 220.046px 222.15px 226.478px 229.022px 231.126px 235.454px 237.11px 238.766px 243.094px " y="758.696px 758.696px 758.696px 758.696px 758.696px 758.696px 758.696px 758.696px 758.696px 758.696px 758.696px 758.696px 758.696px 758.696px 758.696px 758.696px 758.696px 758.696px 758.696px 758.696px 758.696px 758.696px 758.696px 758.696px 758.696px ">n opake Bauteile erfüllen</tspan></text>
                </g>
            </g>
        </g>
    </g>
</svg>
