<?xml version="1.0" encoding="UTF-8" standalone="no"?>
<!DOCTYPE svg PUBLIC "-//W3C//DTD SVG 1.1//EN" "http://www.w3.org/Graphics/SVG/1.1/DTD/svg11.dtd">
<svg width="100%" height="100%" viewBox="0 0 403 130" version="1.1" xmlns="http://www.w3.org/2000/svg" xmlns:xlink="http://www.w3.org/1999/xlink" xml:space="preserve" xmlns:serif="http://www.serif.com/" style="fill-rule:evenodd;clip-rule:evenodd;stroke-linejoin:round;stroke-miterlimit:10;">
    <g transform="matrix(1,0,0,1,-6945,-498)">
        <g transform="matrix(2,0,0,2,6696.86,0)">
            <rect id="Page-6" serif:id="Page 6" x="0" y="0" width="595.276" height="841.89" style="fill:none;"/>
            <g id="Page-61" serif:id="Page 6">
                <g>
                    <clipPath id="_clip1">
                        <rect x="129.26" y="128.21" width="193.223" height="186.945" clip-rule="nonzero"/>
                    </clipPath>
                    <g clip-path="url(#_clip1)">
                        <g transform="matrix(1,0,0,1,129.26,309.811)">
                            <path d="M0,-83.05L192.756,-83.05M0,0L192.756,0" style="fill:none;fill-rule:nonzero;stroke:rgb(103,108,111);stroke-width:1.47px;"/>
                        </g>
                    </g>
                </g>
                <g transform="matrix(1,0,0,1,0,-251.335)">
                    <rect x="146.542" y="532.77" width="41.525" height="27.685" style="fill:rgb(146,150,153);"/>
                </g>
                <g transform="matrix(1,0,0,1,167.305,281.436)">
                    <path d="M0,-11.074L20.763,0L-20.763,0" style="fill:rgb(146,150,153);fill-rule:nonzero;"/>
                </g>
                <g transform="matrix(1,0,0,1,285.731,271.634)">
                    <path d="M0,-9.653L25.197,0L-25.194,0" style="fill:rgb(146,150,153);fill-rule:nonzero;"/>
                </g>
                <g transform="matrix(1,0,0,1,0,-261.329)">
                    <rect x="260.662" y="532.77" width="50.169" height="37.679" style="fill:rgb(146,150,153);"/>
                </g>
                <g transform="matrix(1,0,0,1,188.067,295.279)">
                    <path d="M0,0L48.884,0" style="fill:none;fill-rule:nonzero;stroke:rgb(238,48,53);stroke-width:0.49px;"/>
                </g>
                <g transform="matrix(0.191748,0.981444,0.981444,-0.191748,218.825,289.297)">
                    <path d="M-3.56,-4.323C-0.7,-3.768 2.271,-3.741 5.249,-4.323" style="fill:none;fill-rule:nonzero;stroke:rgb(238,48,53);stroke-width:0.49px;stroke-linejoin:miter;stroke-miterlimit:4;"/>
                </g>
                <g transform="matrix(1,0,0,1,167.302,285.499)">
                    <path d="M0,-4.063L0,23.621M-4.149,-4.063L4.154,-4.063M-1.466,-5.53L1.469,-2.595M-4.149,9.778L4.154,9.778M-1.466,8.311L1.469,11.249M-4.149,23.412L4.154,23.412M-1.466,21.945L1.469,24.881M20.314,9.778L134.257,-28.944" style="fill:none;fill-rule:nonzero;stroke:rgb(238,48,53);stroke-width:0.49px;"/>
                </g>
                <text x="204.775px" y="294.055px" style="font-family:'Helvetica';font-size:9px;fill:rgb(238,48,53);">a</text>
                <text x="170.405px" y="307.165px" style="font-family:'Helvetica-Light', 'Helvetica', sans-serif;font-weight:300;font-size:9px;fill:rgb(238,48,53);">h<tspan x="175.904px 178.901px " y="307.165px 307.165px ">/2</tspan></text>
                <text x="170.405px" y="292.255px" style="font-family:'Helvetica-Light', 'Helvetica', sans-serif;font-weight:300;font-size:9px;fill:rgb(238,48,53);">h<tspan x="175.904px 178.901px " y="292.255px 292.255px ">/2</tspan></text>
            </g>
        </g>
    </g>
</svg>
