<?xml version="1.0" encoding="UTF-8" standalone="no"?>
<!DOCTYPE svg PUBLIC "-//W3C//DTD SVG 1.1//EN" "http://www.w3.org/Graphics/SVG/1.1/DTD/svg11.dtd">
<svg width="100%" height="100%" viewBox="0 0 389 236" version="1.1" xmlns="http://www.w3.org/2000/svg" xmlns:xlink="http://www.w3.org/1999/xlink" xml:space="preserve" xmlns:serif="http://www.serif.com/" style="fill-rule:evenodd;clip-rule:evenodd;stroke-linejoin:round;stroke-miterlimit:10;">
    <g transform="matrix(1,0,0,1,-545,-3127)">
        <g transform="matrix(2,0,0,2,0,1894.25)">
            <rect id="Page-7" serif:id="Page 7" x="0" y="0" width="595.276" height="841.89" style="fill:none;"/>
            <g id="Page-71" serif:id="Page 7">
                <g>
                    <clipPath id="_clip1">
                        <rect x="272.668" y="615.774" width="193.382" height="113.71" clip-rule="nonzero"/>
                    </clipPath>
                    <g clip-path="url(#_clip1)">
                        <g transform="matrix(1,0,0,1,104.879,698.202)">
                            <path d="M0,-0.006L55.184,-0.006M208.042,0.003L263.226,0.003M263.267,-0.009L318.646,-0.009" style="fill:none;fill-rule:nonzero;stroke:rgb(237,72,53);stroke-width:0.5px;"/>
                        </g>
                        <g transform="matrix(1,0,0,1,0,480.797)">
                            <rect x="273.292" y="172.042" width="192.757" height="17.009" style="fill:rgb(147,149,152);"/>
                        </g>
                        <g transform="matrix(1,0,0,1,0,481.752)">
                            <rect x="312.974" y="169.019" width="110.553" height="22.1" style="fill:white;"/>
                        </g>
                        <g transform="matrix(1,0,0,1,0,526.149)">
                            <rect x="295.97" y="126.689" width="17.008" height="62.363" style="fill:rgb(147,149,152);"/>
                        </g>
                        <g transform="matrix(1,0,0,1,0,526.149)">
                            <rect x="423.527" y="126.689" width="17.008" height="62.363" style="fill:rgb(147,149,152);"/>
                        </g>
                        <g transform="matrix(1,0,0,1,0,571.503)">
                            <rect x="313.039" y="133.068" width="2.834" height="4.251" style="fill:rgb(217,176,118);"/>
                        </g>
                        <g transform="matrix(1,0,0,1,0,571.503)">
                            <rect x="420.693" y="133.068" width="2.834" height="4.251" style="fill:rgb(217,176,118);"/>
                        </g>
                        <g transform="matrix(1,0,0,1,422.105,707.759)">
                            <path d="M0,-2.126L-107.715,-2.126M0,0L-107.715,0" style="fill:none;fill-rule:nonzero;stroke:rgb(159,217,240);stroke-width:1px;stroke-linejoin:miter;stroke-miterlimit:4;"/>
                        </g>
                        <g transform="matrix(1,0,0,1,307.308,725.122)">
                            <path d="M0,0L121.888,0" style="fill:none;fill-rule:nonzero;stroke:rgb(237,72,53);stroke-width:0.5px;"/>
                        </g>
                        <g transform="matrix(1,0,0,1,312.977,715.201)">
                            <path d="M0,0L110.548,0" style="fill:none;fill-rule:nonzero;stroke:black;stroke-width:0.5px;"/>
                        </g>
                        <g transform="matrix(1,0,0,1,313.061,619.046)">
                            <path d="M0,110.328L0,98.99M-1.503,107.581L1.504,104.573M55.19,110.438L55.19,99.1M53.687,107.691L56.695,104.683M110.553,110.328L110.553,98.99M109.048,107.581L112.058,104.573M-22.765,-0.11L-22.765,84.924M-27.017,5.475L-18.512,5.475M-24.27,3.97L-21.262,6.977M-27.017,79.174L-18.512,79.174M-24.27,77.671L-21.262,80.678" style="fill:none;fill-rule:nonzero;stroke:rgb(237,72,53);stroke-width:0.5px;"/>
                        </g>
                        <g transform="matrix(1,0,0,1,311.726,624.603)">
                            <path d="M0,0L113.049,0" style="fill:none;fill-rule:nonzero;stroke:rgb(147,149,152);stroke-width:1.25px;stroke-miterlimit:4;"/>
                        </g>
                        <g transform="matrix(0.334594,0.942362,0.942362,-0.334594,412.172,678.05)">
                            <path d="M-8.521,-12.067C-0.523,-9.221 8.466,-9.005 17.09,-12.067" style="fill:none;fill-rule:nonzero;stroke:rgb(237,72,53);stroke-width:0.5px;stroke-linejoin:miter;stroke-miterlimit:4;"/>
                        </g>
                        <g transform="matrix(1,0,0,1,312.326,434.556)">
                            <path d="M0,218.391L0,190.047M111.85,218.391L111.85,190.047M-0.6,0L112.449,0" style="fill:none;fill-rule:nonzero;stroke:rgb(147,149,152);stroke-width:1.25px;stroke-miterlimit:4;"/>
                        </g>
                        <g transform="matrix(0.773937,-0.633263,-0.633263,-0.773937,391.458,712.171)">
                            <path d="M-9.108,25.513L71.469,25.513" style="fill:none;fill-rule:nonzero;stroke:rgb(237,72,53);stroke-width:0.5px;stroke-linecap:round;"/>
                        </g>
                        <g transform="matrix(-0.33456,0.942375,0.942375,0.33456,344.31,694.2)">
                            <path d="M-17.089,-12.067C-9.092,-14.912 -0.103,-15.129 8.521,-12.067" style="fill:none;fill-rule:nonzero;stroke:rgb(237,72,53);stroke-width:0.5px;stroke-linejoin:miter;stroke-miterlimit:4;"/>
                        </g>
                        <g transform="matrix(-0.773936,-0.633264,-0.633264,0.773936,329.198,633.189)">
                            <path d="M-71.47,25.514L9.108,25.514" style="fill:none;fill-rule:nonzero;stroke:rgb(237,72,53);stroke-width:0.5px;stroke-linecap:round;"/>
                        </g>
                    </g>
                </g>
                <text x="334.455px" y="733.389px" style="font-family:'Helvetica-Light', 'Helvetica', sans-serif;font-weight:300;font-size:8px;fill:rgb(238,48,53);">½</text>
                <text x="391.502px" y="733.389px" style="font-family:'Helvetica-Light', 'Helvetica', sans-serif;font-weight:300;font-size:8px;fill:rgb(238,48,53);">½</text>
                <g transform="matrix(0,-1,1,0,0,0)">
                    <text x="-684.798px" y="285.336px" style="font-family:'Helvetica-Light', 'Helvetica', sans-serif;font-weight:300;font-size:8px;fill:rgb(238,48,53);">Länge für</text>
                    <text x="-648.334px" y="285.336px" style="font-family:'Helvetica';font-size:9px;fill:rgb(238,48,53);">b</text>
                </g>
                <g>
                    <text x="386.487px" y="691.464px" style="font-family:'Helvetica';font-size:10px;fill:rgb(238,48,53);">g</text>
                    <text x="392.049px" y="694.794px" style="font-family:'Helvetica-Light', 'Helvetica', sans-serif;font-weight:300;font-size:5.83px;fill:rgb(238,48,53);">l</text>
                </g>
                <g>
                    <text x="340.72px" y="691.464px" style="font-family:'Helvetica';font-size:10px;fill:rgb(238,48,53);">g</text>
                    <text x="346.282px" y="694.794px" style="font-family:'Helvetica-Light', 'Helvetica', sans-serif;font-weight:300;font-size:5.83px;fill:rgb(238,48,53);">r</text>
                </g>
            </g>
        </g>
    </g>
</svg>
