<?xml version="1.0" encoding="UTF-8" standalone="no"?>
<!DOCTYPE svg PUBLIC "-//W3C//DTD SVG 1.1//EN" "http://www.w3.org/Graphics/SVG/1.1/DTD/svg11.dtd">
<svg width="100%" height="100%" viewBox="0 0 389 245" version="1.1" xmlns="http://www.w3.org/2000/svg" xmlns:xlink="http://www.w3.org/1999/xlink" xml:space="preserve" xmlns:serif="http://www.serif.com/" style="fill-rule:evenodd;clip-rule:evenodd;">
    <g transform="matrix(1,0,0,1,-545,-2834)">
        <g transform="matrix(2,0,0,2,0,1894.25)">
            <rect id="Page-7" serif:id="Page 7" x="0" y="0" width="595.276" height="841.89" style="fill:none;"/>
            <g id="Page-71" serif:id="Page 7">
                <g>
                    <clipPath id="_clip1">
                        <rect x="272.685" y="468.006" width="193.365" height="116.9" clip-rule="nonzero"/>
                    </clipPath>
                    <g clip-path="url(#_clip1)">
                        <g transform="matrix(1,0,0,1,0,134.947)">
                            <rect x="272.684" y="344.967" width="192.756" height="17.009" style="fill:rgb(147,149,152);"/>
                        </g>
                        <g transform="matrix(1,0,0,1,0,140.774)">
                            <rect x="312.368" y="339.14" width="110.554" height="22.836" style="fill:white;"/>
                        </g>
                        <g transform="matrix(1,0,0,1,0,225.653)">
                            <rect x="295.361" y="271.269" width="17.008" height="73.699" style="fill:rgb(147,149,152);"/>
                        </g>
                        <g transform="matrix(1,0,0,1,0,225.653)">
                            <rect x="422.921" y="271.269" width="17.008" height="73.699" style="fill:rgb(147,149,152);"/>
                        </g>
                        <g transform="matrix(1,0,0,1,0,282.347)">
                            <rect x="312.432" y="277.646" width="2.834" height="4.251" style="fill:rgb(217,176,118);"/>
                        </g>
                        <g transform="matrix(1,0,0,1,0,282.347)">
                            <rect x="420.084" y="277.646" width="2.834" height="4.251" style="fill:rgb(217,176,118);"/>
                        </g>
                        <g transform="matrix(1,0,0,1,421.498,563.18)">
                            <path d="M0,-2.125L-107.715,-2.125M0,0L-107.715,0" style="fill:none;fill-rule:nonzero;stroke:rgb(159,217,240);stroke-width:1px;"/>
                        </g>
                        <g transform="matrix(1,0,0,1,306.7,580.543)">
                            <path d="M0,0L121.888,0" style="fill:none;fill-rule:nonzero;stroke:rgb(237,72,53);stroke-width:0.5px;stroke-linejoin:round;stroke-miterlimit:10;"/>
                        </g>
                        <g transform="matrix(1,0,0,1,312.367,570.622)">
                            <path d="M0,0L110.553,0" style="fill:none;fill-rule:nonzero;stroke:black;stroke-width:0.5px;stroke-linejoin:round;stroke-miterlimit:10;"/>
                        </g>
                        <g transform="matrix(1,0,0,1,312.367,505.541)">
                            <path d="M0,48.074L110.553,48.074M0.087,79.254L0.087,67.916M-1.415,76.507L1.591,73.5M55.277,79.363L55.277,68.026M53.774,76.618L56.782,73.609M110.639,79.254L110.639,67.916M109.137,76.507L112.143,73.5M-22.679,-31.289L-22.679,53.745M-26.93,-25.707L-18.426,-25.707M-24.183,-27.209L-21.175,-24.202M-26.93,47.995L-18.426,47.995M-24.183,46.492L-21.175,49.499" style="fill:none;fill-rule:nonzero;stroke:rgb(237,72,53);stroke-width:0.5px;stroke-linejoin:round;stroke-miterlimit:10;"/>
                        </g>
                        <g transform="matrix(1,0,0,1,312.369,480.565)">
                            <path d="M0,0L110.551,0" style="fill:none;fill-rule:nonzero;stroke:rgb(147,149,152);stroke-width:1.25px;stroke-linejoin:round;"/>
                        </g>
                        <g transform="matrix(0.604373,-0.796701,-0.796701,-0.604373,412.5,562.195)">
                            <path d="M-20.411,41.103L82.772,41.103" style="fill:none;fill-rule:nonzero;stroke:rgb(237,72,53);stroke-width:0.5px;stroke-linecap:round;stroke-linejoin:round;stroke-miterlimit:10;"/>
                        </g>
                        <g transform="matrix(0.444685,0.895687,0.895687,-0.444685,408.404,524.812)">
                            <path d="M-9.451,-15.243C0.899,-10.115 13.442,-9.71 24.587,-15.243" style="fill:none;fill-rule:nonzero;stroke:rgb(237,72,53);stroke-width:0.5px;"/>
                        </g>
                        <g transform="matrix(-0.604373,-0.796701,-0.796701,0.604373,350.5,462.829)">
                            <path d="M-82.772,41.103L20.411,41.103" style="fill:none;fill-rule:nonzero;stroke:rgb(237,72,53);stroke-width:0.5px;stroke-linecap:round;stroke-linejoin:round;stroke-miterlimit:10;"/>
                        </g>
                        <g transform="matrix(-0.444709,0.895675,0.895675,0.444709,347.366,551.927)">
                            <path d="M-24.588,-15.244C-14.237,-20.373 -1.694,-20.777 9.451,-15.243" style="fill:none;fill-rule:nonzero;stroke:rgb(237,72,53);stroke-width:0.5px;"/>
                        </g>
                        <g transform="matrix(1,0,0,1,312.367,553.624)">
                            <path d="M0,-0.006L55.184,-0.006M208.042,0.003L263.226,0.003M263.267,-0.009L318.646,-0.009" style="fill:none;fill-rule:nonzero;stroke:rgb(237,72,53);stroke-width:0.5px;stroke-linejoin:round;stroke-miterlimit:10;"/>
                        </g>
                    </g>
                </g>
                <text x="272.443px" y="468px" style="font-family:'Helvetica-Light', 'Helvetica', sans-serif;font-weight:300;font-size:8px;fill:rgb(35,31,32);">Lo<tspan x="281.179px 285.987px 290.795px 292.491px 296.859px 299.003px 301.147px 305.515px 309.883px 314.251px 318.171px 320.315px 324.683px 327.267px 329.411px 331.107px 335.475px 339.843px 344.211px 348.579px 350.723px 352.867px 359.011px 361.595px 365.963px 370.331px 375.139px 377.723px 379.419px " y="468px 468px 468px 468px 468px 468px 468px 468px 468px 468px 468px 468px 468px 468px 468px 468px 468px 468px 468px 468px 468px 468px 468px 468px 468px 468px 468px 468px 468px ">ggia; Fenster innen; Grundris</tspan>s</text>
                <text x="334.038px" y="589.559px" style="font-family:'Helvetica-Light', 'Helvetica', sans-serif;font-weight:300;font-size:9px;fill:rgb(238,48,53);">½</text>
                <text x="391.085px" y="589.559px" style="font-family:'Helvetica-Light', 'Helvetica', sans-serif;font-weight:300;font-size:9px;fill:rgb(238,48,53);">½</text>
                <g transform="matrix(0,-1,1,0,0,0)">
                    <text x="-540.219px" y="284.832px" style="font-family:'Helvetica-Light', 'Helvetica', sans-serif;font-weight:300;font-size:8px;fill:rgb(238,48,53);">Länge für</text>
                    <text x="-503.755px" y="284.832px" style="font-family:'Helvetica';font-size:9px;fill:rgb(238,48,53);">b</text>
                </g>
                <g>
                    <text x="385.628px" y="546.884px" style="font-family:'Helvetica';font-size:10px;fill:rgb(238,48,53);">g</text>
                    <text x="391.19px" y="550.214px" style="font-family:'Helvetica-Light', 'Helvetica', sans-serif;font-weight:300;font-size:5.83px;fill:rgb(238,48,53);">l</text>
                </g>
                <g>
                    <text x="340.72px" y="546.884px" style="font-family:'Helvetica';font-size:10px;fill:rgb(238,48,53);">g</text>
                    <text x="346.282px" y="550.214px" style="font-family:'Helvetica-Light', 'Helvetica', sans-serif;font-weight:300;font-size:5.83px;fill:rgb(238,48,53);">r</text>
                </g>
            </g>
        </g>
    </g>
</svg>
