<?xml version="1.0" encoding="UTF-8" standalone="no"?>
<!DOCTYPE svg PUBLIC "-//W3C//DTD SVG 1.1//EN" "http://www.w3.org/Graphics/SVG/1.1/DTD/svg11.dtd">
<svg width="100%" height="100%" viewBox="0 0 403 199" version="1.1" xmlns="http://www.w3.org/2000/svg" xmlns:xlink="http://www.w3.org/1999/xlink" xml:space="preserve" xmlns:serif="http://www.serif.com/" style="fill-rule:evenodd;clip-rule:evenodd;stroke-linejoin:round;stroke-miterlimit:10;">
    <g transform="matrix(1,0,0,1,-6945,-1158)">
        <g transform="matrix(2,0,0,2,6696.86,0)">
            <rect id="Page-6" serif:id="Page 6" x="0" y="0" width="595.276" height="841.89" style="fill:none;"/>
            <g id="Page-61" serif:id="Page 6">
                <g>
                    <clipPath id="_clip1">
                        <rect x="129.26" y="581.469" width="193.223" height="93.739" clip-rule="nonzero"/>
                    </clipPath>
                    <g clip-path="url(#_clip1)">
                        <g transform="matrix(1,0,0,1,322.014,591.103)">
                            <path d="M0,42.52L-167.244,42.52L-167.244,0L0,0" style="fill:none;fill-rule:nonzero;stroke:rgb(146,150,153);stroke-width:1.25px;"/>
                        </g>
                        <g transform="matrix(1,0,0,1,0,441.418)">
                            <rect x="129.26" y="191.732" width="192.756" height="17.008" style="fill:rgb(146,150,153);"/>
                        </g>
                        <g transform="matrix(1,0,0,1,0,441.418)">
                            <rect x="188.784" y="191.732" width="70.867" height="17.008" style="fill:white;"/>
                        </g>
                        <g transform="matrix(1,0,0,1,0,441.419)">
                            <rect x="188.784" y="198.109" width="2.834" height="4.253" style="fill:rgb(217,176,118);"/>
                        </g>
                        <g transform="matrix(1,0,0,1,0,441.419)">
                            <rect x="256.818" y="198.109" width="2.834" height="4.253" style="fill:rgb(217,176,118);"/>
                        </g>
                        <g transform="matrix(1,0,0,1,258.236,642.717)">
                            <path d="M0,-2.125L-68.033,-2.125M0,0L-68.033,0" style="fill:none;fill-rule:nonzero;stroke:rgb(176,220,232);stroke-width:1px;stroke-linejoin:miter;stroke-miterlimit:4;"/>
                        </g>
                        <g transform="matrix(1,0,0,1,188.787,660.08)">
                            <path d="M0,0L70.865,0" style="fill:none;fill-rule:nonzero;stroke:rgb(238,48,53);stroke-width:0.5px;"/>
                        </g>
                        <g transform="matrix(1,0,0,1,188.787,650.159)">
                            <path d="M0,0L70.865,0" style="fill:none;fill-rule:nonzero;stroke:rgb(35,31,32);stroke-width:0.5px;"/>
                        </g>
                        <g transform="matrix(1,0,0,1,188.787,664.332)">
                            <path d="M0,-30.68L70.865,-30.68M0.084,0L0.084,-11.339M-1.419,-2.748L1.589,-5.756M35.431,0L35.431,-11.339M33.929,-2.748L36.936,-5.756M70.952,0L70.952,-11.339M69.449,-2.748L72.456,-5.756" style="fill:none;fill-rule:nonzero;stroke:rgb(238,48,53);stroke-width:0.5px;"/>
                        </g>
                        <g transform="matrix(1,0,0,1,0,382.35)">
                            <rect x="265.323" y="208.51" width="2.835" height="42.52" style="fill:rgb(146,150,153);"/>
                        </g>
                        <g transform="matrix(1,0,0,1,0,399.955)">
                            <rect x="153.352" y="208.741" width="2.835" height="24.453" style="fill:rgb(146,150,153);"/>
                        </g>
                        <g transform="matrix(0.696156,-0.71789,-0.71789,-0.696156,247.896,642.454)">
                            <path d="M-9.898,23.386L55.253,23.386" style="fill:none;fill-rule:nonzero;stroke:rgb(238,48,53);stroke-width:0.5px;"/>
                        </g>
                        <g transform="matrix(-0.9401,-0.340898,-0.340898,0.9401,153.885,592.814)">
                            <path d="M-79.958,14.05L2.469,14.05" style="fill:none;fill-rule:nonzero;stroke:rgb(238,48,53);stroke-width:0.51px;"/>
                        </g>
                        <g transform="matrix(0.394642,0.918835,0.918835,-0.394642,255.859,615.25)">
                            <path d="M-6.775,-10.284C0.119,-7.325 8.17,-7.089 15.609,-10.284" style="fill:none;fill-rule:nonzero;stroke:rgb(238,48,53);stroke-width:0.5px;"/>
                        </g>
                        <g transform="matrix(-0.452513,0.891758,0.891758,0.452513,197.71,633.134)">
                            <path d="M-8.484,-5.209C-4.677,-6.927 -0.459,-7.064 3.198,-5.209" style="fill:none;fill-rule:nonzero;stroke:rgb(238,48,53);stroke-width:0.51px;"/>
                        </g>
                        <g transform="matrix(1,0,0,1,188.787,633.64)">
                            <path d="M0,0L35.249,0" style="fill:none;fill-rule:nonzero;stroke:rgb(35,31,32);stroke-width:0.5px;"/>
                        </g>
                    </g>
                </g>
                <g>
                    <text x="237.969px" y="627.608px" style="font-family:'Helvetica';font-size:10px;fill:rgb(238,48,53);">g</text>
                    <text x="243.53px" y="630.938px" style="font-family:'Helvetica-Light', 'Helvetica', sans-serif;font-weight:300;font-size:5.83px;fill:rgb(238,48,53);">l</text>
                </g>
                <g>
                    <text x="179.716px" y="625.752px" style="font-family:'Helvetica';font-size:10px;fill:rgb(238,48,53);">g</text>
                    <text x="185.278px" y="629.082px" style="font-family:'Helvetica-Light', 'Helvetica', sans-serif;font-weight:300;font-size:5.83px;fill:rgb(238,48,53);">r</text>
                </g>
                <text x="238.819px" y="670.744px" style="font-family:'Helvetica-Light', 'Helvetica', sans-serif;font-weight:300;font-size:9px;fill:rgb(238,48,53);">½</text>
                <text x="203.953px" y="670.744px" style="font-family:'Helvetica-Light', 'Helvetica', sans-serif;font-weight:300;font-size:9px;fill:rgb(238,48,53);">½</text>
            </g>
        </g>
    </g>
</svg>
