<?xml version="1.0" encoding="UTF-8" standalone="no"?>
<!DOCTYPE svg PUBLIC "-//W3C//DTD SVG 1.1//EN" "http://www.w3.org/Graphics/SVG/1.1/DTD/svg11.dtd">
<svg width="100%" height="100%" viewBox="0 0 403 265" version="1.1" xmlns="http://www.w3.org/2000/svg" xmlns:xlink="http://www.w3.org/1999/xlink" xml:space="preserve" xmlns:serif="http://www.serif.com/" style="fill-rule:evenodd;clip-rule:evenodd;">
    <g transform="matrix(1,0,0,1,-6945,-888)">
        <g transform="matrix(2,0,0,2,6696.86,0)">
            <rect id="Page-6" serif:id="Page 6" x="0" y="0" width="595.276" height="841.89" style="fill:none;"/>
            <g id="Page-61" serif:id="Page 6">
                <g transform="matrix(1,0,0,1,0,177.236)">
                    <rect x="151.937" y="268.547" width="17.008" height="127.56" style="fill:rgb(146,150,153);"/>
                </g>
                <g transform="matrix(1,0,0,1,0,270.782)">
                    <rect x="129.26" y="279.885" width="28.347" height="11.338" style="fill:rgb(146,150,153);"/>
                </g>
                <g transform="matrix(1,0,0,1,0,78.024)">
                    <rect x="129.26" y="376.264" width="119.056" height="11.338" style="fill:rgb(146,150,153);"/>
                </g>
                <g transform="matrix(1,0,0,1,0,174.403)">
                    <rect x="151.937" y="305.397" width="16.938" height="56.693" style="fill:white;"/>
                </g>
                <g transform="matrix(1,0,0,1,0,120.54)">
                    <rect x="158.315" y="359.258" width="4.251" height="2.834" style="fill:rgb(218,177,118);"/>
                </g>
                <g transform="matrix(1,0,0,1,0,228.262)">
                    <rect x="158.315" y="305.397" width="4.251" height="2.834" style="fill:rgb(218,177,118);"/>
                </g>
                <g transform="matrix(1,0,0,1,161.504,481.216)">
                    <path d="M0,53.858L0,0M-2.127,53.858L-2.127,0" style="fill:none;fill-rule:nonzero;stroke:rgb(177,221,232);stroke-width:1px;"/>
                </g>
                <g transform="matrix(0,1,1,0,170.361,508.145)">
                    <path d="M-28.345,-28.345L28.345,-28.345" style="fill:none;fill-rule:nonzero;stroke:rgb(238,48,53);stroke-width:0.5px;stroke-linejoin:round;stroke-miterlimit:10;"/>
                </g>
                <g transform="matrix(0,1,1,0,180.282,508.145)">
                    <path d="M-28.345,-28.345L28.345,-28.345" style="fill:none;fill-rule:nonzero;stroke:rgb(35,31,32);stroke-width:0.5px;stroke-linejoin:round;stroke-miterlimit:10;"/>
                </g>
                <g transform="matrix(1,0,0,1,168.946,536.371)">
                    <path d="M0,-56.571L0,-28.224M-31.184,-56.69L-19.843,-56.69M-28.435,-58.193L-25.428,-55.188M-31.184,-28.226L-22.678,-28.226M-28.435,-29.729L-25.428,-26.721M-31.184,0.119L-19.843,0.119M-28.435,-1.385L-25.428,1.622" style="fill:none;fill-rule:nonzero;stroke:rgb(238,48,53);stroke-width:0.5px;stroke-linejoin:round;stroke-miterlimit:10;"/>
                </g>
                <g transform="matrix(0,1,1,0,183.142,522.268)">
                    <path d="M-14.143,-14.143L14.143,-14.143" style="fill:none;fill-rule:nonzero;stroke:rgb(35,31,32);stroke-width:0.5px;stroke-linejoin:round;stroke-miterlimit:10;"/>
                </g>
                <g transform="matrix(1,0,0,1,174.615,464.007)">
                    <path d="M0,56.979L-17.009,56.979M-11.254,55.391L-14.261,58.398M-4.167,55.391L-7.174,58.398M-5.619,44.138L79.423,-1.419" style="fill:none;fill-rule:nonzero;stroke:rgb(238,48,53);stroke-width:0.5px;stroke-linejoin:round;stroke-miterlimit:10;"/>
                </g>
                <g transform="matrix(1,0,0,1,0,177.236)">
                    <rect x="270.999" y="268.547" width="17.008" height="127.56" style="fill:rgb(146,150,153);"/>
                </g>
                <g transform="matrix(1,0,0,1,0,174.403)">
                    <rect x="270.999" y="305.397" width="17.008" height="56.693" style="fill:white;"/>
                </g>
                <g transform="matrix(1,0,0,1,0,120.54)">
                    <rect x="270.999" y="359.258" width="4.252" height="2.834" style="fill:rgb(218,177,118);"/>
                </g>
                <g transform="matrix(1,0,0,1,0,228.262)">
                    <rect x="270.999" y="305.397" width="4.252" height="2.834" style="fill:rgb(218,177,118);"/>
                </g>
                <g transform="matrix(1,0,0,1,274.189,481.216)">
                    <path d="M0,53.858L0,0M-2.124,53.858L-2.124,0" style="fill:none;fill-rule:nonzero;stroke:rgb(177,221,232);stroke-width:1px;"/>
                </g>
                <g transform="matrix(1,0,0,1,261.077,536.49)">
                    <path d="M0,-56.69L0,0M13.464,-53.855L13.464,-28.343" style="fill:none;fill-rule:nonzero;stroke:rgb(238,48,53);stroke-width:0.5px;stroke-linejoin:round;stroke-miterlimit:10;"/>
                </g>
                <g transform="matrix(0,1,1,0,316.353,508.145)">
                    <path d="M-28.345,-28.345L28.345,-28.345" style="fill:none;fill-rule:nonzero;stroke:rgb(35,31,32);stroke-width:0.5px;stroke-linejoin:round;stroke-miterlimit:10;"/>
                </g>
                <g transform="matrix(1,0,0,1,256.824,536.49)">
                    <path d="M0,-56.809L11.341,-56.809M2.749,-58.312L5.756,-55.307M36.853,-15.504L11.341,-15.504M19.222,-17.092L16.215,-14.085M32.686,-17.092L29.679,-14.085M0,-28.345L8.506,-28.345M2.749,-29.848L5.756,-26.84M0,0L11.341,0M2.749,-1.504L5.756,1.503" style="fill:none;fill-rule:nonzero;stroke:rgb(238,48,53);stroke-width:0.5px;stroke-linejoin:round;stroke-miterlimit:10;"/>
                </g>
                <g transform="matrix(0.4281,-0.903732,-0.903732,-0.4281,308.82,503.955)">
                    <path d="M-18.439,29.138L46.044,29.138" style="fill:none;fill-rule:nonzero;stroke:rgb(238,48,53);stroke-width:0.5px;stroke-linecap:round;stroke-linejoin:round;stroke-miterlimit:10;"/>
                </g>
                <g transform="matrix(0.97562,0.219468,0.219468,-0.97562,274.945,481.461)">
                    <path d="M-0.137,-1.232C3.688,-0.371 7.503,-0.419 11.086,-1.232" style="fill:none;fill-rule:nonzero;stroke:rgb(238,48,53);stroke-width:0.5px;"/>
                </g>
                <g transform="matrix(-0.862441,-0.506157,-0.506157,0.862441,174.495,474.55)">
                    <path d="M-27.308,7.421C-18.553,2.291 -7.356,1.921 2.017,7.422" style="fill:none;fill-rule:nonzero;stroke:rgb(237,72,53);stroke-width:0.52px;"/>
                </g>
                <text x="173.693px" y="493.275px" style="font-family:'Helvetica';font-size:9px;fill:rgb(238,48,53);">b</text>
                <text x="290.693px" y="493.275px" style="font-family:'Helvetica';font-size:9px;fill:rgb(238,48,53);">b</text>
                <text x="229.039px" y="544.583px" style="font-family:'Helvetica-Light', 'Helvetica', sans-serif;font-weight:300;font-size:8px;fill:rgb(35,31,32);">innen</text>
                <text x="296.787px" y="544.583px" style="font-family:'Helvetica-Light', 'Helvetica', sans-serif;font-weight:300;font-size:8px;fill:rgb(35,31,32);">aussen</text>
                <g>
                    <text x="291.331px" y="516.986px" style="font-family:'Helvetica-Light', 'Helvetica', sans-serif;font-weight:300;font-size:9px;fill:rgb(238,48,53);">&gt;<tspan x="296.911px 299.053px 303.697px 308.341px 309.781px 314.425px " y="516.986px 516.986px 516.986px 516.986px 516.986px 516.986px "> 30 cm</tspan></text>
                    <text x="251.291px" y="525.645px" style="font-family:'Helvetica-Light', 'Helvetica', sans-serif;font-weight:300;font-size:9px;fill:rgb(238,48,53);">½</text>
                </g>
                <text x="132.52px" y="525.645px" style="font-family:'Helvetica-Light', 'Helvetica', sans-serif;font-weight:300;font-size:9px;fill:rgb(238,48,53);">½</text>
                <text x="251.291px" y="497.37px" style="font-family:'Helvetica-Light', 'Helvetica', sans-serif;font-weight:300;font-size:9px;fill:rgb(238,48,53);">½</text>
                <text x="132.52px" y="497.37px" style="font-family:'Helvetica-Light', 'Helvetica', sans-serif;font-weight:300;font-size:9px;fill:rgb(238,48,53);">½</text>
                <text x="173.693px" y="516.986px" style="font-family:'Helvetica-Light', 'Helvetica', sans-serif;font-weight:300;font-size:9px;fill:rgb(238,48,53);">≤ 30 cm</text>
            </g>
        </g>
    </g>
</svg>
