<?xml version="1.0" encoding="UTF-8" standalone="no"?>
<!DOCTYPE svg PUBLIC "-//W3C//DTD SVG 1.1//EN" "http://www.w3.org/Graphics/SVG/1.1/DTD/svg11.dtd">
<svg width="100%" height="100%" viewBox="0 0 1334 1334" version="1.1" xmlns="http://www.w3.org/2000/svg" xmlns:xlink="http://www.w3.org/1999/xlink" xml:space="preserve" xmlns:serif="http://www.serif.com/" style="fill-rule:evenodd;clip-rule:evenodd;stroke-linejoin:round;stroke-miterlimit:2;">
    <g transform="matrix(1.33333,0,0,-1.33333,0,1333.33)">
        <g id="Logo">
            <g id="g12" transform="matrix(6.00049,0,0,6.00049,-2492.44,-2698.96)">
                <g id="g14">
                    <g id="g20">
                        <g id="g22">
                            <path id="path30" d="M525.16,497.479C521.745,495.642 518.801,494.051 512.518,494.051C506.235,494.051 503.278,495.642 499.876,497.479C496.932,499.069 493.679,500.819 488.239,501.341C487.196,501.453 486.078,501.503 484.874,501.503C484.328,501.503 483.793,501.491 483.272,501.466C476.752,501.193 473.101,499.231 469.872,497.479C466.457,495.642 463.513,494.051 457.217,494.051C450.933,494.051 447.99,495.642 444.575,497.479C441.073,499.367 437.112,501.503 429.574,501.503C428.207,501.503 427.09,500.386 427.09,499.019C427.09,497.641 428.207,496.535 429.574,496.535C435.857,496.535 438.813,494.946 442.215,493.108C445.718,491.221 449.68,489.084 457.217,489.084C464.755,489.084 468.73,491.221 472.219,493.108C475.324,494.784 478.056,496.25 483.272,496.498C483.781,496.524 484.315,496.535 484.874,496.535C486.116,496.535 487.233,496.473 488.239,496.35C492.338,495.903 494.772,494.586 497.516,493.108C501.018,491.221 504.98,489.084 512.518,489.084C520.057,489.084 524.018,491.221 527.521,493.108C530.935,494.946 533.879,496.535 540.162,496.535C546.459,496.535 549.402,494.946 552.818,493.108C556.32,491.221 560.281,489.084 567.819,489.084C569.197,489.084 570.303,490.189 570.303,491.568C570.303,492.935 569.197,494.051 567.819,494.051C561.535,494.051 558.592,495.642 555.177,497.479C551.675,499.367 547.713,501.503 540.162,501.503C532.624,501.503 528.662,499.367 525.16,497.479" style="fill:white;fill-rule:nonzero;"/>
                        </g>
                    </g>
                </g>
            </g>
            <g id="g32" transform="matrix(6.00049,0,0,6.00049,-2492.44,-2698.96)">
                <g id="g34">
                    <g id="g40">
                        <g id="g42">
                            <path id="path50" d="M525.164,483.208C521.751,481.369 518.802,479.779 512.518,479.779C506.231,479.779 503.284,481.369 499.872,483.208C496.373,485.093 492.408,487.23 484.87,487.23C477.331,487.23 473.367,485.093 469.867,483.208C466.455,481.369 463.508,479.779 457.223,479.779C450.938,479.779 447.99,481.369 444.578,483.208C441.079,485.093 437.115,487.23 429.576,487.23C428.205,487.23 427.092,486.118 427.092,484.747C427.092,483.375 428.205,482.262 429.576,482.262C435.86,482.262 438.808,480.675 442.22,478.835C445.72,476.95 449.683,474.811 457.223,474.811C464.761,474.811 468.726,476.95 472.225,478.835C475.638,480.675 478.586,482.262 484.87,482.262C491.154,482.262 494.102,480.675 497.514,478.835C501.013,476.95 504.978,474.811 512.518,474.811C520.057,474.811 524.022,476.95 527.521,478.835C530.934,480.675 533.883,482.262 540.169,482.262C546.455,482.262 549.403,480.675 552.816,478.835C556.315,476.95 560.281,474.811 567.822,474.811C569.192,474.811 570.305,475.924 570.305,477.296C570.305,478.667 569.192,479.779 567.822,479.779C561.535,479.779 558.587,481.369 555.174,483.208C551.674,485.093 547.708,487.23 540.169,487.23C532.629,487.23 528.663,485.093 525.164,483.208" style="fill:white;fill-rule:nonzero;"/>
                        </g>
                    </g>
                </g>
            </g>
            <g id="g52" transform="matrix(6.00049,0,0,6.00049,-2492.44,-2698.96)">
                <g id="g54">
                    <g id="g60">
                        <g id="g62">
                            <path id="path70" d="M525.164,466.721C521.751,464.881 518.802,463.292 512.518,463.292C506.231,463.292 503.284,464.881 499.872,466.721C496.373,468.606 492.408,470.743 484.87,470.743C477.331,470.743 473.367,468.606 469.867,466.721C466.455,464.881 463.508,463.292 457.223,463.292C450.938,463.292 447.99,464.881 444.578,466.721C441.079,468.606 437.115,470.743 429.576,470.743C428.205,470.743 427.092,469.631 427.092,468.26C427.092,466.888 428.205,465.775 429.576,465.775C435.86,465.775 438.808,464.187 442.22,462.347C445.72,460.462 449.683,458.324 457.223,458.324C464.761,458.324 468.726,460.462 472.225,462.348C475.638,464.187 478.586,465.775 484.87,465.775C491.154,465.775 494.102,464.187 497.514,462.348C501.013,460.462 504.978,458.324 512.518,458.324C520.057,458.324 524.022,460.462 527.521,462.347C530.934,464.187 533.883,465.775 540.169,465.775C546.455,465.775 549.403,464.187 552.816,462.347C556.315,460.461 560.281,458.324 567.822,458.324C569.192,458.324 570.305,459.436 570.305,460.807C570.305,462.18 569.192,463.292 567.822,463.292C561.535,463.292 558.587,464.881 555.174,466.721C551.674,468.606 547.708,470.743 540.169,470.743C532.629,470.743 528.663,468.606 525.164,466.721" style="fill:white;fill-rule:nonzero;"/>
                        </g>
                    </g>
                </g>
            </g>
            <g id="g72" transform="matrix(6.00049,0,0,6.00049,-2492.44,-2698.96)">
                <g id="g74">
                    <g id="g80">
                        <g id="g82">
                            <path id="path90" d="M516.712,558.544C515.93,556.555 516.329,554.394 517.569,552.836C519.541,553.135 521.302,554.448 522.082,556.432C522.863,558.418 522.468,560.577 521.229,562.14C519.259,561.844 517.494,560.534 516.712,558.544" style="fill:white;fill-rule:nonzero;"/>
                        </g>
                    </g>
                </g>
            </g>
            <g id="g92" transform="matrix(6.00049,0,0,6.00049,-2492.44,-2698.96)">
                <g id="g94">
                    <g id="g100">
                        <g id="g102">
                            <path id="path110" d="M505.869,600.731C506.736,598.19 508.877,596.443 511.333,595.958C512.977,597.848 513.599,600.537 512.733,603.074C511.867,605.61 509.732,607.359 507.274,607.848C505.628,605.964 505.002,603.274 505.869,600.731" style="fill:white;fill-rule:nonzero;"/>
                        </g>
                    </g>
                </g>
            </g>
            <g id="g112" transform="matrix(6.00049,0,0,6.00049,-2492.44,-2698.96)">
                <g id="g114">
                    <g id="g120">
                        <g id="g122">
                            <path id="path130" d="M498.346,592.54C499.199,590.041 501.304,588.324 503.717,587.848C505.336,589.705 505.947,592.349 505.094,594.843C504.244,597.338 502.144,599.057 499.728,599.539C498.109,597.685 497.493,595.04 498.346,592.54" style="fill:white;fill-rule:nonzero;"/>
                        </g>
                    </g>
                </g>
            </g>
            <g id="g132" transform="matrix(6.00049,0,0,6.00049,-2492.44,-2698.96)">
                <g id="g134">
                    <g id="g140">
                        <g id="g142">
                            <path id="path150" d="M485.197,600.186C485.069,597.503 486.418,595.093 488.524,593.739C490.748,594.892 492.314,597.164 492.441,599.841C492.569,602.518 491.225,604.929 489.12,606.288C486.896,605.14 485.325,602.869 485.197,600.186" style="fill:white;fill-rule:nonzero;"/>
                        </g>
                    </g>
                </g>
            </g>
            <g id="g152" transform="matrix(6.00049,0,0,6.00049,-2492.44,-2698.96)">
                <g id="g154">
                    <g id="g160">
                        <g id="g162">
                            <path id="path170" d="M469.672,596.579C470.316,594.694 471.902,593.399 473.725,593.039C474.944,594.441 475.405,596.435 474.763,598.317C474.121,600.198 472.538,601.495 470.714,601.859C469.493,600.46 469.029,598.465 469.672,596.579" style="fill:white;fill-rule:nonzero;"/>
                        </g>
                    </g>
                </g>
            </g>
            <g id="g172" transform="matrix(6.00049,0,0,6.00049,-2492.44,-2698.96)">
                <g id="g174">
                    <g id="g180">
                        <g id="g182">
                            <rect id="path190" x="496.212" y="525.793" width="4.967" height="4.968" style="fill:white;fill-rule:nonzero;"/>
                        </g>
                    </g>
                </g>
            </g>
            <g id="g192" transform="matrix(6.00049,0,0,6.00049,-2492.44,-2698.96)">
                <g id="g194">
                    <g id="g200">
                        <g id="g202">
                            <path id="path210" d="M496.287,495.952C496.56,494.871 497.541,494.077 498.695,494.077C500.075,494.077 501.179,495.182 501.179,496.561L501.179,523.174L496.287,495.952Z" style="fill:white;fill-rule:nonzero;"/>
                        </g>
                    </g>
                </g>
            </g>
            <g id="g212" transform="matrix(6.00049,0,0,6.00049,-2492.44,-2698.96)">
                <g id="g214">
                    <g id="g220">
                        <g id="g222">
                            <path id="path230" d="M517.498,607.783C516.194,607.398 515.449,606.019 515.821,604.715C515.896,604.43 517.597,597.822 508.234,588.82C503.328,584.1 500.422,578.164 498.695,572.862C496.424,565.87 496.225,560.008 496.212,559.548L496.212,533.494L501.118,554.656C501.168,554.842 501.179,555.041 501.179,555.226L501.179,559.486C501.179,559.648 501.739,575.693 511.673,585.243C523.435,596.531 520.69,605.783 520.565,606.168C520.231,607.222 519.268,607.887 518.217,607.887C517.98,607.887 517.738,607.853 517.498,607.783" style="fill:white;fill-rule:nonzero;"/>
                        </g>
                    </g>
                </g>
            </g>
            <g id="g232" transform="matrix(6.00049,0,0,6.00049,-2492.44,-2698.96)">
                <g id="g234">
                    <g id="g240">
                        <g id="g242">
                            <path id="path250" d="M476.826,606.168C476.715,605.783 473.971,596.531 485.718,585.243C495.616,575.73 496.212,559.635 496.212,559.548L496.212,533.494L501.118,554.656C501.168,554.842 501.179,555.041 501.179,555.226L501.179,559.623C501.168,560.045 500.969,565.882 498.695,572.862C496.983,578.152 494.077,584.088 489.171,588.82C479.794,597.822 481.509,604.43 481.571,604.678C481.981,605.982 481.261,607.373 479.944,607.795C479.699,607.872 479.45,607.909 479.206,607.909C478.151,607.909 477.17,607.227 476.826,606.168" style="fill:white;fill-rule:nonzero;"/>
                        </g>
                    </g>
                </g>
            </g>
            <g id="g252" transform="matrix(6.00049,0,0,6.00049,-2492.44,-2698.96)">
                <g id="g254">
                    <g id="g260">
                        <g id="g262">
                            <rect id="path270" x="496.212" y="525.793" width="4.967" height="4.968" style="fill:white;fill-rule:nonzero;"/>
                        </g>
                    </g>
                </g>
            </g>
            <g id="g272" transform="matrix(6.00049,0,0,6.00049,-2492.44,-2698.96)">
                <g id="g274">
                    <g id="g280">
                        <g id="g282">
                            <path id="path290" d="M496.287,495.952C496.56,494.871 497.541,494.077 498.695,494.077C500.075,494.077 501.179,495.182 501.179,496.561L501.179,523.174L496.287,495.952Z" style="fill:white;fill-rule:nonzero;"/>
                        </g>
                    </g>
                </g>
            </g>
            <g id="g292" transform="matrix(6.00049,0,0,6.00049,-2492.44,-2698.96)">
                <g id="g294">
                    <g id="g300">
                        <g id="g302">
                            <path id="path310" d="M535.756,588.304C534.492,585.09 535.137,581.597 537.142,579.078C540.328,579.563 543.173,581.683 544.435,584.89C545.697,588.099 545.058,591.589 543.055,594.114C539.873,593.635 537.02,591.519 535.756,588.304" style="fill:white;fill-rule:nonzero;"/>
                        </g>
                    </g>
                </g>
            </g>
            <g id="g312" transform="matrix(6.00049,0,0,6.00049,-2492.44,-2698.96)">
                <g id="g314">
                    <g id="g320">
                        <g id="g322">
                            <path id="path330" d="M542.93,517.718C540.519,515.245 539.761,511.775 540.633,508.676C543.758,507.888 547.202,508.739 549.608,511.207C552.015,513.676 552.778,517.141 551.911,520.245C551.157,520.437 550.382,520.533 549.608,520.533C547.183,520.533 544.758,519.592 542.93,517.718" style="fill:white;fill-rule:nonzero;"/>
                        </g>
                    </g>
                </g>
            </g>
            <g id="g332" transform="matrix(6.00049,0,0,6.00049,-2492.44,-2698.96)">
                <g id="g334">
                    <g id="g340">
                        <g id="g342">
                            <path id="path350" d="M560.647,553.743C559.382,550.529 560.029,547.035 562.033,544.517C565.219,545.002 568.065,547.122 569.326,550.329C570.588,553.538 569.948,557.028 567.946,559.552C564.763,559.075 561.911,556.958 560.647,553.743" style="fill:white;fill-rule:nonzero;"/>
                        </g>
                    </g>
                </g>
            </g>
            <g id="g352" transform="matrix(6.00049,0,0,6.00049,-2492.44,-2698.96)">
                <g id="g354">
                    <g id="g360">
                        <g id="g362">
                            <path id="path370" d="M558.202,507.86C559.535,504.674 562.432,502.619 565.626,502.211C567.572,504.779 568.135,508.283 566.804,511.463C565.473,514.642 562.582,516.699 559.386,517.114C557.437,514.552 556.867,511.046 558.202,507.86" style="fill:white;fill-rule:nonzero;"/>
                        </g>
                    </g>
                </g>
            </g>
            <g id="g372" transform="matrix(6.00049,0,0,6.00049,-2492.44,-2698.96)">
                <g id="g374">
                    <g id="g380">
                        <g id="g382">
                            <path id="path390" d="M550.727,571.508C549.945,569.518 550.345,567.357 551.586,565.798C553.557,566.098 555.317,567.41 556.098,569.396C556.879,571.38 556.483,573.54 555.245,575.103C553.274,574.807 551.51,573.496 550.727,571.508" style="fill:white;fill-rule:nonzero;"/>
                        </g>
                    </g>
                </g>
            </g>
            <g id="g392" transform="matrix(6.00049,0,0,6.00049,-2492.44,-2698.96)">
                <g id="g394">
                    <g id="g400">
                        <g id="g402">
                            <path id="path410" d="M540.498,564.411C539.715,562.422 540.115,560.26 541.355,558.702C543.327,559.002 545.088,560.313 545.868,562.298C546.649,564.283 546.254,566.443 545.015,568.005C543.045,567.709 541.281,566.4 540.498,564.411" style="fill:white;fill-rule:nonzero;"/>
                        </g>
                    </g>
                </g>
            </g>
            <g id="g412" transform="matrix(6.00049,0,0,6.00049,-2492.44,-2698.96)">
                <g id="g414">
                    <g id="g420">
                        <g id="g422">
                            <path id="path430" d="M546.247,548.075C544.961,546.368 544.766,544.18 545.544,542.345C547.523,542.106 549.571,542.897 550.856,544.601C552.139,546.305 552.338,548.491 551.562,550.328C551.328,550.357 551.093,550.371 550.858,550.371C549.11,550.371 547.381,549.58 546.247,548.075" style="fill:white;fill-rule:nonzero;"/>
                        </g>
                    </g>
                </g>
            </g>
            <g id="g432" transform="matrix(6.00049,0,0,6.00049,-2492.44,-2698.96)">
                <g id="g434">
                    <g id="g440">
                        <g id="g442">
                            <path id="path450" d="M567.283,520.792C567.05,518.811 567.851,516.767 569.56,515.489C571.269,514.213 573.456,514.024 575.29,514.806C575.525,516.784 574.727,518.833 573.015,520.113C571.979,520.887 570.767,521.261 569.566,521.261C568.783,521.261 568.005,521.102 567.283,520.792" style="fill:white;fill-rule:nonzero;"/>
                        </g>
                    </g>
                </g>
            </g>
            <g id="g452" transform="matrix(6.00049,0,0,6.00049,-2492.44,-2698.96)">
                <g id="g454">
                    <g id="g460">
                        <g id="g462">
                            <path id="path470" d="M568.399,541.192C566.262,541.168 564.409,539.985 563.432,538.249C564.452,536.535 566.33,535.397 568.462,535.421C570.595,535.444 572.449,536.623 573.43,538.359C572.425,540.056 570.574,541.192 568.464,541.192L568.399,541.192" style="fill:white;fill-rule:nonzero;"/>
                        </g>
                    </g>
                </g>
            </g>
            <g id="g472" transform="matrix(6.00049,0,0,6.00049,-2492.44,-2698.96)">
                <g id="g474">
                    <g id="g480">
                        <g id="g482">
                            <path id="path490" d="M531.82,544.746C530.534,543.039 530.339,540.85 531.117,539.015C533.097,538.776 535.144,539.568 536.429,541.272C537.713,542.974 537.911,545.161 537.135,546.999C536.902,547.028 536.667,547.042 536.433,547.042C534.684,547.042 532.956,546.251 531.82,544.746" style="fill:white;fill-rule:nonzero;"/>
                        </g>
                    </g>
                </g>
            </g>
            <g id="g492" transform="matrix(6.00049,0,0,6.00049,-2492.44,-2698.96)">
                <g id="g494">
                    <g id="g500">
                        <g id="g502">
                            <path id="path510" d="M518.827,539.323C518.074,537.323 518.506,535.168 519.77,533.627C521.736,533.956 523.478,535.295 524.228,537.29C524.981,539.287 524.552,541.441 523.291,542.985C521.325,542.659 519.58,541.324 518.827,539.323" style="fill:white;fill-rule:nonzero;"/>
                        </g>
                    </g>
                </g>
            </g>
            <g id="g512" transform="matrix(6.00049,0,0,6.00049,-2492.44,-2698.96)">
                <g id="g514">
                    <g id="g520">
                        <g id="g522">
                            <path id="path530" d="M529.348,519.342C527.01,518.81 525.262,517.074 524.602,514.94C526.125,513.303 528.453,512.501 530.785,513.033C533.117,513.564 534.868,515.295 535.532,517.43C534.328,518.729 532.614,519.505 530.79,519.505C530.314,519.505 529.831,519.453 529.348,519.342" style="fill:white;fill-rule:nonzero;"/>
                        </g>
                    </g>
                </g>
            </g>
            <g id="g532" transform="matrix(6.00049,0,0,6.00049,-2492.44,-2698.96)">
                <g id="g534">
                    <g id="g540">
                        <g id="g542">
                            <path id="path550" d="M529.251,561.874C528.468,559.885 528.868,557.723 530.108,556.165C532.08,556.465 533.84,557.777 534.622,559.761C535.402,561.747 535.007,563.906 533.767,565.469C531.797,565.173 530.033,563.863 529.251,561.874" style="fill:white;fill-rule:nonzero;"/>
                        </g>
                    </g>
                </g>
            </g>
            <g id="g552" transform="matrix(6.00049,0,0,6.00049,-2492.44,-2698.96)">
                <g id="g554">
                    <g id="g560">
                        <g id="g562">
                            <path id="path570" d="M521.329,585.567C520.065,582.353 520.711,578.86 522.715,576.341C525.901,576.826 528.747,578.947 530.009,582.154C531.271,585.362 530.631,588.852 528.628,591.376C525.445,590.899 522.594,588.782 521.329,585.567" style="fill:white;fill-rule:nonzero;"/>
                        </g>
                    </g>
                </g>
            </g>
            <g id="g572" transform="matrix(6.00049,0,0,6.00049,-2492.44,-2698.96)">
                <g id="g574">
                    <g id="g580">
                        <g id="g582">
                            <path id="path590" d="M550.014,584.985C549.957,584.87 544.066,573.592 529.41,574.919C523.419,575.451 518.549,574.17 514.927,571.099C509.726,566.687 509.188,560.219 509.166,559.947C509.161,559.885 509.159,559.823 509.159,559.761L509.159,492.753C509.159,491.382 510.271,490.27 511.643,490.27C513.014,490.27 514.127,491.382 514.127,492.753L514.127,559.642C514.193,560.219 514.795,564.474 518.141,567.31C520.711,569.489 524.358,570.389 528.966,569.971C546.929,568.363 554.144,582.145 554.444,582.734C555.064,583.957 554.577,585.452 553.354,586.073C552.994,586.256 552.611,586.344 552.232,586.344C551.328,586.343 550.455,585.846 550.014,584.985" style="fill:white;fill-rule:nonzero;"/>
                        </g>
                    </g>
                </g>
            </g>
            <g id="g592" transform="matrix(6.00049,0,0,6.00049,-2492.44,-2698.96)">
                <g id="g594">
                    <g id="g600">
                        <g id="g602">
                            <path id="path610" d="M560.981,568.404C559.839,561.388 546.688,553.588 532.078,554.42C518.891,555.178 511.42,544.132 509.304,538.188C508.843,536.896 509.517,535.476 510.809,535.015C511.085,534.918 511.366,534.871 511.643,534.871C512.664,534.871 513.621,535.504 513.983,536.522C514.03,536.658 518.991,550.183 531.794,549.461C547.931,548.545 564.187,557.187 565.883,567.607C566.104,568.96 565.185,570.236 563.831,570.457C563.697,570.479 563.564,570.489 563.432,570.489C562.237,570.489 561.179,569.623 560.981,568.404" style="fill:white;fill-rule:nonzero;"/>
                        </g>
                    </g>
                </g>
            </g>
            <g id="g612" transform="matrix(6.00049,0,0,6.00049,-2492.44,-2698.96)">
                <g id="g614">
                    <g id="g620">
                        <g id="g622">
                            <path id="path630" d="M555.287,543.923C555.255,543.891 552.053,540.685 544.065,539.839C520.011,539.759 509.806,517.964 509.382,517.035C508.813,515.786 509.365,514.313 510.613,513.744C510.947,513.593 511.297,513.521 511.642,513.521C512.585,513.521 513.486,514.061 513.904,514.976C513.995,515.174 523.208,534.872 544.197,534.872C544.281,534.872 544.364,534.875 544.448,534.884C554.4,535.902 558.487,540.065 558.92,540.536C559.84,541.536 559.772,543.075 558.786,544.009C558.309,544.46 557.697,544.683 557.085,544.682C556.43,544.682 555.776,544.427 555.287,543.923" style="fill:white;fill-rule:nonzero;"/>
                        </g>
                    </g>
                </g>
            </g>
            <g id="g632" transform="matrix(6.00049,0,0,6.00049,-2492.44,-2698.96)">
                <g id="g634">
                    <g id="g640">
                        <g id="g642">
                            <path id="path650" d="M539.785,537.68C538.672,536.878 538.42,535.326 539.221,534.213C539.319,534.077 546.985,523.717 561.008,523.717C565.076,523.717 569.682,524.589 574.791,526.837C576.046,527.39 576.616,528.856 576.065,530.112C575.51,531.368 574.044,531.935 572.79,531.385C553.848,523.048 543.686,536.522 543.249,537.121C542.763,537.791 542.005,538.148 541.235,538.148C540.732,538.148 540.225,537.996 539.785,537.68" style="fill:white;fill-rule:nonzero;"/>
                        </g>
                    </g>
                </g>
            </g>
            <g id="g652" transform="matrix(6.00049,0,0,6.00049,-2492.44,-2698.96)">
                <g id="g654">
                    <g id="g660">
                        <g id="g662">
                            <path id="path670" d="M452.961,584.89C454.223,581.683 457.069,579.563 460.254,579.078C462.259,581.597 462.905,585.09 461.641,588.304C460.376,591.519 457.524,593.635 454.341,594.114C452.338,591.589 451.699,588.099 452.961,584.89" style="fill:white;fill-rule:nonzero;"/>
                        </g>
                    </g>
                </g>
            </g>
            <g id="g672" transform="matrix(6.00049,0,0,6.00049,-2492.44,-2698.96)">
                <g id="g674">
                    <g id="g680">
                        <g id="g682">
                            <path id="path690" d="M445.486,520.245C444.618,517.141 445.382,513.676 447.788,511.207C450.194,508.739 453.639,507.888 456.763,508.676C457.636,511.775 456.878,515.245 454.467,517.718C452.639,519.592 450.214,520.533 447.789,520.533C447.015,520.533 446.241,520.437 445.486,520.245" style="fill:white;fill-rule:nonzero;"/>
                        </g>
                    </g>
                </g>
            </g>
            <g id="g692" transform="matrix(6.00049,0,0,6.00049,-2492.44,-2698.96)">
                <g id="g694">
                    <g id="g700">
                        <g id="g702">
                            <path id="path710" d="M428.071,550.329C429.332,547.122 432.177,545.002 435.364,544.517C437.368,547.035 438.014,550.529 436.75,553.743C435.486,556.958 432.634,559.075 429.45,559.552C427.448,557.028 426.809,553.538 428.071,550.329" style="fill:white;fill-rule:nonzero;"/>
                        </g>
                    </g>
                </g>
            </g>
            <g id="g712" transform="matrix(6.00049,0,0,6.00049,-2492.44,-2698.96)">
                <g id="g714">
                    <g id="g720">
                        <g id="g722">
                            <path id="path730" d="M432.205,514.669C430.874,511.49 431.437,507.986 433.384,505.418C436.577,505.827 439.474,507.882 440.808,511.068C442.143,514.254 441.572,517.76 439.624,520.321C436.428,519.907 433.536,517.849 432.205,514.669" style="fill:white;fill-rule:nonzero;"/>
                        </g>
                    </g>
                </g>
            </g>
            <g id="g732" transform="matrix(6.00049,0,0,6.00049,-2492.44,-2698.96)">
                <g id="g734">
                    <g id="g740">
                        <g id="g742">
                            <path id="path750" d="M441.298,569.396C442.078,567.41 443.84,566.098 445.811,565.798C447.052,567.357 447.451,569.518 446.669,571.508C445.887,573.496 444.121,574.807 442.152,575.103C440.913,573.54 440.518,571.38 441.298,569.396" style="fill:white;fill-rule:nonzero;"/>
                        </g>
                    </g>
                </g>
            </g>
            <g id="g752" transform="matrix(6.00049,0,0,6.00049,-2492.44,-2698.96)">
                <g id="g754">
                    <g id="g760">
                        <g id="g762">
                            <path id="path770" d="M451.528,562.298C452.309,560.313 454.07,559.002 456.041,558.702C457.282,560.26 457.681,562.422 456.898,564.411C456.116,566.4 454.352,567.709 452.381,568.005C451.143,566.443 450.748,564.283 451.528,562.298" style="fill:white;fill-rule:nonzero;"/>
                        </g>
                    </g>
                </g>
            </g>
            <g id="g772" transform="matrix(6.00049,0,0,6.00049,-2492.44,-2698.96)">
                <g id="g774">
                    <g id="g780">
                        <g id="g782">
                            <path id="path790" d="M445.834,550.328C445.059,548.491 445.257,546.305 446.541,544.601C447.825,542.897 449.873,542.106 451.852,542.345C452.63,544.18 452.436,546.368 451.149,548.075C450.015,549.58 448.286,550.371 446.538,550.371C446.303,550.371 446.068,550.357 445.834,550.328" style="fill:white;fill-rule:nonzero;"/>
                        </g>
                    </g>
                </g>
            </g>
            <g id="g792" transform="matrix(6.00049,0,0,6.00049,-2492.44,-2698.96)">
                <g id="g794">
                    <g id="g800">
                        <g id="g802">
                            <path id="path810" d="M424.382,520.113C422.67,518.833 421.872,516.784 422.106,514.806C423.94,514.024 426.128,514.213 427.837,515.489C429.546,516.767 430.346,518.811 430.115,520.792C429.392,521.102 428.613,521.261 427.83,521.261C426.629,521.261 425.418,520.887 424.382,520.113" style="fill:white;fill-rule:nonzero;"/>
                        </g>
                    </g>
                </g>
            </g>
            <g id="g812" transform="matrix(6.00049,0,0,6.00049,-2492.44,-2698.96)">
                <g id="g814">
                    <g id="g820">
                        <g id="g822">
                            <path id="path830" d="M423.967,538.359C424.948,536.623 426.801,535.444 428.934,535.421C431.067,535.397 432.945,536.535 433.965,538.249C432.986,539.985 431.135,541.168 428.998,541.192L428.933,541.192C426.822,541.192 424.972,540.056 423.967,538.359" style="fill:white;fill-rule:nonzero;"/>
                        </g>
                    </g>
                </g>
            </g>
            <g id="g832" transform="matrix(6.00049,0,0,6.00049,-2492.44,-2698.96)">
                <g id="g834">
                    <g id="g840">
                        <g id="g842">
                            <path id="path850" d="M460.261,546.999C459.486,545.161 459.684,542.974 460.967,541.272C462.252,539.568 464.3,538.776 466.279,539.015C467.057,540.85 466.862,543.039 465.576,544.746C464.441,546.251 462.713,547.042 460.964,547.042C460.73,547.042 460.495,547.028 460.261,546.999" style="fill:white;fill-rule:nonzero;"/>
                        </g>
                    </g>
                </g>
            </g>
            <g id="g852" transform="matrix(6.00049,0,0,6.00049,-2492.44,-2698.96)">
                <g id="g854">
                    <g id="g860">
                        <g id="g862">
                            <path id="path870" d="M473.168,537.29C473.919,535.295 475.661,533.956 477.627,533.627C478.891,535.168 479.322,537.323 478.57,539.323C477.816,541.324 476.071,542.659 474.106,542.985C472.844,541.441 472.416,539.287 473.168,537.29" style="fill:white;fill-rule:nonzero;"/>
                        </g>
                    </g>
                </g>
            </g>
            <g id="g872" transform="matrix(6.00049,0,0,6.00049,-2492.44,-2698.96)">
                <g id="g874">
                    <g id="g880">
                        <g id="g882">
                            <path id="path890" d="M461.865,517.43C462.529,515.295 464.279,513.564 466.611,513.033C468.943,512.501 471.271,513.303 472.795,514.94C472.135,517.074 470.386,518.81 468.049,519.342C467.565,519.453 467.082,519.505 466.606,519.505C464.783,519.505 463.069,518.729 461.865,517.43" style="fill:white;fill-rule:nonzero;"/>
                        </g>
                    </g>
                </g>
            </g>
            <g id="g892" transform="matrix(6.00049,0,0,6.00049,-2492.44,-2698.96)">
                <g id="g894">
                    <g id="g900">
                        <g id="g902">
                            <path id="path910" d="M462.775,559.761C463.556,557.777 465.316,556.465 467.287,556.165C468.528,557.723 468.928,559.885 468.146,561.874C467.364,563.863 465.599,565.173 463.629,565.469C462.389,563.906 461.994,561.747 462.775,559.761" style="fill:white;fill-rule:nonzero;"/>
                        </g>
                    </g>
                </g>
            </g>
            <g id="g912" transform="matrix(6.00049,0,0,6.00049,-2492.44,-2698.96)">
                <g id="g914">
                    <g id="g920">
                        <g id="g922">
                            <path id="path930" d="M467.388,582.154C468.65,578.947 471.495,576.826 474.681,576.341C476.686,578.86 477.331,582.353 476.068,585.567C474.803,588.782 471.951,590.899 468.768,591.376C466.765,588.852 466.126,585.362 467.388,582.154" style="fill:white;fill-rule:nonzero;"/>
                        </g>
                    </g>
                </g>
            </g>
            <g id="g932" transform="matrix(6.00049,0,0,6.00049,-2492.44,-2698.96)">
                <g id="g934">
                    <g id="g940">
                        <g id="g942">
                            <path id="path950" d="M444.041,586.075C442.824,585.454 442.327,583.951 442.948,582.735C443.246,582.151 450.474,568.365 468.432,569.968C473.014,570.39 476.641,569.496 479.211,567.347C482.601,564.503 483.197,560.219 483.272,559.635L483.272,496.498C483.781,496.524 484.315,496.535 484.874,496.535C486.116,496.535 487.233,496.473 488.239,496.35L488.239,559.759C488.239,559.822 488.239,559.884 488.227,559.946C488.214,560.219 487.669,566.689 482.465,571.098C478.85,574.165 473.983,575.456 467.985,574.923C453.454,573.606 447.618,584.522 447.382,584.982C446.944,585.849 446.075,586.345 445.169,586.345C444.79,586.345 444.404,586.258 444.041,586.075" style="fill:white;fill-rule:nonzero;"/>
                        </g>
                    </g>
                </g>
            </g>
            <g id="g952" transform="matrix(6.00049,0,0,6.00049,-2492.44,-2698.96)">
                <g id="g954">
                    <g id="g960">
                        <g id="g962">
                            <path id="path970" d="M433.565,570.457C432.211,570.236 431.292,568.96 431.513,567.607C433.207,557.187 449.463,548.534 465.602,549.461C478.328,550.177 483.192,536.523 483.404,535.914C483.758,534.884 484.721,534.236 485.753,534.236C486.02,534.236 486.29,534.28 486.556,534.37C487.855,534.815 488.547,536.226 488.103,537.525C485.99,543.698 478.536,555.169 465.319,554.42C450.719,553.588 437.557,561.388 436.415,568.404C436.217,569.624 435.159,570.489 433.963,570.489C433.832,570.489 433.699,570.478 433.565,570.457" style="fill:white;fill-rule:nonzero;"/>
                        </g>
                    </g>
                </g>
            </g>
            <g id="g972" transform="matrix(6.00049,0,0,6.00049,-2492.44,-2698.96)">
                <g id="g974">
                    <g id="g980">
                        <g id="g982">
                            <path id="path990" d="M438.625,544.045C437.614,543.118 437.548,541.546 438.476,540.536C438.909,540.065 442.995,535.902 452.948,534.884C453.031,534.875 453.115,534.872 453.199,534.872C474.03,534.872 482.562,514.293 482.915,513.417C483.305,512.447 484.235,511.857 485.221,511.857C485.527,511.857 485.839,511.914 486.142,512.034C487.416,512.544 488.035,513.989 487.526,515.263C487.127,516.264 477.467,539.753 453.331,539.839C445.344,540.685 442.143,543.89 442.134,543.897C441.644,544.43 440.976,544.701 440.305,544.701C439.705,544.701 439.103,544.484 438.625,544.045" style="fill:white;fill-rule:nonzero;"/>
                        </g>
                    </g>
                </g>
            </g>
            <g id="g992" transform="matrix(6.00049,0,0,6.00049,-2492.44,-2698.96)">
                <g id="g994">
                    <g id="g1000">
                        <g id="g1002">
                            <path id="path1010" d="M454.149,537.123C453.726,536.543 443.569,523.039 424.607,531.385C423.357,531.935 421.888,531.368 421.333,530.112C420.781,528.856 421.351,527.39 422.606,526.837C427.717,524.589 432.319,523.717 436.389,523.717C450.409,523.717 458.078,534.077 458.176,534.213C458.975,535.324 458.724,536.867 457.617,537.671C457.177,537.989 456.667,538.143 456.162,538.142C455.394,538.142 454.637,537.788 454.149,537.123" style="fill:white;fill-rule:nonzero;"/>
                        </g>
                    </g>
                </g>
            </g>
            <g id="g1012" transform="matrix(6.00049,0,0,6.00049,-2492.44,-2698.96)">
                <g id="g1014">
                    <g id="g1020">
                        <g id="g1022">
                            <path id="path1030" d="M496.274,555.772L496.212,555.5L490.027,528.837C489.854,528.104 490.027,527.322 490.5,526.738C490.972,526.142 491.692,525.793 492.449,525.793L501.651,525.793L501.179,523.174L496.287,495.952L496.25,495.728C496.013,494.375 496.908,493.083 498.262,492.846C498.41,492.822 498.56,492.809 498.695,492.809C499.876,492.809 500.931,493.655 501.142,494.847L507.054,527.843C507.19,528.564 506.992,529.309 506.519,529.868C506.047,530.439 505.353,530.761 504.62,530.761L495.579,530.761L496.212,533.494L501.118,554.656C501.168,554.842 501.179,555.041 501.179,555.226C501.179,556.357 500.41,557.375 499.255,557.635C499.067,557.679 498.879,557.701 498.693,557.701C497.567,557.7 496.541,556.925 496.274,555.772" style="fill:white;fill-rule:nonzero;"/>
                        </g>
                    </g>
                </g>
            </g>
        </g>
    </g>
</svg>
