<?xml version="1.0" encoding="UTF-8" standalone="no"?>
<!DOCTYPE svg PUBLIC "-//W3C//DTD SVG 1.1//EN" "http://www.w3.org/Graphics/SVG/1.1/DTD/svg11.dtd">
<svg width="100%" height="100%" viewBox="0 0 1245 857" version="1.1" xmlns="http://www.w3.org/2000/svg" xmlns:xlink="http://www.w3.org/1999/xlink" xml:space="preserve" xmlns:serif="http://www.serif.com/" style="fill-rule:evenodd;clip-rule:evenodd;stroke-linejoin:round;stroke-miterlimit:10;">
    <g transform="matrix(1,0,0,1,-7074,-1619)">
        <g transform="matrix(2.66667,0,0,2.66667,5760,1620)">
            <rect id="Page-7" serif:id="Page 7" x="0" y="0" width="960" height="540" style="fill:none;"/>
            <clipPath id="_clip1">
                <rect id="Page-71" serif:id="Page 7" x="0" y="0" width="960" height="540"/>
            </clipPath>
            <g clip-path="url(#_clip1)">
                <g transform="matrix(1,0,0,1,66.12,-115.32)">
                    <g transform="matrix(1,0,0,1,0,-198.84)">
                        <path d="M587.23,376.14L587.23,376.88L591.48,376.88L590.79,378.38L591.48,377.63L592.86,378.38L594.93,378.38L595.62,376.88L596.31,376.14L595.62,374.64L595.62,375.39L596.31,374.64L601.13,374.64L601.13,373.9L600.44,372.41L599.75,371.66L599.75,370.91L601.13,370.91L601.13,372.41L602.51,372.41L602.51,371.66L605.27,371.66L605.27,368.67L604.58,364.2L603.89,362.7L604.58,361.96L605.27,362.7L608.02,364.2L608.02,363.45L609.4,363.45L608.71,363.45L608.71,362.7L609.4,362.7L608.71,362.7L608.02,361.96L610.09,361.96L610.09,362.7L610.78,364.2L613.53,364.2L613.53,364.94L614.22,365.69L614.22,367.18L612.16,369.42L611.47,370.17L611.47,370.91L612.16,372.41L611.47,372.41L611.47,374.64L610.78,373.9L610.09,373.9L608.71,374.64L608.02,375.39L606.64,376.14L606.64,380.62L607.33,380.62L607.33,382.86L609.4,382.86L611.47,382.11L615.6,382.11L615.6,383.6L617.67,385.84L620.43,387.33L621.8,388.08L622.49,388.08L622.49,384.35L623.18,383.6L624.56,382.11L626.63,382.11L628.69,381.36L629.38,380.62L630.76,380.62L630.76,379.87L630.07,379.12L630.76,376.88L631.45,376.14L632.14,376.88L632.83,378.38L632.83,377.63L633.52,377.63L634.9,378.38L635.59,378.38L636.96,376.14L639.03,376.14L639.03,374.64L639.72,374.64L639.03,374.64L639.03,373.9L638.34,373.9L637.65,372.41L638.34,370.91L639.03,369.42L639.03,368.67L637.65,367.93L637.65,368.67L637.65,367.18L638.34,366.43L638.34,364.94L635.59,364.2L634.21,363.45L632.83,361.96L632.14,360.46L630.07,357.48L628.69,356.73L627.32,356.73L626.63,357.48L626.63,358.22L625.25,360.46L624.56,361.21L624.56,362.7L623.18,361.96L623.18,362.7L622.49,362.7L622.49,361.96L623.18,361.96L623.18,360.46L621.8,358.97L620.43,358.22L619.74,357.48L618.36,357.48L618.36,358.22L617.67,357.48L616.98,357.48L616.29,355.98L616.29,355.24L611.47,355.24L610.09,354.49L608.02,351.51L607.33,350.76L606.64,350.76L605.95,351.51L605.95,353L606.64,353L605.95,353.75L605.95,355.24L604.58,355.24L603.2,357.48L603.2,358.22L602.51,357.48L602.51,355.98L601.82,354.49L601.13,353.75L599.06,353.75L599.75,353L599.75,351.51L598.37,351.51L597,352.25L594.24,353.75L593.55,354.49L594.24,355.98L595.62,355.98L595.62,355.24L596.31,355.24L597,355.98L597,356.73L596.31,358.22L594.24,358.22L594.24,359.72L595.62,360.46L597,361.21L596.31,364.2L596.31,367.18L593.55,367.18L590.79,367.93L587.92,367.93L587.92,367.18L586.55,367.18L585.86,367.93L585.86,368.67L585.17,369.42L587.23,369.42L587.92,370.17L587.92,373.9L585.17,373.9L584.48,374.64L583.1,374.64L580.34,371.66L577.59,370.17L576.21,369.42L575.52,369.42L576.21,370.17L577.59,371.66L577.59,372.41L578.97,373.9L581.03,373.9L581.72,374.64L581.72,375.39L582.41,376.14L584.48,377.63L584.48,378.38L583.79,379.12L583.79,379.87L585.17,379.12L586.55,379.12L586.55,377.63L587.23,376.14Z" style="fill:rgb(169,209,142);stroke:white;stroke-width:0.25px;"/>
                    </g>
                    <g transform="matrix(1,0,0,1,0,26.52)">
                        <path d="M681.78,273.88L683.16,273.88L682.47,276.12L682.47,279.1L681.78,281.33L681.78,285.8L682.47,288.78L683.16,288.78L683.16,291.02L684.54,291.76L685.92,292.51L687.3,292.51L687.99,294L688.68,293.25L691.44,293.25L691.44,290.27L692.13,288.78L692.82,288.04L692.82,286.55L694.2,285.06L695.58,285.06L697.65,285.8L697.65,285.06L699.03,285.8L700.41,286.55L701.79,287.29L702.48,286.55L703.86,286.55L703.86,287.29L704.55,288.04L704.55,288.78L705.93,288.78L707.31,286.55L708.69,285.8L708.69,285.06L709.38,279.84L708,279.84L708,278.35L707.31,277.61L707.31,275.37L706.62,275.37L707.31,273.88L709.38,273.13L709.38,271.64L708.69,270.15L708.69,267.92L710.76,267.92L710.76,266.43L712.14,266.43L712.14,267.17L714.21,265.68L714.9,264.94L715.59,264.19L716.28,263.45L716.97,261.96L716.97,260.47L718.35,259.72L719.73,262.7L720.42,261.96L721.11,261.96L721.8,261.21L723.18,261.21L723.18,257.49L723.87,256.74L725.94,256.74L724.56,254.5L725.25,254.5L724.56,253.01L724.56,252.27L727.32,252.27L727.32,250.78L728.01,250.03L729.39,250.03L729.39,249.29L730.77,246.31L729.39,245.56L729.39,244.82L731.58,243.33L732.27,243.33L732.96,242.58L735.03,241.84L735.03,241.09L736.41,240.35L737.1,239.6L738.48,239.6L738.48,236.62L737.79,235.87L737.79,235.13L737.1,235.13L736.41,233.64L736.41,232.15L733.65,233.64L732.27,235.13L730.77,235.13L730.77,235.87L729.39,235.87L728.01,236.62L727.32,237.36L727.32,232.89L726.63,232.89L725.94,233.64L725.25,231.4L725.25,229.91L723.87,229.17L723.18,228.42L721.8,229.17L721.11,229.91L720.42,229.91L719.73,229.17L719.73,228.42L718.35,228.42L717.66,229.17L715.59,229.17L714.9,230.66L714.21,231.4L714.21,232.15L712.83,232.15L712.14,229.91L711.45,227.68L710.07,226.93L709.38,226.19L707.31,226.19L705.24,226.93L704.55,226.19L702.48,226.19L702.48,220.23L701.1,220.23L700.41,219.48L699.03,220.23L699.03,221.72L697.65,223.95L697.65,225.44L696.96,226.19L697.65,227.68L698.34,228.42L696.96,228.42L696.27,229.17L696.96,229.91L695.58,230.66L694.2,231.4L692.13,232.15L691.44,230.66L690.75,230.66L690.75,231.4L690.06,233.64L687.99,233.64L687.99,235.13L690.06,237.36L689.37,238.86L688.68,239.6L689.37,241.84L690.75,242.58L692.13,244.07L690.75,244.82L690.75,246.31L690.06,247.8L688.68,250.03L687.99,250.78L688.68,251.52L690.06,250.78L689.37,251.52L689.37,252.27L690.06,253.01L690.75,253.76L690.75,255.25L689.37,255.25L685.92,255.13L685.92,258.23L685.23,258.23L684.54,259.6L685.23,260.47L685.92,261.21L686.61,261.96L685.92,261.96L685.92,264.94L686.61,267.17L686.61,268.66L685.23,268.66L683.85,267.92L681.09,267.92L680.4,268.66L680.4,270.15L681.09,270.9L681.09,271.64L681.78,271.64L681.78,273.88Z" style="fill:rgb(169,209,142);stroke:white;stroke-width:0.25px;"/>
                    </g>
                    <g transform="matrix(1,0,0,1,0,-187.68)">
                        <path d="M706,404.44L705.31,403.7L705.31,404.44L706.69,405.93L708.75,405.93L708.75,405.19L708.75,406.68L712.2,406.68L712.2,405.93L711.51,405.19L710.82,404.44L710.82,402.21L712.2,401.46L712.89,400.72L714.27,399.97L717.03,398.48L721.16,397.74L723.92,397.74L722.54,394.76L723.23,394.01L723.92,393.27L724.61,392.52L725.3,392.52L726.68,393.27L726.68,394.01L727.37,393.27L728.06,393.27L729.44,394.01L729.44,394.76L730.13,394.01L730.13,393.27L730.81,393.27L730.81,392.52L730.81,393.27L731.62,392.52L734.38,391.78L737.13,391.78L737.82,389.54L737.82,388.8L737.13,388.05L737.13,386.56L738.51,386.56L738.51,385.07L739.2,384.33L741.27,384.33L741.96,382.09L741.27,381.35L741.27,378.37L740.58,376.88L739.89,376.13L739.2,376.13L739.2,374.64L738.51,373.9L738.74,372.28L736.44,371.66L735.07,370.17L734.38,369.43L734.38,366.45L735.07,365.7L735.07,364.96L734.38,364.21L736.44,363.47L737.13,363.47L734.38,363.47L734.38,361.23L733.69,360.49L733.69,359L733,359L733,358.25L732.31,357.51L732.31,358.25L732.31,353.78L733.69,353.04L733,350.06L733,348.57L732.31,348.57L731.62,347.82L730.13,348.57L728.75,348.57L728.06,347.82L727.37,345.59L726.68,344.1L727.37,344.1L728.06,343.35L729.44,343.35L728.75,343.35L726.68,341.86L725.3,340.37L724.61,339.63L723.23,339.63L722.54,338.88L720.47,338.14L719.1,337.39L718.41,336.65L717.72,335.9L717.72,335.16L718.41,334.41L719.1,334.41L723.23,335.9L722.54,336.65L724.61,336.65L725.3,334.41L725.99,332.92L726.68,332.18L726.68,329.94L725.3,329.2L724.61,329.2L723.92,327.71L723.92,326.96L723.23,326.96L721.85,327.71L719.78,329.2L719.1,329.94L717.72,330.69L714.96,329.94L713.58,329.94L712.89,329.2L712.89,327.71L712.2,327.71L711.51,324.73L710.82,323.24L710.13,323.24L709.44,321.75L708.06,321L707.38,321.75L706.69,321.75L706.69,323.24L707.38,323.98L707.38,324.73L706,324.73L705.31,325.47L704.62,325.47L705.31,326.22L706,327.71L706.69,328.45L706.69,330.69L705.31,330.69L704.62,329.94L705.31,329.2L706,329.2L705.31,328.45L704.62,328.45L703.93,329.2L703.93,331.43L704.62,333.67L704.62,335.16L703.24,336.65L702.55,337.39L701.86,338.14L701.86,340.37L701.17,339.63L701.17,340.37L699.79,343.35L699.79,344.84L699.79,344.1L699.1,343.35L699.1,341.86L697.72,340.37L697.72,338.88L699.79,336.65L701.17,335.16L701.17,334.41L700.48,333.67L697.03,331.43L695.66,331.43L694.97,333.67L690.14,335.9L690.14,338.14L690.83,338.88L692.9,338.88L693.59,339.63L692.21,340.37L689.45,341.12L686,341.86L685.32,342.61L685.32,344.1L686,344.84L686,345.59L685.32,344.84L684.63,346.33L683.94,345.59L683.94,346.33L684.63,346.33L684.63,347.08L683.25,347.08L683.25,348.57L682.56,347.82L681.87,347.82L681.18,348.57L680.49,350.06L679.8,350.8L679.8,352.29L680.49,352.29L679.8,352.29L679.8,354.53L680.49,355.27L681.18,356.02L680.49,356.02L680.49,356.76L679.8,357.51L680.49,358.25L681.87,359.74L681.87,362.72L681.18,362.72L681.18,363.47L681.87,364.21L682.56,364.21L682.56,365.7L681.87,366.45L681.18,367.94L679.8,367.94L679.8,368.68L682.56,368.68L683.25,369.43L682.56,370.92L683.25,370.17L683.94,371.66L684.63,373.9L685.32,379.86L687.38,379.11L688.76,379.11L688.07,379.86L687.38,380.6L687.38,382.09L686.69,382.09L686,383.58L685.32,384.33L684.63,385.82L681.87,385.82L681.87,385.07L681.87,388.05L683.25,390.29L683.25,392.4L684.63,393.27L684.63,396.25L686.69,397.74L689.45,398.48L692.21,398.48L694.28,397.74L699.79,397.74L702.55,399.97L703.93,402.21L706,404.44Z" style="fill:rgb(84,130,53);stroke:white;stroke-width:0.25px;"/>
                    </g>
                    <g transform="matrix(1,0,0,1,0,30.36)">
                        <path d="M516,252.89L516,251.4L516.69,250.66L516.69,249.16L516,248.42L515.31,247.67L515.31,248.42L513.24,250.66L513.24,251.4L514.62,252.15L516,252.89ZM525.09,251.4L527.16,249.16L526.47,249.16L526.47,248.42L525.78,247.67L525.09,246.93L524.4,246.93L525.09,246.93L525.09,246.18L524.4,246.18L524.4,245.44L523.71,244.69L523.71,245.44L523.02,246.93L522.33,246.93L520.95,247.67L520.26,249.91L518.76,249.91L518.07,250.66L516.69,250.66L516.69,252.15L519.57,252.15L520.95,250.66L523.02,252.15L523.71,252.89L524.4,252.89L524.4,252.15L525.09,251.4ZM515.31,239.47L516.69,239.47L517.38,240.22L517.38,240.96L516,241.71L517.38,241.71L519.57,243.2L521.64,244.69L523.02,244.69L523.71,243.2L524.4,243.2L525.09,243.94L525.78,244.69L526.47,243.94L526.47,244.69L529.23,244.69L529.23,243.94L529.92,243.94L529.92,244.69L530.61,243.94L530.61,242.45L531.3,241.71L531.3,239.47L530.61,240.22L529.92,240.96L529.92,235.74L531.3,234.25L531.99,233.5L532.68,232.76L531.99,232.76L531.99,232.01L530.61,231.27L530.61,230.52L529.23,231.27L528.54,230.52L529.92,230.52L531.3,229.78L531.3,229.03L530.61,228.28L528.54,228.28L527.16,229.03L523.02,232.01L518.76,235.74L515.31,239.47ZM560.97,281.98L563.04,281.98L564.42,278.99L565.8,278.25L569.25,278.25L569.94,276.01L569.94,275.27L570.63,272.28L569.94,272.28L569.94,269.3L571.32,269.3L570.63,268.55L570.63,266.32L571.32,266.32L572.01,265.57L572.7,266.32L573.39,267.06L574.08,267.81L574.08,268.55L574.77,268.55L574.77,267.81L575.46,267.06L576.15,266.32L576.84,266.32L576.15,266.32L576.15,261.84L575.46,259.61L573.39,259.61L574.08,258.86L574.08,258.11L573.39,257.37L572.7,256.62L570.63,255.88L569.94,255.88L569.94,256.62L569.25,255.13L569.25,252.15L569.94,249.91L569.94,249.16L568.56,248.42L568.56,246.93L569.94,246.18L569.94,243.94L570.63,241.71L572.7,237.98L572.7,237.23L572.01,236.49L571.32,235.74L569.94,235L569.94,234.25L571.32,234.25L571.32,232.76L572.7,232.76L572.7,234.25L572.01,234.25L575.46,234.25L576.15,233.5L576.15,232.01L575.46,230.52L575.46,229.03L574.77,229.03L574.77,228.28L572.01,228.28L570.63,227.54L567.18,227.54L566.49,226.79L565.8,226.79L563.04,226.05L561.66,226.05L560.97,225.3L559.59,226.05L558.9,226.79L558.9,226.05L559.59,225.3L560.97,225.3L561.66,223.81L561.66,217.84L560.97,217.1L559.59,217.1L561.66,215.61L564.42,213.37L564.42,212.62L563.73,212.62L563.04,211.88L563.04,210.39L563.04,211.13L563.04,210.39L562.35,209.64L560.97,209.64L560.97,210.39L559.59,210.39L559.59,211.13L557.52,211.13L556.14,211.88L554.07,212.62L549.93,214.11L548.55,214.11L547.86,213.37L544.41,213.37L544.41,212.62L544.41,213.37L545.79,213.37L546.48,214.86L546.48,216.35L545.79,219.33L545.79,220.08L546.48,221.57L547.17,222.32L547.86,223.81L548.55,223.81L549.24,225.3L549.93,226.05L550.62,226.05L549.93,226.05L549.24,226.79L547.17,226.79L547.17,226.05L547.86,226.79L547.17,226.79L546.48,227.54L546.48,228.28L545.79,228.28L545.79,229.03L546.48,229.78L547.17,229.78L546.48,230.52L545.1,231.27L544.41,232.76L544.41,233.5L543.03,235L543.03,231.27L541.65,229.78L541.65,229.03L540.27,229.03L539.58,229.78L538.89,229.03L540.27,228.28L540.27,227.54L540.96,227.54L538.89,225.3L537.51,222.32L536.82,221.57L536.13,220.83L534.75,220.83L534.06,222.32L532.68,223.81L531.99,226.05L531.99,226.79L532.68,227.54L534.06,228.28L534.75,228.28L534.75,229.78L535.44,230.52L536.13,230.52L536.13,229.78L535.44,229.03L535.44,228.28L536.13,228.28L536.82,227.54L537.51,229.03L537.51,231.27L538.2,233.5L538.89,236.49L538.2,237.98L536.13,237.23L535.44,237.98L534.75,238.72L534.75,240.22L535.44,240.96L536.13,240.96L534.75,242.45L534.75,243.2L533.37,243.94L532.68,245.44L532.68,244.69L531.99,245.44L531.99,246.18L531.3,247.67L529.92,247.67L529.92,248.42L530.61,249.16L532.68,249.16L532.68,250.66L531.99,252.15L530.61,253.64L529.92,254.38L529.23,254.38L528.54,255.13L527.16,257.37L526.47,259.61L525.78,260.35L525.09,259.61L524.4,259.61L525.09,260.35L525.09,261.1L524.4,261.84L524.4,262.59L525.09,263.33L525.09,264.08L520.95,263.33L518.76,264.83L518.07,265.57L518.07,273.03L517.38,273.03L516.69,274.52L516.69,276.76L518.07,276.76L518.76,275.27L519.57,275.27L520.26,276.76L520.95,276.01L523.02,276.01L524.4,276.76L524.4,277.5L525.09,278.25L525.78,278.99L526.47,278.25L527.85,278.25L527.16,278.99L526.47,279.74L525.09,281.98L524.4,281.23L524.4,281.98L523.71,282.72L523.02,283.47L523.02,284.21L522.33,283.47L523.71,283.47L523.02,283.47L523.02,282.72L519.57,282.72L519.57,281.98L518.76,281.98L518.07,284.96L519.57,285.71L520.26,287.2L520.26,287.94L521.64,289.44L521.64,290.18L523.71,290.18L523.71,287.94L525.09,287.2L526.47,286.45L527.16,286.45L528.54,287.2L529.92,287.94L531.99,289.44L534.75,291.67L534.75,293.29L535.44,294.78L534.75,294.78L534.75,296.27L535.44,296.27L535.44,297.02L536.13,297.76L535.44,298.51L535.44,300L536.82,299.25L538.89,298.51L539.58,297.02L538.89,296.27L538.89,295.53L539.58,294.78L540.27,294.78L540.27,294.03L541.65,294.03L542.34,293.29L543.72,292.42L543.72,291.67L545.1,292.42L547.17,292.42L548.55,291.67L549.93,290.93L551.31,287.94L552.69,285.71L554.07,286.45L554.76,284.96L556.14,284.96L556.14,283.47L557.52,283.47L558.21,284.21L558.21,284.96L558.9,285.71L559.59,283.47L560.28,282.72L560.97,281.98ZM553.38,225.3L554.07,224.55L553.38,223.81L553.38,223.06L552,223.06L551.31,223.81L551.31,224.55L552,226.05L552.69,225.3L552.69,224.55L553.38,225.3ZM562.35,223.06L562.35,222.32L563.04,222.32L563.73,221.57L563.04,220.83L564.42,220.83L563.73,220.08L563.73,220.83L562.35,220.83L562.35,221.57L561.66,221.57L561.66,222.32L562.35,223.06Z" style="fill:rgb(84,130,53);stroke:white;stroke-width:0.25px;"/>
                    </g>
                    <g transform="matrix(1,0,0,1,0,-147.96)">
                        <path d="M583.01,323.77L584.39,323.77L585.08,323.03L587.84,323.03L587.84,320.04L587.15,318.55L585.08,318.55L583.01,319.3L580.95,320.79L580.95,323.03L581.64,323.03L582.33,322.28L583.01,323.77ZM596.23,316.31L596.23,313.33L596.92,310.35L594.85,309.6L594.16,310.35L591.4,313.33L590.71,313.33L590.71,312.58L589.91,312.58L587.84,310.35L587.15,309.6L586.46,310.35L585.77,311.09L585.77,311.84L586.46,312.58L587.15,312.58L588.53,313.33L589.22,314.08L587.84,315.57L587.15,316.31L587.84,317.06L589.91,317.06L592.78,316.31L596.23,316.31ZM637.6,337.95L637.6,340.93L641.73,338.7L643.11,337.2L643.11,336.46L644.49,335.71L645.18,332.73L646.56,330.49L642.42,326.01L639.67,323.77L641.73,323.03L641.73,320.04L641.04,320.04L641.04,319.3L640.35,317.81L639.67,318.55L638.98,318.55L638.29,320.04L637.6,320.79L637.6,321.54L638.29,322.28L638.98,323.03L638.98,325.27L636.91,325.27L635.53,327.5L634.84,327.5L633.46,326.76L632.77,326.76L632.77,327.5L632.08,326.01L631.39,325.27L630.7,326.01L630.01,326.76L630.01,328.25L630.7,329L630.7,329.74L628.63,330.49L626.57,331.24L624.5,331.24L623.81,331.98L623.12,332.73L622.43,333.47L622.43,337.2L621.74,337.2L620.36,336.46L617.6,334.97L615.53,332.73L615.53,331.24L611.4,331.24L609.33,331.98L607.26,331.98L607.26,329.74L606.57,329.74L606.57,325.27L607.95,324.52L608.64,323.77L610.02,323.03L610.71,323.03L611.4,323.77L611.4,322.28L612.09,321.54L611.4,320.04L611.4,319.3L612.09,318.55L614.16,316.31L614.16,314.82L613.47,314.08L613.47,313.33L610.71,313.33L610.02,311.84L610.02,311.09L607.95,311.09L608.64,311.84L608.64,312.58L609.33,312.58L607.95,312.58L607.95,313.33L605.19,311.84L604.5,311.09L603.81,311.84L604.5,313.33L605.19,317.81L605.19,320.79L602.43,320.79L602.43,321.54L601.06,321.54L601.06,320.04L600.37,320.04L599.68,320.79L600.37,321.54L601.06,323.03L601.06,323.77L596.92,323.77L595.54,324.52L595.54,323.77L596.23,325.27L595.54,326.01L594.85,327.5L592.78,327.5L591.4,326.76L590.71,327.5L591.4,326.01L587.15,326.01L587.15,325.27L585.77,328.25L586.46,329L587.15,329.74L588.53,329.74L591.4,330.49L595.54,330.49L596.92,333.47L599.68,337.95L597.61,340.19L595.54,343.17L592.78,343.17L591.4,343.92L588.53,347.65L585.77,347.65L585.08,348.39L584.39,349.14L583.01,350.63L582.33,352.12L580.95,352.12L579.57,352.87L579.57,353.62L578.19,353.62L576.12,354.36L576.12,356.6L577.5,358.84L577.5,357.35L578.88,358.09L580.26,361.08L580.26,361.82L579.57,362.57L579.57,363.31L580.26,364.06L580.95,364.06L582.33,362.57L585.08,360.33L585.08,359.58L585.77,360.33L585.77,361.08L586.46,361.08L587.15,359.58L589.91,359.58L589.22,360.33L589.91,362.57L589.91,361.82L590.71,362.57L591.4,364.06L590.71,364.06L588.53,365.55L587.15,364.81L586.46,364.06L586.46,364.81L585.77,366.3L584.39,367.05L583.7,367.79L584.39,368.54L585.08,368.54L585.08,370.03L585.77,370.03L585.08,370.03L584.39,369.28L583.7,369.28L583.7,370.03L580.26,370.03L579.57,369.28L578.88,370.78L578.19,370.78L578.19,372.27L578.88,373.01L579.57,373.76L584.39,373.76L584.39,376.12L585.08,377.61L585.08,378.36L585.77,378.36L586.46,377.61L587.15,377.61L587.84,376.87L588.53,376.87L588.53,374.63L587.84,373.76L587.84,372.27L589.22,372.27L590.71,370.78L592.78,370.03L592.78,367.79L593.47,366.3L594.16,366.3L594.85,365.55L594.16,364.81L594.16,364.06L596.23,363.31L597.61,363.31L598.99,364.81L600.37,364.81L600.37,366.3L601.06,365.55L604.5,365.55L605.19,366.3L607.26,366.3L610.02,362.57L610.02,361.82L609.33,361.08L609.33,359.58L608.64,359.58L608.64,358.09L607.26,358.09L606.57,356.6L606.57,355.11L605.19,352.87L603.12,351.38L601.74,351.38L601.74,349.14L602.43,349.14L601.74,347.65L601.06,347.65L600.37,346.9L600.37,346.16L601.06,345.41L607.95,345.41L609.33,343.92L611.4,343.92L613.47,345.41L616.22,348.39L618.98,349.89L620.36,349.14L622.43,348.39L623.12,348.39L623.12,349.14L624.5,349.14L626.57,346.9L628.63,343.92L631.39,340.19L632.77,337.95L633.46,337.2L634.15,336.46L634.15,337.2L634.84,337.95L637.6,337.95ZM609.33,366.3L610.02,365.55L610.71,366.3L611.4,365.55L611.4,364.06L610.71,363.31L610.71,364.06L609.33,365.55L609.33,366.3Z" style="fill:rgb(255,0,0);stroke:white;stroke-width:0.25px;"/>
                    </g>
                    <g transform="matrix(1,0,0,1,0,-233.88)">
                        <path d="M599.04,388.79L601.1,388.79L601.78,389.53L602.47,391.02L602.47,392.5L603.15,393.24L603.15,392.5L604.53,390.28L605.9,390.28L605.9,388.79L606.58,388.05L605.9,388.05L605.9,385.83L607.27,385.83L609.33,386.57L610.01,385.83L610.7,385.09L611.38,385.83L612.07,385.83L612.07,385.09L612.07,385.83L612.75,385.09L612.07,384.35L612.07,383.6L612.75,384.35L612.07,384.35L612.07,383.6L611.38,382.86L612.07,381.38L613.44,380.64L612.75,380.64L611.38,381.38L611.38,382.12L610.7,381.38L610.01,381.38L609.33,380.64L608.64,380.64L608.64,382.12L606.58,382.86L605.21,383.6L604.53,383.6L604.53,382.86L603.15,381.38L603.15,382.86L602.47,382.86L602.47,384.35L602.47,383.6L600.41,383.6L600.41,384.35L599.73,384.35L599.73,388.05L599.04,388.79Z" style="fill:rgb(84,130,53);stroke:white;stroke-width:0.25px;"/>
                    </g>
                    <g transform="matrix(1,0,0,1,0,-267.48)">
                        <path d="M701.88,420.21L701.88,417.22L703.95,417.22L703.95,416.48L699.81,416.48L698.43,417.22L697.74,417.97L697.74,419.46L698.43,420.21L699.12,421.7L699.12,423.19L699.81,423.93L699.81,424.68L699.81,423.19L701.19,420.21L701.19,419.46L701.88,420.21ZM712.23,401.57L711.54,399.33L711.54,398.58L712.23,397.84L712.92,398.58L714.99,400.07L717.06,401.57L717.75,398.58L717.75,397.84L717.06,397.84L716.37,397.09L715.68,396.35L715.68,393.98L716.37,393.24L718.44,393.24L718.44,392.49L717.75,391.75L717.06,391L717.06,390.26L716.37,389.51L715.68,390.26L715.68,391L714.99,390.26L714.99,391L714.3,391.75L713.61,391.75L712.92,391L712.92,390.26L713.61,389.51L713.61,388.77L712.92,388.77L712.92,386.53L712.23,385.78L712.23,387.27L711.54,386.53L710.85,385.78L710.16,385.78L710.85,385.78L710.16,384.29L709.47,384.29L708.78,385.04L709.47,387.27L709.47,388.77L708.78,390.26L708.09,391L707.4,391L707.4,390.26L706.71,389.51L706.02,387.27L706.02,385.78L706.71,385.78L706.71,385.04L706.02,384.29L704.64,384.29L703.95,385.04L703.95,384.29L702.57,382.8L701.19,382.8L701.19,385.78L701.88,385.78L702.57,386.53L702.57,387.27L701.19,388.02L701.19,387.27L698.43,387.27L697.05,388.02L694.29,388.02L692.22,389.51L692.22,390.26L691.53,391L690.15,392.49L689.46,394.73L690.15,396.35L690.15,397.09L688.08,397.09L687.39,398.58L686.01,398.58L686.01,399.33L685.32,399.33L685.32,400.82L686.01,400.82L686.7,402.31L686.01,403.06L685.32,403.8L685.32,404.55L686.01,406.04L686.7,405.29L688.08,406.78L687.39,406.78L688.77,407.53L690.15,407.53L690.15,408.28L690.84,407.53L690.84,409.77L691.53,409.77L691.53,410.51L692.22,409.77L691.53,409.77L692.22,409.02L691.53,409.02L690.84,408.28L692.22,408.28L692.91,409.02L692.91,409.77L696.36,409.77L697.74,409.02L697.74,408.28L697.05,407.53L697.05,406.78L697.74,406.04L699.12,405.29L700.5,406.04L701.88,406.78L703.26,406.04L704.64,405.29L706.02,405.29L707.4,404.55L707.4,403.8L706.71,403.06L706.71,402.31L707.4,401.57L708.09,400.82L709.47,401.57L710.16,403.06L710.85,403.06L710.85,402.31L710.16,402.31L711.54,402.31L711.54,401.57L712.23,401.57ZM726.03,398.58L726.03,397.09L724.65,396.35L725.34,396.35L725.34,394.73L724.65,394.73L724.65,395.48L723.96,395.48L724.65,396.35L723.27,396.35L723.27,397.09L723.27,396.35L722.58,396.35L722.58,397.84L721.89,397.09L721.89,397.84L721.2,397.84L721.2,398.58L721.89,398.58L721.89,399.33L721.2,399.33L721.2,400.07L723.96,400.07L725.34,401.57L724.65,402.31L723.96,403.06L723.96,405.29L726.72,404.55L728.1,405.29L729.48,406.78L729.48,409.02L730.17,409.02L730.86,406.78L731.67,406.04L731.67,405.29L730.17,404.55L729.48,403.8L729.48,403.06L728.79,402.31L729.48,401.57L730.86,401.57L731.67,402.31L732.36,401.57L731.67,401.57L731.67,400.07L731.67,400.82L731.67,400.07L730.86,399.33L730.86,400.82L730.17,400.82L730.17,400.07L729.48,400.07L729.48,400.82L728.79,400.07L728.1,399.33L728.1,398.58L726.72,398.58L726.03,399.33L726.03,398.58L726.72,398.58L726.72,397.84L726.03,398.58Z" style="fill:rgb(84,130,53);stroke:white;stroke-width:0.25px;"/>
                    </g>
                    <g transform="matrix(1,0,0,1,0,-162.24)">
                        <path d="M775.06,356.71L776.44,355.97L776.44,354.47L777.13,353.73L777.82,353.73L777.82,352.98L778.51,351.49L780.59,351.49L779.9,350L779.21,349.26L779.9,347.77L779.21,347.02L778.51,347.02L781.97,347.02L783.36,347.77L784.74,348.51L786.13,348.51L786.82,349.26L786.82,350.75L788.2,351.49L790.28,352.98L794.43,352.98L793.74,352.24L793.74,349.26L794.43,348.51L794.43,345.53L795.12,345.53L797.08,342.42L796.51,341.06L796.51,340.31L797.89,339.56L797.89,338.82L798.58,338.82L799.97,340.31L801.35,341.8L801.35,343.29L798.58,343.29L798.58,344.04L799.27,344.04L800.66,344.78L801.35,344.04L802.04,344.04L802.04,343.29L802.85,342.55L802.04,342.55L802.04,341.06L800.66,341.06L801.35,341.06L800.66,339.56L799.97,339.56L799.97,338.82L800.66,338.07L801.35,339.56L802.04,338.82L807,338.82L807,337.33L806.31,337.33L805.62,336.58L802.85,335.09L799.97,333.6L797.89,333.6L797.2,334.35L797.2,335.84L795.12,335.84L794.43,336.58L791.66,338.07L790.97,338.82L790.28,339.56L786.82,339.56L787.51,339.56L787.51,341.8L786.82,341.8L786.82,343.29L786.13,344.04L784.05,344.04L782.67,343.29L781.97,343.29L781.28,342.55L780.59,343.29L779.9,344.04L778.51,344.78L776.44,344.78L776.44,344.04L776.44,344.78L774.36,344.78L773.67,345.53L772.98,345.53L772.29,344.78L772.98,344.78L767.44,344.78L766.75,346.27L765.37,346.27L765.37,347.02L766.06,347.77L766.06,348.51L764.68,349.26L762.6,350L762.6,351.49L763.98,351.49L763.98,354.47L764.68,353.73L766.06,353.73L766.75,355.22L766.06,355.97L765.37,355.97L764.68,356.71L764.68,357.46L765.37,359.69L766.06,361.93L764.68,363.42L763.98,363.42L763.98,364.17L766.06,365.66L766.75,365.66L768.14,366.4L768.83,366.4L770.9,365.66L771.6,365.66L772.29,366.4L774.36,367.15L775.75,368.64L777.13,368.64L777.13,367.15L776.67,364.91L775.06,359.69L775.06,356.71Z" style="fill:rgb(84,130,53);stroke:white;stroke-width:0.25px;"/>
                    </g>
                    <g transform="matrix(1,0,0,1,0,-156.36)">
                        <path d="M786.12,363.45L787.5,361.96L789.57,360.47L792.33,357.49L792.33,354.51L793.02,353.77L793.02,351.53L793.71,351.53L793.71,350.04L794.4,349.3L794.4,347.06L790.26,347.06L788.19,345.57L786.81,344.83L786.81,343.34L784.74,342.59L783.36,341.85L781.98,341.1L778.53,341.1L779.22,341.1L779.91,341.85L779.22,343.34L779.91,344.08L780.6,345.57L778.53,345.57L777.84,347.06L777.84,347.81L777.15,347.81L776.46,348.55L776.46,350.04L775.08,350.79L775.08,352.28L775.77,356.75L776.46,360.47L777.15,361.96L778.53,363.45L781.98,364.2L784.05,364.2L784.74,362.71L786.12,362.71L786.12,363.45ZM795.09,339.61L796.47,338.87L798.54,338.87L798.54,339.61L799.23,339.61L799.23,338.87L798.54,338.12L798.54,337.38L799.92,336.63L800.61,336.63L800.61,335.14L799.23,334.4L797.85,334.4L796.47,335.14L795.78,335.14L795.09,336.63L795.09,339.61ZM802.8,335.89L802.8,334.4L804.18,333.65L805.56,332.91L804.18,332.91L803.49,333.65L803.49,332.91L801.99,332.91L801.3,333.65L800.61,332.16L799.92,332.91L799.92,334.4L800.61,334.4L801.3,335.14L801.99,337.38L804.18,337.38L804.18,335.89L802.8,335.89Z" style="fill:rgb(84,130,53);stroke:white;stroke-width:0.25px;"/>
                    </g>
                    <g transform="matrix(1,0,0,1,0,-113.64)">
                        <path d="M727.35,326.76L730.8,325.27L735.75,324.52L739.89,324.52L739.89,325.27L740.58,325.27L739.89,327.5L739.2,327.5L739.2,329.74L739.89,330.49L741.96,330.49L742.65,331.23L743.34,331.98L744.03,331.98L746.1,334.96L749.55,338.69L754.38,338.69L754.38,337.94L758.52,337.94L760.59,338.69L762.66,339.43L761.97,340.3L761.97,344.03L762.66,345.52L761.97,346.27L761.97,350L760.59,350.74L757.83,352.24L757.14,352.98L757.14,353.73L758.52,354.47L758.52,355.22L759.9,355.22L759.9,355.96L760.59,355.22L761.28,355.22L761.28,355.96L761.28,355.22L762.66,354.47L764.04,353.73L766.11,355.96L766.8,356.71L766.8,357.46L767.49,358.95L768.18,359.69L768.18,360.44L767.49,361.93L767.49,362.67L766.8,362.67L767.49,362.67L768.18,363.42L767.49,364.17L767.49,366.4L768.18,366.4L767.49,366.4L767.49,367.15L766.8,367.15L766.8,369.39L767.49,370.13L767.49,371.62L768.18,373.86L768.87,373.86L770.94,374.61L775.77,375.35L779.91,376.1L782.67,376.84L784.05,377.59L786.12,379.08L788.19,379.08L788.88,378.33L790.26,378.33L790.26,374.61L791.64,372.37L793.02,369.39L795.09,367.15L795.09,364.17L797.85,364.17L795.09,360.44L795.09,359.69L794.4,358.2L793.71,355.96L791.64,353.73L790.95,352.24L790.95,349.25L792.33,349.25L794.4,347.02L795.09,346.27L795.09,344.78L795.78,344.03L795.78,341.8L795.09,341.05L794.4,337.2L793.02,334.21L792.33,331.23L792.33,328.25L795.78,321.54L796.47,318.56L797.16,316.32L798.54,315.57L798.54,312.59L799.23,311.84L800.61,311.84L802.8,308.86L803.49,307.37L803.49,305.88L806.25,302.15L805.56,301.4L809.01,301.4L810.39,300.66L811.08,299.17L811.08,297.68L809.7,296.93L809.7,295.44L809.01,295.44L808.32,293.95L808.32,292.46L807.63,290.97L808.32,290.22L809.01,288.73L809.7,287.98L807.63,287.24L806.25,287.24L805.56,285L804.87,284.25L804.87,285L804.18,285.75L804.18,286.49L803.49,285L802.8,284.25L801.3,282.02L799.23,279.78L798.54,280.53L798.54,282.76L797.16,282.76L794.4,283.51L792.33,283.51L791.64,282.02L790.26,282.76L790.26,281.27L789.57,279.78L788.19,279.03L787.5,278.29L787.5,279.03L785.43,280.53L784.05,282.02L784.05,282.76L783.36,283.51L783.36,284.25L783.36,283.51L782.67,282.76L781.98,282.02L781.29,282.02L780.6,282.76L780.6,282.02L781.29,282.02L780.6,281.27L781.29,281.27L781.29,279.78L777.84,279.78L777.84,278.29L778.53,277.54L779.91,277.54L779.91,276.8L778.53,276.05L777.84,276.05L777.15,275.31L776.46,274.56L775.08,274.56L772.32,276.8L772.32,277.54L771.63,278.29L771.63,277.54L770.94,277.54L770.94,279.03L773.7,279.03L773.7,277.54L774.39,277.54L775.08,278.29L775.77,278.29L775.08,279.03L775.08,280.53L775.08,279.03L775.77,279.78L775.77,281.27L775.08,282.02L773.01,282.76L770.94,283.51L768.87,283.51L768.18,282.76L766.8,282.02L766.11,282.02L765.42,282.76L765.42,283.51L764.73,282.76L764.73,282.02L764.04,281.27L763.35,282.02L761.97,281.27L761.28,280.53L761.28,279.78L760.59,279.78L760.59,279.03L759.9,279.03L759.9,279.78L759.21,281.27L759.21,282.02L753,282.02L753,282.76L752.31,280.53L750.24,279.78L748.17,280.53L746.79,281.27L745.41,282.02L744.72,282.76L744.72,284.25L746.1,284.25L746.79,285L746.1,285.75L746.1,286.49L746.79,286.49L748.17,287.24L750.24,288.73L748.86,288.73L747.48,289.47L746.79,288.73L746.1,289.47L744.72,290.22L742.65,290.22L742.65,291.71L743.34,291.71L739.89,296.18L738.51,299.17L738.51,299.91L739.2,300.66L739.2,302.15L739.89,302.15L740.58,302.9L741.27,304.39L741.27,307.37L741.96,308.12L741.27,310.35L739.2,310.35L738.51,312.59L737.13,312.59L737.13,314.08L737.82,314.83L737.82,315.57L737.13,317.81L734.37,317.81L731.61,318.56L730.8,319.3L730.8,318.56L730.8,319.3L730.11,319.3L730.11,320.05L729.42,320.79L729.42,320.05L728.04,319.3L726.66,320.05L726.66,319.3L725.28,318.56L724.59,318.56L723.9,319.3L723.21,320.05L722.52,320.79L723.21,322.28L723.9,323.78L725.28,325.27L727.35,326.76ZM775.08,308.12L776.46,307.37L776.46,305.88L777.15,305.13L777.84,305.13L777.84,304.39L778.53,302.9L780.6,302.9L779.91,301.4L779.22,300.66L779.91,299.17L779.22,298.42L778.53,298.42L781.98,298.42L783.36,299.17L784.74,299.91L786.12,299.91L786.81,300.66L786.81,302.15L788.19,302.9L790.26,304.39L794.4,304.39L793.71,303.64L793.71,300.66L794.4,299.91L794.4,296.93L795.09,296.93L795.78,296.18L796.47,294.69L797.16,293.95L796.47,292.46L796.47,291.71L797.85,290.97L797.85,290.22L798.54,290.22L801.3,293.2L801.3,294.69L798.54,294.69L798.54,295.44L799.23,295.44L800.61,296.18L801.3,295.44L801.99,295.44L801.99,294.69L802.8,293.95L801.99,293.95L801.99,292.46L800.61,292.46L801.3,292.46L801.3,291.71L800.61,290.97L799.92,290.97L799.92,290.22L800.61,289.47L801.3,290.97L801.99,290.22L806.94,290.22L806.94,288.73L806.25,288.73L805.56,287.98L802.8,286.49L799.92,285L797.85,285L797.16,285.75L797.16,287.24L795.09,287.24L794.4,287.98L791.64,289.47L790.26,290.97L786.81,290.97L787.5,290.97L787.5,293.2L786.81,293.2L786.81,294.69L786.12,295.44L784.05,295.44L782.67,294.69L781.98,294.69L781.29,293.95L780.6,294.69L779.91,295.44L778.53,296.18L776.46,296.18L776.46,295.44L776.46,296.18L774.39,296.18L773.7,296.93L773.01,296.93L772.32,296.18L773.01,296.18L767.49,296.18L766.8,297.68L765.42,297.68L765.42,298.42L766.11,299.17L766.11,299.91L764.73,300.66L762.66,301.4L762.66,302.9L764.04,302.9L764.04,305.88L764.73,305.13L766.11,305.13L766.8,306.62L766.11,307.37L765.42,307.37L764.73,308.12L764.73,308.86L766.11,313.34L764.73,314.83L764.04,314.83L764.04,315.57L766.11,317.06L766.8,317.06L768.18,317.81L768.87,317.81L770.94,317.06L771.63,317.06L772.32,317.81L774.39,318.56L775.77,320.05L777.15,320.05L777.15,318.56L776.46,316.32L775.08,311.1L775.08,308.12ZM786.12,320.79L787.5,319.3L789.57,317.81L792.33,314.83L792.33,311.84L793.02,311.1L793.02,308.86L793.71,308.86L793.71,307.37L794.4,306.62L794.4,304.39L790.26,304.39L788.19,302.9L786.81,302.15L786.81,300.66L784.74,299.91L783.36,299.17L781.98,298.42L778.53,298.42L779.22,298.42L779.91,299.17L779.22,300.66L779.91,301.4L780.6,302.9L778.53,302.9L777.84,304.39L777.84,305.13L777.15,305.13L776.46,305.88L776.46,307.37L775.08,308.12L775.08,309.61L775.77,314.08L776.46,317.81L777.15,319.3L778.53,320.79L781.98,321.54L784.05,321.54L784.74,320.05L786.12,320.05L786.12,320.79ZM795.09,296.93L796.47,296.18L798.54,296.18L798.54,296.93L799.23,296.93L799.23,296.18L798.54,295.44L798.54,294.69L799.92,293.95L800.61,293.95L800.61,292.46L799.23,291.71L797.85,291.71L796.47,292.46L795.78,292.46L795.09,293.95L795.09,296.93ZM802.8,293.2L802.8,291.71L804.18,290.97L805.56,290.22L804.18,290.22L803.49,290.97L803.49,290.22L801.99,290.22L801.3,290.97L800.61,289.47L799.92,290.22L799.92,291.71L800.61,291.71L801.3,292.46L801.99,294.69L804.18,294.69L804.18,293.2L802.8,293.2Z" style="fill:rgb(84,130,53);stroke:white;stroke-width:0.25px;"/>
                    </g>
                    <g transform="matrix(1,0,0,1,0,75.12)">
                        <path d="M713.57,239.46L713.57,238.71L714.95,237.97L717.71,238.71L721.85,240.95L724.61,239.46L724.61,240.95L725.3,240.21L726.68,240.21L726.68,240.95L727.36,239.46L729.43,239.46L730.81,238.71L731.62,237.22L732.31,234.99L733,232.01L733.69,231.26L735.75,231.26L737.82,230.51L738.51,232.01L737.82,232.75L737.82,233.5L738.51,234.99L739.2,233.5L743.34,233.5L744.03,234.99L744.03,234.24L745.41,234.99L746.1,235.73L746.79,237.22L746.1,237.22L746.1,237.97L745.41,238.71L744.72,239.46L744.72,240.95L744.03,242.44L744.03,250.02L744.72,250.77L745.41,250.77L745.41,252.26L746.1,253L746.79,253L746.79,254.49L747.48,253.75L748.85,254.49L750.23,255.24L751.61,257.48L751.61,263.44L750.92,266.42L750.92,269.4L751.61,271.64L750.92,270.89L750.92,275.37L749.54,275.37L748.85,276.11L748.85,277.6L748.17,279.09L748.17,282.08L747.48,283.57L747.48,286.55L749.54,289.53L749.54,293.26L748.85,294L749.54,294L748.85,295.49L749.54,296.24L749.54,296.99L750.92,296.99L752.3,297.73L752.99,299.22L753.68,299.22L754.37,299.97L756.44,302.95L757.82,304.44L759.89,304.44L761.27,301.46L762.64,298.48L762.64,296.99L763.33,295.49L764.71,294.75L766.78,294.75L766.78,288.79L767.47,288.04L769.54,285.06L770.92,284.31L770.92,280.58L771.61,278.35L771.61,275.37L769.54,271.64L770.23,270.15L770.23,265.68L768.85,263.44L766.78,260.46L767.47,259.71L768.85,259.71L770.23,258.22L770.23,255.24L769.54,253.75L770.23,253L770.92,252.26L771.61,251.51L772.99,250.77L773.68,250.77L777.12,250.02L779.88,250.77L779.88,253.75L780.57,253.75L781.26,254.49L781.95,255.98L783.33,257.48L784.02,256.73L784.71,254.49L785.4,253L786.09,252.26L788.16,250.77L788.85,250.77L788.85,254.49L787.47,254.49L788.85,254.49L788.85,255.24L789.54,256.73L789.54,257.48L788.85,258.22L788.16,260.46L788.16,265.68L788.85,266.42L789.54,266.42L788.85,269.4L788.85,271.64L790.22,272.38L792.29,273.13L792.29,273.88L792.98,273.88L792.98,275.37L793.67,275.37L793.67,277.6L794.36,278.35L794.36,279.09L794.36,278.35L794.36,279.09L795.74,281.33L797.81,283.57L798.5,282.82L798.5,282.08L799.19,282.82L799.88,283.57L800.57,283.57L802.75,284.31L804.82,285.06L806.89,286.55L807.58,285.06L808.27,284.31L811.71,284.31L813.78,285.8L815.16,285.06L814.47,282.08L814.47,280.58L815.16,279.84L816.54,279.09L816.54,277.6L817.23,276.11L817.92,276.11L818.61,276.86L819.99,277.6L819.99,278.35L820.68,278.35L821.37,277.6L822.06,277.6L822.06,276.86L824.13,276.86L824.81,275.37L825.5,274.62L826.88,274.62L828.95,273.88L831.02,273.88L832.4,272.38L833.09,271.64L834.47,270.89L835.85,273.13L835.85,272.38L835.85,273.13L836.54,273.88L837.23,273.13L837.23,272.38L839.29,271.64L839.98,271.64L839.98,273.13L840.67,274.62L842.74,276.11L842.74,275.37L843.43,275.37L844.12,276.11L843.43,277.6L842.74,277.6L842.05,278.35L842.05,280.58L842.74,280.58L842.74,281.33L843.43,282.08L844.12,282.08L844.12,282.82L843.43,284.31L843.43,286.55L844.81,287.29L846.88,287.29L849.64,289.53L849.64,293.26L848.95,294.75L849.64,295.49L850.33,296.99L852.39,296.99L856.53,295.49L858.6,294.75L859.98,293.26L861.36,291.02L861.36,290.28L862.05,289.53L861.36,288.79L860.67,288.79L860.67,286.55L859.98,286.55L859.98,285.06L857.91,282.82L856.53,282.08L855.84,282.08L855.15,279.09L855.15,276.86L856.53,275.37L856.53,274.62L857.22,274.62L857.22,271.64L857.91,270.89L859.29,270.15L860.67,270.15L860.67,267.17L861.36,267.17L860.67,265.68L859.29,264.93L858.6,264.18L857.91,262.69L854.46,262.69L852.39,264.18L851.71,264.18L851.02,263.44L848.26,261.2L847.57,260.46L847.57,259.71L848.26,258.97L849.64,258.22L849.64,256.73L848.95,254.49L848.26,252.26L848.95,250.77L848.95,250.02L849.64,250.02L848.95,246.91L848.95,244.68L850.33,244.68L850.33,243.93L851.02,243.19L852.39,242.44L852.39,240.21L853.08,239.46L853.77,237.97L854.46,235.73L855.15,234.24L855.84,234.99L858.6,234.24L862.05,232.75L862.05,231.26L866.87,231.26L868.25,229.77L868.25,230.51L868.94,232.01L870.32,233.5L870.32,234.99L868.94,237.97L868.94,239.46L871.01,239.46L873.88,240.21L873.88,241.7L874.57,242.44L875.95,243.93L875.95,244.68L879.4,243.19L882.16,243.19L882.85,243.93L883.54,243.93L884.23,244.68L885.61,243.93L886.3,243.19L886.98,243.19L887.67,244.68L888.36,245.42L889.05,245.42L889.05,246.17L890.43,246.91L891.12,246.17L891.81,244.68L893.19,242.44L892.5,241.7L892.5,240.21L893.88,237.22L893.88,232.75L893.19,232.75L892.5,231.26L890.43,229.77L889.74,229.02L887.67,229.02L886.3,229.77L885.61,230.51L884.92,229.77L884.92,227.53L883.54,223.06L882.85,222.31L882.85,221.57L883.54,220.82L884.23,221.57L885.61,218.59L886.3,218.59L886.3,217.84L886.98,216.35L885.61,214.86L884.92,214.86L884.92,214.11L885.61,213.37L888.36,211.13L889.05,211.13L889.05,207.4L888.36,205.91L887.67,205.17L886.98,205.17L886.98,204.42L887.67,204.42L889.05,203.68L889.74,203.68L891.12,201.44L891.12,199.2L890.43,199.2L890.43,198.46L891.81,195.48L892.5,195.48L891.81,192.5L891.12,190.26L892.5,188.77L892.5,185.79L893.19,183.55L893.19,182.8L893.88,181.31L892.5,181.31L891.81,179.82L890.43,179.08L889.05,179.08L888.36,178.33L887.67,178.33L886.98,177.59L887.67,176.09L886.3,174.6L885.61,174.6L884.23,172.37L883.54,171.62L882.85,171.62L881.47,173.11L879.4,173.11L878.02,176.09L877.33,177.59L877.33,179.08L875.95,179.08L875.26,179.82L875.26,181.31L876.64,182.8L875.95,183.55L871.7,183.55L869.63,182.8L868.25,182.8L867.56,185.04L867.56,188.02L866.87,188.02L866.87,189.51L867.56,190.26L867.56,193.24L864.12,193.24L863.43,193.99L862.05,194.73L859.98,195.48L858.6,195.48L858.6,196.22L856.53,196.22L855.84,196.97L854.46,196.97L854.46,196.22L853.77,196.22L853.08,195.48L852.39,193.99L852.39,193.24L851.02,193.99L848.95,193.99L848.95,193.24L849.64,191.75L847.57,190.26L844.81,188.02L842.05,185.04L840.67,185.79L839.98,185.04L838.6,185.04L837.92,185.79L837.23,185.04L835.85,184.3L835.16,183.55L833.78,183.55L833.78,182.8L832.4,182.8L831.71,182.06L831.71,180.57L831.02,179.08L831.02,176.09L831.71,174.6L832.4,173.86L833.09,173.86L833.09,171.62L831.02,170.88L831.02,167.89L830.33,167.89L829.64,168.64L828.95,168.64L828.26,169.39L826.19,168.64L824.81,167.89L824.81,168.64L823.44,166.4L822.06,165.66L818.61,165.66L817.92,164.91L815.85,164.91L815.16,164.17L814.47,164.17L814.47,163.42L813.09,162.68L811.71,161.93L809.65,161.93L809.65,162.68L808.27,161.93L807.58,161.93L807.58,163.42L805.51,163.42L804.13,161.93L801.95,161.93L801.26,162.68L800.57,163.42L799.88,162.68L800.57,162.68L800.57,163.42L799.19,163.42L798.5,161.93L798.5,161.19L797.12,160.44L795.74,161.19L793.67,162.68L793.67,161.93L793.67,162.68L792.98,161.93L792.29,161.93L792.29,163.42L790.91,162.68L790.91,163.42L793.67,167.15L794.36,169.39L795.05,170.88L795.05,171.62L797.81,175.35L795.05,175.35L795.05,178.33L792.98,180.57L791.6,183.55L790.22,185.79L790.22,189.51L788.16,189.51L787.47,190.26L784.71,189.51L782.41,188.15L778.5,187.28L775.06,186.53L772.99,185.79L770.23,185.79L768.16,185.04L767.47,185.04L766.78,185.79L765.4,186.53L762.64,189.51L761.27,191L761.27,190.26L758.51,190.26L757.82,191.75L757.13,192.5L756.44,193.24L755.06,193.24L755.75,193.99L754.37,193.99L752.99,194.73L752.99,193.24L752.3,192.5L752.3,191.75L750.92,191.75L749.54,191L748.17,191L746.79,193.24L746.79,193.99L747.48,194.73L746.79,196.22L746.1,196.97L746.1,197.71L745.41,197.71L744.03,199.2L744.03,200.7L743.34,201.44L740.58,201.44L738.51,202.19L735.75,202.19L733.69,202.93L733,202.19L733,201.44L731.62,199.95L730.12,199.95L729.43,200.7L729.43,201.44L728.05,201.44L727.36,202.19L727.36,203.68L724.61,203.68L724.61,204.42L725.3,205.91L724.61,205.91L725.99,208.15L723.92,208.15L723.23,208.9L723.23,212.62L721.85,212.62L721.16,213.37L720.47,213.37L719.78,214.11L718.4,211.13L717.02,211.88L717.02,213.37L716.33,214.86L715.64,215.6L714.26,217.1L712.2,218.59L712.2,217.84L710.82,217.84L710.82,219.33L708.75,219.33L708.75,221.57L709.44,223.06L709.44,224.55L707.37,225.3L706.68,226.04L706.68,226.79L707.37,226.79L707.37,229.02L708.06,229.77L708.06,231.26L709.44,231.26L709.44,234.24L708.75,237.47L710.82,237.97L713.57,239.46Z" style="fill:rgb(84,130,53);stroke:white;stroke-width:0.25px;"/>
                    </g>
                    <g transform="matrix(1,0,0,1,0,-172.8)">
                        <path d="M623.16,335.91L624.54,336.65L624.54,335.16L625.23,334.42L626.61,332.18L626.61,331.44L627.3,330.69L628.68,330.69L630.05,331.44L632.12,334.42L632.81,335.91L634.19,337.4L635.57,338.14L638.33,338.89L638.33,340.38L637.64,342.61L639.02,343.36L639.71,343.36L640.4,342.61L641.09,344.11L641.09,344.85L641.78,344.85L641.78,347.83L639.71,348.58L642.47,350.81L644.54,353.05L645.92,353.79L646.61,355.28L645.23,357.52L644.54,360.5L643.16,361.24L643.16,361.99L641.78,363.48L637.64,365.71L637.64,362.73L634.88,362.73L634.19,361.99L634.19,361.24L633.5,361.99L632.81,363.48L629.37,366.46L627.99,367.95L625.92,371.68L625.23,375.4L625.23,376.89L625.92,378.38L628.68,377.64L632.12,377.64L632.12,376.89L633.5,376.89L634.88,378.38L636.26,378.38L635.57,377.64L635.57,376.89L636.95,374.66L638.33,373.17L638.33,371.68L639.71,371.68L639.02,372.42L640.4,372.42L642.47,371.68L643.16,372.42L643.85,373.91L644.54,377.64L645.23,378.38L645.92,377.64L647.3,376.89L648.68,376.15L649.37,374.66L650.75,374.66L654.89,378.38L655.58,377.64L655.58,376.89L660.4,376.89L661.21,377.64L659.03,377.64L658.34,378.38L657.65,378.38L658.34,379.13L659.03,379.13L657.65,379.13L658.34,379.87L659.03,379.87L659.71,380.62L659.71,381.36L661.21,380.62L663.28,380.62L663.28,377.64L663.97,376.89L665.35,376.89L665.35,373.91L666.04,373.17L667.42,373.17L667.42,371.68L668.11,371.68L668.8,370.93L668.8,371.68L671.56,371.68L672.25,372.42L672.25,375.4L672.94,376.15L672.94,376.89L673.63,376.89L675,381.36L675.69,385.83L677.07,389.56L677.76,391.79L679.14,394.03L681.21,394.77L683.28,395.52L683.97,394.77L683.97,393.28L683.28,389.56L683.28,382.85L682.59,382.85L682.59,379.87L683.28,379.87L683.28,376.89L682.59,373.17L681.9,371.68L681.9,370.19L681.9,370.93L682.59,370.93L682.59,371.68L683.28,370.93L684.66,370.93L685.35,369.44L686.04,368.69L686.73,367.2L687.42,367.2L687.42,365.71L688.11,364.97L688.8,364.22L687.42,364.22L685.35,364.97L684.66,359.01L683.97,356.77L683.28,355.28L682.59,356.03L683.28,354.54L683.28,353.79L679.83,353.79L679.83,353.05L681.21,353.05L681.9,351.56L682.59,350.81L682.59,349.32L681.9,349.32L681.21,348.58L681.21,347.83L681.9,347.83L681.9,344.85L680.52,343.36L679.83,342.61L680.52,341.87L681.21,341.12L680.52,340.38L679.83,339.63L679.83,337.4L680.52,337.4L679.83,337.4L679.83,335.91L680.52,335.16L681.21,333.67L681.9,332.93L682.59,332.93L683.28,333.67L683.28,332.18L684.66,332.18L684.66,331.44L683.97,331.44L683.97,330.69L684.66,331.44L686.73,326.97L686.73,326.22L686.04,325.48L685.35,325.48L683.97,324.73L683.28,325.48L682.59,326.97L678.45,326.97L677.07,326.22L674.31,323.24L673.63,321.75L673.63,321.01L674.31,320.26L672.25,320.26L670.87,319.52L670.18,319.52L670.18,318.77L668.11,318.77L667.42,319.52L666.73,320.26L666.04,318.77L664.66,317.28L663.97,317.28L663.28,318.03L662.59,320.26L661.9,320.26L661.21,321.75L658.34,321.75L656.96,322.5L656.27,322.5L654.89,323.24L654.2,323.99L654.2,325.48L653.51,326.22L652.82,327.71L652.13,326.97L651.44,326.97L650.75,326.22L650.06,326.22L647.99,326.97L646.61,328.46L643.16,328.46L640.4,326.97L639.02,326.97L639.02,329.2L637.64,329.2L636.26,328.46L635.57,328.46L634.88,326.97L634.88,325.48L634.19,323.24L634.19,322.5L633.5,321.75L632.12,321.01L630.74,321.75L628.68,321.75L627.99,322.5L626.61,321.75L625.92,321.01L625.92,321.75L625.23,322.5L625.23,324.73L623.16,325.48L621.78,326.97L621.09,327.71L619.71,327.71L619.02,328.46L616.26,328.46L616.26,329.2L614.88,329.2L615.57,329.2L615.57,329.95L616.26,329.2L616.26,329.95L616.95,330.69L618.33,332.18L619.71,331.44L621.09,332.18L622.47,332.93L623.16,334.42L623.16,335.91L622.47,335.91L622.47,336.65L623.16,336.65L623.16,335.91Z" style="fill:rgb(255,0,0);stroke:white;stroke-width:0.25px;"/>
                    </g>
                    <g transform="matrix(1,0,0,1,0,-4.08)">
                        <path d="M549.22,259.74L548.53,260.49L548.53,261.23L549.22,261.98L549.22,261.23L549.91,261.23L550.6,260.49L549.91,260.49L549.22,259.74ZM553.36,259.74L554.05,259L553.36,258.25L553.36,257.5L551.98,257.5L551.29,258.25L551.29,259L551.98,260.49L552.67,259.74L552.67,259L553.36,259.74ZM527.16,217.13L529.23,222.35L529.23,224.58L527.85,227.56L527.85,229.8L532.68,226.82L534.05,226.07L536.81,225.33L538.88,224.58L540.95,224.58L541.64,223.84L542.33,223.84L542.33,224.58L543.71,223.09L544.39,223.09L544.39,223.84L543.71,225.33L543.71,227.56L545.08,226.82L546.46,227.56L546.46,228.31L548.53,229.06L549.22,229.8L549.91,230.67L549.91,231.42L548.53,232.16L549.22,232.91L549.22,234.4L548.53,235.89L547.15,236.63L545.08,237.38L544.39,238.12L544.39,238.87L543.71,241.11L543.71,244.09L544.39,245.58L544.39,246.32L545.08,247.07L546.46,247.81L552.67,247.81L554.05,247.07L555.43,247.07L556.8,246.32L558.18,245.58L559.56,245.58L560.25,244.83L560.94,244.83L560.94,244.09L562.32,244.09L563.01,244.83L563.01,245.58L563.01,244.83L563.01,246.32L563.7,247.07L564.39,247.07L564.39,247.81L561.63,250.05L559.56,251.54L560.94,251.54L561.63,252.29L561.63,258.25L560.94,259.74L559.56,259.74L558.87,260.49L558.87,261.23L559.56,260.49L560.94,259.74L561.63,260.49L563.01,260.49L565.77,261.23L566.46,261.23L567.14,261.98L569.21,261.98L571.97,262.72L574.73,262.72L574.73,263.47L575.42,263.47L575.42,264.96L576.11,266.45L576.11,267.94L575.42,268.69L571.97,268.69L572.66,268.69L572.66,267.19L571.28,267.19L571.28,268.69L569.9,268.69L569.9,269.43L571.28,270.18L571.97,270.92L572.66,271.67L572.66,272.41L570.59,276.14L569.9,278.38L569.9,280.61L568.52,281.36L568.52,282.85L569.9,283.59L569.9,284.34L569.21,286.58L569.21,289.56L569.9,291.05L569.9,290.3L570.59,290.3L572.66,291.05L573.35,291.79L574.04,292.54L574.04,293.28L573.35,294.03L575.42,294.03L576.11,295.52L576.11,300.74L576.8,300.74L576.11,300.74L575.42,301.48L574.73,302.23L574.73,302.97L574.04,302.97L574.04,302.23L573.35,301.48L572.66,300.74L571.97,299.99L571.28,300.74L570.59,300.74L570.59,302.97L571.28,303.72L569.9,303.72L569.9,306.7L570.59,306.7L569.9,309.68L569.9,310.43L569.21,312.66L565.77,312.66L563.01,316.39L561.63,316.39L561.63,317.88L563.01,318.63L562.32,322.35L561.63,323.85L560.25,327.7L560.25,329.19L560.94,330.68L560.25,330.68L560.25,331.42L560.94,332.91L560.25,332.91L559.56,333.66L559.56,334.41L558.87,335.15L558.18,335.15L557.49,334.41L556.8,334.41L556.8,335.9L558.18,338.13L557.49,339.62L557.49,341.86L556.11,344.84L557.49,344.84L557.49,344.1L558.18,344.1L558.87,345.59L558.87,347.82L559.56,349.31L558.87,352.29L560.25,353.04L560.94,353.04L561.63,352.29L562.32,351.55L563.7,347.82L565.08,347.08L567.14,347.08L567.83,345.59L567.83,344.84L568.52,344.84L568.52,346.33L567.83,348.57L567.83,349.31L568.52,350.06L569.21,350.8L569.9,350.06L570.59,350.06L572.66,349.31L574.73,347.82L575.42,347.08L576.11,346.33L576.8,345.59L580.24,345.59L580.93,344.84L581.62,344.1L582.31,344.84L583.69,345.59L583.69,346.33L583.69,345.59L585.07,344.84L585.76,344.1L586.45,344.84L586.45,347.08L589.89,346.33L591.39,345.59L592.08,344.84L593.46,344.1L590.7,342.6L591.39,341.11L592.08,341.11L592.08,340.37L595.52,339.62L597.59,339.62L598.28,338.13L598.97,337.39L599.66,335.9L600.35,335.9L601.73,336.64L605.87,338.13L607.24,338.88L607.93,338.88L607.93,339.62L609.31,340.37L608.62,340.37L610.69,340.37L613.45,338.88L614.83,337.39L616.21,336.64L618.27,334.41L618.96,334.41L621.03,332.91L621.72,332.91L621.72,332.17L623.79,331.42L623.79,330.68L623.79,331.42L627.24,331.42L627.24,330.68L627.93,330.68L628.62,329.93L630.68,329.93L630.68,328.44L632.06,327.7L636.2,326.08L636.2,324.59L636.89,324.59L636.89,323.85L636.2,322.35L636.2,320.86L637.58,320.12L638.27,319.37L640.34,317.88L641.71,317.14L642.4,317.14L643.78,317.88L645.85,320.12L646.54,319.37L649.3,319.37L649.99,320.86L651.37,320.86L652.74,321.61L654.81,323.1L658.26,325.34L661.82,323.85L665.96,323.85L666.65,323.1L667.34,323.1L668.03,322.35L668.72,322.35L668.72,321.61L670.78,321.61L670.78,320.86L671.47,320.12L671.47,319.37L674.23,319.37L675.61,317.14L676.3,315.65L676.99,313.41L676.99,309.68L677.68,308.19L677.68,307.45L679.06,307.45L681.12,304.46L681.81,304.46L681.81,302.23L681.12,301.48L680.44,300.74L680.44,299.25L681.12,298.5L683.88,298.5L685.26,299.25L686.64,299.25L686.64,297.76L685.95,295.52L685.95,292.54L686.64,292.54L685.26,291.05L684.57,290.3L684.57,289.56L685.26,289.56L685.26,288.81L685.95,287.32L686.64,287.32L686.64,286.58L684.57,285.08L682.5,285.08L681.12,286.58L681.12,285.08L680.44,285.08L680.44,284.34L679.75,283.59L679.75,284.34L679.06,282.85L676.3,282.85L674.92,283.59L672.85,285.83L672.16,285.08L672.16,285.83L671.47,286.58L671.47,287.32L669.41,287.32L668.03,288.07L667.34,286.58L666.65,285.83L665.27,285.83L665.27,285.08L664.58,285.08L664.58,285.83L663.89,286.58L663.2,286.58L661.82,285.08L659.64,285.08L657.57,285.83L656.19,286.58L654.81,287.32L653.43,285.83L652.06,284.34L649.99,282.1L644.47,282.1L643.78,281.36L644.47,281.36L643.09,281.36L642.4,282.1L641.03,282.1L640.34,282.85L638.96,283.59L638.27,283.59L636.89,282.1L636.2,281.36L635.51,279.12L634.13,277.63L634.13,276.89L629.31,273.9L627.93,273.9L627.93,270.92L627.24,270.92L627.24,270.18L627.93,269.43L626.55,267.19L625.86,266.45L626.55,265.7L627.24,264.21L627.93,263.47L628.62,262.72L629.31,261.23L628.62,260.49L628.62,259L629.99,258.25L632.75,258.25L633.44,255.27L635.51,253.03L635.51,251.54L636.2,250.8L636.2,250.05L636.89,250.8L636.2,249.31L636.2,246.32L631.37,246.32L631.37,244.83L630.68,244.09L630.68,242.6L629.99,242.6L629.31,241.11L628.62,239.62L627.93,238.12L628.62,237.38L629.31,235.14L629.99,232.16L629.99,230.67L629.31,229.8L628.62,229.06L628.62,228.31L629.31,227.56L629.99,226.82L629.99,226.07L630.68,225.33L629.99,221.6L629.31,218.62L627.93,214.89L627.24,213.4L626.55,212.66L625.17,206.69L625.17,204.46L616.21,204.46L615.52,203.71L615.52,202.97L614.14,201.48L611.38,199.98L609.31,199.98L607.93,201.48L601.04,201.48L600.35,202.22L600.35,202.97L601.04,203.71L601.73,203.71L602.42,205.2L601.73,205.2L601.73,207.44L603.11,207.44L605.18,208.93L606.56,211.17L606.56,212.66L607.24,214.15L608.62,214.15L608.62,215.64L609.31,215.64L609.31,217.13L610,217.87L610,218.62L607.24,222.35L605.18,222.35L604.49,221.6L601.04,221.6L600.35,222.35L600.35,220.86L598.97,220.86L598.28,220.11L597.59,219.37L596.21,219.37L594.15,220.11L594.15,220.86L594.84,221.6L594.15,222.35L593.46,222.35L592.77,223.84L592.77,226.07L590.7,226.82L589.89,227.56L589.21,228.31L587.83,228.31L587.83,229.8L588.52,230.67L588.52,232.91L587.83,232.91L587.14,233.65L586.45,233.65L585.76,234.4L585.07,234.4L585.07,233.65L584.38,232.91L584.38,229.8L579.55,229.8L578.86,229.06L578.18,228.31L578.18,226.82L578.86,226.82L578.86,226.07L579.55,225.33L580.24,226.07L583.69,226.07L583.69,225.33L584.38,225.33L585.07,226.07L585.76,226.07L585.07,226.07L585.07,224.58L584.38,224.58L583.69,223.84L584.38,223.09L585.76,222.35L586.45,220.86L587.14,220.86L588.52,221.6L590.7,220.11L591.39,220.11L590.7,218.62L589.89,217.87L589.89,218.62L589.21,216.38L589.89,215.64L587.14,215.64L586.45,217.13L585.76,217.13L585.76,216.38L585.07,215.64L585.07,216.38L582.31,218.62L580.93,220.11L580.24,220.11L579.55,219.37L579.55,218.62L580.24,217.87L580.24,217.13L578.86,214.15L577.49,213.4L577.49,214.89L576.11,212.66L576.11,210.42L578.18,209.67L579.55,209.67L579.55,208.93L580.93,208.18L582.31,208.18L584.38,205.2L585.76,203.71L588.52,203.71L591.39,199.98L592.77,199.24L595.52,199.24L597.59,196.26L598.28,195.51L599.66,194.02L598.28,191.79L598.28,191.04L597.59,191.04L596.21,192.53L595.52,193.28L595.52,194.77L596.21,194.02L598.28,194.02L598.28,194.77L595.52,195.51L594.84,195.51L594.15,196.26L592.77,197.75L591.39,197.75L589.89,197L588.52,196.26L583.69,195.51L576.11,196.26L576.11,197L573.35,199.24L566.46,199.24L565.77,198.49L561.63,197.75L559.56,197L558.87,197.75L558.87,199.24L559.56,199.24L558.87,199.24L558.87,201.48L556.11,201.48L556.8,202.22L557.49,202.22L557.49,202.97L556.11,202.97L556.11,203.71L557.49,203.71L556.8,202.97L556.8,203.71L557.49,204.46L557.49,205.2L556.8,205.2L556.11,205.95L554.74,205.95L551.29,205.2L548.53,205.2L547.84,205.95L547.84,207.44L546.46,207.44L545.77,208.93L545.77,210.42L545.08,210.42L544.39,211.17L544.39,212.66L540.95,212.66L540.26,214.15L540.26,215.64L538.88,214.89L537.5,214.89L536.12,214.15L535.43,214.15L533.36,216.38L530.61,218.62L529.92,217.87L529.23,216.38L529.23,215.64L527.85,215.64L527.16,217.13ZM562.32,257.5L562.32,256.76L563.01,256.76L563.7,256.01L563.01,255.27L564.39,255.27L563.7,254.52L563.7,255.27L562.32,255.27L562.32,256.01L561.63,256.01L561.63,256.76L562.32,257.5ZM609.31,222.35L610,221.6L610.69,222.35L611.38,221.6L611.38,220.11L610.69,219.37L610.69,220.11L609.31,221.6L609.31,222.35Z" style="fill:rgb(255,0,0);stroke:white;stroke-width:0.25px;"/>
                    </g>
                    <g transform="matrix(1,0,0,1,0,-221.16)">
                        <path d="M743.39,399.24L742.7,399.24L742.7,397.75L744.77,397.75L746.15,397L746.84,396.26L747.53,397L748.9,396.26L750.28,396.26L748.22,394.76L746.84,394.02L746.15,394.02L746.15,393.27L746.84,392.52L745.46,391.78L744.77,391.78L744.77,390.28L745.46,389.54L748.22,388.04L750.28,387.3L752.35,388.04L753.04,390.28L753.04,389.54L759.24,389.54L759.24,388.79L759.93,387.3L759.93,386.55L760.62,386.55L760.62,387.3L761.31,387.3L761.31,388.04L762,388.79L763.38,389.54L764.07,388.79L764.76,389.54L764.76,390.28L765.45,391.03L765.45,390.28L766.14,389.54L766.83,389.54L768.2,390.28L768.89,391.03L770.96,391.03L773.03,390.28L774.41,389.54L775.1,389.54L775.79,388.79L775.79,387.3L775.1,386.55L775.1,388.04L775.1,386.55L775.79,385.81L775.1,385.81L774.41,385.06L773.72,385.06L773.72,386.55L770.96,386.55L770.96,385.06L771.65,385.06L771.65,385.81L772.34,385.06L772.34,384.31L773.72,382.82L775.1,382.07L776.48,382.07L777.17,382.82L777.85,383.57L778.54,383.57L779.92,384.31L779.92,385.06L778.54,385.06L777.85,385.81L777.85,387.3L781.3,387.3L781.3,388.79L780.61,388.79L781.3,389.54L780.61,389.54L780.61,390.28L780.61,389.54L781.99,389.54L782.68,390.28L783.37,391.03L783.37,391.78L783.37,391.03L784.06,390.28L784.75,389.54L784.75,388.79L786.13,386.55L787.5,385.81L788.19,385.06L787.5,384.31L786.82,384.31L784.75,382.82L783.37,381.33L781.99,379.09L781.99,377.59L780.61,374.61L778.54,372.37L775.79,370.13L770.27,366.4L764.76,363.41L757.87,361.17L755.11,359.68L751.66,359.68L748.9,358.93L746.15,358.93L740.63,360.43L738.57,361.17L737.88,361.92L737.19,363.41L735.12,363.41L733.74,362.66L731.67,361.92L730.87,361.92L730.18,362.66L729.49,362.66L729.49,360.43L726.73,358.19L726.04,357.44L724.67,358.19L723.29,358.93L721.22,357.44L717.77,355.95L714.33,355.2L712.95,355.2L711.57,356.69L710.88,357.44L711.57,358.93L712.26,361.17L712.95,361.17L712.95,362.66L713.64,363.41L715.02,363.41L717.77,364.16L719.15,363.41L719.84,362.66L721.91,361.17L723.29,360.43L723.98,360.43L723.98,361.17L724.67,362.66L725.35,362.66L726.73,363.41L726.73,365.65L726.04,366.4L725.35,367.89L724.67,370.13L722.6,370.13L723.29,369.38L719.15,367.89L718.46,367.89L717.77,368.64L717.77,369.38L718.46,370.13L720.53,371.62L722.6,372.37L723.29,373.12L724.67,373.12L725.35,373.86L726.73,375.35L728.8,376.85L729.49,376.85L728.11,376.85L727.42,377.59L726.73,377.59L727.42,379.09L728.11,381.33L728.8,382.07L730.18,382.07L731.67,381.33L732.36,382.07L733.05,382.07L733.05,383.57L733.74,386.55L732.36,387.3L732.36,391.78L732.36,391.03L733.05,391.78L733.05,392.52L733.74,392.52L733.74,394.02L734.43,394.76L734.43,397L737.19,397L736.5,397L734.43,397.75L735.12,398.5L734.43,399.99L734.43,402.97L735.81,404.47L737.88,405.21L738.57,405.96L739.94,405.21L741.32,402.23L743.39,399.24ZM791.64,389.54L791.64,388.79L790.95,388.04L789.57,388.04L788.88,387.3L788.88,388.79L789.57,389.54L790.26,389.54L790.26,390.28L791.64,389.54Z" style="fill:rgb(84,130,53);stroke:white;stroke-width:0.25px;"/>
                    </g>
                    <g transform="matrix(1,0,0,1,0,201.24)">
                        <path d="M682.62,129.87L684.69,129.87L686.06,130.62L686.06,132.11L686.75,133.6L686.06,137.32L686.75,138.82L687.44,141.05L686.75,141.05L686.75,145.52L686.75,144.78L686.75,147.76L685.38,152.23L684,154.47L683.31,155.96L683.31,158.2L684,159.69L685.38,161.93L684,161.93L684,162.67L683.31,162.67L683.31,163.42L684,164.16L686.06,164.91L686.06,165.65L686.75,167.14L689.51,167.89L690.89,168.63L692.27,168.63L693.65,169.38L693.65,171.62L694.34,171.62L695.03,173.11L695.72,175.34L697.1,178.33L698.48,178.33L699.17,179.07L698.48,179.07L699.17,179.07L699.17,179.82L700.54,179.82L699.86,179.07L699.86,179.82L699.17,181.31L700.54,183.54L701.23,184.29L701.92,185.03L704.68,185.03L706.06,186.53L707.44,187.27L710.2,188.02L711.58,189.51L711.58,188.02L712.27,187.27L714.33,185.78L715.02,186.53L715.71,188.02L716.4,187.27L717.78,188.02L719.85,190.25L720.54,189.51L722.61,189.51L723.3,190.25L724.68,191.74L725.37,193.23L726.06,195.47L724.68,196.96L723.3,196.96L722.61,197.71L722.61,200.69L721.92,201.44L721.23,201.44L719.85,202.93L719.16,204.42L718.47,206.65L719.16,205.91L721.23,205.91L723.3,206.65L723.3,207.4L723.99,208.14L724.68,208.14L724.68,208.89L726.06,209.64L726.06,210.38L727.44,211.13L728.81,211.87L730.19,212.62L730.19,214.11L729.5,214.85L729.5,216.34L732.38,219.33L732.38,221.69L733.76,223.92L733.76,226.16L734.45,226.91L734.45,226.16L735.14,226.16L734.45,226.91L733.07,227.65L732.38,228.4L732.38,229.89L731.69,229.89L731.69,232.87L731.69,232.12L732.38,232.12L733.07,231.38L734.45,231.38L734.45,230.63L735.82,230.63L736.51,231.38L737.2,232.12L737.89,232.12L737.89,231.38L738.58,230.63L739.27,231.38L739.27,232.12L740.65,232.12L739.96,232.12L739.27,232.87L740.65,234.36L744.1,234.36L744.1,232.87L744.79,232.12L745.48,229.89L745.48,227.65L746.86,224.67L747.55,223.92L749.62,223.18L749.62,220.94L748.24,220.2L746.86,218.58L744.79,217.09L742.72,217.09L743.41,215.6L742.03,214.11L742.03,213.36L742.72,213.36L742.72,211.87L742.03,211.87L742.03,211.13L740.65,209.64L740.65,208.14L741.34,207.4L743.41,205.91L744.1,204.42L744.1,202.18L743.41,201.44L742.72,200.69L742.03,200.69L742.03,199.2L744.79,196.22L746.17,195.47L748.93,195.47L748.93,193.23L749.62,191.74L750.3,191L749.62,189.51L748.93,188.02L748.93,186.53L749.62,185.03L750.99,185.03L753.06,184.29L753.75,184.29L754.44,181.31L755.82,179.82L757.2,179.82L757.2,178.33L756.51,176.83L754.44,173.85L753.75,173.11L753.06,173.11L752.37,171.62L750.99,170.87L749.62,170.87L748.93,169.38L749.62,167.89L748.93,167.89L749.62,167.14L749.62,163.42L747.55,160.43L747.55,157.45L748.24,155.96L748.24,152.98L748.93,151.49L748.93,150L749.62,149.25L750.99,149.25L750.99,144.78L751.68,145.52L750.99,143.29L750.99,141.8L751.68,137.32L751.68,131.36L750.3,129.12L748.93,128.38L747.55,127.63L746.86,128.38L746.86,126.89L746.17,126.89L745.48,126.14L745.48,124.65L744.79,124.65L744.1,123.91L744.1,116.33L744.79,114.84L744.79,113.35L746.17,111.85L746.17,111.11L746.86,111.11L746.17,109.62L745.48,108.87L744.1,108.13L744.1,108.87L743.41,107.38L739.27,107.38L738.58,108.87L737.89,107.38L737.89,106.64L738.58,105.89L737.89,104.4L735.82,105.15L733.07,105.89L733.07,107.38L732.38,108.87L731.69,111.11L730.88,112.6L729.5,113.35L727.44,113.35L726.75,114.84L726.75,114.09L725.37,114.09L724.68,114.84L724.68,113.35L721.92,114.84L717.78,112.6L715.02,111.85L713.65,112.6L713.65,113.35L711.58,111.85L709.05,111.36L708.13,111.85L707.44,111.85L706.75,112.6L706.06,114.09L704.68,114.09L704.68,113.35L703.99,112.6L703.99,111.85L702.61,111.85L701.92,112.6L700.54,111.85L699.17,111.11L697.79,110.36L697.79,111.11L695.72,110.36L694.34,110.36L692.96,111.85L692.96,113.35L692.27,114.09L691.58,115.58L691.58,118.56L689.17,118.69L688.36,119.56L687.44,120.8L686.06,122.42L685.38,123.16L684.69,124.65L681.93,124.65L679.86,125.4L679.17,126.14L679.17,129.87L678.48,129.87L679.17,131.36L679.17,132.11L679.86,131.36L681.24,130.62L682.62,130.62L682.62,129.87Z" style="fill:rgb(84,130,53);stroke:white;stroke-width:0.25px;"/>
                    </g>
                    <g transform="matrix(1,0,0,1,0,74.4)">
                        <path d="M446.97,270.17L448.35,272.41L451.22,274.64L451.22,273.9L452.6,273.15L452.6,271.66L453.98,269.42L454.67,268.67L455.36,267.93L455.36,267.18L453.98,267.18L453.29,265.69L452.6,264.94L451.91,264.94L451.91,262.71L452.6,263.45L453.29,264.2L456.04,264.2L457.42,263.45L460.87,258.98L461.56,258.98L462.25,259.72L462.94,259.72L462.94,258.23L463.63,256.74L463.63,254.5L464.32,254.5L470.53,248.41L470.53,247.66L471.9,247.66L473.28,248.41L476.73,248.41L478.11,247.66L480.87,247.66L484.32,243.18L486.39,241.69L487.76,240.94L489.14,240.94L489.83,242.44L491.21,241.69L493.28,240.94L496.04,240.94L501.56,243.18L506.38,245.42L514.66,248.41L518.1,250.77L521.67,252.26L525.8,255.24L529.94,259.72L529.94,260.47L528.56,261.96L527.87,261.96L527.87,262.71L526.49,261.21L523.74,261.21L523.74,264.2L525.11,264.94L525.11,265.69L524.43,267.93L524.43,269.42L525.11,270.91L526.49,271.66L527.87,270.91L529.25,272.41L529.25,275.39L530.63,279.12L533.39,285.09L534.08,285.09L534.77,286.58L534.77,287.33L536.15,289.57L536.84,291.06L536.84,293.3L537.53,293.3L537.53,294.04L538.91,295.53L538.91,296.28L540.28,295.53L542.35,294.79L547.18,291.06L551.32,286.58L554.08,283.6L555.45,282.85L555.45,278.37L556.83,276.88L558.21,274.64L558.9,272.41L559.59,270.91L558.9,269.42L558.9,267.18L558.21,265.69L557.52,265.69L557.52,266.44L556.14,266.44L557.52,263.45L557.52,261.21L558.21,259.72L556.83,257.48L556.83,255.99L557.52,255.99L558.21,256.74L558.9,256.74L559.59,255.99L559.59,255.24L560.28,254.5L560.97,254.5L560.28,253.01L560.28,252.26L560.97,252.26L560.28,250.77L560.28,249.28L560.97,246.91L562.35,243.93L563.04,240.2L561.66,239.45L561.66,237.96L560.97,237.96L560.28,238.71L559.59,239.45L558.9,241.69L558.21,240.94L558.21,240.2L557.52,239.45L556.14,239.45L556.14,240.94L554.77,240.94L554.08,242.44L552.7,241.69L551.32,243.93L549.94,246.91L547.18,248.41L545.11,248.41L543.73,247.66L543.73,248.41L542.35,249.28L541.66,250.02L540.97,250.02L540.28,250.77L539.6,250.77L538.91,251.51L538.91,252.26L539.6,253.01L538.91,254.5L536.84,255.24L535.46,255.24L535.46,255.99L535.46,254.5L536.15,253.75L535.46,252.26L534.77,252.26L534.77,250.77L535.46,250.77L534.77,249.28L534.77,247.66L532.01,245.42L529.94,243.93L528.56,243.18L527.18,242.44L526.49,242.44L525.11,243.18L523.74,243.93L523.74,246.17L521.67,246.17L521.67,245.42L520.29,243.93L520.29,243.18L519.6,241.69L518.1,240.94L518.79,237.96L519.6,237.96L519.6,238.71L523.05,238.71L523.05,239.45L523.74,239.45L522.36,239.45L523.05,240.2L523.05,239.45L523.74,238.71L524.43,237.96L525.11,237.96L526.49,235.72L527.18,234.98L527.87,234.23L526.49,234.23L525.8,234.98L525.11,234.23L524.43,233.48L524.43,232.74L523.05,231.99L520.98,231.99L520.29,232.74L519.6,231.25L518.79,231.25L518.1,232.74L516.73,232.74L516.73,230.5L517.41,229.01L518.1,229.01L518.1,222.29L518.79,220.8L520.98,219.31L525.11,220.05L525.11,219.31L524.43,218.56L524.43,217.82L525.11,217.07L525.11,216.32L524.43,215.58L525.11,215.58L525.8,216.32L526.49,215.58L527.18,213.34L528.56,211.1L529.25,210.36L529.94,210.36L530.63,209.61L532.01,208.12L532.7,206.62L532.7,205.13L530.63,205.13L529.94,204.39L529.94,203.64L531.32,203.64L532.01,202.15L532.01,201.4L532.7,200.66L532.7,201.4L533.39,199.91L534.77,199.16L534.77,198.42L536.15,196.93L535.46,196.93L534.77,196.18L534.77,194.69L535.46,193.94L535.46,193.19L536.15,193.19L538.22,193.94L538.91,192.45L538.22,189.46L537.53,187.23L537.53,184.99L536.84,183.5L536.15,184.24L535.46,184.24L535.46,184.99L536.15,185.73L536.15,186.48L535.46,186.48L534.77,185.73L534.77,184.24L534.08,184.24L532.7,183.5L532.01,182.75L532.01,182L532.7,181.26L532.01,180.51L530.63,180.51L529.25,182L529.25,183.5L530.63,184.24L531.32,184.99L531.32,185.73L530.63,186.48L528.56,186.48L529.25,187.23L530.63,186.48L530.63,187.23L532.01,187.97L532.01,188.72L532.7,188.72L532.01,189.46L530.63,190.96L529.94,191.7L529.94,196.93L531.32,195.43L531.32,197.67L530.63,198.42L530.63,199.91L529.94,200.66L529.94,199.91L529.25,199.91L529.25,200.66L526.49,200.66L526.49,199.91L525.8,200.66L525.11,199.91L524.43,199.16L523.74,199.16L523.05,200.66L521.67,200.66L519.6,199.16L517.41,197.67L516.04,197.67L517.41,196.93L517.41,196.18L516.73,195.43L512.59,195.43L511.21,194.69L509.83,195.43L507.76,196.18L505.69,197.67L502.24,197.67L501.56,196.18L502.24,195.43L504.31,193.19L509.14,190.96L513.28,186.48L513.97,185.73L513.28,184.99L513.28,181.26L511.21,179.02L511.21,176.78L511.9,174.54L510.52,174.54L507.76,176.03L505.69,176.78L502.24,179.77L500.18,182L497.42,182L497.42,182.75L496.04,182.75L493.28,184.24L491.9,184.99L491.21,186.48L488.45,186.48L485.7,187.23L484.32,187.23L483.63,187.97L482.94,189.46L482.94,191.7L482.25,191.7L481.56,193.94L482.94,196.18L483.63,197.67L483.63,199.16L481.56,200.66L479.49,202.15L473.28,205.88L465.7,211.1L461.56,214.83L458.11,217.82L451.22,225.28L447.66,227.52L446.97,228.26L451.91,234.23L451.22,234.23L450.53,234.98L450.53,236.47L449.15,236.47L447.66,237.21L447.66,237.96L446.28,240.2L444.21,242.44L442.83,243.93L442.14,246.17L442.14,247.66L443.52,249.28L442.83,249.28L442.83,250.77L441.45,253.01L440.76,253.75L441.45,255.24L444.21,255.24L444.21,255.99L444.9,256.74L446.97,257.48L448.35,258.98L449.84,261.21L449.84,260.47L450.53,261.21L451.91,262.71L446.97,270.17ZM516.04,208.86L516.04,207.37L516.73,206.62L516.73,205.13L516.04,204.39L515.35,203.64L515.35,204.39L513.28,206.62L513.28,207.37L514.66,208.12L516.04,208.86ZM525.11,207.37L527.18,205.13L526.49,205.13L526.49,204.39L525.11,202.89L524.43,202.89L525.11,202.89L525.11,202.15L524.43,202.15L524.43,201.4L523.74,200.66L523.74,201.4L523.05,202.89L522.36,202.89L520.98,203.64L520.29,205.88L518.79,205.88L518.1,206.62L516.73,206.62L516.73,208.12L519.6,208.12L520.98,206.62L523.05,208.12L523.74,208.86L524.43,208.86L524.43,208.12L525.11,207.37ZM451.22,267.18L451.91,267.18L451.91,266.44L452.6,266.44L452.6,265.69L451.91,265.69L451.22,266.44L451.22,267.18ZM538.91,181.26L540.97,183.5L540.28,183.5L540.28,184.24L538.91,184.99L539.6,185.73L540.28,184.99L541.66,184.99L543.04,187.23L543.04,190.96L544.42,189.46L544.42,188.72L545.11,187.23L546.49,186.48L547.18,185.73L546.49,185.73L545.8,184.99L545.8,184.24L546.49,184.24L546.49,183.5L547.18,182.75L547.87,182.75L547.18,182L547.18,182.75L548.56,182.75L548.56,179.02L547.87,179.02L547.87,179.77L547.18,178.27L546.49,177.53L545.8,176.03L545.8,175.29L546.49,172.3L546.49,170.81L545.8,169.32L544.42,169.32L543.73,170.07L543.73,170.81L541.66,171.56L539.6,173.05L536.15,176.78L536.15,177.53L537.53,178.27L538.22,178.27L538.91,179.02L538.91,181.26Z" style="fill:rgb(146,208,80);stroke:white;stroke-width:0.25px;"/>
                    </g>
                    <g transform="matrix(1,0,0,1,0,184.08)">
                        <path d="M679.14,145.5L679.14,143.26L679.83,142.52L681.9,141.77L684.66,141.77L685.35,140.28L686.04,140.28L686.73,139.53L687.42,137.17L688.8,136.43L688.11,136.43L687.42,134.93L686.04,134.93L684.66,134.19L683.28,133.44L683.28,131.2L682.59,131.2L682.59,129.71L681.9,128.22L681.9,123.74L682.59,121.5L682.59,118.52L683.28,116.28L680.52,116.28L679.14,119.26L677.76,119.26L677.76,120.01L677.07,121.5L677.07,125.23L676.38,127.47L675.69,128.96L674.31,131.2L671.55,131.2L671.55,131.95L670.86,132.69L670.86,133.44L668.8,133.44L668.8,134.19L668.11,134.19L667.42,134.93L666.73,134.93L666.04,135.68L661.9,135.68L658.33,137.17L654.88,134.93L652.81,133.44L651.43,132.69L650.05,132.69L649.36,131.2L646.61,131.2L645.92,131.95L643.85,129.71L642.47,128.96L641.78,128.96L640.4,129.71L638.33,131.2L637.64,131.95L636.26,132.69L636.26,134.19L636.95,135.68L636.95,136.43L636.26,136.43L636.26,137.92L632.12,139.53L630.74,140.28L630.74,141.77L628.67,141.77L627.98,142.52L627.29,142.52L627.29,143.26L623.84,143.26L623.84,142.52L623.84,143.26L621.77,144.01L621.77,144.76L621.08,144.76L619.01,146.25L618.32,146.25L616.25,148.49L614.87,149.23L613.49,150.73L610.73,152.22L608.67,152.22L609.36,152.22L607.98,151.47L607.98,150.73L607.29,150.73L605.91,149.98L601.77,148.49L600.39,147.74L599.7,147.74L599.01,149.23L598.32,149.98L597.63,151.47L595.56,151.47L592.11,152.22L592.11,152.96L591.42,152.96L590.73,154.46L592.11,155.2L593.49,155.95L592.11,156.7L591.42,157.44L589.93,158.19L587.86,158.19L586.48,158.93L586.48,156.7L585.79,155.95L585.1,156.7L583.72,157.44L583.72,158.19L583.72,157.44L581.65,155.95L580.96,156.7L580.27,157.44L576.82,157.44L576.13,158.19L575.44,158.93L574.75,159.68L572.68,161.17L570.61,161.92L569.92,161.92L569.23,162.66L568.54,161.92L567.85,161.17L567.85,160.43L568.54,158.19L568.54,156.7L567.85,156.7L567.85,157.44L567.16,158.93L565.09,158.93L563.71,159.68L562.33,163.41L561.64,164.16L560.95,164.9L560.26,164.9L558.88,164.16L556.81,166.39L555.43,168.63L555.43,173.11L554.05,173.86L551.3,176.84L547.16,181.32L544.4,183.56L542.33,185.05L540.26,185.79L538.88,186.54L538.88,185.79L537.5,184.3L537.5,183.56L536.81,183.56L536.81,181.32L536.12,179.83L534.74,177.59L534.05,175.35L533.36,175.35L530.6,169.38L529.22,165.65L529.22,162.66L527.84,161.17L526.46,161.92L525.08,161.17L524.39,159.68L524.39,158.19L525.08,155.95L525.08,155.2L523.7,154.46L520.94,152.96L518.07,152.22L516.69,152.22L516.69,155.2L514.62,156.7L513.24,156.7L513.24,158.19L514.62,161.92L515.31,161.92L516,162.66L516,164.16L516.69,164.16L520.25,168.63L521.63,170.13L521.63,173.11L520.94,173.86L520.94,175.35L519.56,176.09L519.56,176.84L518.76,177.59L518.07,178.33L517.38,178.33L517.38,179.83L516,180.57L515.31,182.81L516,183.56L516,185.05L515.31,185.79L515.31,188.03L513.93,188.78L513.93,192.51L514.62,193.26L515.31,194L516.69,194L519.56,195.49L523.7,195.49L524.39,196.24L523.7,198.48L523.7,199.22L523.01,200.72L523.01,202.21L523.7,203.7L522.32,205.19L521.63,205.94L521.63,207.43L522.32,208.18L523.7,208.92L523.7,208.18L525.08,208.18L527.15,205.94L528.53,207.43L529.91,208.18L529.91,209.67L530.6,211.16L531.29,211.91L532.67,213.4L532.67,215.64L533.36,216.39L535.43,216.39L535.43,217.13L536.12,217.88L535.43,219.37L536.12,220.86L536.12,222.35L537.5,223.85L538.19,224.59L538.19,225.34L537.5,226.09L537.5,227.58L538.19,229.07L539.57,229.82L538.88,229.82L539.57,230.56L540.26,232.8L540.95,232.8L540.95,233.55L541.64,234.29L542.33,235.04L543.71,236.53L543.02,236.53L543.02,238.89L543.71,238.89L544.4,239.64L545.78,239.64L547.16,237.4L548.54,236.53L550.61,236.53L550.61,238.15L551.98,239.64L551.98,238.89L552.67,238.89L553.36,239.64L554.05,239.64L554.05,236.53L554.74,235.78L555.43,235.78L556.12,235.04L557.5,235.04L557.5,234.29L557.5,235.04L558.88,235.04L558.88,234.29L559.57,234.29L559.57,235.04L560.26,235.78L560.26,235.04L561.64,233.55L563.02,232.05L563.02,230.56L563.71,229.82L564.4,230.56L569.23,232.8L572.68,232.8L574.75,232.05L578.2,232.05L578.89,230.56L579.58,229.82L579.58,229.07L580.96,229.07L581.65,228.32L581.65,229.07L583.03,229.07L583.03,226.09L584.41,224.59L590.73,224.59L589.24,222.35L589.24,220.86L590.73,220.86L592.11,221.61L595.56,222.35L597.63,223.1L601.08,223.1L602.46,222.35L603.15,223.1L607.29,230.56L607.98,231.31L609.36,231.31L610.73,229.82L611.42,229.07L612.11,229.07L613.49,230.56L616.25,232.8L616.25,232.05L616.94,232.05L618.32,231.31L620.39,232.05L622.46,232.8L623.84,232.8L623.84,232.05L624.53,231.31L623.84,229.82L623.84,227.58L624.53,226.83L624.53,225.34L625.22,225.34L624.53,223.85L625.22,223.1L626.6,223.1L627.98,221.61L627.98,220.12L632.81,220.12L636.95,220.86L638.33,218.62L639.02,216.39L639.71,211.16L640.4,206.69L641.09,205.19L641.78,204.45L642.47,203.7L646.61,203.7L648.68,201.46L649.36,201.46L649.36,199.22L650.05,199.22L650.74,198.48L652.81,198.48L654.19,197.73L654.19,196.99L653.5,196.24L653.5,194.75L654.19,193.26L655.57,192.51L655.57,191.76L654.88,191.02L654.19,190.27L653.5,188.03L653.5,186.54L652.81,185.79L652.81,184.3L652.12,184.3L651.43,183.56L650.05,182.06L648.68,179.83L647.3,177.59L650.05,174.6L650.74,173.11L652.81,172.36L659.02,172.36L660.4,170.87L661.21,169.38L661.9,167.14L668.11,162.66L669.48,161.17L670.86,159.68L671.55,158.19L672.24,157.44L671.55,156.7L670.17,155.95L668.8,155.2L669.48,155.2L670.17,154.46L670.86,152.96L672.93,152.96L674.31,152.22L675,150.73L675.69,149.23L678.45,149.23L679.14,148.49L678.45,146.25L679.14,145.5Z" style="fill:rgb(169,209,142);stroke:white;stroke-width:0.25px;"/>
                    </g>
                    <g transform="matrix(1,0,0,1,0,-65.28)">
                        <path d="M491.14,326.14L491.83,324.65L493.21,323.9L495.97,322.42L497.35,322.42L497.35,321.67L500.12,321.67L502.19,319.44L505.64,316.46L507.02,315.72L507.71,315.72L510.48,314.23L511.86,314.23L511.17,316.46L511.17,318.7L513.24,320.93L513.24,323.16L512.55,323.9L512.55,325.39L512.55,324.65L515.31,324.65L515.31,323.16L516,322.42L516,321.67L516.69,320.93L518.07,320.93L520.95,317.21L522.33,315.72L523.71,314.98L525.79,314.23L527.17,313.49L527.17,309.03L529.93,308.28L532.69,306.79L537.53,303.82L540.29,303.82L542.36,305.31L542.36,304.56L543.05,304.56L544.43,300.1L547.89,297.12L549.27,296.38L549.27,294.15L548.58,293.4L549.96,292.66L549.96,291.91L549.27,291.05L548.58,290.3L546.51,289.56L546.51,288.82L545.13,288.07L543.74,288.82L543.74,286.58L544.43,285.1L544.43,284.35L543.74,284.35L542.36,285.84L542.36,285.1L541.67,285.1L540.98,285.84L538.91,285.84L536.84,286.58L532.69,288.07L527.86,291.05L527.86,288.82L529.24,285.84L529.24,283.61L527.17,278.4L517.38,285.1L512.55,289.56L509.79,292.66L509.79,293.4L511.17,294.15L511.17,294.89L511.86,294.89L511.86,295.63L512.55,295.63L511.86,296.38L509.79,297.12L507.02,297.87L504.26,302.33L502.19,303.82L501.5,305.31L499.43,304.56L498.05,303.82L498.05,304.56L498.74,305.31L497.35,305.31L497.35,306.05L495.97,306.05L494.59,306.79L493.21,307.54L490.45,307.54L489.76,308.28L489.07,307.54L488.38,308.28L486.3,309.77L482.85,313.49L482.16,313.49L482.85,314.23L483.54,316.46L485.61,319.44L484.92,323.9L484.92,326.14L485.61,326.88L486.3,326.88L487.69,326.14L491.14,326.14Z" style="fill:rgb(84,130,53);stroke:white;stroke-width:0.25px;"/>
                    </g>
                    <g transform="matrix(1,0,0,1,0,171.36)">
                        <path d="M451.22,177.61L448.35,175.38L446.97,173.14L445.59,173.89L444.9,175.38L444.9,176.87L444.22,178.36L444.22,179.85L444.9,179.85L444.9,181.34L446.28,184.32L445.59,184.32L443.53,185.81L442.15,184.32L440.77,184.32L440.08,185.06L439.39,184.32L438.7,185.06L438.7,186.55L438.01,186.55L437.33,185.81L435.95,185.81L434.57,186.55L433.88,188.04L432.5,188.04L432.5,188.79L429.75,188.79L429.06,189.53L429.75,190.28L430.44,191.02L429.06,191.77L430.44,192.51L431.81,193.26L431.12,194L430.44,196.98L429.06,199.22L427.68,201.45L428.37,202.2L429.75,201.45L430.44,201.45L430.44,199.96L431.12,199.96L432.5,200.71L434.57,201.45L435.26,201.45L435.95,202.2L435.95,201.45L437.33,200.71L437.33,199.96L442.15,199.96L442.15,200.71L443.53,200.71L443.53,201.45L446.28,201.45L447.66,199.96L449.15,199.22L450.53,199.22L451.22,197.73L451.91,196.98L451.91,195.49L453.98,194L456.73,192.51L458.8,191.02L461.56,191.02L462.93,188.79L465,186.55L465,185.81L464.31,185.06L464.31,184.32L463.62,183.57L462.93,182.83L462.93,184.32L460.87,185.81L459.49,184.32L458.8,183.57L458.8,176.12L458.11,175.38L458.11,177.61L457.42,179.1L456.04,179.85L455.35,180.59L454.67,181.34L453.98,182.08L453.29,182.08L453.29,184.32L452.6,184.32L452.6,183.57L453.29,184.32L452.6,184.32L452.6,185.81L451.91,186.55L451.91,188.04L451.22,188.79L451.22,190.28L449.84,190.28L449.15,191.02L448.35,191.77L447.66,191.77L446.97,191.02L446.97,188.79L447.66,186.55L449.15,185.81L449.15,185.06L448.35,185.06L447.66,184.32L448.35,184.32L449.15,182.08L449.84,180.59L451.22,179.1L451.22,177.61ZM451.22,170.16L451.91,170.16L451.91,169.42L452.6,169.42L452.6,168.67L451.91,168.67L451.22,169.42L451.22,170.16ZM455.35,170.91L455.35,167.93L454.67,167.18L453.29,166.44L451.91,166.44L451.91,167.93L452.6,167.93L453.98,168.67L453.98,170.16L455.35,170.91Z" style="fill:rgb(84,130,53);stroke:white;stroke-width:0.25px;"/>
                    </g>
                    <g transform="matrix(1,0,0,1,0,-166.08)">
                        <path d="M529.29,378.4L529.98,379.89L530.66,380.64L533.42,378.4L535.49,376.16L536.18,376.16L537.56,376.91L538.93,376.91L540.31,377.66L540.31,376.16L541,374.67L544.45,374.67L544.45,373.18L545.14,372.43L545.83,372.43L545.83,370.94L546.52,369.45L547.89,369.45L547.89,367.96L548.58,367.21L551.34,367.21L554.79,367.96L556.16,367.96L557.54,367.21L557.54,366.47L556.85,365.72L556.85,364.98L557.54,365.72L556.16,365.72L556.16,364.98L557.54,364.98L557.54,364.23L556.85,364.23L556.16,363.48L558.92,363.48L558.92,361.25L559.61,361.25L558.92,361.25L558.92,359.75L559.61,359.01L561.68,359.75L565.81,360.5L566.5,361.25L573.39,361.25L576.15,359.01L576.15,358.26L583.73,357.52L588.56,358.26L589.93,359.01L591.43,359.75L592.81,359.75L594.18,358.26L594.87,357.52L595.56,357.52L598.32,356.77L598.32,356.02L596.25,356.02L595.56,356.77L595.56,355.28L596.25,354.53L596.94,353.79L597.63,353.04L597.63,352.29L596.94,351.55L595.91,348.56L589.25,347.82L587.29,348.44L586.03,346.33L583.73,347.07L584.42,345.58L584.42,344.83L582.35,343.34L581.66,342.6L581.66,341.85L580.98,341.1L578.91,341.1L577.53,339.61L577.53,338.87L576.15,337.38L572.71,337.38L570.64,338.12L568.57,339.61L567.88,338.87L567.19,338.12L566.5,337.38L566.5,336.63L564.43,336.63L563.75,337.38L563.06,337.38L560.99,335.88L560.3,335.88L560.99,332.15L560.99,330.66L561.68,329.92L563.75,328.42L563.75,327.68L561.68,327.68L560.3,328.42L559.61,328.42L558.23,326.93L556.85,326.19L555.48,326.19L553.41,327.68L552.72,327.68L551.34,328.42L549.96,327.68L548.58,326.19L546.52,325.44L545.14,325.44L544.45,326.19L542.38,326.19L542.38,326.93L541.69,327.68L543.07,330.66L543.07,331.41L543.76,332.9L543.07,332.9L541.69,333.65L540.31,334.39L539.62,335.14L538.93,335.88L538.93,336.63L538.93,335.88L537.56,335.88L537.56,339.61L536.87,339.61L535.49,340.36L534.8,340.36L534.8,341.85L534.11,342.6L534.11,344.09L532.04,344.09L530.66,347.07L530.66,348.56L531.35,348.56L532.04,347.82L538.25,347.82L541,347.07L542.38,347.07L543.76,346.33L545.14,346.33L546.52,347.07L547.89,347.82L547.89,350.8L549.27,350.8L548.58,351.55L547.89,352.29L547.2,353.04L546.52,353.04L543.76,353.79L543.76,357.52L543.07,358.26L541.69,358.26L540.31,359.01L537.56,359.01L536.87,359.75L536.18,359.75L536.87,362.74L537.56,365.72L537.56,367.21L534.11,369.45L531.35,372.43L527.91,374.67L525.84,377.66L525.84,378.4L526.53,378.4L527.22,379.15L527.22,378.4L527.91,377.66L528.6,377.66L529.29,378.4Z" style="fill:rgb(84,130,53);stroke:white;stroke-width:0.25px;"/>
                    </g>
                    <g transform="matrix(1,0,0,1,0,-62.28)">
                        <path d="M646.59,339.64L646.59,337.4L647.28,338.15L647.28,336.66L646.59,335.16L645.9,333.67L645.22,332.92L645.22,331.43L645.9,330.68L647.28,329.94L646.59,329.19L647.97,329.19L647.97,327.7L648.66,326.95L648.66,325.46L647.97,325.46L647.97,323.22L649.35,322.47L649.35,321.73L650.04,320.98L652.11,320.98L652.11,321.73L652.8,322.47L654.86,318.74L655.55,318L656.24,317.25L656.93,315.76L657.62,315.01L656.93,313.52L656.24,312.77L656.93,312.77L657.62,312.02L659.69,311.28L660.38,312.02L660.38,311.28L661.18,311.28L663.59,310.78L664.63,309.79L667.38,307.55L668.76,306.8L670.14,307.55L671.52,306.8L672.9,306.8L675.65,309.04L679.1,305.31L680.48,305.31L680.48,306.8L681.16,307.55L681.85,306.8L682.54,306.8L683.23,307.55L684.61,307.55L685.3,306.8L685.3,305.31L685.99,305.31L687.37,306.05L689.43,306.05L689.43,308.29L690.81,307.55L692.88,306.8L692.88,303.81L691.5,302.32L690.12,300.08L688.06,298.59L685.99,297.1L683.92,297.1L682.54,297.84L681.16,297.1L681.16,295.6L681.85,294.86L683.23,294.86L683.23,293.37L683.92,291.13L685.3,289.63L686.68,288.89L688.75,288.89L689.43,289.63L690.12,290.38L692.19,291.13L691.5,288.89L691.5,288.02L690.81,287.27L689.43,288.02L688.06,288.89L688.06,288.02L687.37,287.27L687.37,285.78L686.68,285.78L685.99,286.52L684.61,287.27L683.92,287.27L682.54,284.28L681.16,282.79L679.79,282.79L679.1,283.54L677.72,281.3L677.03,279.06L676.34,277.57L675.65,275.33L674.96,270.85L673.58,266.37L672.9,266.37L672.9,265.62L672.21,264.88L672.21,261.89L671.52,261.15L668.76,261.15L668.76,260.4L668.07,261.15L667.38,261.15L667.38,262.64L666,262.64L665.31,263.39L665.31,266.37L663.94,266.37L663.25,267.12L663.25,270.1L661.18,270.1L660.38,270.85L659.69,270.85L659,269.36L658.31,269.36L657.62,268.61L659,268.61L658.31,268.61L657.62,267.86L658.31,267.86L659,267.12L661.18,267.12L660.38,266.37L655.55,266.37L655.55,267.12L654.86,267.86L650.73,264.13L649.35,264.13L648.66,265.62L645.9,267.12L645.22,267.86L644.53,267.12L643.84,263.39L643.15,261.89L642.46,261.15L640.39,261.89L639.01,261.89L639.01,261.15L639.7,261.15L638.32,261.15L638.32,262.64L636.95,264.13L635.57,266.37L635.57,267.12L636.26,267.86L634.88,267.86L633.5,266.37L632.81,266.37L632.12,267.12L628.68,266.37L627.99,266.37L626.61,267.12L626.61,267.86L625.92,268.61L625.92,269.36L626.61,270.1L627.3,272.34L627.99,273.83L630.05,277.57L630.05,278.31L629.37,279.81L629.37,280.55L630.05,282.05L630.74,282.79L630.74,284.28L630.05,285.03L628.68,286.52L628.68,287.27L629.37,288.02L630.05,288.89L630.05,290.38L629.37,293.37L628.68,295.6L627.99,296.35L628.68,297.84L629.37,299.34L630.05,300.83L630.74,300.83L630.74,302.32L631.43,303.07L631.43,304.56L636.26,304.56L636.26,307.55L636.95,309.04L636.26,308.29L636.26,309.04L635.57,309.79L635.57,311.28L633.5,313.52L632.81,316.5L630.05,316.5L628.68,317.25L628.68,318.74L629.37,319.49L628.68,320.23L628.68,320.98L627.3,322.47L626.61,323.97L625.92,323.97L625.92,324.71L626.61,325.46L627.99,327.7L627.3,328.45L627.3,329.19L627.99,329.19L627.99,332.18L629.37,332.18L634.19,335.16L634.19,335.91L635.57,337.4L636.26,339.64L636.95,340.39L638.32,341.88L639.01,341.88L640.39,341.13L641.08,340.39L642.46,340.39L643.15,339.64L644.53,339.64L644.53,340.39L645.9,339.64L646.59,339.64Z" style="fill:rgb(84,130,53);stroke:white;stroke-width:0.25px;"/>
                    </g>
                    <g transform="matrix(1,0,0,1,0,-66.72)">
                        <path d="M689.51,312.73L688.82,314.22L690.09,314.84L692.96,314.96L695.03,314.96L697.33,314.72L700.54,312.73L701.23,313.47L702.61,313.47L702.61,319.43L704.68,319.43L705.37,320.18L707.44,319.43L709.5,319.43L710.19,320.18L711.57,320.92L712.26,323.15L712.95,325.39L714.33,325.39L715.71,322.41L717.78,322.41L719.16,321.66L719.85,322.41L720.54,323.15L721.91,322.41L723.29,321.66L723.98,322.41L725.36,323.15L725.36,325.39L726.05,326.88L726.74,326.13L727.43,326.13L727.43,330.6L728.12,329.86L729.5,329.11L730.88,329.11L730.88,328.37L732.37,327.62L733.75,327.62L735.13,326.13L737.2,324.64L739.26,324.64L739.26,320.18L738.57,318.69L738.57,317.94L737.2,317.94L736.51,315.71L736.51,314.96L735.82,313.47L735.82,312.73L735.13,311.98L734.44,311.24L733.06,309.75L732.37,309.01L732.37,308.26L733.75,308.26L733.06,308.26L733.06,306.77L734.44,306.03L733.75,306.03L735.13,306.03L736.51,305.28L737.88,304.54L739.95,299.33L740.64,299.33L739.26,297.84L738.57,297.09L739.26,295.6L739.26,294.86L740.64,292.5L740.64,289.52L742.02,287.29L742.71,285.8L743.4,285.06L742.14,283.57L740.64,283.57L739.95,282.82L739.26,282.82L739.26,280.59L739.95,280.59L740.64,278.35L739.95,278.35L739.95,277.61L733.06,277.61L730.88,278.35L727.43,279.84L723.98,276.86L720.54,276.12L717.78,276.86L715.02,277.61L712.26,280.59L710.88,281.33L710.77,284.19L712.26,285.06L712.95,288.03L712.26,288.03L711.57,289.52L711.57,291.01L710.19,291.76L710.19,293.37L708.82,294.11L708.82,294.86L708.13,295.6L707.44,297.09L703.3,297.84L700.54,297.84L699.16,297.09L694.34,297.09L695.03,297.84L692.27,295.6L690.2,294.86L690.2,294.11L689.51,294.11L688.82,293.37L686.76,293.37L685.38,294.11L684,295.6L683.31,297.84L683.31,299.33L681.93,299.33L681.24,300.07L681.24,301.56L682.62,302.31L684,301.56L686.07,301.56L688.13,303.05L690.2,304.54L691.58,306.77L692.96,308.26L692.96,311.24L690.89,311.98L690.2,311.98L689.51,312.73Z" style="fill:rgb(84,130,53);stroke:white;stroke-width:0.25px;"/>
                    </g>
                    <g transform="matrix(1,0,0,1,0,-7.68)">
                        <path d="M645.24,285.76L648,285.76L650.75,286.5L652.13,287.25L652.82,288.74L654.19,289.48L654.88,290.97L656.26,290.23L657.64,289.48L659.7,288.74L661.89,288.74L662.57,289.48L663.26,290.23L663.95,290.23L664.64,289.48L664.64,288.74L665.33,288.74L665.33,289.48L666.71,289.48L667.4,290.23L668.08,291.72L669.46,290.97L671.53,290.97L671.53,290.23L672.22,289.48L672.22,288.74L672.91,289.48L674.97,287.25L676.35,286.5L677.73,285.76L678.42,286.5L677.73,285.01L677.04,285.76L676.35,285.01L675.66,284.27L675.66,283.52L674.28,282.78L673.59,280.54L674.97,280.54L674.97,279.05L674.28,277.56L674.28,276.82L674.97,276.07L674.97,270.86L675.66,270.11L675.66,268.62L676.35,267.13L675.66,265.64L675.66,264.9L675.66,265.64L675.66,263.41L674.97,263.41L674.28,264.15L673.59,264.9L673.59,264.15L672.91,264.15L672.22,263.41L670.84,262.66L670.84,261.92L671.53,261.17L672.91,260.43L672.91,255.96L665.33,255.96L660.39,256.7L660.39,257.45L659.7,256.7L657.64,257.45L656.95,258.19L656.26,258.19L656.95,258.94L657.64,260.43L656.95,261.17L656.26,262.66L655.57,263.41L654.88,264.15L652.82,267.88L652.13,267.13L652.13,266.39L650.06,266.39L649.37,267.13L649.37,267.88L648,268.62L648,270.86L648.68,270.86L648.68,272.35L648,273.09L648,274.58L646.62,274.58L647.31,275.33L645.93,276.07L645.24,276.82L645.24,278.31L646.62,280.54L647.31,282.03L647.31,283.52L646.62,282.78L646.62,285.01L645.24,285.76ZM681.17,288.74L681.17,290.23L681.86,290.23L682.55,289.48L683.24,288.74L684.61,288.74L687.37,289.48L690.81,289.48L690.81,287.99L690.12,287.25L689.44,286.5L689.44,285.76L690.12,285.01L688.75,285.76L688.06,285.01L688.75,284.27L689.44,283.52L690.12,282.03L690.81,280.54L690.81,279.05L692.19,278.31L692.19,277.56L692.88,277.56L692.19,276.82L692.19,276.07L683.93,276.07L683.93,274.58L683.24,273.84L681.86,273.84L681.17,274.58L679.79,275.33L679.1,276.82L679.1,276.07L679.79,275.33L679.79,274.58L680.48,273.84L679.79,273.09L679.79,272.35L679.1,272.35L678.42,273.09L677.73,273.84L678.42,276.07L678.42,279.05L679.1,280.54L679.79,280.54L679.1,280.54L678.42,281.29L679.1,282.03L679.79,282.03L680.48,282.78L680.48,283.52L679.79,284.27L683.24,286.5L683.93,287.99L683.93,288.74L683.24,287.99L682.55,287.99L681.17,288.74Z" style="fill:rgb(84,130,53);stroke:white;stroke-width:0.25px;"/>
                    </g>
                    <g transform="matrix(1,0,0,1,0,-15.96)">
                        <path d="M672.83,264.18L672.83,268.66L671.45,269.4L670.76,270.15L670.76,270.89L672.14,271.64L672.83,272.39L673.52,272.39L673.52,273.13L674.22,272.39L674.91,271.64L675.6,271.64L675.6,273.88L675.6,273.13L675.6,273.88L676.29,275.37L675.6,276.86L675.6,278.35L674.91,279.1L674.91,284.32L674.22,285.07L674.22,285.81L674.91,287.3L674.91,288.8L673.52,288.8L674.22,291.03L675.6,291.78L675.6,292.52L676.98,294.02L677.68,293.27L678.37,294.76L679.06,294.76L679.75,296.25L680.44,295.51L681.13,296.25L682.52,296.25L683.9,297L683.9,296.25L683.21,294.76L679.75,292.52L680.44,291.78L680.44,291.03L679.75,290.29L679.06,290.29L678.37,289.54L679.06,288.8L679.75,288.8L679.06,288.8L678.37,287.3L678.37,284.32L677.68,282.08L678.37,281.34L679.06,280.59L679.75,280.59L680.44,282.08L679.75,282.83L679.75,283.57L679.06,284.32L679.06,285.07L679.75,283.57L681.13,282.83L681.83,282.08L683.21,282.08L683.9,282.83L683.9,284.32L685.28,284.32L688.97,284.2L688.74,282.83L688.74,281.34L690.13,279.84L688.05,277.61L688.05,276.12L690.13,276.12L690.13,274.62L690.82,273.88L691.51,273.13L692.2,274.62L694.28,273.88L695.66,273.13L697.04,272.39L697.04,271.64L696.35,271.64L697.04,270.89L698.43,270.89L697.74,270.15L697.04,268.66L697.74,267.91L697.74,266.42L698.43,265.67L699.12,264.18L699.12,262.69L697.74,263.44L697.04,264.18L690.82,264.18L688.74,263.44L689.44,261.2L689.44,259.71L687.36,259.71L685.98,258.96L685.28,258.96L685.28,260.45L684.59,261.2L683.21,261.2L682.52,260.45L681.83,260.45L681.13,261.2L680.44,260.45L680.44,258.96L679.06,258.96L675.6,262.69L674.22,261.2L672.83,260.45L671.45,260.45L670.07,261.2L668.68,260.45L667.99,261.2L665.22,261.2L664.53,261.94L663.84,262.69L663.84,263.44L664.53,264.18L672.83,264.18Z" style="fill:rgb(84,130,53);stroke:white;stroke-width:0.25px;"/>
                    </g>
                    <g transform="matrix(1,0,0,1,0,-43.68)">
                        <path d="M733.74,321.72L735.81,320.97L738.57,320.97L740.64,320.23L743.4,320.23L744.09,319.48L744.09,317.99L745.47,316.5L746.16,316.5L747.54,313.52L746.85,312.77L746.85,312.03L747.54,311.28L748.23,309.79L749.61,309.79L750.99,310.54L752.37,310.54L752.37,311.28L753.06,312.03L753.06,313.52L753.75,313.52L754.44,312.77L755.82,312.77L755.13,312.03L756.51,312.03L757.2,311.28L757.89,310.54L758.58,309.05L761.34,309.05L761.34,309.79L765.48,305.32L766.17,304.57L767.55,304.57L767.55,303.83L768.24,303.83L767.55,301.59L767.55,300.1L766.86,299.36L766.86,297.12L767.55,297.12L767.55,296.37L768.24,296.37L767.55,296.37L767.55,294.14L768.24,293.39L767.55,292.65L766.86,292.65L767.55,292.65L767.55,291.9L768.24,290.41L768.24,289.67L767.55,288.92L766.86,287.43L766.86,286.68L766.17,285.94L764.79,284.45L764.1,283.7L762.72,284.45L761.34,285.19L761.34,285.94L761.34,285.19L760.65,285.19L759.96,285.94L759.96,285.19L758.58,285.19L758.58,284.45L757.2,283.7L757.2,282.96L757.89,282.21L759.27,281.47L760.65,280.72L761.34,280.72L762.03,279.97L762.03,276.25L762.72,275.5L762.03,274.01L762.03,270.28L762.72,269.41L760.65,268.67L758.58,267.92L754.44,267.92L754.44,268.67L749.61,268.67L746.16,264.94L744.09,261.96L743.4,261.96L742.02,264.2L740.64,266.43L740.64,269.41L739.95,270.28L739.26,271.78L739.26,272.52L738.57,274.01L739.26,274.76L740.64,276.25L739.95,276.25L737.88,281.47L736.5,282.21L735.12,282.96L734.43,282.96L733.05,283.7L733.05,285.19L733.74,285.19L732.36,285.19L732.36,285.94L733.05,286.68L734.43,288.17L735.81,289.67L736.5,291.9L736.5,292.65L737.19,294.88L738.57,294.88L739.26,297.12L739.26,301.59L737.19,301.59L736.5,302.34L736.5,303.83L737.19,305.32L737.88,305.32L737.88,306.07L738.57,306.81L738.57,309.79L737.19,309.79L736.5,310.54L735.12,311.28L735.12,312.03L733.05,312.77L732.36,313.52L731.67,313.52L729.48,315.01L729.48,315.76L730.86,316.5L730.17,317.99L729.48,318.74L730.86,318.74L732.36,319.48L733.05,320.23L733.74,321.72Z" style="fill:rgb(84,130,53);stroke:white;stroke-width:0.25px;"/>
                    </g>
                    <g transform="matrix(1,0,0,1,0,-103.32)">
                        <path d="M687.39,326.83L687.39,328.33L688.08,329.08L688.08,329.95L689.46,329.08L690.84,328.33L691.53,329.08L691.53,329.95L692.22,332.2L694.98,334.44L694.98,333.69L699.12,333.69L700.5,334.44L703.26,334.44L707.4,333.69L708.09,332.2L708.78,331.45L708.78,330.7L710.16,329.95L710.16,328.33L711.54,327.58L711.54,326.09L712.23,324.59L712.92,324.59L712.23,322.35L708.78,322.35L708.78,320.85L708.78,321.6L706.71,321.6L705.33,320.1L705.33,319.35L706.02,320.1L703.26,316.36L701.88,314.12L699.81,313.37L698.43,312.62L697.05,313.37L694.52,313.37L692.91,314.12L688.77,314.12L688.77,313.37L688.08,312.62L686.7,311.87L684.63,311.87L684.63,308.88L683.48,308.88L682.56,310.38L682.79,312.99L683.13,314.74L683.25,319.35L683.25,324.59L683.94,328.33L684.63,328.33L686.01,327.58L686.7,326.83L687.39,326.83Z" style="fill:rgb(169,209,142);stroke:white;stroke-width:0.25px;"/>
                    </g>
                    <text x="584.42px" y="149.21px" style="font-family:'ArialNarrow-Bold', 'Arial Narrow', sans-serif;font-weight:700;font-stretch:condensed;font-size:8.04px;">BS</text>
                    <text x="706.34px" y="182.16px" style="font-family:'ArialNarrow-Bold', 'Arial Narrow', sans-serif;font-weight:700;font-stretch:condensed;font-size:8.04px;">ZH</text>
                    <text x="545.3px" y="294.12px" style="font-family:'ArialNarrow-Bold', 'Arial Narrow', sans-serif;font-weight:700;font-stretch:condensed;font-size:8.04px;">FR</text>
                    <text x="601.22px" y="196.32px" style="font-family:'ArialNarrow-Bold', 'Arial Narrow', sans-serif;font-weight:700;font-stretch:condensed;font-size:8.04px;">SO</text>
                    <text x="615.94px" y="174.58px" style="font-family:'ArialNarrow-Bold', 'Arial Narrow', sans-serif;font-weight:700;font-stretch:condensed;font-size:8.04px;">BL</text>
                    <text x="697.13px" y="135.17px" style="font-family:'ArialNarrow-Bold', 'Arial Narrow', sans-serif;font-weight:700;font-stretch:condensed;font-size:8.04px;">SH</text>
                    <g>
                        <text x="768.07px" y="193.34px" style="font-family:'ArialNarrow-Bold', 'Arial Narrow', sans-serif;font-weight:700;font-stretch:condensed;font-size:8.04px;">AR</text>
                        <text x="781.18px" y="202.3px" style="font-family:'ArialNarrow-Bold', 'Arial Narrow', sans-serif;font-weight:700;font-stretch:condensed;font-size:8.04px;">AI</text>
                        <text x="761.88px" y="219.43px" style="font-family:'ArialNarrow-Bold', 'Arial Narrow', sans-serif;font-weight:700;font-stretch:condensed;font-size:8.04px;">SG</text>
                    </g>
                    <text x="803.86px" y="304.56px" style="font-family:'ArialNarrow-Bold', 'Arial Narrow', sans-serif;font-weight:700;font-stretch:condensed;font-size:8.04px;">GR</text>
                    <text x="657.65px" y="184.39px" style="font-family:'ArialNarrow-Bold', 'Arial Narrow', sans-serif;font-weight:700;font-stretch:condensed;font-size:8.04px;">AG</text>
                    <text x="596.62px" y="278.47px" style="font-family:'ArialNarrow-Bold', 'Arial Narrow', sans-serif;font-weight:700;font-stretch:condensed;font-size:8.04px;">BE</text>
                    <text x="747.82px" y="158.28px" style="font-family:'ArialNarrow-Bold', 'Arial Narrow', sans-serif;font-weight:700;font-stretch:condensed;font-size:8.04px;">TG</text>
                    <text x="719.69px" y="363.6px" style="font-family:'ArialNarrow-Bold', 'Arial Narrow', sans-serif;font-weight:700;font-stretch:condensed;font-size:8.04px;">TI</text>
                    <text x="493.99px" y="305.3px" style="font-family:'ArialNarrow-Bold', 'Arial Narrow', sans-serif;font-weight:700;font-stretch:condensed;font-size:8.04px;">VD</text>
                    <text x="596.5px" y="377.76px" style="font-family:'ArialNarrow-Bold', 'Arial Narrow', sans-serif;font-weight:700;font-stretch:condensed;font-size:8.04px;">VS</text>
                    <text x="511.42px" y="243.43px" style="font-family:'ArialNarrow-Bold', 'Arial Narrow', sans-serif;font-weight:700;font-stretch:condensed;font-size:8.04px;">NE</text>
                    <text x="436.44px" y="370.32px" style="font-family:'ArialNarrow-Bold', 'Arial Narrow', sans-serif;font-weight:700;font-stretch:condensed;font-size:8.04px;">GE</text>
                    <text x="554.66px" y="187.37px" style="font-family:'ArialNarrow-Bold', 'Arial Narrow', sans-serif;font-weight:700;font-stretch:condensed;font-size:8.04px;">JU</text>
                    <text x="648.31px" y="233.74px" style="font-family:'ArialNarrow-Bold', 'Arial Narrow', sans-serif;font-weight:700;font-stretch:condensed;font-size:8.04px;">LU</text>
                    <text x="699.24px" y="285.94px" style="font-family:'ArialNarrow-Bold', 'Arial Narrow', sans-serif;font-weight:700;font-stretch:condensed;font-size:8.04px;">UR</text>
                    <text x="716.06px" y="242.69px" style="font-family:'ArialNarrow-Bold', 'Arial Narrow', sans-serif;font-weight:700;font-stretch:condensed;font-size:8.04px;">SZ</text>
                    <text x="656.95px" y="271.75px" style="font-family:'ArialNarrow-Bold', 'Arial Narrow', sans-serif;font-weight:700;font-stretch:condensed;font-size:8.04px;">OW</text>
                    <text x="677.5px" y="261.31px" style="font-family:'ArialNarrow-Bold', 'Arial Narrow', sans-serif;font-weight:700;font-stretch:condensed;font-size:8.04px;">NW</text>
                    <text x="744.84px" y="256.85px" style="font-family:'ArialNarrow-Bold', 'Arial Narrow', sans-serif;font-weight:700;font-stretch:condensed;font-size:8.04px;">GL</text>
                    <text x="694.01px" y="225.41px" style="font-family:'ArialNarrow-Bold', 'Arial Narrow', sans-serif;font-weight:700;font-stretch:condensed;font-size:8.04px;">ZG</text>
                </g>
            </g>
        </g>
    </g>
</svg>
