<?xml version="1.0" encoding="UTF-8" standalone="no"?>
<!DOCTYPE svg PUBLIC "-//W3C//DTD SVG 1.1//EN" "http://www.w3.org/Graphics/SVG/1.1/DTD/svg11.dtd">
<svg width="100%" height="100%" viewBox="0 0 726 395" version="1.1" xmlns="http://www.w3.org/2000/svg" xmlns:xlink="http://www.w3.org/1999/xlink" xml:space="preserve" xmlns:serif="http://www.serif.com/" style="fill-rule:evenodd;clip-rule:evenodd;stroke-linejoin:round;stroke-miterlimit:2;">
    <g transform="matrix(1,0,0,1,-118,-2159)">
        <g transform="matrix(2.66667,0,0,2.66667,0,1620)">
            <rect id="Page-5" serif:id="Page 5" x="0" y="0" width="960" height="540" style="fill:none;"/>
            <g id="Page-51" serif:id="Page 5">
                <g>
                    <text x="115.1px" y="217.37px" style="font-family:'Helvetica-Bold', 'Helvetica';font-weight:700;font-size:12.024px;fill:rgb(255,0,0);">M<tspan x="124.274px 130.777px 138.619px 145.797px 152.3px 154.799px 160.645px 166.49px 172.336px 178.181px 180.68px 183.179px 189.682px 192.181px 200.023px 203.861px 209.706px 212.869px " y="217.37px 217.37px 217.37px 217.37px 217.37px 217.37px 217.37px 217.37px 217.37px 217.37px 217.37px 217.37px 217.37px 217.37px 217.37px 217.37px 217.37px 217.37px ">uKEn 2014 in Kraft</tspan></text>
                    <text x="115.1px" y="248.88px" style="font-family:'Helvetica-Bold', 'Helvetica';font-weight:700;font-size:12px;fill:rgb(255,0,0);">Z<tspan x="121.77px 124.444px 130.458px 133.132px 135.94px 145.276px 151.946px 159.952px 167.296px 173.966px 176.773px 182.787px 188.801px 194.815px 200.829px 203.636px 213.646px 216.32px 219.656px 222.464px 228.478px 231.152px 234.488px 240.502px 244.512px 251.182px 257.196px 260.532px 263.206px 269.22px 275.233px 285.243px 288.051px 298.717px 304.731px " y="248.88px 248.88px 248.88px 248.88px 248.88px 248.88px 248.88px 248.88px 248.88px 248.88px 248.88px 248.88px 248.88px 248.88px 248.88px 248.88px 248.88px 248.88px 248.88px 248.88px 248.88px 248.88px 248.88px 248.88px 248.88px 248.88px 248.88px 248.88px 248.88px 248.88px 248.88px 248.88px 248.88px 248.88px 248.88px ">iel MuKEn 2014 mit alternativem Weg</tspan></text>
                    <text x="115.1px" y="280.39px" style="font-family:'Helvetica-Bold', 'Helvetica';font-weight:700;font-size:12px;fill:rgb(255,0,0);">M<tspan x="124.256px 130.746px 138.572px 145.736px 152.226px 154.72px 160.554px 166.388px 172.222px 178.055px 180.549px 183.043px 189.534px 192.027px 199.854px 203.683px 209.517px 212.673px " y="280.39px 280.39px 280.39px 280.39px 280.39px 280.39px 280.39px 280.39px 280.39px 280.39px 280.39px 280.39px 280.39px 280.39px 280.39px 280.39px 280.39px 280.39px ">uKEn 2008 in Kraft</tspan></text>
                    <text x="115.1px" y="311.9px" style="font-family:'Helvetica-Bold', 'Helvetica';font-weight:700;font-size:12px;fill:rgb(255,0,0);">U<tspan x="122.806px 132.516px 138.23px 143.944px 146.98px 152.02px 158.39px 164.76px 171.13px 173.504px 182.54px 188.91px 196.616px 203.66px 210.03px 212.404px 218.118px 223.832px 229.546px 235.259px 237.633px 243.347px 249.717px 253.427px 259.797px 265.511px 271.225px 276.939px 283.309px 289.023px " y="311.9px 311.9px 311.9px 311.9px 311.9px 311.9px 311.9px 311.9px 311.9px 311.9px 311.9px 311.9px 311.9px 311.9px 311.9px 311.9px 311.9px 311.9px 311.9px 311.9px 311.9px 311.9px 311.9px 311.9px 311.9px 311.9px 311.9px 311.9px 311.9px 311.9px ">msetzung MuKEn 2014 vorgesehen</tspan></text>
                    <text x="115.1px" y="343.42px" style="font-family:'Helvetica-Bold', 'Helvetica';font-weight:700;font-size:12px;fill:rgb(255,0,0);">K<tspan x="122.746px 128.4px 130.714px 137.024px 142.678px 144.992px 152.638px 162.288px 167.941px 173.595px 176.571px 181.551px 187.861px 194.172px 200.482px 202.796px 208.449px 214.76px 218.409px 224.72px 230.373px 236.027px 241.681px 247.991px 253.645px " y="343.42px 343.42px 343.42px 343.42px 343.42px 343.42px 343.42px 343.42px 343.42px 343.42px 343.42px 343.42px 343.42px 343.42px 343.42px 343.42px 343.42px 343.42px 343.42px 343.42px 343.42px 343.42px 343.42px 343.42px 343.42px ">eine Umsetzung vorgesehen</tspan></text>
                </g>
                <g transform="matrix(1,0,0,1,0,-114.87)">
                    <rect x="48.347" y="319.56" width="66" height="15.75" style="fill:rgb(84,130,53);"/>
                </g>
                <g transform="matrix(1,0,0,1,0,-51.87)">
                    <rect x="48.347" y="288.06" width="66" height="15.75" style="fill:rgb(146,208,80);"/>
                </g>
                <g transform="matrix(1,0,0,1,0,11.13)">
                    <rect x="48.347" y="256.56" width="66" height="15.75" style="fill:rgb(0,176,80);"/>
                </g>
                <g transform="matrix(1,0,0,1,0,74.13)">
                    <rect x="48.347" y="225.06" width="66" height="15.75" style="fill:rgb(169,208,142);"/>
                </g>
                <g transform="matrix(1,0,0,1,0,137.13)">
                    <rect x="48.347" y="193.56" width="66" height="15.75" style="fill:rgb(255,0,0);"/>
                </g>
            </g>
        </g>
    </g>
</svg>
